<?xml version="1.0" encoding="utf-8" ?>
<svg baseProfile="full" height="200mm" version="1.1" viewBox="0,0,200,200" width="200mm" xmlns="http://www.w3.org/2000/svg" xmlns:ev="http://www.w3.org/2001/xml-events" xmlns:xlink="http://www.w3.org/1999/xlink"><defs /><rect fill="#1a1a1a" height="200" width="200" x="0" y="0" /><text alignment-baseline="middle" fill="#e1ed5e" style="dominant-baseline: central; font-size:9.0px; font-family:Arial;" text-anchor="middle" x="100.0" y="100.0">2024</text><line stroke="#e1ed5e" stroke-width="0.3" x1="100.0" x2="100.0" y1="15.0" y2="10.0" /><path d="M 100.0 14.0 a86.0,86.0 0 0,1 42.35913384403234,11.155469271406648" fill="none" id="id109" stroke="none" /><text fill="#e1ed5e" style="font-size:6.75px; font-family:Arial;" text-anchor="middle"><textPath startOffset="22.145653131862478" xlink:href="#id109">January</textPath></text><path d="M 100.0 79.0 l 0.0 -22.819328791319705 a43.819328791319705,43.819328791319705 0 0,0 0.7522170476617368,0.0064568786615814 l -0.39172412281288205 22.81596631085256" fill="#ffca12" stroke="none" /><path d="M 102.15924093988457 79.11130261209362 l 1.732017923853913 -16.755702253287392 a37.8449827571705,37.8449827571705 0 0,0 0.6456427917348135,0.07234562149587671 l -2.0193966171895235 16.723500871284546" fill="#ff6e0a" stroke="none" /><path d="M 102.87502721639298 79.19773525538626 l 3.253116631215962 -23.537931405241515 a44.76167045167803,44.76167045167803 0 0,0 0.7602554324369525,0.11173136773457579 l -3.6566971692605965 23.47861896420806" fill="#ffd814" stroke="none" /><path d="M 103.23170211078529 79.25015418208739 l 3.7055799821904376 -23.79248168938157 a45.079317015728826,45.079317015728826 0 0,0 0.7636060575951078,0.12565108619109114 l -4.113463542838616 23.72536460469481" fill="#ffdd14" stroke="none" /><path d="M 103.94208987418118 79.37332000966035 l 3.8656619394516967 -20.226776740463865 a41.592858945243506,41.592858945243506 0 0,0 0.7001534197123217,0.1400502928826078 l -4.212311844694976 20.1574370509184" fill="#ffa80f" stroke="none" /><path d="M 104.9986988182912 79.60360301121754 l 6.0754645406937335 -24.789968583388553 a46.52359323744638,46.52359323744638 0 0,0 0.7740522484427904,0.19676105464638613 l -6.500122082361919 24.6820222969069" fill="#fff216" stroke="none" /><path d="M 105.69591212413111 79.78721728523813 l 6.136675784169853 -21.77689745086927 a43.62503154176129,43.62503154176129 0 0,0 0.7190651370341603,0.20930938162305165 l -6.5096009335856175 21.668344374943704" fill="#ffc712" stroke="none" /><path d="M 106.38641147887787 79.99465700312896 l 9.94641464771882 -31.157002218666804 a53.706114896122465,53.706114896122465 0 0,0 0.875863009580944,0.28791356809917296 l -10.479800394947505 30.98166772916561" fill="#a9ff21" stroke="none" /><path d="M 107.40779381753099 80.34994680014964 l 17.697954040974878 -46.94592573711414 a71.17108251324755,71.17108251324755 0 0,0 1.1395091452055146,0.44078661680999465 l -18.501235448673917 46.6351992321661" fill="#3aff95" stroke="none" /><path d="M 108.07796709384702 80.6158196554323 l 9.170747289204412 -22.006455000763598 a44.84086130036168,44.84086130036168 0 0,0 0.7079836574451236,0.30219612405275564 l -9.547166021819965 21.845784227051443" fill="#ffd914" stroke="none" /><path d="M 109.06512990194946 81.05736502329252 l 27.195389705848374 -56.82790493012246 a84.0,84.0 0 0,0 1.2953590029517317,0.6336249996111154 l -28.166908958062173 56.352686180414125" fill="#4dd2ff" stroke="none" /><path d="M 109.3889696526874 81.21577127319529 l 9.111778270056954 -18.22966027839791 a41.38001514004542,41.38001514004542 0 0,0 0.6326664965023121,0.3230440210413424 l -9.423371988272846 18.070558305683733" fill="#ffa50f" stroke="none" /><path d="M 109.71004243097381 81.37971332152246 l 4.726931525752049 -9.064514469913522 a31.22297922449323,31.22297922449323 0 0,0 0.4731191044617924,0.25190927458636686 l -4.8818394460004 8.982034727604582" fill="#ff0000" stroke="none" /><line stroke="#e1ed5e" stroke-width="0.3" x1="143.13028292997686" x2="145.6673583964461" y1="26.7553504044142" y2="22.446841604673864" /><path d="M 143.63769802327073 25.89364864446614 a86.0,86.0 0 0,1 29.32050498858742,28.57503671076993" fill="none" id="id110" stroke="none" /><text fill="#e1ed5e" style="font-size:6.75px; font-family:Arial;" text-anchor="middle"><textPath startOffset="20.669276256404974" xlink:href="#id110">February</textPath></text><path d="M 110.65571695917076 81.90426304109057 l 15.094777447516813 -25.634232139439224 a50.74838085625369,50.74838085625369 0 0,0 0.7468886752578954,0.44848518963769385 l -15.532598879332143 25.371332949265607" fill="#d1ff1c" stroke="none" /><path d="M 110.96478420261332 82.08984904055464 l 12.463000363530584 -20.357374462988037 a44.86941710825133,44.86941710825133 0 0,0 0.6534608224761819,0.4078078829786058 l -12.810625314796479 20.140430783167886" fill="#ffda14" stroke="none" /><path d="M 111.27062007382361 82.28071324371311 l 32.323994277668476 -50.81868787723884 a81.22773151652788,81.22773151652788 0 0,0 1.170121706805714,0.758458753342068 l -33.1916016167312 50.25631528219287" fill="#49f0ff" stroke="none" /><path d="M 111.8722381534696 82.67804972795209 l 18.010072438127764 -26.27723392476408 a52.856800403734546,52.856800403734546 0 0,0 0.7440347459139369,0.5193940372982998 l -18.458502275215462 25.96419507166065" fill="#b5ff20" stroke="none" /><path d="M 112.45986205192187 83.09580414077388 l 13.264388990144209 -17.995691164797027 a43.355959290100095,43.355959290100095 0 0,0 0.5953124416288978,0.4467335545282681 l -13.571354420683873 17.765338583004745" fill="#ffc312" stroke="none" /><path d="M 113.03279911837588 83.53348406188908 l 21.896724904496445 -27.665796607264333 a56.28261418117588,56.28261418117588 0 0,0 0.7524428844646321,0.6061147250876305 l -22.368418559316336 27.285833588383294" fill="#88ff25" stroke="none" /><path d="M 113.31354834802062 83.75963576809568 l 39.78573651336322 -48.5321294760354 a83.7556564891917,83.7556564891917 0 0,0 1.104081684539442,0.9210642092686441 l -40.61299253206455 47.84200308285489" fill="#4dd5ff" stroke="none" /><path d="M 113.86319453409587 84.22622945171908 l 15.408602375169274 -17.53216098481791 a44.34098746740685,44.34098746740685 0 0,0 0.5674273370323152,0.5073970237048848 l -15.707294739024963 17.26506843122964" fill="#ffd213" stroke="none" /><path d="M 114.39649973595853 84.71141617570332 l 17.884927385270817 -18.993173100139447 a47.08852721002607,47.08852721002607 0 0,0 0.5837352015642714,0.5592051184741011 l -18.2083350727004 18.683355851359767" fill="#fffa17" stroke="none" /><path d="M 114.91283532996326 85.21462403516908 l 17.643113029367743 -17.492318097624423 a45.84473042308016,45.84473042308016 0 0,0 0.5492923462918998,0.563622337310044 l -17.940792176810454 17.186873068246637" fill="#ffe815" stroke="none" /><path d="M 115.41159269507618 85.73525988315684 l 46.06193940863589 -42.634243451806924 a83.76448818235345,83.76448818235345 0 0,0 0.9676884486115394,1.0636591190893867 l -46.787025558089304 41.83724675715986" fill="#4dd5ff" stroke="none" /><path d="M 116.1254893667686 86.54754324733833 l 12.226472900595041 -10.199758543253703 a36.92236521154008,36.92236521154008 0 0,0 0.40184400049193,0.4901843416796301 l -12.399763720325598 9.988371919875577" fill="#ff5f08" stroke="none" /><path d="M 116.57777611688842 87.10902102172516 l 18.61868269521732 -14.47800027789649 a44.58533097821516,44.58533097821516 0 0,0 0.46463864398029336,0.6082269000710521 l -18.86447331655192 14.156252464584554" fill="#ffd513" stroke="none" /><path d="M 116.7966241395341 87.39550010848427 l 36.18641873983993 -27.154963240923397 a66.24211455967702,66.24211455967702 0 0,0 0.6747168820386555,0.9153830336146032 l -36.64723764146241 26.52977389803992" fill="#33ff53" stroke="none" /><path d="M 117.01052211995028 87.68569379921539 l 13.184859653659842 -9.54482160186702 a37.27710488687022,37.27710488687022 0 0,0 0.3707916372086766,0.5215648732429005 l -13.346766389398478 9.317079501914614" fill="#ff6509" stroke="none" /><line stroke="#e1ed5e" stroke-width="0.3" x1="172.87174338648825" x2="177.1583165268699" y1="56.24261187166439" y2="53.66864786411523" /><path d="M 173.72905801456457 55.72781907015455 a86.0,86.0 0 0,1 12.242430191666344,42.057860355516425" fill="none" id="id111" stroke="none" /><text fill="#e1ed5e" style="font-size:6.75px; font-family:Arial;" text-anchor="middle"><textPath startOffset="22.145653131862474" xlink:href="#id111">March</textPath></text><line stroke="#e1ed5e" stroke-width="0.3" x1="184.99686870605535" x2="189.99668451229388" y1="99.2704041080226" y2="99.22748670261217" /><path d="M 185.99683186730306 99.26182062694052 a86.0,86.0 0 0,1 -10.086455211305974,41.156179273409016" fill="none" id="id112" stroke="none" /><text fill="#e1ed5e" style="font-size:6.75px; font-family:Arial;" text-anchor="middle"><textPath startOffset="21.40746469413373" xlink:href="#id112">April</textPath></text><line stroke="#e1ed5e" stroke-width="0.3" x1="174.33088141563837" x2="178.70328620479359" y1="141.23008692659167" y2="143.65538615756765" /><path d="M 175.20536237346943 141.71514677278685 a86.0,86.0 0 0,1 -30.301960400862466,31.631185727798858" fill="none" id="id113" stroke="none" /><text fill="#e1ed5e" style="font-size:6.75px; font-family:Arial;" text-anchor="middle"><textPath startOffset="22.145653131862474" xlink:href="#id113">May</textPath></text><line stroke="#e1ed5e" stroke-width="0.3" x1="143.1302829299769" x2="145.66735839644613" y1="173.24464959558577" y2="177.55315839532614" /><path d="M 143.63769802327073 174.10635135553383 a86.0,86.0 0 0,1 -40.68552437913181,11.842963189579606" fill="none" id="id114" stroke="none" /><text fill="#e1ed5e" style="font-size:6.75px; font-family:Arial;" text-anchor="middle"><textPath startOffset="21.407464694133747" xlink:href="#id114">June</textPath></text><line stroke="#e1ed5e" stroke-width="0.3" x1="101.45913802915013" x2="101.54496967792366" y1="184.9874750549273" y2="189.98673829345242" /><path d="M 101.47630435890484 185.9873277026323 a86.0,86.0 0 0,1 -42.54439059252881,-10.42667462771756" fill="none" id="id115" stroke="none" /><text fill="#e1ed5e" style="font-size:6.75px; font-family:Arial;" text-anchor="middle"><textPath startOffset="22.145653131862474" xlink:href="#id115">July</textPath></text><line stroke="#e1ed5e" stroke-width="0.3" x1="58.13341422392154" x2="55.67067388415222" y1="173.97424548756322" y2="178.32567169271397" /><path d="M 57.64086615596768 174.84453072859336 a86.0,86.0 0 0,1 -31.369924170532247,-30.572349798747897" fill="none" id="id116" stroke="none" /><text fill="#e1ed5e" style="font-size:6.75px; font-family:Arial;" text-anchor="middle"><textPath startOffset="22.145653131862474" xlink:href="#id116">August</textPath></text><line stroke="#e1ed5e" stroke-width="0.3" x1="26.387840678322732" x2="22.057713659400548" y1="142.50000000000003" y2="145.00000000000006" /><path d="M 25.521815274538298 143.00000000000003 a86.0,86.0 0 0,1 -11.493303480769221,-40.785679425670985" fill="none" id="id117" stroke="none" /><text fill="#e1ed5e" style="font-size:6.75px; font-family:Arial;" text-anchor="middle"><textPath startOffset="21.40746469413373" xlink:href="#id117">September</textPath></text><line stroke="#e1ed5e" stroke-width="0.3" x1="15.003131293944662" x2="10.003315487706104" y1="100.72959589197737" y2="100.7725132973878" /><path d="M 14.003168132696942 100.73817937305945 a86.0,86.0 0 0,1 10.791469493833604,-42.45332614584628" fill="none" id="id118" stroke="none" /><text fill="#e1ed5e" style="font-size:6.75px; font-family:Arial;" text-anchor="middle"><textPath startOffset="22.145653131862435" xlink:href="#id118">October</textPath></text><line stroke="#e1ed5e" stroke-width="0.3" x1="26.387840678322718" x2="22.05771365940052" y1="57.49999999999999" y2="54.99999999999999" /><path d="M 25.521815274538284 56.99999999999999 a86.0,86.0 0 0,1 29.574782752854787,-30.34633250058573" fill="none" id="id119" stroke="none" /><text fill="#e1ed5e" style="font-size:6.75px; font-family:Arial;" text-anchor="middle"><textPath startOffset="21.40746469413373" xlink:href="#id119">November</textPath></text><line stroke="#e1ed5e" stroke-width="0.3" x1="56.869717070023135" x2="54.33264160355391" y1="26.7553504044142" y2="22.446841604673864" /><path d="M 56.362301976729285 25.89364864446614 a86.0,86.0 0 0,1 42.16139366436587,-11.88097634709845" fill="none" id="id120" stroke="none" /><text fill="#e1ed5e" style="font-size:6.75px; font-family:Arial;" text-anchor="middle"><textPath startOffset="22.145653131862474" xlink:href="#id120">December</textPath></text></svg>