<?xml version="1.0" encoding="utf-8" ?>
<svg baseProfile="full" height="200mm" version="1.1" viewBox="0,0,200,200" width="200mm" xmlns="http://www.w3.org/2000/svg" xmlns:ev="http://www.w3.org/2001/xml-events" xmlns:xlink="http://www.w3.org/1999/xlink"><defs /><rect fill="#1a1a1a" height="200" width="200" x="0" y="0" /><text alignment-baseline="middle" fill="#e1ed5e" style="dominant-baseline: central; font-size:9.0px; font-family:Arial;" text-anchor="middle" x="100.0" y="100.0">2024</text><line stroke="#e1ed5e" stroke-width="0.3" x1="100.0" x2="100.0" y1="15.0" y2="10.0" /><path d="M 100.0 14.0 a86.0,86.0 0 0,1 42.35913384403234,11.155469271406648" fill="none" id="id109" stroke="none" /><text fill="#e1ed5e" style="font-size:6.75px; font-family:Arial;" text-anchor="middle"><textPath startOffset="22.145653131862478" xlink:href="#id109">January</textPath></text><path d="M 100.0 79.0 l 0.0 -11.518279681485396 a32.518279681485396,32.518279681485396 0 0,0 0.5582195120681789,0.004791643139643707 l -0.1977265872193241 11.516582436540187" fill="#ff890c" stroke="none" /><path d="M 102.15924093988457 79.11130261209362 l 0.8742530090492324 -8.457604804155048 a29.502670012831157,29.502670012831157 0 0,0 0.5033213082150556,0.056398202413281105 l -1.0193102188650847 8.441350841234796" fill="#ff5f08" stroke="none" /><path d="M 102.87502721639298 79.19773525538626 l 1.6420424780018257 -11.881001388275749 a32.993935863084005,32.993935863084005 0 0,0 0.5603861233120191,0.08235746217087501 l -1.8457537069215268 11.851062852805992" fill="#ff8f0d" stroke="none" /><path d="M 103.23170211078529 79.25015418208739 l 1.870427785466634 -12.009488137055236 a33.15427107706242,33.15427107706242 0 0,0 0.5616057186660957,0.09241200729046621 l -2.0763110071858 11.9756101312691" fill="#ff910d" stroke="none" /><path d="M 103.94208987418118 79.37332000966035 l 1.951230721107588 -10.209663644456063 a31.394447222431882,31.394447222431882 0 0,0 0.5284784489496456,0.10571049069210402 l -2.1262056555881905 10.174663757101099" fill="#ff7a0b" stroke="none" /><path d="M 104.9986988182912 79.60360301121754 l 3.066650225105527 -12.51297941538587 a33.8832836440486,33.8832836440486 0 0,0 0.5637447596844357,0.14330171340504969 l -3.2810002780153575 12.458492470145552" fill="#ff9b0e" stroke="none" /><path d="M 105.69591212413111 79.78721728523813 l 3.0975471997035546 -10.992102253662834 a32.42020624198052,32.42020624198052 0 0,0 0.5343776089135699,0.15554953385202241 l -3.285784820998729 10.937309025508297" fill="#ff880c" stroke="none" /><path d="M 106.38641147887787 79.99465700312896 l 5.0205502005838225 -15.726801996375038 a37.50873179107857,37.50873179107857 0 0,0 0.6117089418149372,0.20108087925801557 l -5.289781880046502 15.638300195715" fill="#ffcb12" stroke="none" /><path d="M 107.40779381753099 80.34994680014964 l 8.93321562164292 -23.69641576626986 a46.32434523360254,46.32434523360254 0 0,0 0.7416918947315715,0.28690235823878485 l -9.338679778868018 23.539573519893036" fill="#c7ff1e" stroke="none" /><path d="M 108.07796709384702 80.6158196554323 l 4.629024505114353 -11.107973675073143 a33.03390821948826,33.03390821948826 0 0,0 0.5215659664581686,0.22262549685153574 l -4.819025546742951 11.026873528562206" fill="#ff900d" stroke="none" /><path d="M 109.06512990194946 81.05736502329252 l 13.727139283698213 -28.684441540059783 a52.79986697109216,52.79986697109216 0 0,0 0.8142236075673572,0.39827756772649064 l -14.217523140527637 28.44457022223607" fill="#7eff26" stroke="none" /><path d="M 109.3889696526874 81.21577127319529 l 4.599259315204751 -9.201599552083431 a31.28701222733791,31.28701222733791 0 0,0 0.4783527590529816,0.24425032717080322 l -4.7565392959713115 9.121291273239795" fill="#ff780b" stroke="none" /><path d="M 109.71004243097381 81.37971332152246 l 2.3859649793710602 -4.5754024492188865 a26.16014887916069,26.16014887916069 0 0,0 0.39640247400179196,0.2110619899478118 l -2.4641562691594117 4.5337699915485015" fill="#ff3004" stroke="none" /><line stroke="#e1ed5e" stroke-width="0.3" x1="143.13028292997686" x2="145.6673583964461" y1="26.7553504044142" y2="22.446841604673864" /><path d="M 143.63769802327073 25.89364864446614 a86.0,86.0 0 0,1 29.32050498858742,28.57503671076993" fill="none" id="id110" stroke="none" /><text fill="#e1ed5e" style="font-size:6.75px; font-family:Arial;" text-anchor="middle"><textPath startOffset="20.669276256404974" xlink:href="#id110">February</textPath></text><path d="M 110.65571695917076 81.90426304109057 l 7.619236742686929 -12.939129713337493 a36.015786568797644,36.015786568797644 0 0,0 0.5300618988206701,0.318286940326441 l -7.840231398065033 12.806428772475131" fill="#ffb711" stroke="none" /><path d="M 110.96478420261332 82.08984904055464 l 6.29082148604676 -10.275584123868706 a33.04832204317307,33.04832204317307 0 0,0 0.4813029697196182,0.3003686501187724 l -6.466288584556091 10.166079676908387" fill="#ff900d" stroke="none" /><path d="M 111.27062007382361 82.28071324371311 l 16.31585266673336 -25.651230383200772 a51.40053730470224,51.40053730470224 0 0,0 0.7404476687801004,0.47994923306831955 l -16.753785967770465 25.36736730842856" fill="#8dff24" stroke="none" /><path d="M 111.8722381534696 82.67804972795209 l 9.090760439241206 -13.263691161520114 a37.08003198354592,37.08003198354592 0 0,0 0.5219542606557204,0.36436461094840056 l -9.317109791070688 13.105681734766588" fill="#ffc512" stroke="none" /><path d="M 112.45986205192187 83.09580414077388 l 6.695330243482622 -9.083501350688948 a32.28438938787833,32.28438938787833 0 0,0 0.44329081832550904,0.33265369428268704 l -6.850274050718897 8.967228629142246" fill="#ff860c" stroke="none" /><path d="M 113.03279911837588 83.53348406188908 l 11.052586334374402 -13.964581773972988 a38.80924503736131,38.80924503736131 0 0,0 0.5188412213015787,0.4179417610375697 l -11.29067832603124 13.772791719142012" fill="#ffdb14" stroke="none" /><path d="M 113.31354834802062 83.75963576809568 l 20.082240134474194 -24.497067637488037 a52.67653219110876,52.67653219110876 0 0,0 0.6943912427545799,0.579285871586225 l -20.499805711390664 24.14871958198994" fill="#80ff26" stroke="none" /><path d="M 113.86319453409587 84.22622945171908 l 7.777642948267265 -8.849529952904474 a32.781592006943924,32.781592006943924 0 0,0 0.41950286898443434,0.3751220522289361 l -7.928410844075075 8.714712370792151" fill="#ff8c0c" stroke="none" /><path d="M 114.39649973595853 84.71141617570332 l 9.027592248242145 -9.586990126085087 a34.168439599215034,34.168439599215034 0 0,0 0.4235707115583277,0.4057711601157473 l -9.190835445665785 9.43060683566376" fill="#ff9f0e" stroke="none" /><path d="M 114.91283532996326 85.21462403516908 l 8.905534083965666 -8.829418865404513 a33.54062099026341,33.54062099026341 0 0,0 0.401869663749924,0.41235367779249493 l -9.055790548866401 8.675242495544277" fill="#ff970d" stroke="none" /><path d="M 115.41159269507618 85.73525988315684 l 23.250215009922673 -21.52005190762884 a52.68099007472262,52.68099007472262 0 0,0 0.6085966340025685,0.6689543112070364 l -23.616209344767118 21.117760020864132" fill="#80ff26" stroke="none" /><path d="M 116.1254893667686 86.54754324733833 l 6.1714319327712 -5.148428012900452 a29.036969771303497,29.036969771303497 0 0,0 0.31602341909063025,0.38549718660138965 l -6.258902171100458 5.041728544600567" fill="#ff5908" stroke="none" /><path d="M 116.57777611688842 87.10902102172516 l 9.39796242674423 -7.307912426103869 a32.90492678692732,32.90492678692732 0 0,0 0.34291324583906424,0.4488844464664085 l -9.5220276499376 7.145507066396578" fill="#ff8e0d" stroke="none" /><path d="M 116.7966241395341 87.39550010848427 l 18.265449239478507 -13.706733629623198 a43.83640038870858,43.83640038870858 0 0,0 0.4465008338980744,0.6057641341507937 l -18.498052092960407 13.39116318620353" fill="#e5ff1a" stroke="none" /><path d="M 117.01052211995028 87.68569379921539 l 6.655187032046081 -4.817842177812348 a29.21602809646011,29.21602809646011 0 0,0 0.2906089119178558,0.40877782856356953 l -6.736911042493898 4.702887122539274" fill="#ff5b08" stroke="none" /><path d="M 117.42321728460499 88.27688183743584 l 7.35874164996063 -4.951289792298921 a29.86940523813118,29.86940523813118 0 0,0 0.28258670689476034,0.42787229131783705 l -7.442652795776115 4.824237622642024" fill="#ff6509" stroke="none" /><path d="M 117.62189284568427 88.57770195909679 l 10.077158362542598 -6.531892301826797 a33.00894407125066,33.00894407125066 0 0,0 0.30412603313797487,0.4781366380843322 l -10.187802087306462 6.357941989063793" fill="#ff8f0d" stroke="none" /><path d="M 117.81537515405839 88.88188828441811 l 15.067776431517022 -9.403406901193181 a38.76124849045211,38.76124849045211 0 0,0 0.3474337477908459,0.5675069163565313 l -15.22697814376327 9.143362868712094" fill="#ffdb14" stroke="none" /><line stroke="#e1ed5e" stroke-width="0.3" x1="172.87174338648825" x2="177.1583165268699" y1="56.24261187166439" y2="53.66864786411523" /><path d="M 173.72905801456457 55.72781907015455 a86.0,86.0 0 0,1 12.242430191666344,42.057860355516425" fill="none" id="id111" stroke="none" /><text fill="#e1ed5e" style="font-size:6.75px; font-family:Arial;" text-anchor="middle"><textPath startOffset="22.145653131862474" xlink:href="#id111">March</textPath></text><path d="M 118.18653347947321 89.5 l 28.72882727063022 -16.586596158200624 a54.17319231640124,54.17319231640124 0 0,0 0.4580643555082485,0.8093558253042555 l -29.009324991159847 16.090983562797252" fill="#6fff27" stroke="none" /><path d="M 118.36410011445183 89.81374322990088 l 6.6063772488871635 -3.6644460963457557 a28.554626764284095,28.554626764284095 0 0,0 0.23408627559379747,0.43069238140589117 l -6.668308874096303 3.5504988814652614" fill="#ff5207" stroke="none" /><path d="M 118.53625476483649 90.13048839642627 l 12.792555096545255 -6.811315045379032 a35.49287682089214,35.49287682089214 0 0,0 0.2817321988051877,0.5402586389917832 l -12.907595364325386 6.59071016328275" fill="#ffb110" stroke="none" /><path d="M 118.8641267826498 90.77261029715802 l 12.989065069247234 -6.353602615719932 a35.45973988602913,35.45973988602913 0 0,0 0.2627748111243981,0.5490982900457174 l -13.096219138331543 6.129691823609112" fill="#ffb010" stroke="none" /><path d="M 119.16976305983485 91.42560881287824 l 11.485092070223809 -5.137135598537619 a33.5816335195109,33.5816335195109 0 0,0 0.23085952698764642,0.5282517766848186 l -11.571585479228427 4.939221752076952" fill="#ff970d" stroke="none" /><path d="M 119.31412917781788 91.75594674310238 l 23.965222294910845 -10.229328337492076 a47.05707270360027,47.05707270360027 0 0,0 0.3107428483693846,0.7456697141245907 l -24.137290987816712 9.816426113926207" fill="#bfff1e" stroke="none" /><path d="M 119.4528033332814 92.08871423366111 l 13.997027222937005 -5.692469118341732 a36.11029370141143,36.11029370141143 0 0,0 0.2285976329537165,0.5762153660696366 l -14.092683530856846 5.4513527350585305" fill="#ffb911" stroke="none" /><path d="M 119.71291397450082 92.76114493625339 l 4.147138312626546 -1.5228866322476013 a25.41791125745339,25.41791125745339 0 0,0 0.1468911137163183,0.4108805882722572 l -4.1726695963868075 1.4514710875944274" fill="#ff2503" stroke="none" /><path d="M 120.05942366710727 93.78553927170692 l 8.987394716727897 -2.784317856966051 a30.408809155407955,30.408809155407955 0 0,0 0.15019588523363342,0.49995325337849994 l -9.033866921965158 2.629626999996828" fill="#ff6c09" stroke="none" /><path d="M 120.16314734710363 94.1308016681162 l 7.945830831960635 -2.312915551404392 a29.27561514076534,29.27561514076534 0 0,0 0.13631494256705867,0.4837336417481213 l -7.984364266602276 2.176173985753258" fill="#ff5c08" stroke="none" /><path d="M 120.26092885502905 94.47779374421319 l 23.21790965035742 -6.328144520663087 a45.064844516567284,45.064844516567284 0 0,0 0.19702032250095936,0.7481182555182829 l -23.32311945366311 5.928645760772006" fill="#d6ff1c" stroke="none" /><path d="M 120.35273937422433 94.82641323984039 l 8.92784610598145 -2.2694235680698633 a30.211770699675448,30.211770699675448 0 0,0 0.12345460819341855,0.5037369304174847 l -8.96548824069116 2.1158308130442838" fill="#ff6909" stroke="none" /><path d="M 120.51834098615036 95.52812308129327 l 4.831708074746901 -1.0530482865049344 a25.94513029285229,25.94513029285229 0 0,0 0.0911073000359521,0.43598141188591766 l -4.84907308560722 0.9699504233336123" fill="#ff2d04" stroke="none" /><path d="M 120.86939407059847 97.66154086499901 l 4.765816911939753 -0.5340197255256535 a25.795642595667598,25.795642595667598 0 0,0 0.045532512162829684,0.4404857514101041 l -4.774281816584248 0.452129451832618" fill="#ff2b04" stroke="none" /><path d="M 120.9064616781168 98.02013634271609 l 10.334538264950856 -0.9786915184697691 a31.380776379349385,31.380776379349385 0 0,0 0.04618410070561883,0.5367292567844418 l -10.349815988354216 0.8011412143096653" fill="#ff790b" stroke="none" /><path d="M 120.93736805541906 98.37931529534042 l 16.666612740318293 -1.2901012331264416 a37.716469167484334,37.716469167484334 0 0,0 0.04442647838302286,0.6459512454174308 l -16.686303179866382 1.0038065635546767" fill="#ffcd13" stroke="none" /><path d="M 120.98066250479742 99.09900007780936 l 34.23634491914841 -1.4702559607539205 a55.267899935844206,55.267899935844206 0 0,0 0.03256940765394995,0.9482227675038926 l -34.256539013799205 0.882326928685908" fill="#64ff29" stroke="none" /><line stroke="#e1ed5e" stroke-width="0.3" x1="184.99686870605535" x2="189.99668451229388" y1="99.2704041080226" y2="99.22748670261217" /><path d="M 185.99683186730306 99.26182062694052 a86.0,86.0 0 0,1 -10.086455211305974,41.156179273409016" fill="none" id="id112" stroke="none" /><text fill="#e1ed5e" style="font-size:6.75px; font-family:Arial;" text-anchor="middle"><textPath startOffset="21.40746469413373" xlink:href="#id112">April</textPath></text><path d="M 120.99922638620191 99.81974689727618 l 13.617738376881226 -0.1168919058907367 a34.61824005585327,34.61824005585327 0 0,0 0.0,0.5942900172291254 l -13.617738376881226 -0.11689190589073505" fill="#ffa50f" stroke="none" /><path d="M 120.99303781780057 100.54070618675476 l 13.332080327861547 0.34338709710100207 a34.33650181145747,34.33650181145747 0 0,0 -0.02023452177857892,0.58910602378339 l -13.324221119086122 -0.5721993854485028" fill="#ffa10e" stroke="none" /><path d="M 120.96210409425399 101.26102812881392 l 4.032295832248859 0.24257290419422853 a25.03958553475734,25.03958553475734 0 0,0 -0.029494293342781287,0.4288405520964408 l -4.027537577741012 -0.3117568804450128" fill="#ff2003" stroke="none" /><path d="M 120.93736805541906 101.62068470465957 l 34.65919426197859 2.6828408359414087 a55.762873613102876,55.762873613102876 0 0,0 -0.0820680195878453,0.9537547876037088 l -34.608032619693 -3.277416670920775" fill="#5fff29" stroke="none" /><path d="M 120.86939407059847 102.33845913500097 l 12.69196127197614 1.4221607334227773 a33.77139076534078,33.77139076534078 0 0,0 -0.06950138347560425,0.5755711568574226 l -12.665677802240873 -1.6398255672036086" fill="#ff9a0e" stroke="none" /><path d="M 120.77682067341334 103.0534771498775 l 14.871200714991081 2.1855543871817504 a36.03094337308476,36.03094337308476 0 0,0 -0.09518776072330097,0.6111737069357845 l -14.831491462129513 -2.4405162760489856" fill="#ffb811" stroke="none" /><path d="M 120.51834098615036 104.47187691870673 l 43.525880096408336 9.486262983001703 a65.54763095327948,65.54763095327948 0 0,0 -0.2490470952713505,1.0973474540385337 l -43.35662213957932 -10.232044770979254" fill="#36ff6c" stroke="none" /><path d="M 120.43855184770803 104.8234425847677 l 5.231748243434679 1.2346783401386792 a26.375464657710015,26.375464657710015 0 0,0 -0.10777827912191029,0.43977215824533744 l -5.2097824377964725 -1.3243063229921161" fill="#ff3304" stroke="none" /><path d="M 120.26092885502905 105.52220625578681 l 11.024736546316317 3.004840970524304 a32.42689306740131,32.42689306740131 0 0,0 -0.1509881191174694,0.5358035688967963 l -10.971529935124268 -3.193652463324109" fill="#ff880c" stroke="none" /><path d="M 120.05942366710727 106.21446072829308 l 7.601912550045739 2.3550919401359924 a28.95836242357914,28.95836242357914 0 0,0 -0.1511837283302077,0.4735808757069006 l -7.560364105938277 -2.485241849534277" fill="#ff5808" stroke="none" /><path d="M 119.94978838288452 106.5578916946017 l 13.32144145394968 4.379022403361849 a35.02271869575062,35.02271869575062 0 0,0 -0.19264926597758494,0.5695333233314929 l -13.244306766399731 -4.607057401167502" fill="#ffaa0f" stroke="none" /><path d="M 119.83427380445688 106.89939002012753 l 26.233321548142793 9.125310997944496 a48.77514104838101,48.77514104838101 0 0,0 -0.28187346779591443,0.7884502563578746 l -26.072807910302934 -9.574296210683292" fill="#abff21" stroke="none" /><path d="M 119.31412917781788 108.2440532568976 l 4.721567676111775 2.0153564791632763 a26.13369876971847,26.13369876971847 0 0,0 -0.17965812571058362,0.41109295050906447 l -4.6862756683842255 -2.0961114994481855" fill="#ff3004" stroke="none" /><path d="M 118.8641267826498 109.22738970284198 l 56.592380347949444 27.682169108525912 a84.0,84.0 0 0,0 -0.6447203471530707,1.2898725753450169 l -56.10884008758464 -28.649573540034673" fill="#4dd2ff" stroke="none" /><line stroke="#e1ed5e" stroke-width="0.3" x1="174.33088141563837" x2="178.70328620479359" y1="141.23008692659167" y2="143.65538615756765" /><path d="M 175.20536237346943 141.71514677278685 a86.0,86.0 0 0,1 -30.301960400862466,31.631185727798858" fill="none" id="id113" stroke="none" /><text fill="#e1ed5e" style="font-size:6.75px; font-family:Arial;" text-anchor="middle"><textPath startOffset="22.145653131862474" xlink:href="#id113">May</textPath></text><path d="M 117.423217284605 111.72311816256416 l 3.5374677349269623 2.3801661642278673 a25.26366848441392,25.26366848441392 0 0,0 -0.24519023441994753,0.3577398796176345 l -3.4960877636916945 -2.4405407789155458" fill="#ff2303" stroke="none" /><path d="M 117.01052211995028 112.31430620078461 l 8.791813698336252 6.3645951122564135 a31.853757830779678,31.853757830779678 0 0,0 -0.3244502127937902,0.4401790261223502 l -8.681261465958633 -6.514580447647641" fill="#ff800b" stroke="none" /><path d="M 116.1254893667686 113.45245675266167 l 15.00297170580966 12.51601259616566 a40.53816089893577,40.53816089893577 0 0,0 -0.4503701582450016,0.5305349139729567 l -14.785906984057544 -12.771714292588173" fill="#fff116" stroke="none" /><path d="M 115.89218393027572 113.72728997021213 l 3.2558570552490247 2.812331778631063 a25.302303475734018,25.302303475734018 0 0,0 -0.2867461087422344,0.32626443449149595 l -3.2070998825482047 -2.8678084909338524" fill="#ff2403" stroke="none" /><path d="M 115.6541949942343 113.99807769240083 l 3.1056353195525164 2.7770782530415645 a25.166189429390897,25.166189429390897 0 0,0 -0.2907321626961434,0.31956557558172716 l -3.057505456014493 -2.829981404180963" fill="#ff2203" stroke="none" /><path d="M 115.16444852881244 114.52719865689866 l 13.408673448187615 12.845205846899217 a39.568571212921725,39.568571212921725 0 0,0 -0.4740940369893011,0.4864622473561027 l -13.186192610047508 -13.073490786323058" fill="#ffe515" stroke="none" /><path d="M 114.91283532996324 114.78537596483092 l 4.107072683864109 4.071969709462866 a26.78350960449845,26.78350960449845 0 0,0 -0.32651404123944255,0.32372333970734934 l -4.036566722494702 -4.141873059398877" fill="#ff3905" stroke="none" /><path d="M 113.59037401385872 116.0094264158162 l 7.788064405000116 9.174320286280738 a33.03420541172919,33.03420541172919 0 0,0 -0.4354626623111745,0.363278440666258 l -7.629427408527047 -9.306660910858866" fill="#ff900d" stroke="none" /><path d="M 112.7482090630111 116.68781488649013 l 5.624639687707078 7.362833904568168 a30.2654138991622,30.2654138991622 0 0,0 -0.41556864939057,0.31185046189323434 l -5.497418049405741 -7.4583033937254175" fill="#ff6a09" stroke="none" /><path d="M 111.5731344415666 117.5232005979908 l 2.3523352245971445 3.561735346846595 a25.2684235602687,25.2684235602687 0 0,0 -0.36400291319984607,0.23594229057770885 l -2.290846679140289 -3.6015914791281984" fill="#ff2303" stroke="none" /><path d="M 111.27062007382361 117.71928675628689 l 4.7648015906672105 7.491059513037189 a29.87802381311797,29.87802381311797 0 0,0 -0.4351319734726942,0.2715545336685726 l -4.635505488404802 -7.571749843547309" fill="#ff6509" stroke="none" /><path d="M 110.96478420261333 117.91015095944535 l 5.124768327923442 8.370923922371151 a30.815070948750847,30.815070948750847 0 0,0 -0.4535204302198782,0.2723259876466837 l -4.980315141146127 -8.457663910553759" fill="#ff720a" stroke="none" /><line stroke="#e1ed5e" stroke-width="0.3" x1="143.1302829299769" x2="145.66735839644613" y1="173.24464959558577" y2="177.55315839532614" /><path d="M 143.63769802327073 174.10635135553383 a86.0,86.0 0 0,1 -40.68552437913181,11.842963189579606" fill="none" id="id114" stroke="none" /><text fill="#e1ed5e" style="font-size:6.75px; font-family:Arial;" text-anchor="middle"><textPath startOffset="21.407464694133747" xlink:href="#id114">June</textPath></text><path d="M 110.65571695917076 118.09573695890943 l 8.343754519457859 14.169519293009735 a37.44364669031625,37.44364669031625 0 0,0 -0.5566756441662282,0.3213968330106814 l -8.099286407431233 -14.310663023296588" fill="#ffca12" stroke="none" /><path d="M 110.02825361518725 118.45085714620011 l 5.795088695313072 10.662310484933233 a33.13539936976375,33.13539936976375 0 0,0 -0.5020978415637146,0.26733881985928437 l -5.611202037962803 -10.760219772515086" fill="#ff910d" stroke="none" /><path d="M 108.4095320186766 119.2426549942271 l 14.88647119156365 34.06315935114776 a58.173994263718015,58.173994263718015 0 0,0 -0.9184979064326396,0.392052138994501 l -14.29953820996058 -34.31368613980167" fill="#46ff2c" stroke="none" /><path d="M 107.74402155503746 119.51999308798841 l 5.470249055091044 13.788601049992257 a35.83405351347271,35.83405351347271 0 0,0 -0.5737334637390821,0.2219324289728429 l -5.232743328858432 -13.880473367103141" fill="#ffb510" stroke="none" /><path d="M 107.407793817531 119.65005319985036 l 2.0105291413400455 5.333167412635815 a26.699552796437466,26.699552796437466 0 0,0 -0.43025801487132515,0.15799670275524233 l -1.9186819748145933 -5.366894964399779" fill="#ff3805" stroke="none" /><path d="M 106.72888874123015 119.89276391827305 l 4.451733932552419 13.160760350310227 a34.89329147482829,34.89329147482829 0 0,0 -0.5690551875599451,0.18705974302318792 l -4.22515600734474 -13.235241014735434" fill="#ffa90f" stroke="none" /><path d="M 106.0420521117495 120.11202640906438 l 9.827640714192036 32.713019670628945 a55.15734442222055,55.15734442222055 0 0,0 -0.9091505959700414,0.2646404883841211 l -9.264630105840387 -32.87690385331558" fill="#65ff29" stroke="none" /><path d="M 105.3480935250658 120.30758222061773 l 3.6110681491208956 13.711813938710836 a35.17933900671749,35.17933900671749 0 0,0 -0.5853083255607809,0.14878308752714556 l -3.3751545303347177 -13.771782258073252" fill="#ffac10" stroke="none" /><path d="M 104.29559338865022 120.5559693870025 l 2.823268947029399 13.510363946399314 a34.80220205298513,34.80220205298513 0 0,0 -0.5858428922377109,0.11718498593464664 l -2.5909295692607293 -13.556838328996822" fill="#ffa70f" stroke="none" /><path d="M 103.58742460773223 120.69131181640829 l 7.045836028162372 40.63850985237848 a62.244784983772355,62.244784983772355 0 0,0 -1.0543747779215302,0.1734969684703231 l -6.34718374718777 -40.75347281934447" fill="#32ff45" stroke="none" /><path d="M 102.875027216393 120.80226474461374 l 2.0911095121269936 15.13022674471258 a36.27404662616046,36.27404662616046 0 0,0 -0.6175607694581171,0.07995560560368695 l -1.8310709207781009 -15.16389394651666" fill="#ffbb11" stroke="none" /><path d="M 102.15924093988457 120.88869738790638 l 1.483235470333472 14.348957692725687 a35.42541418220243,35.42541418220243 0 0,0 -0.6054379341551964,0.05733560183594424 l -1.2366979727932603 -14.372305050066815" fill="#ffb010" stroke="none" /><path d="M 101.08105385017728 120.97215588758144 l 1.6310203116303554 31.641358315049757 a52.68336761265,52.68336761265 0 0,0 -0.9035805647082431,0.03880363731645044 l -1.0876139863212828 -31.66469452079204" fill="#7fff26" stroke="none" /><line stroke="#e1ed5e" stroke-width="0.3" x1="101.45913802915013" x2="101.54496967792366" y1="184.9874750549273" y2="189.98673829345242" /><path d="M 101.47630435890484 185.9873277026323 a86.0,86.0 0 0,1 -42.54439059252881,-10.42667462771756" fill="none" id="id115" stroke="none" /><text fill="#e1ed5e" style="font-size:6.75px; font-family:Arial;" text-anchor="middle"><textPath startOffset="22.145653131862474" xlink:href="#id115">July</textPath></text><path d="M 100.36049292484886 120.99690560180557 l 0.18778337390326602 10.937440109507216 a31.939052003924825,31.939052003924825 0 0,0 -0.5482762987521169,0.004706292612043223 l -1.3396475022312976e-15 -10.939052003924825" fill="#ff810b" stroke="none" /><path d="M 99.63950707515114 120.99690560180557 l -0.25509775466197354 14.858165319377159 a35.86035502679447,35.86035502679447 0 0,0 -0.6154092621120476,-0.015850759585064458 l 0.510120330844765 -14.851596842442047" fill="#ffb510" stroke="none" /><path d="M 98.55909050195518 120.95050786540614 l -1.2607924121612604 18.331644966925758 a39.37495046795985,39.37495046795985 0 0,0 -0.673932287017814,-0.05216662126084763 l 1.5752936939543105 -18.307300578669857" fill="#ffe215" stroke="none" /><path d="M 97.12497278360702 120.80226474461374 l -0.7008407776393833 5.070934743555717 a26.1191363499132,26.1191363499132 0 0,0 -0.44362096186779854,-0.06519700446774267 l 0.7877868451148669 -5.058156665789092" fill="#ff2f04" stroke="none" /><path d="M 96.41257539226777 120.69131181640829 l -1.3551842363696742 7.816342549183709 a28.93295248698015,28.93295248698015 0 0,0 -0.4886434906166389,-0.08904712156145494 l 1.4891624605373703 -7.791927253690887" fill="#ff5708" stroke="none" /><path d="M 95.35216902796893 120.47920084513623 l -1.764675634479051 7.775486450020815 a28.97322203562533,28.97322203562533 0 0,0 -0.48408438165980383,-0.11424259597827983 l 1.8978921698787428 -7.744047710396307" fill="#ff5808" stroke="none" /><path d="M 94.6519064749342 120.30758222061772 l -2.898481814230133 11.006007557939885 a32.3812740584195,32.3812740584195 0 0,0 -0.5363242561404367,-0.146177560939105 l 3.0869874713052647 -10.954629502856635" fill="#ff870c" stroke="none" /><path d="M 94.30408787586889 120.21278271476187 l -2.6603663831528963 9.440701765132886 a30.80838412333006,30.80838412333006 0 0,0 -0.5078101761424842,-0.14781614137027418 l 2.8220365716769873 -9.393641929460097" fill="#ff720a" stroke="none" /><path d="M 93.61358852112213 120.00534299687104 l -5.752813566713369 18.020606561257054 a39.916583327043554,39.916583327043554 0 0,0 -0.6509772466810286,-0.2139891510351425 l 6.061313551042141 -17.91919648881989" fill="#ffe915" stroke="none" /><path d="M 92.93061703081489 119.77432235084164 l -3.2681522958744806 9.141603626789314 a30.708230338138726,30.708230338138726 0 0,0 -0.49485706094905957,-0.1817183672650086 l 3.424598508477659 -9.084154410515586" fill="#ff700a" stroke="none" /><path d="M 92.25597844496254 119.51999308798841 l -4.179292635159862 10.53454755661598 a32.3332775115103,32.3332775115103 0 0,0 -0.5141692276219195,-0.20910814869625333 l 4.3595163239722226 -10.461252151340435" fill="#ff860c" stroke="none" /><path d="M 91.59046798132341 119.24265499422711 l -3.8520547236844065 8.814255050354959 a30.619221261982034,30.619221261982034 0 0,0 -0.4798273967769549,-0.21462069142023682 l 4.002795523316997 -8.746830608024865" fill="#ff6f0a" stroke="none" /><path d="M 91.26138138417905 119.09545874513695 l -3.620101707180054 7.910575554528005 a29.699559872443203,29.699559872443203 0 0,0 -0.4617734043524819,-0.21613326954302578 l 3.755363825404026 -7.847266053414453" fill="#ff6209" stroke="none" /><path d="M 90.93487009805054 118.94263497670748 l -0.8068146929017312 1.6859324010564014 a22.86904200317005,22.86904200317005 0 0,0 -0.35266213628199305,-0.17250472298053815 l 0.8356370784457937 -1.6718339279786423" fill="#ff0000" stroke="none" /><path d="M 90.28995756902619 118.62028667847754 l -1.9792804573156173 3.795531254813352 a25.280608442146576,25.280608442146576 0 0,0 -0.3830748738100811,-0.20396579352579347 l 2.0441441469122603 -3.7609949935649856" fill="#ff2303" stroke="none" /><path d="M 89.97174638481275 118.45085714620012 l -5.741655830293284 10.564000031565843 a33.023506491055926,33.023506491055926 0 0,0 -0.49575487375095484,-0.27498687153645 l 5.922154892200341 -10.463880244596243" fill="#ff900d" stroke="none" /><line stroke="#e1ed5e" stroke-width="0.3" x1="58.13341422392154" x2="55.67067388415222" y1="173.97424548756322" y2="178.32567169271397" /><path d="M 57.64086615596768 174.84453072859336 a86.0,86.0 0 0,1 -31.369924170532247,-30.572349798747897" fill="none" id="id116" stroke="none" /><text fill="#e1ed5e" style="font-size:6.75px; font-family:Arial;" text-anchor="middle"><textPath startOffset="22.145653131862474" xlink:href="#id116">August</textPath></text><path d="M 89.03521579738668 117.91015095944536 l -12.091449090063897 19.750473380942438 a44.157813797267714,44.157813797267714 0 0,0 -0.6430973073061439,-0.40134028303022923 l 12.428710526159753 -19.53999730107066" fill="#e1ff1b" stroke="none" /><path d="M 88.4268655584334 117.5232005979908 l -5.551756804746342 8.406067401361806 a31.073925390595512,31.073925390595512 0 0,0 -0.44258697274875336,-0.29779226729438313 l 5.695240065592101 -8.309525460010303" fill="#ff750a" stroke="none" /><path d="M 87.83215693770417 117.11559508785305 l -6.175072442456906 8.686012715823978 a31.657313759529018,31.657313759529018 0 0,0 -0.4402160370634472,-0.3186824623412037 l 6.323269489894307 -8.578729482109708" fill="#ff7d0b" stroke="none" /><path d="M 85.86807049272751 115.53346607816431 l -3.1228254956691024 3.4325322582482154 a25.64050824590535,25.64050824590535 0 0,0 -0.32303405382120415,-0.298995497598508 l 3.181289320804274 -3.37841901451733" fill="#ff2903" stroke="none" /><path d="M 84.3458050057657 113.99807769240083 l -12.169212178241578 10.881784568869682 a37.324918390067175,37.324918390067175 0 0,0 -0.422996076927831,-0.48129188722501925 l 12.354219319128001 -10.671280403833363" fill="#ffc812" stroke="none" /><path d="M 84.1078160697243 113.72728997021213 l -13.006335336928887 11.234562688373186 a38.18662729262586,38.18662729262586 0 0,0 -0.42424513089034754,-0.49975969743962034 l 13.197275031326347 -11.009636208484011" fill="#ffd313" stroke="none" /><path d="M 83.8745106332314 113.45245675266167 l -11.418849226050085 9.526010149816955 a35.87060815910635,35.87060815910635 0 0,0 -0.3903972186004052,-0.47622112899267577 l 11.58069326388912 -9.328586739125784" fill="#ffb510" stroke="none" /><path d="M 82.98947788004972 112.3143062007846 l -8.232109231080928 5.959412241141269 a31.162785870631744,31.162785870631744 0 0,0 -0.3099731169580403,-0.43601600799842394 l 8.333197446568928 -5.8172190064333416" fill="#ff760a" stroke="none" /><path d="M 82.78059297857968 112.02048342749411 l -9.50278398139194 6.633681242407635 a32.589160030945735,32.589160030945735 0 0,0 -0.31628596585116864,-0.46147067649746104 l 9.615259684058433 -6.469575830840123" fill="#ff8a0c" stroke="none" /><path d="M 82.576782715395 111.72311816256416 l -9.491356464680827 6.386208215217877 a32.4398209298815,32.4398209298815 0 0,0 -0.30690474402644574,-0.4646928989898108 l 9.599585647627999 -6.222335437889005" fill="#ff880c" stroke="none" /><line stroke="#e1ed5e" stroke-width="0.3" x1="26.387840678322732" x2="22.057713659400548" y1="142.50000000000003" y2="145.00000000000006" /><path d="M 25.521815274538298 143.00000000000003 a86.0,86.0 0 0,1 -11.493303480769221,-40.785679425670985" fill="none" id="id117" stroke="none" /><text fill="#e1ed5e" style="font-size:6.75px; font-family:Arial;" text-anchor="middle"><textPath startOffset="21.40746469413373" xlink:href="#id117">September</textPath></text><path d="M 81.29705330413844 109.54985784667822 l -6.92281829048785 3.5348403461563445 a28.77306306136312,28.77306306136312 0 0,0 -0.22084022863784156,-0.4418283922800502 l 6.9824784323374285 -3.4154800977125417" fill="#ff5507" stroke="none" /><line stroke="#e1ed5e" stroke-width="0.3" x1="15.003131293944662" x2="10.003315487706104" y1="100.72959589197737" y2="100.7725132973878" /><path d="M 14.003168132696942 100.73817937305945 a86.0,86.0 0 0,1 10.791469493833604,-42.45332614584628" fill="none" id="id118" stroke="none" /><text fill="#e1ed5e" style="font-size:6.75px; font-family:Arial;" text-anchor="middle"><textPath startOffset="22.145653131862435" xlink:href="#id118">October</textPath></text><line stroke="#e1ed5e" stroke-width="0.3" x1="26.387840678322718" x2="22.05771365940052" y1="57.49999999999999" y2="54.99999999999999" /><path d="M 25.521815274538284 56.99999999999999 a86.0,86.0 0 0,1 29.574782752854787,-30.34633250058573" fill="none" id="id119" stroke="none" /><text fill="#e1ed5e" style="font-size:6.75px; font-family:Arial;" text-anchor="middle"><textPath startOffset="21.40746469413373" xlink:href="#id119">November</textPath></text><line stroke="#e1ed5e" stroke-width="0.3" x1="56.869717070023135" x2="54.33264160355391" y1="26.7553504044142" y2="22.446841604673864" /><path d="M 56.362301976729285 25.89364864446614 a86.0,86.0 0 0,1 42.16139366436587,-11.88097634709845" fill="none" id="id120" stroke="none" /><text fill="#e1ed5e" style="font-size:6.75px; font-family:Arial;" text-anchor="middle"><textPath startOffset="22.145653131862474" xlink:href="#id120">December</textPath></text></svg>