<?xml version="1.0" encoding="utf-8" ?>
<svg baseProfile="full" height="200mm" version="1.1" viewBox="0,0,200,200" width="200mm" xmlns="http://www.w3.org/2000/svg" xmlns:ev="http://www.w3.org/2001/xml-events" xmlns:xlink="http://www.w3.org/1999/xlink"><defs /><rect fill="#1a1a1a" height="200" width="200" x="0" y="0" /><text alignment-baseline="middle" fill="#e1ed5e" style="dominant-baseline: central; font-size:9.0px; font-family:Arial;" text-anchor="middle" x="100.0" y="100.0">2025</text><line stroke="#e1ed5e" stroke-width="0.3" x1="100.0" x2="100.0" y1="15.0" y2="10.0" /><path d="M 100.0 14.0 a86.0,86.0 0 0,1 42.46469731375804,11.215312516191453" fill="none" id="id121" stroke="none" /><text fill="#e1ed5e" style="font-size:6.75px; font-family:Arial;" text-anchor="middle"><textPath startOffset="22.20632615414155" xlink:href="#id121">January</textPath></text><path d="M 100.0 79.0 l 0.0 -24.99748047717813 a45.99748047717813,45.99748047717813 0 0,0 0.7917710137247199,0.006815023086158823 l -0.4302905344521915 24.99377683070053" fill="#d4ff1c" stroke="none" /><path d="M 100.36148047927253 79.00311137660856 l 0.38445070975846346 -22.331133205941057 a43.33444229457537,43.33444229457537 0 0,0 0.7457101535211683,0.01925949320619969 l -0.7687874984744996 22.3212069205925" fill="#f5ff19" stroke="none" /><path d="M 100.72285384407766 79.0124445844662 l 1.23764282383597 -35.93409312644465 a56.9554002700483,56.9554002700483 0 0,0 0.9795221405934803,0.042180283853511545 l -1.8560057968187818 35.907465116066945" fill="#58ff2a" stroke="none" /><path d="M 101.80526077348638 79.07773832637324 l 1.6662959761286782 -19.311714379606023 a40.38346858948482,40.38346858948482 0 0,0 0.6920474107759983,0.06571824045876419 l -1.9984685139949205 19.280170594632082" fill="#ffe415" stroke="none" /><path d="M 102.16513564639614 79.11191278185805 l 0.9363498136421028 -9.033409341628278 a30.081807931624883,30.081807931624883 0 0,0 0.5145898584602333,0.05782016643050267 l -1.0917063756120613 9.015953221727175" fill="#ff5708" stroke="none" /><path d="M 102.88285421437855 79.19881850522331 l 2.3950415244749452 -17.281378014069745 a38.44655410014059,38.44655410014059 0 0,0 0.6547466829446725,0.09649264124195828 l -2.6921571878482733 17.237590888666816" fill="#ffca12" stroke="none" /><path d="M 103.2404852339499 79.25152402106235 l 1.7095331210271218 -10.945955415940615 a32.078648088085856,32.078648088085856 0 0,0 0.5448341371223446,0.08990230094421509 l -1.8976964642883416 10.914906852056774" fill="#ff740a" stroke="none" /><path d="M 104.307194497241 79.44645832069477 l 4.829832819495626 -23.047524374199412 a44.54815629393505,44.54815629393505 0 0,0 0.7491669295594748,0.16373887383844163 l -5.225842473208629 22.9609720022651" fill="#e6ff1a" stroke="none" /><path d="M 104.66035177308747 79.52364482259891 l 2.816295487479595 -12.374058760791685 a33.69050237336266,33.69050237336266 0 0,0 0.5643581290134223,0.13356533545762897 l -3.0288773034555407 12.323747513193187" fill="#ff8a0c" stroke="none" /><path d="M 105.01212808612495 79.60689891045804 l 2.013600254647924 -8.192838020368747 a29.436656969055804,29.436656969055804 0 0,0 0.49101901348039334,0.12517167953054756 l -2.1543281568133423 8.15696334466933" fill="#ff4e07" stroke="none" /><path d="M 106.0581310904928 79.89281104454417 l 10.043279838991763 -33.334063333829356 a55.81418171188352,55.81418171188352 0 0,0 0.9175177112916245,0.2850772191456721 l -10.615582922994106 33.15624597980116" fill="#64ff29" stroke="none" /><path d="M 106.74666289553966 80.11325718540242 l 10.874261844882813 -32.05342433082662 a54.847770709503195,54.847770709503195 0 0,0 0.891453865722129,0.3110107495949538 l -11.424397714668215 31.861492728059464" fill="#6fff27" stroke="none" /><path d="M 107.4271985657038 80.35727306442388 l 8.168791507028061 -21.60401927412325 a44.096813708431355,44.096813708431355 0 0,0 0.7076842185530872,0.2745704822646073 l -8.539458890580816 21.460206087968093" fill="#ecff1a" stroke="none" /><path d="M 108.43124777332544 80.76684994638697 l 14.027589855248202 -31.999384649814026 a55.939002491682785,55.939002491682785 0 0,0 0.8785563474708723,0.39418262380734065 l -14.576328321185855 31.753181695490156" fill="#63ff29" stroke="none" /><path d="M 109.41281617654863 81.2277094730956 l 4.2410673033105395 -8.458100749938634 a30.46182435724328,30.46182435724328 0 0,0 0.46670345313602013,0.23906363555673457 l -4.386031244035315 8.3838445890694" fill="#ff5d08" stroke="none" /><line stroke="#e1ed5e" stroke-width="0.3" x1="143.23703022742887" x2="145.7803849466894" y1="26.81831364943548" y2="22.513508569990506" /><path d="M 143.74570117128098 25.957352633546492 a86.0,86.0 0 0,1 28.547481713284135,27.462654790039103" fill="none" id="id122" stroke="none" /><text fill="#e1ed5e" style="font-size:6.75px; font-family:Arial;" text-anchor="middle"><textPath startOffset="19.985693538727396" xlink:href="#id122">February</textPath></text><path d="M 111.2981086023043 82.29822771554956 l 1.9658730985788175 -3.0801118272196235 a24.654004092484584,24.654004092484584 0 0,0 0.3557607707843873,0.2313967014478148 l -2.0186008951474848 3.0458162016122805" fill="#ff0801" stroke="none" /><path d="M 111.60114157652 82.49532879139004 l 2.341577038371082 -3.533146793870244 a25.238644747282116,25.238644747282116 0 0,0 0.360065689801272,0.24311796105242445 l -2.4020474225788955 3.4923169205191495" fill="#ff1101" stroke="none" /><path d="M 111.90073688211348 82.69761687909136 l 5.7498388958821325 -8.35964330995167 a31.146146243683795,31.146146243683795 0 0,0 0.4391144773680196,0.3076277533538634 l -5.892884512833803 8.25943071383387" fill="#ff6709" stroke="none" /><path d="M 112.19680574252982 82.90503203632743 l 3.5229293163531468 -4.937716076869192 a27.065646793524408,27.065646793524408 0 0,0 0.37692738908001305,0.2738537781366513 l -3.6074020217869487 4.876343063915866" fill="#ff2c04" stroke="none" /><path d="M 113.34407831869373 83.78471172551755 l 2.0896850051546436 -2.539316987818978 a24.288603683236126,24.288603683236126 0 0,0 0.3205430213617102,0.26844556206663434 l -2.133085563475471 2.5029702683585247" fill="#ff0200" stroke="none" /><path d="M 113.6212207817346 84.01681056812373 l 2.559702676170565 -3.003564322030229 a24.94632441988335,24.94632441988335 0 0,0 0.3244283761923717,0.2813410908637185 l -2.611024851009701 2.9590582377468393" fill="#ff0c01" stroke="none" /><path d="M 114.42810811169701 84.74124197986012 l 10.84171734135536 -11.465892835969191 a36.78003591364022,36.78003591364022 0 0,0 0.4562769360019199,0.4389380509261043 l -11.037477520969698 11.277571698280784" fill="#ffb410" stroke="none" /><path d="M 115.9244219780498 86.31012108654704 l 7.19202482047114 -6.182827173916417 a30.484333022452986,30.484333022452986 0 0,0 0.3386510166220224,0.4008559876512514 l -7.297386450580279 6.058112236636059" fill="#ff5d08" stroke="none" /><path d="M 116.15771136456269 86.58626213691792 l 6.837883891833613 -5.6766444203485715 a29.887122593577303,29.887122593577303 0 0,0 0.3252025038156973,0.39865981730116173 l -6.934584887725719 5.558100433439309" fill="#ff5507" stroke="none" /><path d="M 116.38621287248628 86.86637796730983 l 9.170841391878836 -7.350469904179362 a32.753031083394816,32.753031083394816 0 0,0 0.3488134166657289,0.4429576166084135 l -9.29600888913853 7.19151989361791" fill="#ff7d0b" stroke="none" /><path d="M 117.2510076193507 88.02491185347247 l 7.248213560635331 -5.031473999008714 a29.823396762204375,29.823396762204375 0 0,0 0.2891101872113868,0.4242335254093643 l -7.3337482135154515 4.905962450328944" fill="#ff5407" stroke="none" /><path d="M 117.65298651832404 88.62581576622439 l 2.641595861189373 -1.7020348350211971 a24.14244351953674,24.14244351953674 0 0,0 0.22207875462691248,0.3512752574914938 l -2.670502212062241 1.6563119298154971" fill="#ff0000" stroke="none" /><line stroke="#e1ed5e" stroke-width="0.3" x1="172.23445277983987" x2="176.4835382374775" y1="55.19839476539836" y2="52.563006222186495" /><path d="M 173.08426987136738 54.67131705675599 a86.0,86.0 0 0,1 12.851231095245387,41.99856678651699" fill="none" id="id123" stroke="none" /><text fill="#e1ed5e" style="font-size:6.75px; font-family:Arial;" text-anchor="middle"><textPath startOffset="22.20632615414155" xlink:href="#id123">March</textPath></text><path d="M 117.84615892207809 88.93136811851018 l 10.816900262309415 -6.708910731158719 a33.7285040159245,33.7285040159245 0 0,0 0.3017644310491364,0.4960213810300885 l -10.930780491644777 6.521721576921549" fill="#ff8b0c" stroke="none" /><path d="M 118.21658344932153 89.55222093294921 l 8.138493656732063 -4.667680078467062 a30.382020907863417,30.382020907863417 0 0,0 0.2562829926629306,0.45589884712255363 l -8.217634290687426 4.526897721409714" fill="#ff5c08" stroke="none" /><path d="M 118.56541770881063 90.18545643968196 l 12.953849060456484 -6.848007293544485 a35.652556410863184,35.652556410863184 0 0,0 0.2821485028196324,0.5450211013828047 l -13.069806996436233 6.624013469901334" fill="#ffa50f" stroke="none" /><path d="M 118.73160827565052 90.50648371742162 l 8.748752801025931 -4.434025415573056 a30.80822394521082,30.80822394521082 0 0,0 0.23566822359462705,0.47509275809683704 l -8.823781037573967 4.28277306897727" fill="#ff6209" stroke="none" /><path d="M 119.04729006885535 91.15688171328212 l 7.315173276350163 -3.3962281425207257 a29.065117832931975,29.065117832931975 0 0,0 0.2067743457822544,0.45559986195301355 l -7.372549939095764 3.2698062717256495" fill="#ff4906" stroke="none" /><path d="M 119.47837535516314 92.15188598940014 l 5.70233037896457 -2.2975498789922666 a27.14778880552346,27.14778880552346 0 0,0 0.1709101326923604,0.43494764564273586 l -5.741034061538631 2.1990532284537463" fill="#ff2d04" stroke="none" /><path d="M 119.7369772167798 92.82701384747503 l 16.910736809354674 -6.145848963101057 a38.992900792048886,38.992900792048886 0 0,0 0.22383209813191574,0.6328034829734192 l -17.0140219882964 5.853847853701023" fill="#ffd113" stroke="none" /><path d="M 119.85752413597 93.16781622104841 l 6.365608142196483 -2.1901524275877455 a27.7318448196662,27.7318448196662 0 0,0 0.15141944646305933,0.4527248718936221 l -6.402364882431312 2.0802544527718094" fill="#ff3505" stroke="none" /><path d="M 120.18372546131832 94.20196356495316 l 20.750417289649434 -5.960825999064852 a42.589610100363316,42.589610100363316 0 0,0 0.19634465210169588,0.7063561804643134 l -20.849948712317495 5.602758515181587" fill="#feff18" stroke="none" /><path d="M 120.28053869075195 94.5502522615342 l 26.105628618854734 -7.015054811719924 a48.03173763554615,48.03173763554615 0 0,0 0.2076884744738488,0.800308413608448 l -26.222513425198887 6.564649972562626" fill="#bcff1f" stroke="none" /><path d="M 120.53481517161879 95.60439243477599 l 36.75851684752698 -7.868393914970251 a58.5912248221718,58.5912248221718 0 0,0 0.20261599998994412,0.9880275735587433 l -36.88851214343192 7.234490685248096" fill="#47ff2c" stroke="none" /><path d="M 120.73433829027371 96.67025291283417 l 20.41800823603938 -3.2789473431892464 a41.67961692117095,41.67961692117095 0 0,0 0.10766064674672172,0.7093491467992614 l -20.4714247762254 2.9269990839979028" fill="#fff417" stroke="none" /><path d="M 120.83666639777658 97.38593545837742 l 20.02540571883365 -2.5122878113936156 a41.18238004426565,41.18238004426565 0 0,0 0.08218757191081989,0.7041329250275814 l -20.065683643748056 2.1672111480411815" fill="#ffee16" stroke="none" /><path d="M 120.94382443527127 98.46500227214037 l 30.59753423809616 -2.242529566590908 a51.679603001155364,51.679603001155364 0 0,0 0.05738751424349417,0.8877594450318302 l -30.63160234334407 1.7155110573060426" fill="#92ff23" stroke="none" /><path d="M 120.96714384426684 98.82574320788733 l 32.847134142531544 -1.8395910599359127 a53.898606606439394,53.898606606439394 0 0,0 0.04390527048944797,0.926770867337213 l -32.87393302125449 1.2739090859756999" fill="#79ff26" stroke="none" /><line stroke="#e1ed5e" stroke-width="0.3" x1="184.98032266829074" x2="189.97916517819016" y1="98.17113171792111" y2="98.06355123074" /><path d="M 185.9800911702706 98.14961562048488 a86.0,86.0 0 0,1 -9.607161424134198,41.387399972396054" fill="none" id="id124" stroke="none" /><text fill="#e1ed5e" style="font-size:6.75px; font-family:Arial;" text-anchor="middle"><textPath startOffset="21.466115282336823" xlink:href="#id124">April</textPath></text><path d="M 120.99980553446 99.90962569577887 l 20.59143781871171 -0.08861686184307747 a41.59162850262392,41.59162850262392 0 0,0 -0.0030811528188340836,0.7159514042748581 l -20.589912368603372 -0.26584402063546536" fill="#fff316" stroke="none" /><path d="M 120.99824983174949 100.27111621757518 l 19.693148347893068 0.25426556665474914 a40.6947897381645,40.6947897381645 0 0,0 -0.01507245350620216,0.7003576883644085 l -19.68585383170186 -0.5932130708092724" fill="#ffe815" stroke="none" /><path d="M 120.9764740272857 100.99374915477107 l 53.08342333187348 2.514798578626027 a74.14295856011358,74.14295856011358 0 0,0 -0.07136665469021866,1.2742995609007441 l -53.03227032629574 -3.4281698558621945" fill="#40ffc9" stroke="none" /><path d="M 120.95626037817324 101.35467743843564 l 19.105351093529663 1.2350289418408364 a40.14522752265482,40.14522752265482 0 0,0 -0.05051309830246124,0.6892110934936322 l -19.081261436562865 -1.563713171831239" fill="#ffe015" stroke="none" /><path d="M 120.92983693683757 101.71520430193887 l 26.6256054207415 2.181973662632991 a47.714862400645885,47.714862400645885 0 0,0 -0.07412936425737478,0.8180113574798358 l -26.58410146020705 -2.639966408661397" fill="#c0ff1e" stroke="none" /><path d="M 120.8583938346157 102.4346265915055 l 32.565852961265215 3.801140788845187 a53.786940241373074,53.786940241373074 0 0,0 -0.11525386348055994,0.9186866912278754 l -32.495597588537805 -4.361145234360457" fill="#7bff26" stroke="none" /><path d="M 120.76222939487914 103.15116336523771 l 51.84878291277319 7.869289089310948 a73.44255905566612,73.44255905566612 0 0,0 -0.20045707810896438,1.2482464167357448 l -51.70564408030293 -8.760614735739898" fill="#3fffc2" stroke="none" /><path d="M 120.70491114924044 103.5080841355445 l 24.97420566689379 4.23144122987795 a46.33014100975794,46.33014100975794 0 0,0 -0.1399910606664854,0.7851442124408956 l -24.897668163888117 -4.660704193052064" fill="#d0ff1d" stroke="none" /><path d="M 120.5718875245553 104.21870165774334 l 23.12966393248592 4.7432279346536985 a44.61100516432579,44.61100516432579 0 0,0 -0.1607397423441688,0.7509225632163372 l -23.044590151417307 -5.140664317286205" fill="#e5ff1a" stroke="none" /><path d="M 120.41448212921028 104.9243191809786 l 31.845216739206023 7.681606156783725 a53.75858516961539,53.75858516961539 0 0,0 -0.2247331208284556,0.8976971053508636 l -31.708272304082506 -8.228631101531985" fill="#7bff26" stroke="none" /><path d="M 120.23288151984713 105.62410040840565 l 60.69864455954138 16.872301225216972 a84.0,84.0 0 0,0 -0.3992294524556024,1.389770097981672 l -60.399222470199675 -17.914628798703227" fill="#4dd2ff" stroke="none" /><path d="M 119.9155931802556 106.66101706037122 l 44.63189805057491 14.927691666566421 a68.06211110956444,68.06211110956444 0 0,0 -0.3811775396116845,1.1078803553627672 l -44.36832968002 -15.693744725018488" fill="#38ff85" stroke="none" /><path d="M 119.67450827220406 107.3425965602758 l 22.623260768297005 8.443081494148611 a45.14741296510252,45.14741296510252 0 0,0 -0.27799136942581115,0.7257477445462088 l -22.474575119277688 -8.831252805527964" fill="#dfff1b" stroke="none" /><path d="M 119.26925614724726 108.34839909993367 l 3.8037461744193735 1.647971820823777 a25.145394562841908,25.145394562841908 0 0,0 -0.17548960719686946,0.3956827363256588 l -3.7748154824912312 -1.7132028936421235" fill="#ff0f01" stroke="none" /><path d="M 118.97047184881838 109.00673069616215 l 27.571999981609213 13.090532516428164 a51.52175002436003,51.52175002436003 0 0,0 -0.38726383118361885,0.7978781959961058 l -27.34258289381088 -13.563199668389545" fill="#94ff23" stroke="none" /><line stroke="#e1ed5e" stroke-width="0.3" x1="174.80103733775053" x2="179.2010983576182" y1="140.37084112569926" y2="142.7455964860345" /><path d="M 175.68104954172406 140.8457921977663 a86.0,86.0 0 0,1 -30.038265399797805,32.042727171017184" fill="none" id="id125" stroke="none" /><text fill="#e1ed5e" style="font-size:6.75px; font-family:Arial;" text-anchor="middle"><textPath startOffset="22.206326154141568" xlink:href="#id125">May</textPath></text><line stroke="#e1ed5e" stroke-width="0.3" x1="143.8653032363475" x2="146.44561519142675" y1="172.8068346515853" y2="177.08958963109032" /><path d="M 144.38136562736335 173.6633856474863 a86.0,86.0 0 0,1 -40.68145358897372,12.25698825130547" fill="none" id="id126" stroke="none" /><text fill="#e1ed5e" style="font-size:6.75px; font-family:Arial;" text-anchor="middle"><textPath startOffset="21.466115282336833" xlink:href="#id126">June</textPath></text><line stroke="#e1ed5e" stroke-width="0.3" x1="102.19456741930631" x2="102.32365962044197" y1="184.97166512339345" y2="189.96999836594603" /><path d="M 102.22038585953345 185.97133177190398 a86.0,86.0 0 0,1 -42.740103519485714,-10.115201625700543" fill="none" id="id127" stroke="none" /><text fill="#e1ed5e" style="font-size:6.75px; font-family:Arial;" text-anchor="middle"><textPath startOffset="22.20632615414155" xlink:href="#id127">July</textPath></text><line stroke="#e1ed5e" stroke-width="0.3" x1="58.666819895761336" x2="56.23545636021788" y1="174.27360380694188" y2="178.64263932499728" /><path d="M 58.180547188652646 175.14741091055294 a86.0,86.0 0 0,1 -31.652253787137756,-30.449443065178592" fill="none" id="id128" stroke="none" /><text fill="#e1ed5e" style="font-size:6.75px; font-family:Arial;" text-anchor="middle"><textPath startOffset="22.20632615414155" xlink:href="#id128">August</textPath></text><line stroke="#e1ed5e" stroke-width="0.3" x1="26.63291911575756" x2="22.317208475507996" y1="142.92168965132927" y2="145.44649492493687" /><path d="M 25.769776987707644 143.4266507060508 a86.0,86.0 0 0,1 -11.730757126820373,-40.83630448921669" fill="none" id="id129" stroke="none" /><text fill="#e1ed5e" style="font-size:6.75px; font-family:Arial;" text-anchor="middle"><textPath startOffset="21.46611528233685" xlink:href="#id129">September</textPath></text><line stroke="#e1ed5e" stroke-width="0.3" x1="15.007084014347285" x2="10.007500721073583" y1="101.09737516637583" y2="101.16192664675087" /><path d="M 14.007167355692545 101.11028546245083 a86.0,86.0 0 0,1 10.666146001902534,-42.60595125391555" fill="none" id="id130" stroke="none" /><text fill="#e1ed5e" style="font-size:6.75px; font-family:Arial;" text-anchor="middle"><textPath startOffset="22.20632615414155" xlink:href="#id130">October</textPath></text><line stroke="#e1ed5e" stroke-width="0.3" x1="26.266209847984243" x2="21.928928074336255" y1="57.711370442889674" y2="55.22380399835377" /><path d="M 25.398753493254645 57.213857153982495 a86.0,86.0 0 0,1 29.58750427330803,-30.492523968695096" fill="none" id="id131" stroke="none" /><text fill="#e1ed5e" style="font-size:6.75px; font-family:Arial;" text-anchor="middle"><textPath startOffset="21.46611528233685" xlink:href="#id131">November</textPath></text><line stroke="#e1ed5e" stroke-width="0.3" x1="56.762969772571076" x2="54.21961505331055" y1="26.818313649435495" y2="22.513508569990535" /><path d="M 56.25429882871897 25.957352633546506 a86.0,86.0 0 0,1 42.265352541879196,-11.944610805530505" fill="none" id="id132" stroke="none" /><text fill="#e1ed5e" style="font-size:6.75px; font-family:Arial;" text-anchor="middle"><textPath startOffset="22.20632615414155" xlink:href="#id132">December</textPath></text></svg>