<?xml version="1.0" encoding="utf-8" ?>
<svg baseProfile="full" height="200mm" version="1.1" viewBox="0,0,200,200" width="200mm" xmlns="http://www.w3.org/2000/svg" xmlns:ev="http://www.w3.org/2001/xml-events" xmlns:xlink="http://www.w3.org/1999/xlink"><defs /><rect fill="#1a1a1a" height="200" width="200" x="0" y="0" /><text alignment-baseline="middle" fill="#e1ed5e" style="dominant-baseline: central; font-size:9.0px; font-family:Arial;" text-anchor="middle" x="100.0" y="100.0">2025</text><line stroke="#e1ed5e" stroke-width="0.3" x1="100.0" x2="100.0" y1="15.0" y2="10.0" /><path d="M 100.0 14.0 a86.0,86.0 0 0,1 42.46469731375804,11.215312516191453" fill="none" id="id121" stroke="none" /><text fill="#e1ed5e" style="font-size:6.75px; font-family:Arial;" text-anchor="middle"><textPath startOffset="22.20632615414155" xlink:href="#id121">January</textPath></text><path d="M 100.0 79.0 l 0.0 -22.88801937292888 a43.88801937292888,43.88801937292888 0 0,0 0.7554601084403972,0.006502483660614734 l -0.3939796291678689 22.884628265876824" fill="#ecff1a" stroke="none" /><path d="M 100.36148047927253 79.00311137660856 l 0.3520080874119074 -20.446677012255922 a41.449706856997196,41.449706856997196 0 0,0 0.7132771446237828,0.018421844273076936 l -0.703911867230558 20.437588375840484" fill="#fff417" stroke="none" /><path d="M 100.72285384407766 79.0124445844662 l 1.1332019222731613 -32.901724650913295 a53.92123374968136,53.92123374968136 0 0,0 0.9273403760750097,0.03993322730608874 l -1.6993831307375027 32.87734369708301" fill="#78ff26" stroke="none" /><path d="M 101.80526077348638 79.07773832637324 l 1.5256823429659452 -17.682057727714973 a38.74775681876115,38.74775681876115 0 0,0 0.664016383842371,0.06305635669235489 l -1.8298238538985605 17.65317582650744" fill="#ffd113" stroke="none" /><path d="M 102.16513564639614 79.11191278185805 l 0.8573341098933855 -8.271107490354753 a29.31542187101708,29.31542187101708 0 0,0 0.5014797922251697,0.05634709773479522 l -0.9995806056282804 8.255124439149357" fill="#ff5007" stroke="none" /><path d="M 102.88285421437855 79.19881850522331 l 2.192931278062142 -15.823055253030292 a36.97429263318889,36.97429263318889 0 0,0 0.6296739986826945,0.0927975793340717 l -2.464974257173492 15.782963189535252" fill="#ffba11" stroke="none" /><path d="M 103.2404852339499 79.25152402106235 l 1.5652708371331563 -10.02225963708588 a31.143754779505482,31.143754779505482 0 0,0 0.5289556067153534,0.087282207374563 l -1.737555649987385 9.993831166771692" fill="#ff6a09" stroke="none" /><path d="M 104.307194497241 79.44645832069477 l 4.4222579648196065 -21.10261411570369 a42.56099923527913,42.56099923527913 0 0,0 0.7157488832016646,0.15643498326264402 l -4.784849572174799 21.023365634345176" fill="#fcff18" stroke="none" /><path d="M 104.66035177308747 79.52364482259891 l 2.57863690447421 -11.329849698145722 a32.61958959979607,32.61958959979607 0 0,0 0.5464189982005655,0.12931972278429665 l -2.773279589637299 11.283784063220557" fill="#ff7f0b" stroke="none" /><path d="M 105.01212808612495 79.60689891045804 l 1.8436786731283743 -7.501469418114588 a28.72471322967117,28.72471322967117 0 0,0 0.47914341521073706,0.12214432511038661 l -1.9725309770241364 7.4686220968353325" fill="#ff4706" stroke="none" /><path d="M 106.0581310904928 79.89281104454417 l 9.19575809779925 -30.52110343919152 a52.87631914351262,52.87631914351262 0 0,0 0.8692228002646106,0.270071755201998 l -9.71976627077458 30.358291549107005" fill="#83ff25" stroke="none" /><path d="M 106.74666289553966 80.11325718540242 l 9.956616067735615 -29.348533654119983 a51.99146061687484,51.99146061687484 0 0,0 0.845029578265474,0.2948142272661063 l -10.460327650064363 29.172798573681668" fill="#8dff24" stroke="none" /><path d="M 107.4271985657038 80.35727306442388 l 7.479452116663127 -19.780922006547797 a42.14774407341321,42.14774407341321 0 0,0 0.6764047290488457,0.2624345262929877 l -7.81884001071164 19.649244776364263" fill="#fffc17" stroke="none" /><path d="M 108.43124777332544 80.76684994638697 l 12.843844348855157 -29.299054216900206 a52.99060667856232,52.99060667856232 0 0,0 0.8322499826611197,0.37340630771534017 l -13.346276449983058 29.073627578668333" fill="#82ff25" stroke="none" /><path d="M 109.41281617654863 81.2277094730956 l 3.883176574082665 -7.744347435315341 a29.663369869997453,29.663369869997453 0 0,0 0.45447038849749427,0.2327973847140733 l -4.015907450168915 7.6763575252887675" fill="#ff5507" stroke="none" /><line stroke="#e1ed5e" stroke-width="0.3" x1="143.23703022742887" x2="145.7803849466894" y1="26.81831364943548" y2="22.513508569990506" /><path d="M 143.74570117128098 25.957352633546492 a86.0,86.0 0 0,1 28.547481713284135,27.462654790039103" fill="none" id="id122" stroke="none" /><text fill="#e1ed5e" style="font-size:6.75px; font-family:Arial;" text-anchor="middle"><textPath startOffset="19.985693538727396" xlink:href="#id122">February</textPath></text><path d="M 111.2981086023043 82.29822771554956 l 1.7999790661331083 -2.820190588269571 a24.345653836349733,24.345653836349733 0 0,0 0.3513112329169243,0.2285025982468689 l -1.8482573248343128 2.788789065863174" fill="#ff0701" stroke="none" /><path d="M 111.60114157652 82.49532879139004 l 2.143978496807802 -3.2349953164012812 a24.88095845016569,24.88095845016569 0 0,0 0.35496277858740594,0.23967245262191725 l -2.19934596980175 3.197610951480694" fill="#ff0f01" stroke="none" /><path d="M 111.90073688211348 82.69761687909136 l 5.264627535575789 -7.654198518271959 a30.289943920469028,30.289943920469028 0 0,0 0.4270432942194469,0.2991711181397932 l -5.395601969378887 7.56244255736823" fill="#ff5e08" stroke="none" /><path d="M 112.19680574252982 82.90503203632743 l 3.2256400606359135 -4.5210372832807275 a26.553785368340556,26.553785368340556 0 0,0 0.3697989952146396,0.268674696837085 l -3.3029843722043415 4.464843351626968" fill="#ff2803" stroke="none" /><path d="M 113.34407831869373 83.78471172551755 l 1.9133428636923835 -2.3250317752731013 a24.01108845271476,24.01108845271476 0 0,0 0.3168805806703745,0.2653783733137964 l -1.9530809813218755 2.291752244565486" fill="#ff0200" stroke="none" /><path d="M 113.6212207817346 84.01681056812373 l 2.3436971775862494 -2.7501026934785817 a24.61330614325771,24.61330614325771 0 0,0 0.3200974544537798,0.2775853582096231 l -2.3906884306867937 2.7093523418492875" fill="#ff0b01" stroke="none" /><path d="M 114.42810811169701 84.74124197986012 l 9.926817895559878 -10.498321124690174 a35.4484068315065,35.4484068315065 0 0,0 0.43975733175483184,0.4230462047288709 l -10.106058470927128 10.325891833199002" fill="#ffa50f" stroke="none" /><path d="M 115.9244219780498 86.31012108654704 l 6.585111790438773 -5.661077253976312 a29.683979097629365,29.683979097629365 0 0,0 0.3297598701403424,0.3903316746289056 l -6.6815822740662325 5.5468866297182995" fill="#ff5507" stroke="none" /><path d="M 116.15771136456269 86.58626213691792 l 6.2608557342013125 -5.1976097184988665 a29.137165434616364,29.137165434616364 0 0,0 0.3170422018299513,0.3886562519516049 l -6.3493964281076725 5.089069296939161" fill="#ff4d07" stroke="none" /><path d="M 116.38621287248628 86.86637796730983 l 8.396942069222323 -6.730186176986248 a31.761228651542186,31.761228651542186 0 0,0 0.33825091348759445,0.42954431021117445 l -8.511547063303883 6.5846494728220355" fill="#ff730a" stroke="none" /><path d="M 117.2510076193507 88.02491185347247 l 6.63655893426563 -4.60688326044847 a29.078817231710424,29.078817231710424 0 0,0 0.2818921788412711,0.4136419887816717 l -6.714875578775635 4.491963248396392" fill="#ff4d07" stroke="none" /><path d="M 117.65298651832404 88.62581576622439 l 2.418679646596782 -1.5584053086042298 a23.87726229926077,23.87726229926077 0 0,0 0.2196394358768582,0.34741684103257287 l -2.4451466787195955 1.5165408198574506" fill="#ff0000" stroke="none" /><line stroke="#e1ed5e" stroke-width="0.3" x1="172.23445277983987" x2="176.4835382374775" y1="55.19839476539836" y2="52.563006222186495" /><path d="M 173.08426987136738 54.67131705675599 a86.0,86.0 0 0,1 12.851231095245387,41.99856678651699" fill="none" id="id123" stroke="none" /><text fill="#e1ed5e" style="font-size:6.75px; font-family:Arial;" text-anchor="middle"><textPath startOffset="22.20632615414155" xlink:href="#id123">March</textPath></text><path d="M 117.84615892207809 88.93136811851018 l 9.904095054091842 -6.14276622502818 a32.65438439969411,32.65438439969411 0 0,0 0.29215442597101476,0.48022505946235583 l -10.00836527834908 5.971373392358743" fill="#ff7f0b" stroke="none" /><path d="M 118.21658344932153 89.55222093294921 l 7.451711009507705 -4.273788798840112 a29.590300790211572,29.590300790211572 0 0,0 0.24960455604021245,0.4440186535707221 l -7.52417320684035 4.144886635334596" fill="#ff5407" stroke="none" /><path d="M 118.56541770881063 90.18545643968196 l 11.86071326349902 -6.270124852930692 a34.41607188376243,34.41607188376243 0 0,0 0.27236316641736474,0.5261189460636446 l -11.966885863076502 6.065033184606703" fill="#ff970d" stroke="none" /><path d="M 118.73160827565052 90.50648371742162 l 8.01047224665947 -4.059851540012144 a29.98053785368341,29.98053785368341 0 0,0 0.22933681964121716,0.46232903407426884 l -8.079169079254095 3.921362917438926" fill="#ff5908" stroke="none" /><path d="M 119.04729006885535 91.15688171328212 l 6.697868123881204 -3.109630812267988 a28.38452714759113,28.38452714759113 0 0,0 0.20193250428290915,0.4449315060196182 l -6.750402945127459 2.993877297406307" fill="#ff4306" stroke="none" /><path d="M 119.47837535516314 92.15188598940014 l 5.22112811744119 -2.1036666550716983 a26.628995666581698,26.628995666581698 0 0,0 0.1676440470140166,0.4266358138403456 l -5.256565714336907 2.0134818363355684" fill="#ff2904" stroke="none" /><path d="M 119.7369772167798 92.82701384747503 l 15.483691328667222 -5.6272195215424 a37.474534794799894,37.474534794799894 0 0,0 0.21511617702851063,0.6081624003155345 l -15.578260586505541 5.359859494800251" fill="#ffc011" stroke="none" /><path d="M 119.85752413597 93.16781622104841 l 5.828433894051146 -2.0053321468962015 a27.163764975783838,27.163764975783838 0 0,0 0.1483176573081421,0.44345091712359513 l -5.862088845131058 1.9047081268502923" fill="#ff3104" stroke="none" /><path d="M 120.18372546131832 94.20196356495316 l 18.999352889002367 -5.457810080892427 a40.76772877899567,40.76772877899567 0 0,0 0.18794549903662808,0.6761399580479088 l -19.090485158605357 5.129958819425567" fill="#ffeb16" stroke="none" /><path d="M 120.28053869075195 94.5502522615342 l 23.902654274151228 -6.42307574074876 a45.750611776701504,45.750611776701504 0 0,0 0.19782492230962975,0.7623001235235579 l -24.00967552833116 6.010679191676352" fill="#d5ff1c" stroke="none" /><path d="M 120.53481517161879 95.60439243477599 l 33.656577769685065 -7.204404160815037 a55.419016059138414,55.419016059138414 0 0,0 0.19164609361489168,0.934534414191035 l -33.77560315921495 6.62399409046059" fill="#67ff28" stroke="none" /><path d="M 120.73433829027371 96.67025291283417 l 18.694994821167896 -3.002246981740661 a39.934527147591126,39.934527147591126 0 0,0 0.10315298790690974,0.6796493070834076 l -18.743903702514107 2.6799985622651716" fill="#ffe015" stroke="none" /><path d="M 120.83666639777658 97.38593545837742 l 18.3355228324661 -2.300283508573871 a39.479250573540654,39.479250573540654 0 0,0 0.07878864072475947,0.6750129583177106 l -18.372401826194448 1.9843268119313076" fill="#ffda14" stroke="none" /><path d="M 120.94382443527127 98.46500227214037 l 28.015501684050346 -2.053289338953916 a49.09064491460617,49.09064491460617 0 0,0 0.05451261079146244,0.8432859610912861 l -28.046694885846225 1.5707443136095947" fill="#aeff20" stroke="none" /><path d="M 120.96714384426684 98.82574320788733 l 30.07526471661132 -1.6843535834149381 a51.122393576344635,51.122393576344635 0 0,0 0.04164379488373022,0.8790346915840833 l -30.099802119728547 1.1664077852078552" fill="#97ff23" stroke="none" /><line stroke="#e1ed5e" stroke-width="0.3" x1="184.98032266829074" x2="189.97916517819016" y1="98.17113171792111" y2="98.06355123074" /><path d="M 185.9800911702706 98.14961562048488 a86.0,86.0 0 0,1 -9.607161424134198,41.387399972396054" fill="none" id="id124" stroke="none" /><text fill="#e1ed5e" style="font-size:6.75px; font-family:Arial;" text-anchor="middle"><textPath startOffset="21.466115282336823" xlink:href="#id124">April</textPath></text><path d="M 120.99980553446 99.90962569577887 l 18.853789210533147 -0.08113875526312571 a39.853963803211826,39.853963803211826 0 0,0 -0.002952424738700259,0.686039531946405 l -18.852392488504943 -0.24341025488696402" fill="#ffdf14" stroke="none" /><path d="M 120.99824983174949 100.27111621757518 l 18.031303647263453 0.23280887130908143 a39.03280652561815,39.03280652561815 0 0,0 -0.014456891542118567,0.6717549426977363 l -18.024624693036326 -0.5431536297969326" fill="#ffd513" stroke="none" /><path d="M 120.9764740272857 100.99374915477107 l 48.60387520696482 2.302582399820484 a69.65838643894979,69.65838643894979 0 0,0 -0.06705000862941993,1.1972229457263797 l -48.55703884744788 -3.138877061882287" fill="#3bff98" stroke="none" /><path d="M 120.95626037817324 101.35467743843564 l 17.493108809687456 1.1308086178040258 a38.52962018863115,38.52962018863115 0 0,0 -0.04848024565426885,0.6614744342179956 l -17.47105200536885 -1.4317561885187917" fill="#ffce13" stroke="none" /><path d="M 120.92983693683757 101.71520430193887 l 24.378751820298866 1.9978435629606355 a45.46047667601326,45.46047667601326 0 0,0 -0.07062697166626346,0.7793627470865899 l -24.34075025235553 -2.417187698595796" fill="#d9ff1c" stroke="none" /><path d="M 120.8583938346157 102.4346265915055 l 29.8177199959767 3.480374115853293 a51.02015039510579,51.02015039510579 0 0,0 -0.10932522694183743,0.8714296247767332 l -29.753393259788012 -3.993121494917421" fill="#98ff23" stroke="none" /><path d="M 120.76222939487914 103.15116336523771 l 47.47342232565275 7.205223794124515 a69.01709151159827,69.01709151159827 0 0,0 -0.1883780287872012,1.1730301650787724 l -47.342362542504254 -8.021333188896492" fill="#3aff91" stroke="none" /><path d="M 120.70491114924044 103.5080841355445 l 22.866708652867484 3.8743628156156262 a44.192607698190166,44.192607698190166 0 0,0 -0.13353229432184394,0.7489200207613671 l -22.796629916206452 -4.267401587110212" fill="#e8ff1a" stroke="none" /><path d="M 120.5718875245553 104.21870165774334 l 21.17782216729359 4.34296140195752 a42.61854448126434,42.61854448126434 0 0,0 -0.1535606255399975,0.7173841195582971 l -21.099927503029154 -4.706859340931985" fill="#fcff18" stroke="none" /><path d="M 120.41448212921028 104.9243191809786 l 29.157896065865682 7.033378851608285 a50.99418812133571,50.99418812133571 0 0,0 -0.2131767977982134,0.8515353393659257 l -29.03250795377241 -7.5342420303716064" fill="#98ff23" stroke="none" /><path d="M 120.23288151984713 105.62410040840565 l 55.576471151069235 15.448499206198854 a78.68362222788681,78.68362222788681 0 0,0 -0.3739621359436038,1.3018112544428944 l -55.30231637823953 -16.40286793614633" fill="#46fff9" stroke="none" /><path d="M 119.9155931802556 106.66101706037122 l 40.86554835655432 13.667989314739554 a64.09068315065002,64.09068315065002 0 0,0 -0.3589358090299347,1.0432354751688961 l -40.624221716581154 -14.36939749299775" fill="#34ff57" stroke="none" /><path d="M 119.67450827220406 107.3425965602758 l 20.71415282097488 7.7305956086941405 a43.109686464440486,43.109686464440486 0 0,0 -0.2654442411801204,0.6929911519813008 l -20.578014300201254 -8.086010327508586" fill="#f6ff19" stroke="none" /><path d="M 119.26925614724726 108.34839909993367 l 3.4827596408885233 1.5089045072158984 a24.795577364262044,24.795577364262044 0 0,0 -0.1730482343794309,0.39017808512593577 l -3.4562703217778195 -1.568630928834522" fill="#ff0e01" stroke="none" /><path d="M 118.97047184881838 109.00673069616215 l 25.245283031848384 11.985862419674774 a48.94611266887586,48.94611266887586 0 0,0 -0.3679040231500633,0.757991257261256 l -25.03522575208361 -12.418642632901307" fill="#b0ff20" stroke="none" /><path d="M 118.81262510543309 109.33194174019688 l 3.627532567169223 1.79942577858066 a25.04931175121081,25.04931175121081 0 0,0 -0.1949329451105387,0.3846211939963872 l -3.5960209522724154 -1.8616011842797415" fill="#ff1202" stroke="none" /><path d="M 118.64920377521936 109.65438752849418 l 25.33615317374403 13.116111774468267 a49.529862350242155,49.529862350242155 0 0,0 -0.3984736196209388,0.7537619196184754 l -25.106627045898197 -13.550288709172877" fill="#a9ff21" stroke="none" /><line stroke="#e1ed5e" stroke-width="0.3" x1="174.80103733775053" x2="179.2010983576182" y1="140.37084112569926" y2="142.7455964860345" /><path d="M 175.68104954172406 140.8457921977663 a86.0,86.0 0 0,1 -30.038265399797805,32.042727171017184" fill="none" id="id125" stroke="none" /><text fill="#e1ed5e" style="font-size:6.75px; font-family:Arial;" text-anchor="middle"><textPath startOffset="22.206326154141568" xlink:href="#id125">May</textPath></text><path d="M 118.48025628344425 109.97397251340804 l 16.959863034532287 9.153401616466308 a40.272304358909,40.272304358909 0 0,0 -0.33449713933059666,0.6072094691470081 l -16.79978948575018 -9.443981604011121" fill="#ffe515" stroke="none" /><path d="M 118.30583269289576 110.29060199501025 l 14.494878433327068 8.148278607468853 a37.628167218965075,37.628167218965075 0 0,0 -0.322254798227397,0.5618784036472458 l -14.352471638947293 -8.396576856974415" fill="#ffc212" stroke="none" /><path d="M 117.75023020441432 111.22182372390056 l 8.799100861209418 5.5628551098316095 a31.41006882487892,31.41006882487892 0 0,0 -0.2928542246144486,0.45451626004101214 l -8.70204177321792 -5.713492969794074" fill="#ff6e0a" stroke="none" /><path d="M 116.498646956653 112.99209946851258 l 10.293254760746422 8.105573145344001 a34.10158042314555,34.10158042314555 0 0,0 -0.36713126210924113,0.45805269849343777 l -10.152205586582326 -8.281553677415689" fill="#ff930d" stroke="none" /><path d="M 116.0416608686014 113.55231037782055 l 13.172522110392329 11.128405566044412 a38.244035177160335,38.244035177160335 0 0,0 -0.42916635017792676,0.4992174220253218 l -12.979013250643623 -11.353500087231263" fill="#ffca12" stroke="none" /><path d="M 114.29624159901734 115.38237550388516 l 18.079844158329028 19.453431167129807 a47.557800152944175,47.557800152944175 0 0,0 -0.604438013675507,0.5521397944055952 l -17.742306595186655 -19.761763728121988" fill="#c0ff1e" stroke="none" /><path d="M 114.0293411484842 115.62618273729858 l 13.82639312141908 15.400134847841095 a41.696214631659444,41.696214631659444 0 0,0 -0.53819418241712,0.47489379121850606 l -13.559256586095373 -15.635851780831889" fill="#fff717" stroke="none" /><path d="M 113.20401910651253 116.32954008644616 l 39.612057319537584 48.98862025933848 a84.0,84.0 0 0,0 -1.1321700291305956,0.899464343979496 l -38.762929797689644 -49.6632185173231" fill="#4dd2ff" stroke="none" /><path d="M 112.63410532772338 116.77436683061366 l 16.724972595768396 22.205832409657 a48.7997068569972,48.7997068569972 0 0,0 -0.6753299167529349,0.4995929275557177 l -16.340257708596898 -22.490435285952486" fill="#b1ff20" stroke="none" /><line stroke="#e1ed5e" stroke-width="0.3" x1="143.8653032363475" x2="146.44561519142675" y1="172.8068346515853" y2="177.08958963109032" /><path d="M 144.38136562736335 173.6633856474863 a86.0,86.0 0 0,1 -40.68145358897372,12.25698825130547" fill="none" id="id126" stroke="none" /><text fill="#e1ed5e" style="font-size:6.75px; font-family:Arial;" text-anchor="middle"><textPath startOffset="21.466115282336833" xlink:href="#id126">June</textPath></text><line stroke="#e1ed5e" stroke-width="0.3" x1="102.19456741930631" x2="102.32365962044197" y1="184.97166512339345" y2="189.96999836594603" /><path d="M 102.22038585953345 185.97133177190398 a86.0,86.0 0 0,1 -42.740103519485714,-10.115201625700543" fill="none" id="id127" stroke="none" /><text fill="#e1ed5e" style="font-size:6.75px; font-family:Arial;" text-anchor="middle"><textPath startOffset="22.20632615414155" xlink:href="#id127">July</textPath></text><line stroke="#e1ed5e" stroke-width="0.3" x1="58.666819895761336" x2="56.23545636021788" y1="174.27360380694188" y2="178.64263932499728" /><path d="M 58.180547188652646 175.14741091055294 a86.0,86.0 0 0,1 -31.652253787137756,-30.449443065178592" fill="none" id="id128" stroke="none" /><text fill="#e1ed5e" style="font-size:6.75px; font-family:Arial;" text-anchor="middle"><textPath startOffset="22.20632615414155" xlink:href="#id128">August</textPath></text><line stroke="#e1ed5e" stroke-width="0.3" x1="26.63291911575756" x2="22.317208475507996" y1="142.92168965132927" y2="145.44649492493687" /><path d="M 25.769776987707644 143.4266507060508 a86.0,86.0 0 0,1 -11.730757126820373,-40.83630448921669" fill="none" id="id129" stroke="none" /><text fill="#e1ed5e" style="font-size:6.75px; font-family:Arial;" text-anchor="middle"><textPath startOffset="21.46611528233685" xlink:href="#id129">September</textPath></text><line stroke="#e1ed5e" stroke-width="0.3" x1="15.007084014347285" x2="10.007500721073583" y1="101.09737516637583" y2="101.16192664675087" /><path d="M 14.007167355692545 101.11028546245083 a86.0,86.0 0 0,1 10.666146001902534,-42.60595125391555" fill="none" id="id130" stroke="none" /><text fill="#e1ed5e" style="font-size:6.75px; font-family:Arial;" text-anchor="middle"><textPath startOffset="22.20632615414155" xlink:href="#id130">October</textPath></text><line stroke="#e1ed5e" stroke-width="0.3" x1="26.266209847984243" x2="21.928928074336255" y1="57.711370442889674" y2="55.22380399835377" /><path d="M 25.398753493254645 57.213857153982495 a86.0,86.0 0 0,1 29.58750427330803,-30.492523968695096" fill="none" id="id131" stroke="none" /><text fill="#e1ed5e" style="font-size:6.75px; font-family:Arial;" text-anchor="middle"><textPath startOffset="21.46611528233685" xlink:href="#id131">November</textPath></text><line stroke="#e1ed5e" stroke-width="0.3" x1="56.762969772571076" x2="54.21961505331055" y1="26.818313649435495" y2="22.513508569990535" /><path d="M 56.25429882871897 25.957352633546506 a86.0,86.0 0 0,1 42.265352541879196,-11.944610805530505" fill="none" id="id132" stroke="none" /><text fill="#e1ed5e" style="font-size:6.75px; font-family:Arial;" text-anchor="middle"><textPath startOffset="22.20632615414155" xlink:href="#id132">December</textPath></text></svg>