<?xml version="1.0" encoding="utf-8" ?>
<svg baseProfile="full" height="200mm" version="1.1" viewBox="0,0,200,200" width="200mm" xmlns="http://www.w3.org/2000/svg" xmlns:ev="http://www.w3.org/2001/xml-events" xmlns:xlink="http://www.w3.org/1999/xlink"><defs /><rect fill="#1a1a1a" height="200" width="200" x="0" y="0" /><text alignment-baseline="middle" fill="#e1ed5e" style="dominant-baseline: central; font-size:9.0px; font-family:Arial;" text-anchor="middle" x="100.0" y="100.0">2024</text><line stroke="#e1ed5e" stroke-width="0.3" x1="100.0" x2="100.0" y1="15.0" y2="10.0" /><path d="M 100.0 14.0 a86.0,86.0 0 0,1 42.35913384403234,11.155469271406648" fill="none" id="id109" stroke="none" /><text fill="#e1ed5e" style="font-size:6.75px; font-family:Arial;" text-anchor="middle"><textPath startOffset="22.145653131862478" xlink:href="#id109">January</textPath></text><path d="M 100.0 79.0 l 0.0 -16.28934253977784 a37.28934253977784,37.28934253977784 0 0,0 0.6401211503740637,0.005494670201273974 l -0.2796282255252089 16.286942267771003" fill="#ff9f0e" stroke="none" /><path d="M 102.15924093988457 79.11130261209362 l 1.2363831339957465 -11.960885265045553 a33.02461723206244,33.02461723206244 0 0,0 0.5634064151249354,0.06313086396807294 l -1.4415254507214788 11.93789864057051" fill="#ff6108" stroke="none" /><path d="M 102.87502721639298 79.19773525538626 l 2.3222037603438346 -16.802309605338717 a37.962023416391474,37.962023416391474 0 0,0 0.6447666996647682,0.09475850108999687 l -2.6102955656162847 16.759970030949837" fill="#ffa80f" stroke="none" /><path d="M 103.23170211078529 79.25015418208739 l 2.6451900575360012 -16.98401770069393 a38.188772140498344,38.188772140498344 0 0,0 0.6468859705312099,0.10644484028192895 l -2.9363535311202815 16.936106861916333" fill="#ffac0f" stroke="none" /><path d="M 103.94208987418118 79.37332000966035 l 2.759462911926822 -14.43867599323776 a35.7,35.7 0 0,0 0.6009559745973733,0.12020802567313946 l -3.0069153720551522 14.389178570901763" fill="#ff880c" stroke="none" /><path d="M 104.9986988182912 79.60360301121754 l 4.336907710856068 -17.696063433677967 a39.21975382767938,39.21975382767938 0 0,0 0.6525321137330595,0.16587111160396273 l -4.640045117814522 17.61900709023874" fill="#ffba11" stroke="none" /><path d="M 105.69591212413111 79.78721728523813 l 4.380602725787776 -15.545213677177115 a37.150645451816274,37.150645451816274 0 0,0 0.6123487598431947,0.17824579952390698 l -4.646811498012575 15.467724183350692" fill="#ff9d0e" stroke="none" /><path d="M 106.38641147887787 79.99465700312896 l 7.100145526672414 -22.24110473597897 a44.3469228459922,44.3469228459922 0 0,0 0.723229177621057,0.23773979584083055 l -7.480897441941213 22.115944018736116" fill="#ffff18" stroke="none" /><path d="M 107.40779381753099 80.34994680014964 l 12.633501986979903 -33.51186497079255 a56.81410987691385,56.81410987691385 0 0,0 0.9096418867789984,0.35186902313948576 l -13.206916136252428 33.290056059515024" fill="#67ff28" stroke="none" /><path d="M 108.07796709384702 80.6158196554323 l 6.546443381648229 -15.70908096692155 a38.01855298709096,38.01855298709096 0 0,0 0.6002675553949447,0.25621852528288824 l -6.815146012213603 15.59438779197926" fill="#ffa90f" stroke="none" /><path d="M 109.06512990194946 81.05736502329252 l 19.413148496717582 -40.566013912592375 a65.97190033023116,65.97190033023116 0 0,0 1.0173487504118959,0.49763625382246746 l -20.106657496391545 40.22678390867269" fill="#35ff63" stroke="none" /><path d="M 109.3889696526874 81.21577127319529 l 6.504348955431229 -13.013055001493408 a35.548063644551185,35.548063644551185 0 0,0 0.5435007408123129,0.277515350854866 l -6.72677691795712 12.899481698965708" fill="#ff860c" stroke="none" /><path d="M 109.71004243097381 81.37971332152246 l 3.374271324507122 -6.470610179093478 a28.297568297808468,28.297568297808468 0 0,0 0.4287906056383973,0.22830684577553478 l -3.4848507459320786 6.41173286559537" fill="#ff1902" stroke="none" /><line stroke="#e1ed5e" stroke-width="0.3" x1="143.13028292997686" x2="145.6673583964461" y1="26.7553504044142" y2="22.446841604673864" /><path d="M 143.63769802327073 25.89364864446614 a86.0,86.0 0 0,1 29.32050498858742,28.57503671076993" fill="none" id="id110" stroke="none" /><text fill="#e1ed5e" style="font-size:6.75px; font-family:Arial;" text-anchor="middle"><textPath startOffset="20.669276256404974" xlink:href="#id110">February</textPath></text><path d="M 110.65571695917076 81.90426304109057 l 10.77525122026583 -18.29873226693443 a42.23557490243171,42.23557490243171 0 0,0 0.6216015576336467,0.3732538752956075 l -11.08778553445691 18.1110643911029" fill="#ffe315" stroke="none" /><path d="M 110.96478420261332 82.08984904055464 l 8.896584288322734 -14.531901830709385 a38.03893725607926,38.03893725607926 0 0,0 0.5539843578869743,0.34572721182742955 l -9.14473277499942 14.37703882204041" fill="#ffa90f" stroke="none" /><path d="M 111.27062007382361 82.28071324371311 l 23.074149983020146 -36.27639628775098 a63.99294506154308,63.99294506154308 0 0,0 0.9218469197764176,0.5975300359605575 l -23.69348253505357 35.87495241008653" fill="#32ff4a" stroke="none" /><path d="M 111.8722381534696 82.67804972795209 l 12.856304486154366 -18.757732460613635 a43.74064845391774,43.74064845391774 0 0,0 0.6157119237248065,0.42981474135768555 l -13.176411501052934 18.534272903450823" fill="#fff717" stroke="none" /><path d="M 112.45986205192187 83.09580414077388 l 9.468647295336202 -12.846038562490051 a36.95857099969979,36.95857099969979 0 0,0 0.5074711181853649,0.38081578780223857 l -9.687771402432334 12.681603747423798" fill="#ff9a0e" stroke="none" /><path d="M 113.03279911837588 83.53348406188908 l 15.630751269261971 -19.74894361235458 a46.18613029120384,46.18613029120384 0 0,0 0.6174628809298615,0.4973843889731285 l -15.967464920547092 19.477710929588046" fill="#e7ff1a" stroke="none" /><path d="M 113.31354834802062 83.75963576809568 l 28.40063773085412 -34.64416015254188 a65.79747823476434,65.79747823476434 0 0,0 0.867353843943191,0.7235774251258443 l -28.9911659089592 34.15152054350416" fill="#35ff61" stroke="none" /><path d="M 113.86319453409587 84.22622945171908 l 10.9992719086393 -12.515152323536487 a37.661723206244375,37.661723206244375 0 0,0 0.4819534369340731,0.4309657351788144 l -11.212490372396747 12.324491058474285" fill="#ffa40f" stroke="none" /><path d="M 114.39649973595853 84.71141617570332 l 12.766970980695572 -13.55808075578252 a39.623026118282795,39.623026118282795 0 0,0 0.4911887567555415,0.47054771783261445 l -12.997832223316424 13.336920907644325" fill="#ffc011" stroke="none" /><path d="M 114.91283532996326 85.21462403516908 l 12.594354296376649 -12.486710889381971 a38.735154608225756,38.735154608225756 0 0,0 0.46410838851874076,0.47621609233769163 l -12.8068494860462 12.268672104976538" fill="#ffb310" stroke="none" /><path d="M 115.41159269507618 85.73525988315684 l 32.88084044606856 -30.434015034436047 a65.8037826478535,65.8037826478535 0 0,0 0.7601975696986011,0.8355902961120296 l -33.39843571660904 29.865087162766347" fill="#35ff61" stroke="none" /><path d="M 116.1254893667686 86.54754324733833 l 8.727741598029088 -7.280992453962371 a32.36601621134795,32.36601621134795 0 0,0 0.35225504541322467,0.4296938795349201 l -8.85144346268094 7.130096292728956" fill="#ff5708" stroke="none" /><path d="M 116.57777611688842 87.10902102172516 l 13.290754642055761 -10.334971198073331 a37.8361453017112,37.8361453017112 0 0,0 0.39430312303879206,0.5161554453580723 l -13.466209742448859 10.105294839474377" fill="#ffa70f" stroke="none" /><path d="M 116.7966241395341 87.39550010848427 l 25.831301855176036 -19.384290481617427 a53.2956169318523,53.2956169318523 0 0,0 0.5428488012741556,0.736478656059355 l -26.16025267603402 18.9380055162892" fill="#8fff24" stroke="none" /><path d="M 117.01052211995028 87.68569379921539 l 9.41187609861074 -6.813472472206364 a32.6192434704293,32.6192434704293 0 0,0 0.3244603551594214,0.45639412281521147 l -9.527451552300121 6.650901122681648" fill="#ff5b08" stroke="none" /><path d="M 117.42321728460499 88.27688183743584 l 10.406854731146831 -7.002196306285695 a33.54326028219754,33.54326028219754 0 0,0 0.3173440979520846,0.48049941138072777 l -10.52552326801964 6.822517016565909" fill="#ff6909" stroke="none" /><path d="M 117.62189284568427 88.57770195909679 l 14.251284821543285 -9.237510642185878 a37.98324827379166,37.98324827379166 0 0,0 0.34995650264572103,0.5501897483891601 l -14.407759015814895 8.991507219118047" fill="#ffa90f" stroke="none" /><path d="M 117.81537515405839 88.88188828441811 l 21.30909983027255 -13.298454308299377 a46.11825277694386,46.11825277694386 0 0,0 0.4133777426649732,0.6752214760998059 l -21.534245537392927 12.930695716075016" fill="#e8ff1a" stroke="none" /><line stroke="#e1ed5e" stroke-width="0.3" x1="172.87174338648825" x2="177.1583165268699" y1="56.24261187166439" y2="53.66864786411523" /><path d="M 173.72905801456457 55.72781907015455 a86.0,86.0 0 0,1 12.242430191666344,42.057860355516425" fill="none" id="id111" stroke="none" /><text fill="#e1ed5e" style="font-size:6.75px; font-family:Arial;" text-anchor="middle"><textPath startOffset="22.145653131862474" xlink:href="#id111">March</textPath></text><path d="M 118.18653347947321 89.5 l 40.62878495038044 -23.45703992794957 a67.91407985589913,67.91407985589913 0 0,0 0.5742511727467411,1.0146467985588674 l -41.02546948814856 22.756136359291585" fill="#37ff7b" stroke="none" /><path d="M 118.36410011445183 89.81374322990088 l 9.342848492131804 -5.182320566314813 a31.68387871510057,31.68387871510057 0 0,0 0.25973938395371754,0.4778912114183334 l -9.430433225700863 5.021174521421876" fill="#ff4d07" stroke="none" /><path d="M 118.53625476483649 90.13048839642627 l 18.091444008045965 -9.632674929648282 a41.49606724707296,41.49606724707296 0 0,0 0.3293837894933403,0.6316368472340597 l -18.25413586651425 9.320691839309724" fill="#ffd914" stroke="none" /><path d="M 118.8641267826498 90.77261029715802 l 18.369351677102678 -8.98537040522215 a41.449204443110176,41.449204443110176 0 0,0 0.3071598072575295,0.6418458611546187 l -18.520890742320116 8.668712042002428" fill="#ffd914" stroke="none" /><path d="M 119.16976305983485 91.42560881287824 l 16.242408068410057 -7.2650225339097325 a38.793155208646056,38.793155208646056 0 0,0 0.2666865343707323,0.6102309808803984 l -16.36472848479776 6.985129483253485" fill="#ffb410" stroke="none" /><path d="M 119.31412917781788 91.75594674310238 l 33.89201563070403 -14.466486128923048 a57.85034524166917,57.85034524166917 0 0,0 0.38201656046006427,0.9167006768583792 l -34.13535803570058 13.882552942623391" fill="#5bff2a" stroke="none" /><path d="M 119.4528033332814 92.08871423366111 l 19.794828505467684 -8.050384426315446 a42.36922845992195,42.36922845992195 0 0,0 0.26822006533928644,0.6760897789698049 l -19.930107245773094 7.709393630132076" fill="#ffe515" stroke="none" /><path d="M 119.71291397450082 92.76114493625339 l 5.864951920102913 -2.153691583110682 a27.247883518462924,27.247883518462924 0 0,0 0.1574665957363382,0.4404620936725102 l -5.9010586858831955 2.052694533057255" fill="#ff0801" stroke="none" /><path d="M 120.05942366710727 93.78553927170692 l 12.710122963613506 -3.937628583949374 a34.30609426598619,34.30609426598619 0 0,0 0.16944544493193078,0.5640287770341397 l -12.775844728549064 3.718862203324511" fill="#ff740a" stroke="none" /><path d="M 120.16314734710363 94.1308016681162 l 11.237126008755089 -3.2709636095193897 a32.70351245872111,32.70351245872111 0 0,0 0.15227613155578298,0.5403742706531101 l -11.291620632385454 3.0775814149632663" fill="#ff5c08" stroke="none" /><path d="M 120.26092885502905 94.47779374421319 l 32.83515366971125 -8.949367144122512 a55.03290303212248,55.03290303212248 0 0,0 0.24059997143819517,0.9135972808552012 l -32.98394312195418 8.384389358894513" fill="#7bff26" stroke="none" /><path d="M 120.35273937422433 94.82641323984039 l 12.625908328699234 -3.2094565239248936 a34.02743920744521,34.02743920744521 0 0,0 0.13904660593844786,0.5673576019994802 l -12.679142461153972 2.9922430973173184" fill="#ff700a" stroke="none" /><path d="M 120.51834098615036 95.52812308129327 l 6.833081854078837 -1.4892383866470664 a27.993485439807866,27.993485439807866 0 0,0 0.0983001761112471,0.4704019277566553 l -6.8576397410144505 1.371720007605007" fill="#ff1402" stroke="none" /><path d="M 120.86939407059847 97.66154086499901 l 6.739897476637893 -0.7552195703381044 a27.782077454217955,27.782077454217955 0 0,0 0.04903881633890025,0.4744060636508518 l -6.751868685458459 0.6394089844043211" fill="#ff1101" stroke="none" /><path d="M 120.9064616781168 98.02013634271609 l 14.615275756745337 -1.3840818096086962 a35.68066646652657,35.68066646652657 0 0,0 0.052512387629073225,0.6102735433516834 l -14.63688176707215 1.1329872188813508" fill="#ff880c" stroke="none" /><path d="M 120.93736805541906 98.37931529534042 l 23.570200708119913 -1.8244826031760613 a44.640708495947166,44.640708495947166 0 0,0 0.05258258566546255,0.7645392552846134 l -23.59804725495044 1.4195999237371137" fill="#fbff18" stroke="none" /><path d="M 120.98066250479742 99.09900007780936 l 48.417607934492516 -2.079260412852057 a69.46223356349444,69.46223356349444 0 0,0 0.04093413724982308,1.191752742967189 l -48.44616675873919 1.247801405320748" fill="#39ff8e" stroke="none" /><line stroke="#e1ed5e" stroke-width="0.3" x1="184.99686870605535" x2="189.99668451229388" y1="99.2704041080226" y2="99.22748670261217" /><path d="M 185.99683186730306 99.26182062694052 a86.0,86.0 0 0,1 -10.086455211305974,41.156179273409016" fill="none" id="id112" stroke="none" /><text fill="#e1ed5e" style="font-size:6.75px; font-family:Arial;" text-anchor="middle"><textPath startOffset="21.40746469413373" xlink:href="#id112">April</textPath></text><path d="M 120.99922638620191 99.81974689727618 l 19.25843191623997 -0.16531047585537834 a40.25914139897929,40.25914139897929 0 0,0 0.0,0.6911271571584081 l -19.25843191623997 -0.165310475855376" fill="#ffc812" stroke="none" /><path d="M 120.99303781780057 100.54070618675476 l 18.85444955616533 0.48562373922985314 a39.86070249174422,39.86070249174422 0 0,0 -0.023489936660044914,0.6838838760880565 l -18.84333493250844 -0.8092138798820203" fill="#ffc312" stroke="none" /><path d="M 120.96210409425399 101.26102812881392 l 5.702539775866054 0.34305063226064475 a26.712848994296007,26.712848994296007 0 0,0 -0.03146524143403007,0.457497704779552 l -5.695810573266958 -0.44089176119454015" fill="#ff0000" stroke="none" /><path d="M 120.93736805541906 101.62068470465957 l 49.01560850215998 3.7941180944407997 a70.16223356349445,70.16223356349445 0 0,0 -0.10326002204202828,1.2000379792914495 l -48.94325485742021 -4.634977121107907" fill="#3aff96" stroke="none" /><path d="M 120.86939407059847 102.33845913500097 l 17.94918254964202 2.0112433430994634 a39.061513059141404,39.061513059141404 0 0,0 -0.08038843342652356,0.6657315482288361 l -17.912012029955832 -2.319068568251708" fill="#ffb811" stroke="none" /><path d="M 120.77682067341334 103.0534771498775 l 21.03109918520744 3.0908473345497596 a42.257009906934854,42.257009906934854 0 0,0 -0.11163599315881868,0.7167831583376176 l -20.974941699910357 -3.451418674818828" fill="#ffe415" stroke="none" /><path d="M 120.51834098615036 104.47187691870673 l 61.555022958451104 13.415630756120176 a84.0,84.0 0 0,0 -0.3191565537693437,1.4062626642439322 l -61.315655543124095 -14.470327754303124" fill="#4dd2ff" stroke="none" /><path d="M 120.43855184770803 104.8234425847677 l 7.398825308624417 1.7461026268785333 a28.60207145001501,28.60207145001501 0 0,0 -0.11687688085159162,0.4768975582078916 l -7.36776090125653 -1.8728560096945246" fill="#ff1e03" stroke="none" /><path d="M 120.26092885502905 105.52220625578681 l 15.591365636174114 4.249496035862599 a37.16010207145001,37.16010207145001 0 0,0 -0.17302718167661504,0.6140124269404074 l -15.51611996242292 -4.516516386706014" fill="#ff9d0e" stroke="none" /><path d="M 120.05942366710727 106.21446072829308 l 10.750751059134032 3.3306101593634754 a32.25484839387571,32.25484839387571 0 0,0 -0.16839378434400565,0.527491131049841 l -10.691992559012771 -3.5146703241046997" fill="#ff5507" stroke="none" /><path d="M 119.94978838288452 106.5578916946017 l 18.839403883879182 6.192886254740041 a40.83116181326929,40.83116181326929 0 0,0 -0.22459973540811198,0.6639892089764793 l -18.730318726898705 -6.515377138190681" fill="#ffd013" stroke="none" /><line stroke="#e1ed5e" stroke-width="0.3" x1="174.33088141563837" x2="178.70328620479359" y1="141.23008692659167" y2="143.65538615756765" /><path d="M 175.20536237346943 141.71514677278685 a86.0,86.0 0 0,1 -30.301960400862466,31.631185727798858" fill="none" id="id113" stroke="none" /><text fill="#e1ed5e" style="font-size:6.75px; font-family:Arial;" text-anchor="middle"><textPath startOffset="22.145653131862474" xlink:href="#id113">May</textPath></text><line stroke="#e1ed5e" stroke-width="0.3" x1="143.1302829299769" x2="145.66735839644613" y1="173.24464959558577" y2="177.55315839532614" /><path d="M 143.63769802327073 174.10635135553383 a86.0,86.0 0 0,1 -40.68552437913181,11.842963189579606" fill="none" id="id114" stroke="none" /><text fill="#e1ed5e" style="font-size:6.75px; font-family:Arial;" text-anchor="middle"><textPath startOffset="21.407464694133747" xlink:href="#id114">June</textPath></text><line stroke="#e1ed5e" stroke-width="0.3" x1="101.45913802915013" x2="101.54496967792366" y1="184.9874750549273" y2="189.98673829345242" /><path d="M 101.47630435890484 185.9873277026323 a86.0,86.0 0 0,1 -42.54439059252881,-10.42667462771756" fill="none" id="id115" stroke="none" /><text fill="#e1ed5e" style="font-size:6.75px; font-family:Arial;" text-anchor="middle"><textPath startOffset="22.145653131862474" xlink:href="#id115">July</textPath></text><line stroke="#e1ed5e" stroke-width="0.3" x1="58.13341422392154" x2="55.67067388415222" y1="173.97424548756322" y2="178.32567169271397" /><path d="M 57.64086615596768 174.84453072859336 a86.0,86.0 0 0,1 -31.369924170532247,-30.572349798747897" fill="none" id="id116" stroke="none" /><text fill="#e1ed5e" style="font-size:6.75px; font-family:Arial;" text-anchor="middle"><textPath startOffset="22.145653131862474" xlink:href="#id116">August</textPath></text><line stroke="#e1ed5e" stroke-width="0.3" x1="26.387840678322732" x2="22.057713659400548" y1="142.50000000000003" y2="145.00000000000006" /><path d="M 25.521815274538298 143.00000000000003 a86.0,86.0 0 0,1 -11.493303480769221,-40.785679425670985" fill="none" id="id117" stroke="none" /><text fill="#e1ed5e" style="font-size:6.75px; font-family:Arial;" text-anchor="middle"><textPath startOffset="21.40746469413373" xlink:href="#id117">September</textPath></text><line stroke="#e1ed5e" stroke-width="0.3" x1="15.003131293944662" x2="10.003315487706104" y1="100.72959589197737" y2="100.7725132973878" /><path d="M 14.003168132696942 100.73817937305945 a86.0,86.0 0 0,1 10.791469493833604,-42.45332614584628" fill="none" id="id118" stroke="none" /><text fill="#e1ed5e" style="font-size:6.75px; font-family:Arial;" text-anchor="middle"><textPath startOffset="22.145653131862435" xlink:href="#id118">October</textPath></text><line stroke="#e1ed5e" stroke-width="0.3" x1="26.387840678322718" x2="22.05771365940052" y1="57.49999999999999" y2="54.99999999999999" /><path d="M 25.521815274538284 56.99999999999999 a86.0,86.0 0 0,1 29.574782752854787,-30.34633250058573" fill="none" id="id119" stroke="none" /><text fill="#e1ed5e" style="font-size:6.75px; font-family:Arial;" text-anchor="middle"><textPath startOffset="21.40746469413373" xlink:href="#id119">November</textPath></text><line stroke="#e1ed5e" stroke-width="0.3" x1="56.869717070023135" x2="54.33264160355391" y1="26.7553504044142" y2="22.446841604673864" /><path d="M 56.362301976729285 25.89364864446614 a86.0,86.0 0 0,1 42.16139366436587,-11.88097634709845" fill="none" id="id120" stroke="none" /><text fill="#e1ed5e" style="font-size:6.75px; font-family:Arial;" text-anchor="middle"><textPath startOffset="22.145653131862474" xlink:href="#id120">December</textPath></text></svg>