<?xml version="1.0" encoding="utf-8" ?>
<svg baseProfile="full" height="200mm" version="1.1" viewBox="0,0,200,200" width="200mm" xmlns="http://www.w3.org/2000/svg" xmlns:ev="http://www.w3.org/2001/xml-events" xmlns:xlink="http://www.w3.org/1999/xlink"><defs /><rect fill="#1a1a1a" height="200" width="200" x="0" y="0" /><text alignment-baseline="middle" fill="#e1ed5e" style="dominant-baseline: central; font-size:9.0px; font-family:Arial;" text-anchor="middle" x="100.0" y="100.0">2024</text><line stroke="#e1ed5e" stroke-width="0.3" x1="100.0" x2="100.0" y1="15.0" y2="10.0" /><path d="M 100.0 14.0 a86.0,86.0 0 0,1 42.35913384403234,11.155469271406648" fill="none" id="id109" stroke="none" /><text fill="#e1ed5e" style="font-size:6.75px; font-family:Arial;" text-anchor="middle"><textPath startOffset="22.145653131862478" xlink:href="#id109">January</textPath></text><path d="M 100.0 79.0 l 0.0 -21.175841568702268 a42.17584156870227,42.17584156870227 0 0,0 0.7240044040506377,0.006214707047569769 l -0.36351147920178295 21.172721259849133" fill="#ffc912" stroke="none" /><path d="M 102.15924093988457 79.11130261209362 l 1.607275020448223 -15.548927820476944 a36.6317781892451,36.6317781892451 0 0,0 0.6249452850347379,0.07002642269926555 l -1.8739562070837574 15.519045637270708" fill="#ff770b" stroke="none" /><path d="M 102.87502721639298 79.19773525538626 l 3.0188215883608254 -21.842689189086794 a43.05031416541276,43.05031416541276 0 0,0 0.7311888694526051,0.1074595839379455 l -3.3933355634211124 21.787648531849968" fill="#ffd614" stroke="none" /><path d="M 103.23170211078529 79.25015418208739 l 3.438697752269918 -22.078906324897922 a43.34508327876814,43.34508327876814 0 0,0 0.734229583537905,0.12081719856403783 l -3.8172048388608935 22.016623127838216" fill="#ffda14" stroke="none" /><path d="M 103.94208987418118 79.37332000966035 l 3.5872503322328164 -18.77000956594763 a40.109725902060184,40.109725902060184 0 0,0 0.6751870986080135,0.1350563294391439 l -3.908933916371787 18.705663839845627" fill="#ffab0f" stroke="none" /><path d="M 104.9986988182912 79.60360301121754 l 5.637899157618416 -23.004552500888156 a44.68534024829692,44.68534024829692 0 0,0 0.7434676834846277,0.18898657783403205 l -6.031972134328439 22.904380691218854" fill="#ffed16" stroke="none" /><path d="M 105.69591212413111 79.78721728523813 l 5.694701862287215 -20.208487922436163 a41.995537940514545,41.995537940514545 0 0,0 0.6922064277503602,0.20149120279356064 l -6.04076830241918 20.107753025340088" fill="#ffc712" stroke="none" /><path d="M 106.38641147887787 79.99465700312896 l 9.230056794520307 -28.913021446501393 a51.35056437030323,51.35056437030323 0 0,0 0.8374476526564206,0.275285677252139 l -9.72502718482447 28.750314847847232" fill="#b8ff1f" stroke="none" /><path d="M 107.40779381753099 80.34994680014964 l 16.423317017300587 -43.564799595829776 a67.55767504585646,67.55767504585646 0 0,0 1.0816554396126619,0.4184075606475311 l -17.168744719406774 43.2764521470442" fill="#36ff6e" stroke="none" /><path d="M 108.07796709384702 80.6158196554323 l 8.5102543303846 -20.421512343615056 a43.123801553265025,43.123801553265025 0 0,0 0.6808733343035054,0.29062433918306074 l -8.859562739858534 20.272413354772596" fill="#ffd714" stroke="none" /><path d="M 109.06512990194946 81.05736502329252 l 25.23673106586834 -52.735061687673465 a79.4626318779243,79.4626318779243 0 0,0 1.2253885190631966,0.5993989296755713 l -26.138279834193604 52.294069007900674" fill="#47fffc" stroke="none" /><path d="M 109.3889696526874 81.21577127319529 l 8.45553236120015 -16.91672885897771 a39.912211472999985,39.912211472999985 0 0,0 0.6102249821519656,0.31158522391193505 l -8.744684565065695 16.76908568339294" fill="#ffa90f" stroke="none" /><path d="M 109.71004243097381 81.37971332152246 l 4.386489804796778 -8.411672581058289 a30.48670271582882,30.48670271582882 0 0,0 0.4619623701889048,0.24596894199161123 l -4.530240990772242 8.335133171344106" fill="#ff1602" stroke="none" /><line stroke="#e1ed5e" stroke-width="0.3" x1="143.13028292997686" x2="145.6673583964461" y1="26.7553504044142" y2="22.446841604673864" /><path d="M 143.63769802327073 25.89364864446614 a86.0,86.0 0 0,1 29.32050498858742,28.57503671076993" fill="none" id="id110" stroke="none" /><text fill="#e1ed5e" style="font-size:6.75px; font-family:Arial;" text-anchor="middle"><textPath startOffset="20.669276256404974" xlink:href="#id110">February</textPath></text><path d="M 110.65571695917076 81.90426304109057 l 14.007625669736013 -23.788010746687153 a48.60585141211824,48.60585141211824 0 0,0 0.7153560243391585,0.42955073876764177 l -14.413914450632607 23.54404600738359" fill="#dcff1b" stroke="none" /><path d="M 110.96478420261332 82.08984904055464 l 11.565393688055957 -18.89120141636074 a43.15030072286231,43.15030072286231 0 0,0 0.6284242768839281,0.39218322683413354 l -11.887982093729597 18.68988239268506" fill="#ffd714" stroke="none" /><path d="M 111.27062007382361 82.28071324371311 l 29.99596473459466 -47.158638760097595 a76.89002692846395,76.89002692846395 0 0,0 1.1076351372383788,0.7179557138898373 l -30.801085504090047 46.636769204503864" fill="#43ffdf" stroke="none" /><path d="M 111.8722381534696 82.67804972795209 l 16.712956111825616 -24.384702439898188 a50.56241896527052,50.56241896527052 0 0,0 0.7117380594410905,0.4968484418531787 l -17.129089262440466 24.094209182239883" fill="#c2ff1e" stroke="none" /><path d="M 112.45986205192187 83.09580414077388 l 12.309064930418934 -16.699610602481638 a41.74584473420609,41.74584473420609 0 0,0 0.573204264500169,0.43014316625109117 l -12.59392218382987 16.485848408966532" fill="#ffc312" stroke="none" /><path d="M 113.03279911837588 83.53348406188908 l 20.31968519720242 -25.673258454920976 a53.74149975499868,53.74149975499868 0 0,0 0.7184706979128042,0.5787491363663849 l -20.757406665470484 25.320661024761183" fill="#9aff23" stroke="none" /><path d="M 113.31354834802062 83.75963576809568 l 36.92029948845786 -45.03676221919391 a79.23588640611246,79.23588640611246 0 0,0 1.0445012863164151,0.871360122020702 l -37.687975108936165 44.39633991326134" fill="#46fffa" stroke="none" /><path d="M 113.86319453409587 84.22622945171908 l 14.298848387505258 -16.26946466158597 a42.65992949165478,42.65992949165478 0 0,0 0.545915000364597,0.48816055960496074 l -14.57602841469323 16.021608572097623" fill="#ffd013" stroke="none" /><path d="M 114.39649973595853 84.71141617570332 l 16.596824220452305 -17.62525217693884 a45.20958670661851,45.20958670661851 0 0,0 0.5604428248757443,0.5368915485013691 l -16.89693953119336 17.33774849813189" fill="#fff417" stroke="none" /><path d="M 114.91283532996326 85.21462403516908 l 16.372425749468828 -16.232491327507457 a44.055370298901614,44.055370298901614 0 0,0 0.5278529832091501,0.5416236620823417 l -16.64866553382879 15.949044973357372" fill="#ffe415" stroke="none" /><path d="M 115.41159269507618 85.73525988315684 l 42.74447947984657 -39.56365206852052 a79.24408202557555,79.24408202557555 0 0,0 0.9154664997180703,1.0062580493165096 l -43.41734368040652 38.82405644364634" fill="#46fffa" stroke="none" /><path d="M 116.1254893667686 86.54754324733833 l 11.345901338935004 -9.465154427904041 a35.77560914266883,35.77560914266883 0 0,0 0.38936329824917126,0.47495991427726303 l -11.506711456422803 9.268992231928284" fill="#ff6a09" stroke="none" /><path d="M 116.57777611688842 87.10902102172516 l 17.277733213688403 -13.435269850399175 a42.88667496346662,42.88667496346662 0 0,0 0.4469363816001537,0.5850540703651927 l -17.505821572642866 13.1366948667931" fill="#ffd413" stroke="none" /><path d="M 116.7966241395341 87.39550010848427 l 33.580210758217184 -25.199216184328105 a62.983699823512325,62.983699823512325 0 0,0 0.6415279138756113,0.8703558241755404 l -34.00784069167662 24.61905405088369" fill="#30ff31" stroke="none" /><path d="M 117.01052211995028 87.68569379921539 l 12.23526343323828 -8.857387169054144 a36.104799857769144,36.104799857769144 0 0,0 0.3591308362326476,0.5051624963480017 l -12.38550936800089 8.646047445996638" fill="#ff6f0a" stroke="none" /><path d="M 117.42321728460499 88.27688183743584 l 13.528717103045862 -9.102724634390333 a37.30600448374102,37.30600448374102 0 0,0 0.3529424463063438,0.5343998479753617 l -13.68298398827293 8.869144908075912" fill="#ff820b" stroke="none" /><path d="M 117.62189284568427 88.57770195909679 l 18.526404536862774 -12.008591591124901 a43.07790608427179,43.07790608427179 0 0,0 0.3968958432908584,0.6239861883005674 l -18.729818071779523 11.688791728145661" fill="#ffd614" stroke="none" /><path d="M 117.81537515405839 88.88188828441811 l 27.701432447356847 -17.28774263623622 a53.65326025211287,53.65326025211287 0 0,0 0.4809172567075838,0.7855421964968774 l -27.99411766851983 16.80966332361479" fill="#9bff22" stroke="none" /><line stroke="#e1ed5e" stroke-width="0.3" x1="172.87174338648825" x2="177.1583165268699" y1="56.24261187166439" y2="53.66864786411523" /><path d="M 173.72905801456457 55.72781907015455 a86.0,86.0 0 0,1 12.242430191666344,42.057860355516425" fill="none" id="id111" stroke="none" /><text fill="#e1ed5e" style="font-size:6.75px; font-family:Arial;" text-anchor="middle"><textPath startOffset="22.145653131862474" xlink:href="#id111">March</textPath></text><path d="M 118.18653347947321 89.5 l 52.81666286636177 -30.493714523591684 a81.98742904718335,81.98742904718335 0 0,0 0.6932491374503353,1.2249048000253664 l -53.33234536883347 29.5825529534672" fill="#4ae7ff" stroke="none" /><path d="M 118.36410011445183 89.81374322990088 l 12.145528831912591 -6.736920106046624 a34.88884311676373,34.88884311676373 0 0,0 0.286013170909127,0.526232020137989 l -12.25938735243706 6.527433252434032" fill="#ff5c08" stroke="none" /><path d="M 118.53625476483649 90.13048839642627 l 23.518539875253566 -12.522297796545951 a47.64450524909914,47.64450524909914 0 0,0 0.37818831346217735,0.7252259570619998 l -23.73003625769069 12.116725596379451" fill="#e9ff1a" stroke="none" /><path d="M 118.8641267826498 90.77261029715802 l 23.879814663128002 -11.680813984508754 a47.583584477756915,47.583584477756915 0 0,0 0.35261870120741645,0.7368374656712167 l -24.07681262229533 11.269164016772434" fill="#e9ff1a" stroke="none" /><path d="M 119.16976305983485 91.42560881287824 l 21.11482763106985 -9.444393829612629 a44.130769997961934,44.130769997961934 0 0,0 0.30338037848608185,0.6941936771583234 l -21.273841891572904 9.080538082678457" fill="#ffe515" stroke="none" /><path d="M 119.31412917781788 91.75594674310238 l 44.0589883653805 -18.80616222378742 a68.90476169827112,68.90476169827112 0 0,0 0.45501474456774416,1.091869744660973 l -44.37532895448473 18.047059969685172" fill="#38ff7f" stroke="none" /><path d="M 119.4528033332814 92.08871423366111 l 25.732907960392858 -10.465349645789264 a48.779598544735514,48.779598544735514 0 0,0 0.30880116500750704,0.7783806596700724 l -25.908767800366487 10.022067968905626" fill="#d9ff1c" stroke="none" /><path d="M 119.71291397450082 92.76114493625339 l 7.624328137546138 -2.799758900055728 a29.122132075226247,29.122132075226247 0 0,0 0.16829795221939448,0.4707593254855895 l -7.671266259809476 2.6684646181892213" fill="#ff0000" stroke="none" /><path d="M 120.05942366710727 93.78553927170692 l 16.52292285824047 -5.118843737645571 a38.29767443877352,38.29767443877352 0 0,0 0.18916074895679075,0.6296546120777733 l -16.60835992720089 4.834451521977075" fill="#ff910d" stroke="none" /><path d="M 120.16314734710363 94.1308016681162 l 14.608054282600081 -4.252191701600607 a36.21434797125896,36.21434797125896 0 0,0 0.16862350253169056,0.5983853231926596 l -14.678896277206354 4.000798454504935" fill="#ff710a" stroke="none" /><path d="M 120.26092885502905 94.47779374421319 l 42.6850875224631 -11.634010416400296 a65.24213936022133,65.24213936022133 0 0,0 0.2852340327653363,1.0830800817809498 l -42.87851103603316 10.899549830246546" fill="#33ff4f" stroke="none" /><path d="M 120.35273937422433 94.82641323984039 l 16.413445403127966 -4.172233637196161 a37.93542805850545,37.93542805850545 0 0,0 0.15501585306493532,0.6325175797944919 l -16.482648782709195 3.8898602327935743" fill="#ff8b0c" stroke="none" /><path d="M 120.51834098615036 95.52812308129327 l 8.882878999849506 -1.93598213412597 a30.091400670393,30.091400670393 0 0,0 0.10566708428266491,0.5056552502076687 l -8.914803794956537 1.7832104326328968" fill="#ff1001" stroke="none" /><path d="M 120.86939407059847 97.66154086499901 l 8.761741046703209 -0.981771359526043 a29.816574231064436,29.816574231064436 0 0,0 0.052629955768493615,0.5091470800130947 l -8.77730339495337 0.831219757230017" fill="#ff0b01" stroke="none" /><path d="M 120.9064616781168 98.02013634271609 l 18.999585965607384 -1.79928054473807 a40.08459266904007,40.08459266904007 0 0,0 0.0589937878588917,0.68559723863043 l -19.027673376164017 1.472862258731978" fill="#ffab0f" stroke="none" /><path d="M 120.93736805541906 98.37931529534042 l 30.64082142780383 -2.371793364610324 a51.7324802372827,51.7324802372827 0 0,0 0.06093603048461315,0.8859965096259369 l -30.67702141945351 1.845453430830053" fill="#b3ff20" stroke="none" /><path d="M 120.98066250479742 99.09900007780936 l 62.94198751439227 -2.7029997665719256 a84.0,84.0 0 0,0 0.049501252012607466,1.4411749417435202 l -62.97911345340172 1.6221185602642854" fill="#4dd2ff" stroke="none" /><line stroke="#e1ed5e" stroke-width="0.3" x1="184.99686870605535" x2="189.99668451229388" y1="99.2704041080226" y2="99.22748670261217" /><path d="M 185.99683186730306 99.26182062694052 a86.0,86.0 0 0,1 -10.086455211305974,41.156179273409016" fill="none" id="id112" stroke="none" /><text fill="#e1ed5e" style="font-size:6.75px; font-family:Arial;" text-anchor="middle"><textPath startOffset="21.40746469413373" xlink:href="#id112">April</textPath></text><path d="M 120.99922638620191 99.81974689727618 l 25.03560239611112 -0.2149005362132937 a46.03652471044313,46.03652471044313 0 0,0 0.0,0.790307277874238 l -25.03560239611112 -0.21490053621329067" fill="#feff18" stroke="none" /><line stroke="#e1ed5e" stroke-width="0.3" x1="174.33088141563837" x2="178.70328620479359" y1="141.23008692659167" y2="143.65538615756765" /><path d="M 175.20536237346943 141.71514677278685 a86.0,86.0 0 0,1 -30.301960400862466,31.631185727798858" fill="none" id="id113" stroke="none" /><text fill="#e1ed5e" style="font-size:6.75px; font-family:Arial;" text-anchor="middle"><textPath startOffset="22.145653131862474" xlink:href="#id113">May</textPath></text><line stroke="#e1ed5e" stroke-width="0.3" x1="143.1302829299769" x2="145.66735839644613" y1="173.24464959558577" y2="177.55315839532614" /><path d="M 143.63769802327073 174.10635135553383 a86.0,86.0 0 0,1 -40.68552437913181,11.842963189579606" fill="none" id="id114" stroke="none" /><text fill="#e1ed5e" style="font-size:6.75px; font-family:Arial;" text-anchor="middle"><textPath startOffset="21.407464694133747" xlink:href="#id114">June</textPath></text><line stroke="#e1ed5e" stroke-width="0.3" x1="101.45913802915013" x2="101.54496967792366" y1="184.9874750549273" y2="189.98673829345242" /><path d="M 101.47630435890484 185.9873277026323 a86.0,86.0 0 0,1 -42.54439059252881,-10.42667462771756" fill="none" id="id115" stroke="none" /><text fill="#e1ed5e" style="font-size:6.75px; font-family:Arial;" text-anchor="middle"><textPath startOffset="22.145653131862474" xlink:href="#id115">July</textPath></text><line stroke="#e1ed5e" stroke-width="0.3" x1="58.13341422392154" x2="55.67067388415222" y1="173.97424548756322" y2="178.32567169271397" /><path d="M 57.64086615596768 174.84453072859336 a86.0,86.0 0 0,1 -31.369924170532247,-30.572349798747897" fill="none" id="id116" stroke="none" /><text fill="#e1ed5e" style="font-size:6.75px; font-family:Arial;" text-anchor="middle"><textPath startOffset="22.145653131862474" xlink:href="#id116">August</textPath></text><line stroke="#e1ed5e" stroke-width="0.3" x1="26.387840678322732" x2="22.057713659400548" y1="142.50000000000003" y2="145.00000000000006" /><path d="M 25.521815274538298 143.00000000000003 a86.0,86.0 0 0,1 -11.493303480769221,-40.785679425670985" fill="none" id="id117" stroke="none" /><text fill="#e1ed5e" style="font-size:6.75px; font-family:Arial;" text-anchor="middle"><textPath startOffset="21.40746469413373" xlink:href="#id117">September</textPath></text><line stroke="#e1ed5e" stroke-width="0.3" x1="15.003131293944662" x2="10.003315487706104" y1="100.72959589197737" y2="100.7725132973878" /><path d="M 14.003168132696942 100.73817937305945 a86.0,86.0 0 0,1 10.791469493833604,-42.45332614584628" fill="none" id="id118" stroke="none" /><text fill="#e1ed5e" style="font-size:6.75px; font-family:Arial;" text-anchor="middle"><textPath startOffset="22.145653131862435" xlink:href="#id118">October</textPath></text><line stroke="#e1ed5e" stroke-width="0.3" x1="26.387840678322718" x2="22.05771365940052" y1="57.49999999999999" y2="54.99999999999999" /><path d="M 25.521815274538284 56.99999999999999 a86.0,86.0 0 0,1 29.574782752854787,-30.34633250058573" fill="none" id="id119" stroke="none" /><text fill="#e1ed5e" style="font-size:6.75px; font-family:Arial;" text-anchor="middle"><textPath startOffset="21.40746469413373" xlink:href="#id119">November</textPath></text><line stroke="#e1ed5e" stroke-width="0.3" x1="56.869717070023135" x2="54.33264160355391" y1="26.7553504044142" y2="22.446841604673864" /><path d="M 56.362301976729285 25.89364864446614 a86.0,86.0 0 0,1 42.16139366436587,-11.88097634709845" fill="none" id="id120" stroke="none" /><text fill="#e1ed5e" style="font-size:6.75px; font-family:Arial;" text-anchor="middle"><textPath startOffset="22.145653131862474" xlink:href="#id120">December</textPath></text></svg>