<?xml version="1.0" encoding="utf-8" ?>
<svg baseProfile="full" height="200mm" version="1.1" viewBox="0,0,200,200" width="200mm" xmlns="http://www.w3.org/2000/svg" xmlns:ev="http://www.w3.org/2001/xml-events" xmlns:xlink="http://www.w3.org/1999/xlink"><defs /><rect fill="#1a1a1a" height="200" width="200" x="0" y="0" /><text alignment-baseline="middle" fill="#e1ed5e" style="dominant-baseline: central; font-size:9.0px; font-family:Arial;" text-anchor="middle" x="100.0" y="100.0">2024</text><line stroke="#e1ed5e" stroke-width="0.3" x1="100.0" x2="100.0" y1="15.0" y2="10.0" /><path d="M 100.0 14.0 a86.0,86.0 0 0,1 42.35913384403234,11.155469271406648" fill="none" id="id109" stroke="none" /><text fill="#e1ed5e" style="font-size:6.75px; font-family:Arial;" text-anchor="middle"><textPath startOffset="22.145653131862478" xlink:href="#id109">January</textPath></text><path d="M 100.0 79.0 l 0.0 -21.874639408002004 a42.874639408002004,42.874639408002004 0 0,0 0.736000198191934,0.006317676512912823 l -0.3755072733430792 21.871416129683524" fill="#ffd113" stroke="none" /><path d="M 102.15924093988457 79.11130261209362 l 1.660314721742062 -16.06203881675658 a37.14762322839583,37.14762322839583 0 0,0 0.6337457020759303,0.07101252778464451 l -1.9357963254187889 16.031170528464965" fill="#ff7c0b" stroke="none" /><path d="M 102.87502721639298 79.19773525538626 l 3.1184419976056605 -22.563492844531066 a43.77796939671391,43.77796939671391 0 0,0 0.7435477433944315,0.10927591280619596 l -3.505314846607774 22.506635858425987" fill="#ffdd14" stroke="none" /><path d="M 103.23170211078529 79.25015418208739 l 3.5521739771224214 -22.80750509080214 a44.08246582214975,44.08246582214975 0 0,0 0.7467202292301327,0.12287252955944578 l -3.9431717094056244 22.743166562747028" fill="#ffe215" stroke="none" /><path d="M 103.94208987418118 79.37332000966035 l 3.7056287576218923 -19.389415509544474 a40.74034240561896,40.74034240561896 0 0,0 0.6858025819551663,0.13717972341252482 l -4.0379278251080155 19.32294638946909" fill="#ffb210" stroke="none" /><path d="M 104.9986988182912 79.60360301121754 l 5.823948516589653 -23.763697374990226 a45.46695095948827,45.46695095948827 0 0,0 0.756471999925037,0.19229222422020023 l -6.231025809740085 23.660219918934757" fill="#fff517" stroke="none" /><path d="M 105.69591212413111 79.78721728523813 l 5.882625697281526 -20.875363316733825 a42.688385802082024,42.688385802082024 0 0,0 0.7036265396658078,0.2048154309336531 l -6.240112249328938 20.771304191497656" fill="#ffce13" stroke="none" /><path d="M 106.38641147887787 79.99465700312896 l 9.534646518791646 -29.86714441955498 a52.352125924996855,52.352125924996855 0 0,0 0.8537815602435036,0.2806549571086422 l -10.045950816682891 29.699068541044316" fill="#adff20" stroke="none" /><path d="M 107.40779381753099 80.34994680014964 l 16.965282653404817 -45.002427834987266 a69.09406747773737,69.09406747773737 0 0,0 1.1062543801504423,0.4279229592929741 l -17.735309296048786 44.70456498755625" fill="#38ff81" stroke="none" /><path d="M 108.07796709384702 80.6158196554323 l 8.791090741002323 -21.095417494192056 a43.85388185124796,43.85388185124796 0 0,0 0.6924004304520893,0.29554457108538473 l -9.151926246624841 20.94139827344727" fill="#ffdf14" stroke="none" /><path d="M 109.06512990194946 81.05736502329252 l 26.06953731267565 -54.475306439841894 a81.39188511225385,81.39188511225385 0 0,0 1.2551394184210838,0.6139515853880928 l -27.0008369803588 54.01976110435658" fill="#49edff" stroke="none" /><path d="M 109.3889696526874 81.21577127319529 l 8.734562959581124 -17.47497697092737 a40.536310046406626,40.536310046406626 0 0,0 0.6197669375275973,0.31645741431585633 l -9.0332571188223 17.322461604938677" fill="#ffaf10" stroke="none" /><path d="M 109.71004243097381 81.37971332152246 l 4.53124294661442 -8.689255816910793 a30.799761695723063,30.799761695723063 0 0,0 0.46670612584227616,0.24849472468393172 l -4.679737888243256 8.610190624504288" fill="#ff1702" stroke="none" /><line stroke="#e1ed5e" stroke-width="0.3" x1="143.13028292997686" x2="145.6673583964461" y1="26.7553504044142" y2="22.446841604673864" /><path d="M 143.63769802327073 25.89364864446614 a86.0,86.0 0 0,1 29.32050498858742,28.57503671076993" fill="none" id="id110" stroke="none" /><text fill="#e1ed5e" style="font-size:6.75px; font-family:Arial;" text-anchor="middle"><textPath startOffset="20.669276256404974" xlink:href="#id110">February</textPath></text><path d="M 110.65571695917076 81.90426304109057 l 14.469874054055172 -24.57300956041046 a49.51683807851499,49.51683807851499 0 0,0 0.7287634594723097,0.43760151833819844 l -14.889570270084915 24.320994041536338" fill="#d2ff1c" stroke="none" /><path d="M 110.96478420261332 82.08984904055464 l 11.947048985846303 -19.51460666279213 a43.881255487269534,43.881255487269534 0 0,0 0.6390696191309659,0.3988267077223936 l -12.280282733766981 19.30664415822819" fill="#ffdf14" stroke="none" /><path d="M 111.27062007382361 82.28071324371311 l 30.98582458390644 -48.7148628545666 a78.7343847986956,78.7343847986956 0 0,0 1.134203935095757,0.7351772876658806 l -31.817514151259203 48.175771725196824" fill="#46fff4" stroke="none" /><path d="M 111.8722381534696 82.67804972795209 l 17.26447977058383 -25.189391940510653 a51.53797190517997,51.53797190517997 0 0,0 0.725470356481905,0.5064346516916008 l -17.694345218239494 24.889312473013927" fill="#b8ff1f" stroke="none" /><path d="M 112.45986205192187 83.09580414077388 l 12.715261205984666 -17.250693862540057 a42.430452778126174,42.430452778126174 0 0,0 0.5826044875112169,0.4371972688456773 l -13.009518682406648 17.029877566430365" fill="#ffca12" stroke="none" /><path d="M 113.03279911837588 83.53348406188908 l 20.9902300756663 -26.52047000388714 a54.82196162046908,54.82196162046908 0 0,0 0.7329154044076297,0.590384769431494 l -21.442396250429187 26.15623694066224" fill="#8eff24" stroke="none" /><path d="M 113.31354834802062 83.75963576809568 l 38.138660771768805 -46.52296488205967 a81.15765709268783,81.15765709268783 0 0,0 1.0698344029782905,0.8924939089435545 l -38.93166950890899 45.86140878920425" fill="#49f0ff" stroke="none" /><path d="M 113.86319453409587 84.22622945171908 l 14.770707053676581 -16.806353205788298 a43.37470211965383,43.37470211965383 0 0,0 0.5550618766985356,0.496339752825207 l -15.057033957198493 16.550317923079703" fill="#ffd814" stroke="none" /><path d="M 114.39649973595853 84.71141617570332 l 17.14451555384568 -18.206881393345583 a46.00849742882227,46.00849742882227 0 0,0 0.5703465602246419,0.5463791029340561 l -17.45453459993563 17.909890160105945" fill="#fffd17" stroke="none" /><path d="M 114.91283532996326 85.21462403516908 l 16.91271198558866 -16.768159760297348 a44.81619214850119,44.81619214850119 0 0,0 0.5369688317487741,0.5509773257464207 l -17.19806761848825 16.475359742483185" fill="#ffec16" stroke="none" /><path d="M 115.41159269507618 85.73525988315684 l 44.15503734625295 -40.86924337126007 a81.16612316568418,81.16612316568418 0 0,0 0.9376708616069681,1.0306645326640935 l -44.8501059087018 40.10524126303831" fill="#49f0ff" stroke="none" /><path d="M 116.1254893667686 86.54754324733833 l 11.720313440330488 -9.777502319315987 a36.26320080270914,36.26320080270914 0 0,0 0.39466999466892994,0.4814332210526003 l -11.886430254238045 9.574866816564892" fill="#ff6e0a" stroke="none" /><path d="M 116.57777611688842 87.10902102172516 l 17.847894385255128 -13.878630625998476 a43.608930139219865,43.608930139219865 0 0,0 0.45446324431725926,0.5949069752774231 l -18.083509606926693 13.57020273748017" fill="#ffdb14" stroke="none" /><path d="M 116.7966241395341 87.39550010848427 l 34.68834989143369 -26.030784448782892 a64.36915213846733,64.36915213846733 0 0,0 0.6556396020723632,0.8895010394426248 l -35.13009151308988 25.431477100071394" fill="#31ff42" stroke="none" /><path d="M 117.01052211995028 87.68569379921539 l 12.639024276587561 -9.149678882490663 a36.60325473472972,36.60325473472972 0 0,0 0.3640889170831794,0.5121366579817507 l -12.794228292200701 8.93136499779941" fill="#ff730a" stroke="none" /><path d="M 117.42321728460499 88.27688183743584 l 13.975161616215932 -9.403112427036737 a37.84409883356328,37.84409883356328 0 0,0 0.3580332175856069,0.5421079245362472 l -14.134519272722263 9.161824624161431" fill="#ff860c" stroke="none" /><path d="M 117.62189284568427 88.57770195909679 l 19.137771571242492 -12.404872316482876 a43.806471842468326,43.806471842468326 0 0,0 0.40360844256220124,0.6345395092882222 l -19.347897705430583 12.074519132515983" fill="#ffde14" stroke="none" /><path d="M 117.81537515405839 88.88188828441811 l 28.615573265652866 -17.858234116415538 a54.73081023454158,54.73081023454158 0 0,0 0.4905758008310886,0.8013187024548519 l -28.917917030939357 17.36437829783613" fill="#8fff24" stroke="none" /><line stroke="#e1ed5e" stroke-width="0.3" x1="172.87174338648825" x2="177.1583165268699" y1="56.24261187166439" y2="53.66864786411523" /><path d="M 173.72905801456457 55.72781907015455 a86.0,86.0 0 0,1 12.242430191666344,42.057860355516425" fill="none" id="id111" stroke="none" /><text fill="#e1ed5e" style="font-size:6.75px; font-family:Arial;" text-anchor="middle"><textPath startOffset="22.145653131862474" xlink:href="#id111">March</textPath></text><path d="M 118.18653347947321 89.5 l 54.55960043841963 -31.500000000000007 a84.0,84.0 0 0,0 0.7102665399144961,1.2549729196035277 l -55.092300343355504 30.558770310297362" fill="#4dd2ff" stroke="none" /><path d="M 118.36410011445183 89.81374322990088 l 12.546328454319912 -6.95923690032215 a35.3471717045027,35.3471717045027 0 0,0 0.28977047556548396,0.5331450375116428 l -12.663944279500736 6.742837029335904" fill="#ff6008" stroke="none" /><path d="M 118.53625476483649 90.13048839642627 l 24.294646212987136 -12.935530707025757 a48.52376771604165,48.52376771604165 0 0,0 0.3851676448189631,0.7386097451979702 l -24.513121926781043 12.516574718723287" fill="#dfff1b" stroke="none" /><path d="M 118.8641267826498 90.77261029715802 l 24.667842984710056 -12.06627812519731 a48.460836573435344,48.460836573435344 0 0,0 0.35911958797340215,0.750421818721303 l -24.87134183064337 11.641043804410904" fill="#e0ff1b" stroke="none" /><path d="M 119.16976305983485 91.42560881287824 l 21.81161202463963 -9.756056626116706 a44.894080020067726,44.894080020067726 0 0,0 0.3086278120436511,0.7062008320545985 l -21.97587371870025 9.380193724286258" fill="#ffed16" stroke="none" /><path d="M 119.31412917781788 91.75594674310238 l 45.51292471882228 -19.426761196671986 a70.48560767590618,70.48560767590618 0 0,0 0.4654539103232889,1.116919942229424 l -45.839704473682055 18.642608745001283" fill="#3aff92" stroke="none" /><path d="M 119.4528033332814 92.08871423366111 l 26.58208792914549 -10.810703746416959 a49.69631882603788,49.69631882603788 0 0,0 0.3146044987637815,0.793008851754078 l -26.7637511028754 10.352793877449315" fill="#d0ff1d" stroke="none" /><path d="M 119.71291397450082 92.76114493625339 l 7.875929190158089 -2.8921502916125466 a29.39016054182867,29.39016054182867 0 0,0 0.16984689932083508,0.4750920062049394 l -7.924416259522866 2.7565233290266904" fill="#ff0000" stroke="none" /><path d="M 120.05942366710727 93.78553927170692 l 17.06817546389463 -5.287764388660761 a38.868493666123165,38.868493666123165 0 0,0 0.19198015233171414,0.6390394889516414 l -17.15643193622997 4.993987296118395" fill="#ff960d" stroke="none" /><path d="M 120.16314734710363 94.1308016681162 l 15.090116671286516 -4.392513037294698 a36.71641791044776,36.71641791044776 0 0,0 0.17096127185254312,0.6066812417900409 l -15.16329643521364 4.132823871601643" fill="#ff750a" stroke="none" /><line stroke="#e1ed5e" stroke-width="0.3" x1="184.99686870605535" x2="189.99668451229388" y1="99.2704041080226" y2="99.22748670261217" /><path d="M 185.99683186730306 99.26182062694052 a86.0,86.0 0 0,1 -10.086455211305974,41.156179273409016" fill="none" id="id112" stroke="none" /><text fill="#e1ed5e" style="font-size:6.75px; font-family:Arial;" text-anchor="middle"><textPath startOffset="21.40746469413373" xlink:href="#id112">April</textPath></text><line stroke="#e1ed5e" stroke-width="0.3" x1="174.33088141563837" x2="178.70328620479359" y1="141.23008692659167" y2="143.65538615756765" /><path d="M 175.20536237346943 141.71514677278685 a86.0,86.0 0 0,1 -30.301960400862466,31.631185727798858" fill="none" id="id113" stroke="none" /><text fill="#e1ed5e" style="font-size:6.75px; font-family:Arial;" text-anchor="middle"><textPath startOffset="22.145653131862474" xlink:href="#id113">May</textPath></text><line stroke="#e1ed5e" stroke-width="0.3" x1="143.1302829299769" x2="145.66735839644613" y1="173.24464959558577" y2="177.55315839532614" /><path d="M 143.63769802327073 174.10635135553383 a86.0,86.0 0 0,1 -40.68552437913181,11.842963189579606" fill="none" id="id114" stroke="none" /><text fill="#e1ed5e" style="font-size:6.75px; font-family:Arial;" text-anchor="middle"><textPath startOffset="21.407464694133747" xlink:href="#id114">June</textPath></text><line stroke="#e1ed5e" stroke-width="0.3" x1="101.45913802915013" x2="101.54496967792366" y1="184.9874750549273" y2="189.98673829345242" /><path d="M 101.47630435890484 185.9873277026323 a86.0,86.0 0 0,1 -42.54439059252881,-10.42667462771756" fill="none" id="id115" stroke="none" /><text fill="#e1ed5e" style="font-size:6.75px; font-family:Arial;" text-anchor="middle"><textPath startOffset="22.145653131862474" xlink:href="#id115">July</textPath></text><line stroke="#e1ed5e" stroke-width="0.3" x1="58.13341422392154" x2="55.67067388415222" y1="173.97424548756322" y2="178.32567169271397" /><path d="M 57.64086615596768 174.84453072859336 a86.0,86.0 0 0,1 -31.369924170532247,-30.572349798747897" fill="none" id="id116" stroke="none" /><text fill="#e1ed5e" style="font-size:6.75px; font-family:Arial;" text-anchor="middle"><textPath startOffset="22.145653131862474" xlink:href="#id116">August</textPath></text><line stroke="#e1ed5e" stroke-width="0.3" x1="26.387840678322732" x2="22.057713659400548" y1="142.50000000000003" y2="145.00000000000006" /><path d="M 25.521815274538298 143.00000000000003 a86.0,86.0 0 0,1 -11.493303480769221,-40.785679425670985" fill="none" id="id117" stroke="none" /><text fill="#e1ed5e" style="font-size:6.75px; font-family:Arial;" text-anchor="middle"><textPath startOffset="21.40746469413373" xlink:href="#id117">September</textPath></text><line stroke="#e1ed5e" stroke-width="0.3" x1="15.003131293944662" x2="10.003315487706104" y1="100.72959589197737" y2="100.7725132973878" /><path d="M 14.003168132696942 100.73817937305945 a86.0,86.0 0 0,1 10.791469493833604,-42.45332614584628" fill="none" id="id118" stroke="none" /><text fill="#e1ed5e" style="font-size:6.75px; font-family:Arial;" text-anchor="middle"><textPath startOffset="22.145653131862435" xlink:href="#id118">October</textPath></text><line stroke="#e1ed5e" stroke-width="0.3" x1="26.387840678322718" x2="22.05771365940052" y1="57.49999999999999" y2="54.99999999999999" /><path d="M 25.521815274538284 56.99999999999999 a86.0,86.0 0 0,1 29.574782752854787,-30.34633250058573" fill="none" id="id119" stroke="none" /><text fill="#e1ed5e" style="font-size:6.75px; font-family:Arial;" text-anchor="middle"><textPath startOffset="21.40746469413373" xlink:href="#id119">November</textPath></text><line stroke="#e1ed5e" stroke-width="0.3" x1="56.869717070023135" x2="54.33264160355391" y1="26.7553504044142" y2="22.446841604673864" /><path d="M 56.362301976729285 25.89364864446614 a86.0,86.0 0 0,1 42.16139366436587,-11.88097634709845" fill="none" id="id120" stroke="none" /><text fill="#e1ed5e" style="font-size:6.75px; font-family:Arial;" text-anchor="middle"><textPath startOffset="22.145653131862474" xlink:href="#id120">December</textPath></text></svg>