<?xml version="1.0" encoding="utf-8" ?>
<svg baseProfile="full" height="200mm" version="1.1" viewBox="0,0,200,200" width="200mm" xmlns="http://www.w3.org/2000/svg" xmlns:ev="http://www.w3.org/2001/xml-events" xmlns:xlink="http://www.w3.org/1999/xlink"><defs /><rect fill="#1a1a1a" height="200" width="200" x="0" y="0" /><text alignment-baseline="middle" fill="#e1ed5e" style="dominant-baseline: central; font-size:9.0px; font-family:Arial;" text-anchor="middle" x="100.0" y="100.0">2025</text><line stroke="#e1ed5e" stroke-width="0.3" x1="100.0" x2="100.0" y1="15.0" y2="10.0" /><path d="M 100.0 14.0 a86.0,86.0 0 0,1 42.46469731375804,11.215312516191453" fill="none" id="id121" stroke="none" /><text fill="#e1ed5e" style="font-size:6.75px; font-family:Arial;" text-anchor="middle"><textPath startOffset="22.20632615414155" xlink:href="#id121">January</textPath></text><path d="M 100.0 79.0 l 0.0 -29.634053367217277 a50.63405336721728,50.63405336721728 0 0,0 0.8715819942234514,0.007501981392537204 l -0.510101514950923 29.6296627624333" fill="#a2ff22" stroke="none" /><path d="M 100.36148047927253 79.00311137660856 l 0.45575924583472094 -26.47314771500519 a47.47707057872242,47.47707057872242 0 0,0 0.8169975593392221,0.02110063658014657 l -0.9113834403688109 26.461380286282683" fill="#c7ff1e" stroke="none" /><path d="M 100.72285384407766 79.0124445844662 l 1.467202805682474 -42.59920652338582 a63.6244657502599,63.6244657502599 0 0,0 1.0942170995255882,0.04711929005238313 l -2.2002607375973935 42.56763950680924" fill="#33ff4e" stroke="none" /><path d="M 101.80526077348638 79.07773832637324 l 1.9753632341970675 -22.893682227702058 a43.978745523853526,43.978745523853526 0 0,0 0.7536593074346324,0.07156903243729704 l -2.369147668721944 22.856287650749582" fill="#f2ff19" stroke="none" /><path d="M 102.16513564639614 79.11191278185805 l 1.110025483295682 -10.70894063752263 a31.766316275846137,31.766316275846137 0 0,0 0.5434056434821369,0.06105795562980304 l -1.294197830287544 10.688246728422227" fill="#ff6809" stroke="none" /><path d="M 102.88285421437855 79.19881850522331 l 2.8392776791160856 -20.48675580707201 a41.68256901929075,41.68256901929075 0 0,0 0.7098561741296132,0.10461434769798732 l -3.1915028336743543 20.434846975213055" fill="#ffef16" stroke="none" /><path d="M 103.2404852339499 79.25152402106235 l 2.026620074282867 -12.976228834234195 a34.13353355665935,34.13353355665935 0 0,0 0.5797349767113826,0.09566123851833941 l -2.2496842571331244 12.93942133277623" fill="#ff8a0c" stroke="none" /><path d="M 104.307194497241 79.44645832069477 l 5.725677980160502 -27.322416269544238 a48.91590620307266,48.91590620307266 0 0,0 0.822619437154223,0.1797927470136041 l -6.195140141468253 27.219810024434764" fill="#b6ff1f" stroke="none" /><path d="M 104.66035177308747 79.52364482259891 l 3.3386665048110795 -14.669219084745851 a36.04435716761003,36.04435716761003 0 0,0 0.6037881462013236,0.14289714659324365 l -3.5906783379749267 14.609576026011737" fill="#ffa40f" stroke="none" /><path d="M 105.01212808612495 79.60689891045804 l 2.3870860689722972 -9.712458795446633 a31.001501674945132,31.001501674945132 0 0,0 0.5171214511499803,0.13182577208754406 l -2.5539164088073028 9.669930027190222" fill="#ff5d08" stroke="none" /><path d="M 106.0581310904928 79.89281104454417 l 11.906123539222252 -39.51691902240907 a62.2715721381541,62.2715721381541 0 0,0 1.0236694079233566,0.31805906800913325 l -12.584578319856327 39.30611981951741" fill="#31ff3d" stroke="none" /><path d="M 106.74666289553966 80.11325718540242 l 12.89123742428978 -37.99874503708401 a61.125909668476375,61.125909668476375 0 0,0 0.9934939518025582,0.3466105320188039 l -13.543413380155611 37.771213651893" fill="#30ff2f" stroke="none" /><path d="M 107.4271985657038 80.35727306442388 l 9.683952096130115 -25.61116752147296 a48.38084786877671,48.38084786877671 0 0,0 0.7764362011127491,0.30124518337162115 l -10.123371462242531 25.44067963421079" fill="#bcff1f" stroke="none" /><path d="M 108.43124777332544 80.76684994638697 l 16.62944978648452 -37.93468198910856 a62.41954487697816,62.41954487697816 0 0,0 0.9803372408377465,0.4398487438192273 l -17.27996914578905 37.642812914772804" fill="#31ff3f" stroke="none" /><path d="M 109.41281617654863 81.2277094730956 l 5.027707288940838 -10.026922882800731 a32.21681875938547,32.21681875938547 0 0,0 0.4935915980517197,0.2528367877237704 l -5.199559374581313 9.93889356976446" fill="#ff6f0a" stroke="none" /><line stroke="#e1ed5e" stroke-width="0.3" x1="143.23703022742887" x2="145.7803849466894" y1="26.81831364943548" y2="22.513508569990506" /><path d="M 143.74570117128098 25.957352633546492 a86.0,86.0 0 0,1 28.547481713284135,27.462654790039103" fill="none" id="id122" stroke="none" /><text fill="#e1ed5e" style="font-size:6.75px; font-family:Arial;" text-anchor="middle"><textPath startOffset="19.985693538727396" xlink:href="#id122">February</textPath></text><path d="M 111.2981086023043 82.29822771554956 l 2.330506403221235 -3.651415923623004 a25.331754649416656,25.331754649416656 0 0,0 0.36554080731026756,0.23775790925366194 l -2.3930142363157825 3.610759090209814" fill="#ff0901" stroke="none" /><path d="M 111.60114157652 82.49532879139004 l 2.7758965141263086 -4.188480544643386 a26.024835393323322,26.024835393323322 0 0,0 0.37128183393724506,0.250691151640822 l -2.847583042470095 4.140077480703893" fill="#ff1402" stroke="none" /><path d="M 111.90073688211348 82.69761687909136 l 6.816328263523761 -9.910203398465615 a33.02806977012822,33.02806977012822 0 0,0 0.4656468085044538,0.3262153468845167 l -6.985906211611866 9.791403208817163" fill="#ff7a0b" stroke="none" /><path d="M 112.19680574252982 82.90503203632743 l 4.176367912960507 -5.8535715976535245 a28.19071271803165,28.19071271803165 0 0,0 0.3925955223672939,0.2852373433043172 l -4.27650875168159 5.7808150195325325" fill="#ff3405" stroke="none" /><path d="M 113.34407831869373 83.78471172551755 l 2.477283141393494 -3.0103135874837452 a24.89857918447499,24.89857918447499 0 0,0 0.32859302673351665,0.2751872100597612 l -2.528733705086128 2.9672252200301648" fill="#ff0300" stroke="none" /><path d="M 113.6212207817346 84.01681056812373 l 3.034480446103356 -3.5606702640361996 a25.67829502136999,25.67829502136999 0 0,0 0.33394769573876504,0.2895961509694183 l -3.0953219404888848 3.50790911964711" fill="#ff0f01" stroke="none" /><path d="M 114.42810811169701 84.74124197986012 l 12.852656513896731 -13.592605083304855 a39.7069423587848,39.7069423587848 0 0,0 0.4925868490180615,0.4738681584793262 l -13.08472660652721 13.369353838063228" fill="#ffd513" stroke="none" /><path d="M 115.9244219780498 86.31012108654704 l 8.526013153316491 -7.329627903875993 a32.24350236802587,32.24350236802587 0 0,0 0.3581936612601638,0.4239883148353835 l -8.65091742806377 7.181780639411503" fill="#ff6f0a" stroke="none" /><path d="M 116.15771136456269 86.58626213691792 l 8.10618559556156 -6.729557558927062 a31.535520388125214,31.535520388125214 0 0,0 0.343138760087703,0.42064754668382665 l -8.220822847725671 6.5890258426351345" fill="#ff6509" stroke="none" /><path d="M 116.38621287248628 86.86637796730983 l 10.871863805527871 -8.713846886026849 a34.93300219475569,34.93300219475569 0 0,0 0.3720296854028194,0.4724399202555152 l -11.020247571524655 8.525414571818295" fill="#ff950d" stroke="none" /><path d="M 117.2510076193507 88.02491185347247 l 8.592623871391961 -5.964719890011172 a31.45997458703939,31.45997458703939 0 0,0 0.3049752922192673,0.44751360935729456 l -8.694023629279963 5.8159282573834705" fill="#ff6409" stroke="none" /><path d="M 117.65298651832404 88.62581576622439 l 3.1315633108134358 -2.0177309941267643 a24.725308998498324,24.725308998498324 0 0,0 0.22744035108578206,0.35975601549925085 l -3.165831258145173 1.9635273309133072" fill="#ff0000" stroke="none" /><line stroke="#e1ed5e" stroke-width="0.3" x1="172.23445277983987" x2="176.4835382374775" y1="55.19839476539836" y2="52.563006222186495" /><path d="M 173.08426987136738 54.67131705675599 a86.0,86.0 0 0,1 12.851231095245387,41.99856678651699" fill="none" id="id123" stroke="none" /><text fill="#e1ed5e" style="font-size:6.75px; font-family:Arial;" text-anchor="middle"><textPath startOffset="22.20632615414155" xlink:href="#id123">March</textPath></text><path d="M 117.84615892207809 88.93136811851018 l 12.823236323108404 -7.953290285577504 a36.08940741596396,36.08940741596396 0 0,0 0.322887119174839,0.530741526471858 l -12.958239240569466 7.731380985898564" fill="#ffa50f" stroke="none" /><path d="M 118.21658344932153 89.55222093294921 l 9.64803455182387 -5.533448887885861 a32.12221323784221,32.12221323784221 0 0,0 0.27096212475518106,0.4820113851730922 l -9.741854317871484 5.366553992777975" fill="#ff6d0a" stroke="none" /><path d="M 118.56541770881063 90.18545643968196 l 15.356549821847441 -8.11818670210634 a38.370336144160795,38.370336144160795 0 0,0 0.30365656731595037,0.5865678361102589 l -15.494015822323508 7.852646143735736" fill="#ffc312" stroke="none" /><path d="M 118.73160827565052 90.50648371742162 l 10.37148554386874 -5.256455582259653 a32.627469100150165,32.627469100150165 0 0,0 0.24958458160053332,0.5031472866490679 l -10.46043013842268 5.077148707111635" fill="#ff740a" stroke="none" /><path d="M 119.04729006885535 91.15688171328212 l 8.672003382889471 -4.026166001593199 a30.561048862192443,30.561048862192443 0 0,0 0.21741666148483296,0.4790487939112415 l -8.740022361337651 3.876295198839895" fill="#ff5708" stroke="none" /><path d="M 119.47837535516314 92.15188598940014 l 6.760007790465779 -2.7237031264034957 a28.288090562550536,28.288090562550536 0 0,0 0.17808895399522753,0.4532169628270618 l -6.805890294342706 2.6069371586806493" fill="#ff3605" stroke="none" /><path d="M 119.7369772167798 92.82701384747503 l 20.04736747549019 -7.285790915035177 a42.33025297447152,42.33025297447152 0 0,0 0.24298959926733035,0.6869643184600835 l -20.169810155567333 6.939628970148479" fill="#fff717" stroke="none" /><path d="M 119.85752413597 93.16781622104841 l 7.546311380175465 -2.5963854229521277 a28.980478225713295,28.980478225713295 0 0,0 0.1582371457689799,0.4731089250451777 l -7.589885819716214 2.466103394984636" fill="#ff4006" stroke="none" /><path d="M 120.18372546131832 94.20196356495316 l 24.599238067808475 -7.066449594000229 a46.59408571098533,46.59408571098533 0 0,0 0.21480590048515075,0.7727711133649866 l -24.71723073885999 6.641967177216291" fill="#d2ff1c" stroke="none" /><path d="M 120.28053869075195 94.5502522615342 l 30.947742608787355 -8.316218462666836 a53.045627815640515,53.045627815640515 0 0,0 0.22936845637632675,0.883850227699902 l -31.086307397033984 7.782271809418083" fill="#86ff25" stroke="none" /><path d="M 120.53481517161879 95.60439243477599 l 43.57654568242859 -9.327836275475631 a65.56370567171075,65.56370567171075 0 0,0 0.22672773658578788,1.1056049643090364 l -43.73065271492937 8.576355655003182" fill="#35ff66" stroke="none" /><path d="M 120.73433829027371 96.67025291283417 l 24.205173248219168 -3.887131770942958 a45.515305533094605,45.515305533094605 0 0,0 0.117568432546667,0.774629076060647 l -24.268497574205135 3.469903582490229" fill="#dfff1b" stroke="none" /><path d="M 120.83666639777658 97.38593545837742 l 23.739750184578796 -2.9782709959356746 a44.925840360401985,44.925840360401985 0 0,0 0.08965838621531262,0.7681382996390661 l -23.787498923797695 2.5691889579717557" fill="#e6ff1a" stroke="none" /><path d="M 120.94382443527127 98.46500227214037 l 36.272814107998315 -2.6584775579518514 a57.37010511724616,57.37010511724616 0 0,0 0.06370652120708276,0.9855116858998625 l -36.31320122020981 2.0337068077989535" fill="#57ff2a" stroke="none" /><path d="M 120.96714384426684 98.82574320788733 l 38.939673421431436 -2.180801368912623 a60.0006930807439,60.0006930807439 0 0,0 0.048875969623854404,1.0316944698275643 l -38.97144299928879 1.5101957924620588" fill="#3bff2e" stroke="none" /><line stroke="#e1ed5e" stroke-width="0.3" x1="184.98032266829074" x2="189.97916517819016" y1="98.17113171792111" y2="98.06355123074" /><path d="M 185.9800911702706 98.14961562048488 a86.0,86.0 0 0,1 -9.607161424134198,41.387399972396054" fill="none" id="id124" stroke="none" /><text fill="#e1ed5e" style="font-size:6.75px; font-family:Arial;" text-anchor="middle"><textPath startOffset="21.466115282336823" xlink:href="#id124">April</textPath></text><path d="M 120.99980553446 99.90962569577887 l 24.410770828865672 -0.10505365992747148 a45.410996881136654,45.410996881136654 0 0,0 -0.003364095758778786,0.7816973789453778 l -24.40896243581739 -0.3151531972215911" fill="#e0ff1b" stroke="none" /><path d="M 120.99824983174949 100.27111621757518 l 23.34586518200449 0.3014271529713448 a44.34781101998382,44.34781101998382 0 0,0 -0.016425452103360466,0.7632262166684537 l -23.337217667216123 -0.7032431854299134" fill="#edff19" stroke="none" /><path d="M 120.9764740272857 100.99374915477107 l 62.92942208185712 2.9812474643131925 a84.0,84.0 0 0,0 -0.0808545964498828,1.4437131346583068 l -62.86878113451971 -4.064032315306923" fill="#4dd2ff" stroke="none" /><path d="M 120.95626037817324 101.35467743843564 l 22.649042347366752 1.4641040966501733 a43.69631512071156,43.69631512071156 0 0,0 -0.05498128662746364,0.7501759731961376 l -22.620484502074948 -1.8537532063430813" fill="#f6ff19" stroke="none" /><path d="M 120.92983693683757 101.71520430193887 l 31.56416554432662 2.586689647517144 a52.669978052443106,52.669978052443106 0 0,0 -0.08182758562088274,0.9029605887437062 l -31.51496336242866 -3.1296316248094214" fill="#8aff24" stroke="none" /><path d="M 120.8583938346157 102.4346265915055 l 38.606219754192836 4.5061824969034046 a59.86831465865774,59.86831465865774 0 0,0 -0.12828494302735224,1.0225572166093444 l -38.52293330191864 -5.170057467800143" fill="#3dff2e" stroke="none" /><path d="M 120.76222939487914 103.15116336523771 l 61.465778571770386 9.328897488193027 a83.1696892687998,83.1696892687998 0 0,0 -0.22700669900973242,1.4135709314284195 l -61.29609011839936 -10.385547649314653" fill="#4cdaff" stroke="none" /><path d="M 120.70491114924044 103.5080841355445 l 29.60646150768136 5.016295755923398 a51.02841631050018,51.02841631050018 0 0,0 -0.1541873598427717,0.8647645973660105 l -29.515727705499398 -5.525179104022627" fill="#9dff22" stroke="none" /><path d="M 120.5718875245553 104.21870165774334 l 27.419791205232023 5.623009481964835 a48.990412383042624,48.990412383042624 0 0,0 -0.1765193641070889,0.8246397027861216 l -27.31893780240049 -6.094163004167125" fill="#b5ff20" stroke="none" /><path d="M 120.41448212921028 104.9243191809786 l 37.75191876644534 9.1064028234325 a59.83470024257826,59.83470024257826 0 0,0 -0.25013379494499755,0.9991601720511464 l -37.589573657205285 -9.754890834881042" fill="#3dff2e" stroke="none" /><line stroke="#e1ed5e" stroke-width="0.3" x1="174.80103733775053" x2="179.2010983576182" y1="140.37084112569926" y2="142.7455964860345" /><path d="M 175.68104954172406 140.8457921977663 a86.0,86.0 0 0,1 -30.038265399797805,32.042727171017184" fill="none" id="id125" stroke="none" /><text fill="#e1ed5e" style="font-size:6.75px; font-family:Arial;" text-anchor="middle"><textPath startOffset="22.206326154141568" xlink:href="#id125">May</textPath></text><line stroke="#e1ed5e" stroke-width="0.3" x1="143.8653032363475" x2="146.44561519142675" y1="172.8068346515853" y2="177.08958963109032" /><path d="M 144.38136562736335 173.6633856474863 a86.0,86.0 0 0,1 -40.68145358897372,12.25698825130547" fill="none" id="id126" stroke="none" /><text fill="#e1ed5e" style="font-size:6.75px; font-family:Arial;" text-anchor="middle"><textPath startOffset="21.466115282336833" xlink:href="#id126">June</textPath></text><line stroke="#e1ed5e" stroke-width="0.3" x1="102.19456741930631" x2="102.32365962044197" y1="184.97166512339345" y2="189.96999836594603" /><path d="M 102.22038585953345 185.97133177190398 a86.0,86.0 0 0,1 -42.740103519485714,-10.115201625700543" fill="none" id="id127" stroke="none" /><text fill="#e1ed5e" style="font-size:6.75px; font-family:Arial;" text-anchor="middle"><textPath startOffset="22.20632615414155" xlink:href="#id127">July</textPath></text><line stroke="#e1ed5e" stroke-width="0.3" x1="58.666819895761336" x2="56.23545636021788" y1="174.27360380694188" y2="178.64263932499728" /><path d="M 58.180547188652646 175.14741091055294 a86.0,86.0 0 0,1 -31.652253787137756,-30.449443065178592" fill="none" id="id128" stroke="none" /><text fill="#e1ed5e" style="font-size:6.75px; font-family:Arial;" text-anchor="middle"><textPath startOffset="22.20632615414155" xlink:href="#id128">August</textPath></text><line stroke="#e1ed5e" stroke-width="0.3" x1="26.63291911575756" x2="22.317208475507996" y1="142.92168965132927" y2="145.44649492493687" /><path d="M 25.769776987707644 143.4266507060508 a86.0,86.0 0 0,1 -11.730757126820373,-40.83630448921669" fill="none" id="id129" stroke="none" /><text fill="#e1ed5e" style="font-size:6.75px; font-family:Arial;" text-anchor="middle"><textPath startOffset="21.46611528233685" xlink:href="#id129">September</textPath></text><line stroke="#e1ed5e" stroke-width="0.3" x1="15.007084014347285" x2="10.007500721073583" y1="101.09737516637583" y2="101.16192664675087" /><path d="M 14.007167355692545 101.11028546245083 a86.0,86.0 0 0,1 10.666146001902534,-42.60595125391555" fill="none" id="id130" stroke="none" /><text fill="#e1ed5e" style="font-size:6.75px; font-family:Arial;" text-anchor="middle"><textPath startOffset="22.20632615414155" xlink:href="#id130">October</textPath></text><line stroke="#e1ed5e" stroke-width="0.3" x1="26.266209847984243" x2="21.928928074336255" y1="57.711370442889674" y2="55.22380399835377" /><path d="M 25.398753493254645 57.213857153982495 a86.0,86.0 0 0,1 29.58750427330803,-30.492523968695096" fill="none" id="id131" stroke="none" /><text fill="#e1ed5e" style="font-size:6.75px; font-family:Arial;" text-anchor="middle"><textPath startOffset="21.46611528233685" xlink:href="#id131">November</textPath></text><line stroke="#e1ed5e" stroke-width="0.3" x1="56.762969772571076" x2="54.21961505331055" y1="26.818313649435495" y2="22.513508569990535" /><path d="M 56.25429882871897 25.957352633546506 a86.0,86.0 0 0,1 42.265352541879196,-11.944610805530505" fill="none" id="id132" stroke="none" /><text fill="#e1ed5e" style="font-size:6.75px; font-family:Arial;" text-anchor="middle"><textPath startOffset="22.20632615414155" xlink:href="#id132">December</textPath></text></svg>