<?xml version="1.0" encoding="utf-8" ?>
<svg baseProfile="full" height="200mm" version="1.1" viewBox="0,0,200,200" width="200mm" xmlns="http://www.w3.org/2000/svg" xmlns:ev="http://www.w3.org/2001/xml-events" xmlns:xlink="http://www.w3.org/1999/xlink"><defs /><rect fill="#1a1a1a" height="200" width="200" x="0" y="0" /><text alignment-baseline="middle" fill="#e1ed5e" style="dominant-baseline: central; font-size:9.0px; font-family:Arial;" text-anchor="middle" x="100.0" y="100.0">2022</text><line stroke="#e1ed5e" stroke-width="0.3" x1="100.0" x2="100.0" y1="15.0" y2="10.0" /><path d="M 100.0 14.0 a86.0,86.0 0 0,1 42.46469731375804,11.215312516191453" fill="none" id="id85" stroke="none" /><text fill="#e1ed5e" style="font-size:6.75px; font-family:Arial;" text-anchor="middle"><textPath startOffset="22.20632615414155" xlink:href="#id85">January</textPath></text><line stroke="#e1ed5e" stroke-width="0.3" x1="143.23703022742887" x2="145.7803849466894" y1="26.81831364943548" y2="22.513508569990506" /><path d="M 143.74570117128098 25.957352633546492 a86.0,86.0 0 0,1 28.547481713284135,27.462654790039103" fill="none" id="id86" stroke="none" /><text fill="#e1ed5e" style="font-size:6.75px; font-family:Arial;" text-anchor="middle"><textPath startOffset="19.985693538727396" xlink:href="#id86">February</textPath></text><line stroke="#e1ed5e" stroke-width="0.3" x1="172.23445277983987" x2="176.4835382374775" y1="55.19839476539836" y2="52.563006222186495" /><path d="M 173.08426987136738 54.67131705675599 a86.0,86.0 0 0,1 12.851231095245387,41.99856678651699" fill="none" id="id87" stroke="none" /><text fill="#e1ed5e" style="font-size:6.75px; font-family:Arial;" text-anchor="middle"><textPath startOffset="22.20632615414155" xlink:href="#id87">March</textPath></text><path d="M 119.34039704204932 91.81776055985345 l 3.1086656135721356 -1.3151667121567059 a24.375420770477497,24.375420770477497 0 0,0 0.16015616377855388,0.38783085406272716 l -3.1308434642368868 1.2614612876406754" fill="#ff0500" stroke="none" /><line stroke="#e1ed5e" stroke-width="0.3" x1="184.98032266829074" x2="189.97916517819016" y1="98.17113171792111" y2="98.06355123074" /><path d="M 185.9800911702706 98.14961562048488 a86.0,86.0 0 0,1 -9.607161424134198,41.387399972396054" fill="none" id="id88" stroke="none" /><text fill="#e1ed5e" style="font-size:6.75px; font-family:Arial;" text-anchor="middle"><textPath startOffset="21.466115282336823" xlink:href="#id88">April</textPath></text><line stroke="#e1ed5e" stroke-width="0.3" x1="174.80103733775053" x2="179.2010983576182" y1="140.37084112569926" y2="142.7455964860345" /><path d="M 175.68104954172406 140.8457921977663 a86.0,86.0 0 0,1 -30.038265399797805,32.042727171017184" fill="none" id="id89" stroke="none" /><text fill="#e1ed5e" style="font-size:6.75px; font-family:Arial;" text-anchor="middle"><textPath startOffset="22.206326154141568" xlink:href="#id89">May</textPath></text><path d="M 116.93607887273984 112.41649034213515 l 4.519991564878229 3.31377953737432 a26.604592631841417,26.604592631841417 0 0,0 -0.2739496862286893,0.3670003729212302 l -4.462280611954447 -3.391092789804865" fill="#ff2603" stroke="none" /><path d="M 116.71984013943494 112.70617746262583 l 4.692879329748361 3.566335388209425 a26.89422297718489,26.89422297718489 0 0,0 -0.2832770847033562,0.3661738181143882 l -4.630795427826936 -3.646587200437066" fill="#ff2a04" stroke="none" /><path d="M 112.04921762599082 117.19931262002967 l 3.6650141756652683 5.231520130247776 a27.38757636204962,27.38757636204962 0 0,0 -0.38843814601435905,0.26717129879679485 l -3.5744191450280263 -5.293832218409665" fill="#ff3104" stroke="none" /><path d="M 111.7513745106137 117.40417183066458 l 18.08485222896922 26.784260465946122 a53.318083000872704,53.318083000872704 0 0,0 -0.765051782040265,0.507034604137696 l -17.62112574818899 -27.091593091175135" fill="#7fff26" stroke="none" /><path d="M 111.1453310114006 117.79835938074945 l 4.182234744588614 6.678753365216633 a28.880154438349333,28.880154438349333 0 0,0 -0.4236042036275641,0.2602122999768237 l -4.0666513410287415 -6.749754132021835" fill="#ff4706" stroke="none" /><line stroke="#e1ed5e" stroke-width="0.3" x1="143.8653032363475" x2="146.44561519142675" y1="172.8068346515853" y2="177.08958963109032" /><path d="M 144.38136562736335 173.6633856474863 a86.0,86.0 0 0,1 -40.68145358897372,12.25698825130547" fill="none" id="id90" stroke="none" /><text fill="#e1ed5e" style="font-size:6.75px; font-family:Arial;" text-anchor="middle"><textPath startOffset="21.466115282336833" xlink:href="#id90">June</textPath></text><path d="M 109.57404056367764 118.69057910512821 l 10.540836931688018 20.5779728209438 a44.12060139010099,44.12060139010099 0 0,0 -0.6789238061856048,0.34042649064848146 l -10.185059217819653 -20.756367152501582" fill="#ebff1a" stroke="none" /><path d="M 108.92500713936063 119.00905698771935 l 3.6647288268242533 7.8053762899993195 a29.622884459543698,29.622884459543698 0 0,0 -0.46343169536400264,0.21273876145233359 l -3.529829135692831 -7.867302121785728" fill="#ff5207" stroke="none" /><path d="M 105.18746579009965 120.34920634021253 l 1.796146286691718 7.045858784235788 a28.27119436479242,28.27119436479242 0 0,0 -0.47259571038793424,0.11615252741684655 l -1.6745972915605725 -7.075732569966664" fill="#ff3e05" stroke="none" /><path d="M 104.83641907484287 120.43548508189849 l 8.3260678866445 35.18041622435828 a57.15224878444084,57.15224878444084 0 0,0 -0.9592864815905566,0.21833048004136477 l -7.719261255661081 -35.31852343797733" fill="#56ff2b" stroke="none" /><line stroke="#e1ed5e" stroke-width="0.3" x1="102.19456741930631" x2="102.32365962044197" y1="184.97166512339345" y2="189.96999836594603" /><path d="M 102.22038585953345 185.97133177190398 a86.0,86.0 0 0,1 -42.740103519485714,-10.115201625700543" fill="none" id="id91" stroke="none" /><text fill="#e1ed5e" style="font-size:6.75px; font-family:Arial;" text-anchor="middle"><textPath startOffset="22.20632615414155" xlink:href="#id91">July</textPath></text><path d="M 97.2962882734958 120.8252237178851 l -1.4338398286530059 11.044089839385675 a32.13677767734696,32.13677767734696 0 0,0 -0.5479648217925346,-0.0759429312336142 l 1.6237332416323715 -11.017772342659457" fill="#ff750a" stroke="none" /><path d="M 96.22490169976321 120.6578951692458 l -0.6863868574501727 3.756010206638679 a24.81821156962972,24.81821156962972 0 0,0 -0.419584231220476,-0.08041431653228898 l 0.7509387032423438 -3.743638691757922" fill="#ff0b01" stroke="none" /><path d="M 95.16358092515715 120.4354850818985 l -3.7245996807870037 15.737676995089574 a37.1724184952001,37.1724184952001 0 0,0 -0.6213931148043201,-0.1527233091995307 l 3.9949460803345342 -15.671232427576012" fill="#ffba11" stroke="none" /><path d="M 92.40401165467489 119.57807347666478 l -18.983726498750766 48.929089324128384 a73.48273672235382,73.48273672235382 0 0,0 -1.1753001209430305,-0.4676761735533715 l 19.823147695735656 -48.595066306168945" fill="#3fffc2" stroke="none" /><line stroke="#e1ed5e" stroke-width="0.3" x1="58.666819895761336" x2="56.23545636021788" y1="174.27360380694188" y2="178.64263932499728" /><path d="M 58.180547188652646 175.14741091055294 a86.0,86.0 0 0,1 -31.652253787137756,-30.449443065178592" fill="none" id="id92" stroke="none" /><text fill="#e1ed5e" style="font-size:6.75px; font-family:Arial;" text-anchor="middle"><textPath startOffset="22.20632615414155" xlink:href="#id92">August</textPath></text><path d="M 87.95078237400918 117.19931262002967 l -1.7630768700105077 2.5166538775965215 a24.072781604538086,24.072781604538086 0 0,0 -0.3373315128036944,-0.24067707767827112 l 1.806135710663089 -2.485932538074031" fill="#ff0000" stroke="none" /><line stroke="#e1ed5e" stroke-width="0.3" x1="26.63291911575756" x2="22.317208475507996" y1="142.92168965132927" y2="145.44649492493687" /><path d="M 25.769776987707644 143.4266507060508 a86.0,86.0 0 0,1 -11.730757126820373,-40.83630448921669" fill="none" id="id93" stroke="none" /><text fill="#e1ed5e" style="font-size:6.75px; font-family:Arial;" text-anchor="middle"><textPath startOffset="21.46611528233685" xlink:href="#id93">September</textPath></text><path d="M 79.86692584326677 105.97154293290107 l -13.726026394334973 4.0711892915018355 a35.31706613888542,35.31706613888542 0 0,0 -0.1678525354400579,-0.5843166960507382 l 13.794071566661135 -3.8343151199465013" fill="#ffa10e" stroke="none" /><path d="M 79.50377843672027 104.57218783832718 l -14.267788818404204 3.182782266181236 a35.61847805759881,35.61847805759881 0 0,0 -0.12833839911431563,-0.5995542746090371 l 14.320461256242961 -2.9367141721560355" fill="#ffa50f" stroke="none" /><path d="M 79.35854240842038 103.8639653848113 l -14.969142069183425 2.802139652155299 a36.22915627727216,36.22915627727216 0 0,0 -0.10946994556392535,-0.6139655902779643 l 15.015158457086539 -2.5440553111441213" fill="#ffae10" stroke="none" /><path d="M 79.1416061653843 102.43462659150553 l -24.711725948971647 2.884393956428148 a45.87949211444956,45.87949211444956 0 0,0 -0.08480649010397956,-0.7852027721900623 l 24.75771474057668 -2.4585948623533036" fill="#d5ff1c" stroke="none" /><line stroke="#e1ed5e" stroke-width="0.3" x1="15.007084014347285" x2="10.007500721073583" y1="101.09737516637583" y2="101.16192664675087" /><path d="M 14.007167355692545 101.11028546245083 a86.0,86.0 0 0,1 10.666146001902534,-42.60595125391555" fill="none" id="id94" stroke="none" /><text fill="#e1ed5e" style="font-size:6.75px; font-family:Arial;" text-anchor="middle"><textPath startOffset="22.20632615414155" xlink:href="#id94">October</textPath></text><path d="M 80.65960295795068 91.81776055985345 l -5.2590972585628055 -2.2249384495582993 a26.710381342725345,26.710381342725345 0 0,0 0.1827871401235411,-0.4218979209428636 l 5.220019408596584 2.3151355150877624" fill="#ff2703" stroke="none" /><path d="M 80.95270993114464 91.15688171328213 l -10.70452774413382 -4.969809600348952 a32.801945673856125,32.801945673856125 0 0,0 0.2421749001323523,-0.510082101978331 l 10.617394650159717 5.153334117967814" fill="#ff7f0b" stroke="none" /><line stroke="#e1ed5e" stroke-width="0.3" x1="26.266209847984243" x2="21.928928074336255" y1="57.711370442889674" y2="55.22380399835377" /><path d="M 25.398753493254645 57.213857153982495 a86.0,86.0 0 0,1 29.58750427330803,-30.492523968695096" fill="none" id="id95" stroke="none" /><text fill="#e1ed5e" style="font-size:6.75px; font-family:Arial;" text-anchor="middle"><textPath startOffset="21.46611528233685" xlink:href="#id95">November</textPath></text><path d="M 85.05521093208273 85.24692304244772 l -8.562429271446478 -8.452590224671045 a33.03168635456925,33.03168635456925 0 0,0 0.4029302621020244,-0.40119995150574267 l 8.41566320917714 8.598726026826897" fill="#ff820c" stroke="none" /><path d="M 86.93701828274178 83.55741782278169 l -8.889394887742432 -11.189222270313916 a35.29055759880314,35.29055759880314 0 0,0 0.4788885726633355,-0.3737801269684031 l 8.695473759919672 11.34058078650554" fill="#ffa10e" stroke="none" /><path d="M 87.22198572758235 83.33499621200491 l -38.334042817252964 -49.99501136398527 a84.0,84.0 0 0,0 1.1550153849664402,-0.8699336419765826 l 37.467781278528136 50.64746159546771" fill="#4dd2ff" stroke="none" /><line stroke="#e1ed5e" stroke-width="0.3" x1="56.762969772571076" x2="54.21961505331055" y1="26.818313649435495" y2="22.513508569990535" /><path d="M 56.25429882871897 25.957352633546506 a86.0,86.0 0 0,1 42.265352541879196,-11.944610805530505" fill="none" id="id96" stroke="none" /><text fill="#e1ed5e" style="font-size:6.75px; font-family:Arial;" text-anchor="middle"><textPath startOffset="22.20632615414155" xlink:href="#id96">December</textPath></text><path d="M 99.27714615592234 79.0124445844662 l -0.5842912740175655 -16.964488177971155 a37.974547282134395,37.974547282134395 0 0,0 0.6534757108712413,-0.01687734967066438 l 0.29218892795144513 16.97203231978418" fill="#ffc512" stroke="none" /></svg>