<?xml version="1.0" encoding="utf-8" ?>
<svg baseProfile="full" height="200mm" version="1.1" viewBox="0,0,200,200" width="200mm" xmlns="http://www.w3.org/2000/svg" xmlns:ev="http://www.w3.org/2001/xml-events" xmlns:xlink="http://www.w3.org/1999/xlink"><defs /><rect fill="#1a1a1a" height="200" width="200" x="0" y="0" /><text alignment-baseline="middle" fill="#e1ed5e" style="dominant-baseline: central; font-size:9.0px; font-family:Arial;" text-anchor="middle" x="100.0" y="100.0">2026</text><line stroke="#e1ed5e" stroke-width="0.3" x1="100.0" x2="100.0" y1="15.0" y2="10.0" /><path d="M 100.0 14.0 a86.0,86.0 0 0,1 42.46469731375804,11.215312516191453" fill="none" id="id133" stroke="none" /><text fill="#e1ed5e" style="font-size:6.75px; font-family:Arial;" text-anchor="middle"><textPath startOffset="22.20632615414155" xlink:href="#id133">January</textPath></text><path d="M 100.0 79.0 l 0.0 -7.811224965295999 a28.811224965296,28.811224965296 0 0,0 0.49593787661351585,0.004268693877188061 l -0.13445739734098744 7.81006764802737" fill="#ff4106" stroke="none" /><path d="M 100.36148047927253 79.00311137660856 l 0.13374992280499232 -7.768973412272038 a28.770124640083978,28.770124640083978 0 0,0 0.4950836546214376,0.012786550159815441 l -0.2674602126212977 7.765520069969862" fill="#ff4006" stroke="none" /><path d="M 100.72285384407766 79.0124445844662 l 0.4950364741121644 -14.373037534850953 a35.38156003669059,35.38156003669059 0 0,0 0.6084940367437174,0.02620303322339207 l -0.7423713432452133 14.362386775103365" fill="#ff9e0e" stroke="none" /><path d="M 101.80526077348638 79.07773832637324 l 0.2962691967259068 -3.4336433554492274 a24.446401330279055,24.446401330279055 0 0,0 0.41893550342071717,0.03978297400122427 l -0.3553298272368681 3.428034836932825" fill="#ff0000" stroke="none" /><path d="M 102.16513564639614 79.11191278185805 l 0.7642976517078329 -7.373540792267476 a28.413046250741903,28.413046250741903 0 0,0 0.48604344133260263,0.054612643852710335 l -0.8911077965501608 7.359292194944165" fill="#ff3b05" stroke="none" /><path d="M 102.88285421437855 79.19881850522331 l 1.842921406324222 -13.297565469096348 a34.42466411925422,34.42466411925422 0 0,0 0.5862537013033312,0.08639855619003223 l -2.0715440880562093 13.263872428745346" fill="#ff910d" stroke="none" /><path d="M 103.59715602781102 79.31037775812273 l 8.177593871520783 -47.034748212524256 a68.74034542127956,68.74034542127956 0 0,0 1.1640191528037562,0.21271705995170556 l -8.986008145427439 46.88701567122181" fill="#39ff8c" stroke="none" /><path d="M 108.09893153111575 80.62456947434976 l 7.578692562250134 -18.130839932525053 a40.651054363874486,40.651054363874486 0 0,0 0.6432859822887799,0.27542148589058635 l -7.889662302329229 17.997698918671674" fill="#ffe415" stroke="none" /><path d="M 109.41281617654863 81.2277094730956 l 3.505444903608788 -6.9910246755428735 a28.820650227844624,28.820650227844624 0 0,0 0.4415591405562738,0.22618374204298944 l -3.6252645317538175 6.929648408187384" fill="#ff4106" stroke="none" /><line stroke="#e1ed5e" stroke-width="0.3" x1="143.23703022742887" x2="145.7803849466894" y1="26.81831364943548" y2="22.513508569990506" /><path d="M 143.74570117128098 25.957352633546492 a86.0,86.0 0 0,1 28.547481713284135,27.462654790039103" fill="none" id="id134" stroke="none" /><text fill="#e1ed5e" style="font-size:6.75px; font-family:Arial;" text-anchor="middle"><textPath startOffset="19.985693538727396" xlink:href="#id134">February</textPath></text><path d="M 111.60114157652 82.49532879139004 l 6.8586990142338085 -10.348918713824906 a33.41538846404764,33.41538846404764 0 0,0 0.47671873897192707,0.3218826205804417 l -7.0358224476122775 10.229324180945794" fill="#ff830c" stroke="none" /><path d="M 112.19680574252982 82.90503203632743 l 4.111658939692217 -5.76287589844055 a28.079299249020195,28.079299249020195 0 0,0 0.3910439323275952,0.2841100471544466 l -4.210248188373601 5.691246616469428" fill="#ff3605" stroke="none" /><path d="M 112.48926042617603 83.11751280151076 l 15.109090891603023 -20.42387017758735 a46.40509989355805,46.40509989355805 0 0,0 0.638078622832921,0.4805875899606117 l -15.458415668194327 20.160765998120894" fill="#d2ff1c" stroke="none" /><path d="M 112.77801427241765 83.33499621200491 l 38.33404281725294 -49.995011363985284 a84.0,84.0 0 0,0 1.1398697793622787,0.8896864431071037 l -39.188945151774654 49.32774653165496" fill="#4dd2ff" stroke="none" /><path d="M 113.6212207817346 84.01681056812373 l 7.830195851629811 -9.187979960879353 a33.07190717477571,33.07190717477571 0 0,0 0.43010204476237235,0.37298025492200126 l -7.987191695038947 9.051834712537682" fill="#ff7e0b" stroke="none" /><path d="M 115.4437574822437 85.77008943001954 l 9.168327187245843 -8.44771592022402 a33.466841126813065,33.466841126813065 0 0,0 0.3867115156149519,0.42701651422963743 l -9.31238234347683 8.288646618724835" fill="#ff840c" stroke="none" /><line stroke="#e1ed5e" stroke-width="0.3" x1="172.23445277983987" x2="176.4835382374775" y1="55.19839476539836" y2="52.563006222186495" /><path d="M 173.08426987136738 54.67131705675599 a86.0,86.0 0 0,1 12.851231095245387,41.99856678651699" fill="none" id="id135" stroke="none" /><text fill="#e1ed5e" style="font-size:6.75px; font-family:Arial;" text-anchor="middle"><textPath startOffset="22.20632615414155" xlink:href="#id135">March</textPath></text><line stroke="#e1ed5e" stroke-width="0.3" x1="184.98032266829074" x2="189.97916517819016" y1="98.17113171792111" y2="98.06355123074" /><path d="M 185.9800911702706 98.14961562048488 a86.0,86.0 0 0,1 -9.607161424134198,41.387399972396054" fill="none" id="id136" stroke="none" /><text fill="#e1ed5e" style="font-size:6.75px; font-family:Arial;" text-anchor="middle"><textPath startOffset="21.466115282336823" xlink:href="#id136">April</textPath></text><line stroke="#e1ed5e" stroke-width="0.3" x1="174.80103733775053" x2="179.2010983576182" y1="140.37084112569926" y2="142.7455964860345" /><path d="M 175.68104954172406 140.8457921977663 a86.0,86.0 0 0,1 -30.038265399797805,32.042727171017184" fill="none" id="id137" stroke="none" /><text fill="#e1ed5e" style="font-size:6.75px; font-family:Arial;" text-anchor="middle"><textPath startOffset="22.206326154141568" xlink:href="#id137">May</textPath></text><line stroke="#e1ed5e" stroke-width="0.3" x1="143.8653032363475" x2="146.44561519142675" y1="172.8068346515853" y2="177.08958963109032" /><path d="M 144.38136562736335 173.6633856474863 a86.0,86.0 0 0,1 -40.68145358897372,12.25698825130547" fill="none" id="id138" stroke="none" /><text fill="#e1ed5e" style="font-size:6.75px; font-family:Arial;" text-anchor="middle"><textPath startOffset="21.466115282336833" xlink:href="#id138">June</textPath></text><line stroke="#e1ed5e" stroke-width="0.3" x1="102.19456741930631" x2="102.32365962044197" y1="184.97166512339345" y2="189.96999836594603" /><path d="M 102.22038585953345 185.97133177190398 a86.0,86.0 0 0,1 -42.740103519485714,-10.115201625700543" fill="none" id="id139" stroke="none" /><text fill="#e1ed5e" style="font-size:6.75px; font-family:Arial;" text-anchor="middle"><textPath startOffset="22.20632615414155" xlink:href="#id139">July</textPath></text><line stroke="#e1ed5e" stroke-width="0.3" x1="58.666819895761336" x2="56.23545636021788" y1="174.27360380694188" y2="178.64263932499728" /><path d="M 58.180547188652646 175.14741091055294 a86.0,86.0 0 0,1 -31.652253787137756,-30.449443065178592" fill="none" id="id140" stroke="none" /><text fill="#e1ed5e" style="font-size:6.75px; font-family:Arial;" text-anchor="middle"><textPath startOffset="22.20632615414155" xlink:href="#id140">August</textPath></text><line stroke="#e1ed5e" stroke-width="0.3" x1="26.63291911575756" x2="22.317208475507996" y1="142.92168965132927" y2="145.44649492493687" /><path d="M 25.769776987707644 143.4266507060508 a86.0,86.0 0 0,1 -11.730757126820373,-40.83630448921669" fill="none" id="id141" stroke="none" /><text fill="#e1ed5e" style="font-size:6.75px; font-family:Arial;" text-anchor="middle"><textPath startOffset="21.46611528233685" xlink:href="#id141">September</textPath></text><line stroke="#e1ed5e" stroke-width="0.3" x1="15.007084014347285" x2="10.007500721073583" y1="101.09737516637583" y2="101.16192664675087" /><path d="M 14.007167355692545 101.11028546245083 a86.0,86.0 0 0,1 10.666146001902534,-42.60595125391555" fill="none" id="id142" stroke="none" /><text fill="#e1ed5e" style="font-size:6.75px; font-family:Arial;" text-anchor="middle"><textPath startOffset="22.20632615414155" xlink:href="#id142">October</textPath></text><line stroke="#e1ed5e" stroke-width="0.3" x1="26.266209847984243" x2="21.928928074336255" y1="57.711370442889674" y2="55.22380399835377" /><path d="M 25.398753493254645 57.213857153982495 a86.0,86.0 0 0,1 29.58750427330803,-30.492523968695096" fill="none" id="id143" stroke="none" /><text fill="#e1ed5e" style="font-size:6.75px; font-family:Arial;" text-anchor="middle"><textPath startOffset="21.46611528233685" xlink:href="#id143">November</textPath></text><line stroke="#e1ed5e" stroke-width="0.3" x1="56.762969772571076" x2="54.21961505331055" y1="26.818313649435495" y2="22.513508569990535" /><path d="M 56.25429882871897 25.957352633546506 a86.0,86.0 0 0,1 42.265352541879196,-11.944610805530505" fill="none" id="id144" stroke="none" /><text fill="#e1ed5e" style="font-size:6.75px; font-family:Arial;" text-anchor="middle"><textPath startOffset="22.20632615414155" xlink:href="#id144">December</textPath></text></svg>