<?xml version="1.0" encoding="utf-8" ?>
<svg baseProfile="full" height="200mm" version="1.1" viewBox="0,0,200,200" width="200mm" xmlns="http://www.w3.org/2000/svg" xmlns:ev="http://www.w3.org/2001/xml-events" xmlns:xlink="http://www.w3.org/1999/xlink"><defs /><rect fill="#1a1a1a" height="200" width="200" x="0" y="0" /><text alignment-baseline="middle" fill="#e1ed5e" style="dominant-baseline: central; font-size:9.0px; font-family:Arial;" text-anchor="middle" x="100.0" y="100.0">2025</text><line stroke="#e1ed5e" stroke-width="0.3" x1="100.0" x2="100.0" y1="15.0" y2="10.0" /><path d="M 100.0 14.0 a86.0,86.0 0 0,1 42.46469731375804,11.215312516191453" fill="none" id="id121" stroke="none" /><text fill="#e1ed5e" style="font-size:6.75px; font-family:Arial;" text-anchor="middle"><textPath startOffset="22.20632615414155" xlink:href="#id121">January</textPath></text><path d="M 100.0 79.0 l 0.0 -41.89385361908612 a62.89385361908612,62.89385361908612 0 0,0 1.0826143023582617,0.009318403093930958 l -0.7211338230857333 41.88764659260075" fill="#31ff3e" stroke="none" /><path d="M 100.36148047927253 79.00311137660856 l 0.6443098044652615 -37.425260779066214 a58.43080655696911,58.43080655696911 0 0,0 1.005492246369986,0.02596889823265561 l -1.2884286860301155 37.408625088691196" fill="#53ff2b" stroke="none" /><path d="M 100.72285384407766 79.0124445844662 l 2.0741941309578587 -60.22277480117556 a81.25848393418147,81.25848393418147 0 0,0 1.3974879247130407,0.06017876973208172 l -3.1105228880602307 60.17814830491929" fill="#49edff" stroke="none" /><path d="M 101.80526077348638 79.07773832637324 l 2.792583827547702 -32.36494718303486 a53.48520171700519,53.48520171700519 0 0,0 0.916570484307614,0.08703941167497656 l -3.34927943894556 32.3120822268447" fill="#8aff24" stroke="none" /><path d="M 102.16513564639614 79.11191278185805 l 1.5692502316301058 -15.139298897941629 a36.22041121030203,36.22041121030203 0 0,0 0.6195989390147667,0.06961916016221918 l -1.8296158741545976 15.11004378430881" fill="#ff950d" stroke="none" /><path d="M 102.88285421437855 79.19881850522331 l 4.013905286558422 -28.962259677270442 a50.23908208653457,50.23908208653457 0 0,0 0.8555740070921817,0.12608936841191568 l -4.511848274079259 28.888875824697557" fill="#b1ff20" stroke="none" /><path d="M 103.2404852339499 79.25152402106235 l 2.8650459551183727 -18.34457894007025 a39.56696164732962,39.56696164732962 0 0,0 0.6720180772107492,0.11088874081285204 l -3.1803932384679974 18.29254393631777" fill="#ffc412" stroke="none" /><path d="M 104.307194497241 79.44645832069477 l 8.094428129640415 -38.6258772477708 a60.46489781952783,60.46489781952783 0 0,0 1.0168389808704636,0.22224161669904655 l -8.758109834664406 38.48082213297589" fill="#3dff2e" stroke="none" /><path d="M 104.66035177308747 79.52364482259891 l 4.719894511300039 -20.737970247515793 a42.26830539052537,42.26830539052537 0 0,0 0.708047077553386,0.1675718671733045 l -5.076165275815948 20.65365246820162" fill="#ffe815" stroke="none" /><path d="M 105.01212808612495 79.60689891045804 l 3.3746390718292685 -13.73056604898917 a35.1391878441009,35.1391878441009 0 0,0 0.5861402457436078,0.1494201995970262 l -3.6104882062579016 13.670442853223275" fill="#ff850c" stroke="none" /><path d="M 106.0581310904928 79.89281104454417 l 16.831764137764686 -55.865324951918424 a79.34588945223803,79.34588945223803 0 0,0 1.3043505549614716,0.40526806667968973 l -17.79090006543688 55.56731675035621" fill="#47fffd" stroke="none" /><path d="M 106.74666289553966 80.11325718540242 l 18.22442603209749 -53.71907253341286 a77.72625898161684,77.72625898161684 0 0,0 1.2633033784411636,0.44074174312604664 l -19.14641141460193 53.39740993711461" fill="#45ffec" stroke="none" /><path d="M 107.4271985657038 80.35727306442388 l 13.690265943109946 -36.20667378379747 a59.70848237892314,59.70848237892314 0 0,0 0.9582268454294204,0.37177712907937716 l -14.311475953539032 35.965653950827544" fill="#45ff2d" stroke="none" /><path d="M 108.43124777332544 80.76684994638697 l 23.509161115691988 -53.62850618661521 a79.55507947370057,79.55507947370057 0 0,0 1.249461322724898,0.5605968745833 l -24.428804556883666 53.21588898151538" fill="#47ffff" stroke="none" /><path d="M 109.41281617654863 81.2277094730956 l 7.107702432482951 -14.175125970671909 a36.85728949578525,36.85728949578525 0 0,0 0.5646879214844776,0.2892550859822127 l -7.350650841556185 14.050678359377196" fill="#ff9e0e" stroke="none" /><line stroke="#e1ed5e" stroke-width="0.3" x1="143.23703022742887" x2="145.7803849466894" y1="26.81831364943548" y2="22.513508569990506" /><path d="M 143.74570117128098 25.957352633546492 a86.0,86.0 0 0,1 28.547481713284135,27.462654790039103" fill="none" id="id122" stroke="none" /><text fill="#e1ed5e" style="font-size:6.75px; font-family:Arial;" text-anchor="middle"><textPath startOffset="19.985693538727396" xlink:href="#id122">February</textPath></text><path d="M 111.2981086023043 82.29822771554956 l 3.294652031061705 -5.16203039493368 a27.123829668107874,27.123829668107874 0 0,0 0.3914007036403481,0.25457790516656065 l -3.3830197604863335 5.104553565607592" fill="#ff0d01" stroke="none" /><path d="M 111.60114157652 82.49532879139004 l 3.9243029221641463 -5.921282136104806 a28.103642415005133,28.103642415005133 0 0,0 0.4009390160767969,0.27071581340825585 l -4.025646632647486 5.852854410397881" fill="#ff1d02" stroke="none" /><path d="M 111.90073688211348 82.69761687909136 l 9.636287515349071 -14.010118877965516 a38.00416031602849,38.00416031602849 0 0,0 0.5358023064688948,0.3753637565511261 l -9.876020961401617 13.842170278650453" fill="#ffae10" stroke="none" /><path d="M 112.19680574252982 82.90503203632743 l 5.904158430063776 -8.27523216693068 a31.16555724905907,31.16555724905907 0 0,0 0.4340244374253075,0.31533721198308556 l -6.045728183842872 8.17237572013092" fill="#ff4b07" stroke="none" /><path d="M 113.34407831869373 83.78471172551755 l 3.5021512586387855 -4.255699860522743 a26.511446701297086,26.511446701297086 0 0,0 0.34987845893212177,0.2930131473898333 l -3.5748872545300245 4.194785555739091" fill="#ff0400" stroke="none" /><path d="M 113.6212207817346 84.01681056812373 l 4.28986470543603 -5.033742666886909 a27.613736041556503,27.613736041556503 0 0,0 0.3591182169276398,0.31142377890997597 l -4.375876721010434 4.959153894557262" fill="#ff1502" stroke="none" /><path d="M 114.42810811169701 84.74124197986012 l 18.169883948621138 -19.21595404467925 a47.446125851503936,47.446125851503936 0 0,0 0.5885957528567046,0.566228647904346 l -18.49796294509026 18.9003423100126" fill="#d3ff1c" stroke="none" /><path d="M 115.9244219780498 86.31012108654704 l 12.053280142721997 -10.36194254907574 a36.89501228654079,36.89501228654079 0 0,0 0.4098673705577321,0.4851536879167806 l -12.229858126766846 10.152929911529853" fill="#ff9e0e" stroke="none" /><path d="M 116.15771136456269 86.58626213691792 l 11.459767198951017 -9.513619206975825 a35.89413356558524,35.89413356558524 0 0,0 0.390564935492715,0.478786429996269 l -11.62183062652014 9.314948607371456" fill="#ff900d" stroke="none" /><path d="M 116.38621287248628 86.86637796730983 l 15.369624438190538 -12.318821910005155 a40.69717565087561,40.69717565087561 0 0,0 0.4334170126509055,0.550395591879899 l -15.579395531435408 12.052433924172217" fill="#ffd313" stroke="none" /><path d="M 117.2510076193507 88.02491185347247 l 12.147448147278643 -8.432363229372305 a35.78733397617344,35.78733397617344 0 0,0 0.34692503030909533,0.5090696736783179 l -12.290797643256472 8.222015532423582" fill="#ff8f0d" stroke="none" /><path d="M 117.65298651832404 88.62581576622439 l 4.427111381504483 -2.8524794047969113 a26.266493514572772,26.266493514572772 0 0,0 0.24161722335238278,0.38218042284177417 l -4.475556201102822 2.775851334240931" fill="#ff0000" stroke="none" /><line stroke="#e1ed5e" stroke-width="0.3" x1="172.23445277983987" x2="176.4835382374775" y1="55.19839476539836" y2="52.563006222186495" /><path d="M 173.08426987136738 54.67131705675599 a86.0,86.0 0 0,1 12.851231095245387,41.99856678651699" fill="none" id="id123" stroke="none" /><text fill="#e1ed5e" style="font-size:6.75px; font-family:Arial;" text-anchor="middle"><textPath startOffset="22.20632615414155" xlink:href="#id123">March</textPath></text><path d="M 117.84615892207809 88.93136811851018 l 18.128292433918148 -11.243618106683982 a42.33199321907369,42.33199321907369 0 0,0 0.3787387025199353,0.622546844306155 l -18.319146934724305 10.929903489170744" fill="#ffe915" stroke="none" /><path d="M 118.21658344932153 89.55222093294921 l 13.63948907756014 -7.822672614008101 a36.723545055833775,36.723545055833775 0 0,0 0.30977597101400023,0.5510568867021806 l -13.772122689866574 7.586732217371126" fill="#ff9c0e" stroke="none" /><path d="M 118.56541770881063 90.18545643968196 l 21.7096541724657 -11.476733241180334 a45.55655696911257,45.55655696911257 0 0,0 0.36052714409382236,0.6964236889040821 l -21.90399074971964 11.101336830015908" fill="#ebff1a" stroke="none" /><path d="M 118.73160827565052 90.50648371742162 l 14.662236441403351 -7.431085379701221 a37.437828548321875,37.437828548321875 0 0,0 0.2863815377645216,0.5773277048949675 l -14.78797799212128 7.177598086307303" fill="#ffa60f" stroke="none" /><path d="M 119.04729006885535 91.15688171328212 l 12.259667477986545 -5.691817012905838 a34.5165168434477,34.5165168434477 0 0,0 0.2455565544241283,0.5410513179188199 l -12.35582634937402 5.479943686144955" fill="#ff7c0b" stroke="none" /><path d="M 119.47837535516314 92.15188598940014 l 9.556666896974303 -3.8505167911192912 a31.303220939998134,31.303220939998134 0 0,0 0.19707084370218922,0.5015238016775948 l -9.621531290558192 3.685443984545912" fill="#ff4d07" stroke="none" /><path d="M 119.7369772167798 92.82701384747503 l 28.341093540558738 -10.299969913377168 a51.15471709851006,51.15471709851006 0 0,0 0.29364493087005455,0.8301737622212988 l -28.5141915522386 9.810598524729256" fill="#a6ff21" stroke="none" /><path d="M 119.85752413597 93.16781622104841 l 10.668269386153215 -3.670526927248343 a32.282053874148495,32.282053874148495 0 0,0 0.1762641742769229,0.5270074457604296 l -10.72987085420191 3.4863463785655995" fill="#ff5c08" stroke="none" /><path d="M 120.18372546131832 94.20196356495316 l 34.77610254606191 -9.989885663943355 a57.18252511742201,57.18252511742201 0 0,0 0.26362023446608013,0.9483822447790455 l -34.94290955109435 9.389792115745358" fill="#60ff29" stroke="none" /><path d="M 120.28053869075195 94.5502522615342 l 43.751024627902225 -11.756692026637243 a66.30311207191514,66.30311207191514 0 0,0 0.2866936087878243,1.1047474243427748 l -43.94691456856035 11.001848176745616" fill="#35ff69" stroke="none" /><path d="M 120.53481517161879 95.60439243477599 l 61.60444551485638 -13.186822695672053 a84.0,84.0 0 0,0 0.2904828163400124,1.4164973753463528 l -61.822307627111385 12.124449664162288" fill="#4dd2ff" stroke="none" /><path d="M 120.73433829027371 96.67025291283417 l 34.2190105524783 -5.495263418474268 a55.65744657687642,55.65744657687642 0 0,0 0.14376611728631228,0.9472390861221858 l -34.30853256320391 4.90542521996" fill="#71ff27" stroke="none" /><path d="M 120.83666639777658 97.38593545837742 l 33.56103894604709 -4.210401040842 a54.8241158356403,54.8241158356403 0 0,0 0.1094123495981922,0.9373781943614404 l -33.62854164864887 3.6320791081557067" fill="#7bff26" stroke="none" /><path d="M 120.94382443527127 98.46500227214037 l 51.27911277482791 -3.7583069815777526 a72.4166537061806,72.4166537061806 0 0,0 0.08041493170790641,1.243983401030071 l -51.33620829754023 2.8750645162946467" fill="#3effb2" stroke="none" /><path d="M 120.96714384426684 98.82574320788733 l 55.04926909854094 -3.083013052227193 a76.13553298702914,76.13553298702914 0 0,0 0.06201925022036537,1.309128350140688 l -55.0941819569948 2.134973595463505" fill="#43ffdb" stroke="none" /><line stroke="#e1ed5e" stroke-width="0.3" x1="184.98032266829074" x2="189.97916517819016" y1="98.17113171792111" y2="98.06355123074" /><path d="M 185.9800911702706 98.14961562048488 a86.0,86.0 0 0,1 -9.607161424134198,41.387399972396054" fill="none" id="id124" stroke="none" /><text fill="#e1ed5e" style="font-size:6.75px; font-family:Arial;" text-anchor="middle"><textPath startOffset="21.466115282336823" xlink:href="#id124">April</textPath></text><line stroke="#e1ed5e" stroke-width="0.3" x1="174.80103733775053" x2="179.2010983576182" y1="140.37084112569926" y2="142.7455964860345" /><path d="M 175.68104954172406 140.8457921977663 a86.0,86.0 0 0,1 -30.038265399797805,32.042727171017184" fill="none" id="id125" stroke="none" /><text fill="#e1ed5e" style="font-size:6.75px; font-family:Arial;" text-anchor="middle"><textPath startOffset="22.206326154141568" xlink:href="#id125">May</textPath></text><line stroke="#e1ed5e" stroke-width="0.3" x1="143.8653032363475" x2="146.44561519142675" y1="172.8068346515853" y2="177.08958963109032" /><path d="M 144.38136562736335 173.6633856474863 a86.0,86.0 0 0,1 -40.68145358897372,12.25698825130547" fill="none" id="id126" stroke="none" /><text fill="#e1ed5e" style="font-size:6.75px; font-family:Arial;" text-anchor="middle"><textPath startOffset="21.466115282336833" xlink:href="#id126">June</textPath></text><line stroke="#e1ed5e" stroke-width="0.3" x1="102.19456741930631" x2="102.32365962044197" y1="184.97166512339345" y2="189.96999836594603" /><path d="M 102.22038585953345 185.97133177190398 a86.0,86.0 0 0,1 -42.740103519485714,-10.115201625700543" fill="none" id="id127" stroke="none" /><text fill="#e1ed5e" style="font-size:6.75px; font-family:Arial;" text-anchor="middle"><textPath startOffset="22.20632615414155" xlink:href="#id127">July</textPath></text><line stroke="#e1ed5e" stroke-width="0.3" x1="58.666819895761336" x2="56.23545636021788" y1="174.27360380694188" y2="178.64263932499728" /><path d="M 58.180547188652646 175.14741091055294 a86.0,86.0 0 0,1 -31.652253787137756,-30.449443065178592" fill="none" id="id128" stroke="none" /><text fill="#e1ed5e" style="font-size:6.75px; font-family:Arial;" text-anchor="middle"><textPath startOffset="22.20632615414155" xlink:href="#id128">August</textPath></text><line stroke="#e1ed5e" stroke-width="0.3" x1="26.63291911575756" x2="22.317208475507996" y1="142.92168965132927" y2="145.44649492493687" /><path d="M 25.769776987707644 143.4266507060508 a86.0,86.0 0 0,1 -11.730757126820373,-40.83630448921669" fill="none" id="id129" stroke="none" /><text fill="#e1ed5e" style="font-size:6.75px; font-family:Arial;" text-anchor="middle"><textPath startOffset="21.46611528233685" xlink:href="#id129">September</textPath></text><line stroke="#e1ed5e" stroke-width="0.3" x1="15.007084014347285" x2="10.007500721073583" y1="101.09737516637583" y2="101.16192664675087" /><path d="M 14.007167355692545 101.11028546245083 a86.0,86.0 0 0,1 10.666146001902534,-42.60595125391555" fill="none" id="id130" stroke="none" /><text fill="#e1ed5e" style="font-size:6.75px; font-family:Arial;" text-anchor="middle"><textPath startOffset="22.20632615414155" xlink:href="#id130">October</textPath></text><line stroke="#e1ed5e" stroke-width="0.3" x1="26.266209847984243" x2="21.928928074336255" y1="57.711370442889674" y2="55.22380399835377" /><path d="M 25.398753493254645 57.213857153982495 a86.0,86.0 0 0,1 29.58750427330803,-30.492523968695096" fill="none" id="id131" stroke="none" /><text fill="#e1ed5e" style="font-size:6.75px; font-family:Arial;" text-anchor="middle"><textPath startOffset="21.46611528233685" xlink:href="#id131">November</textPath></text><line stroke="#e1ed5e" stroke-width="0.3" x1="56.762969772571076" x2="54.21961505331055" y1="26.818313649435495" y2="22.513508569990535" /><path d="M 56.25429882871897 25.957352633546506 a86.0,86.0 0 0,1 42.265352541879196,-11.944610805530505" fill="none" id="id132" stroke="none" /><text fill="#e1ed5e" style="font-size:6.75px; font-family:Arial;" text-anchor="middle"><textPath startOffset="22.20632615414155" xlink:href="#id132">December</textPath></text></svg>