<?xml version="1.0" encoding="utf-8" ?>
<svg baseProfile="full" height="200mm" version="1.1" viewBox="0,0,200,200" width="200mm" xmlns="http://www.w3.org/2000/svg" xmlns:ev="http://www.w3.org/2001/xml-events" xmlns:xlink="http://www.w3.org/1999/xlink"><defs /><rect fill="#1a1a1a" height="200" width="200" x="0" y="0" /><text alignment-baseline="middle" fill="#e1ed5e" style="dominant-baseline: central; font-size:9.0px; font-family:Arial;" text-anchor="middle" x="100.0" y="100.0">2026</text><line stroke="#e1ed5e" stroke-width="0.3" x1="100.0" x2="100.0" y1="15.0" y2="10.0" /><path d="M 100.0 14.0 a86.0,86.0 0 0,1 42.46469731375804,11.215312516191453" fill="none" id="id133" stroke="none" /><text fill="#e1ed5e" style="font-size:6.75px; font-family:Arial;" text-anchor="middle"><textPath startOffset="22.20632615414155" xlink:href="#id133">January</textPath></text><path d="M 100.0 79.0 l 0.0 -2.7606459330143522 a23.760645933014352,23.760645933014352 0 0,0 0.40900046093766096,0.003520396093344299 l -0.047519981665132584 2.760236913529567" fill="#ff1702" stroke="none" /><path d="M 100.36148047927253 79.00311137660856 l 0.047269945760497464 -2.745713373967934 a23.74612024131475,23.74612024131475 0 0,0 0.40862930346053183,0.010553689334510074 l -0.0945258844158971 2.7444928924910643" fill="#ff1702" stroke="none" /><path d="M 100.72285384407766 79.0124445844662 l 0.17495596849702633 -5.0797240883389865 a26.08273611400042,26.08273611400042 0 0,0 0.44857234590195777,0.019316468811533143 l -0.26236914678831563 5.075959893003258" fill="#ff3805" stroke="none" /><path d="M 101.80526077348638 79.07773832637324 l 0.10470756592628869 -1.2135194680420338 a22.218028396089036,22.218028396089036 0 0,0 0.3807481021594232,0.036156620113459575 l -0.12558079517595608 1.211537303413396" fill="#ff0100" stroke="none" /><path d="M 102.16513564639614 79.11191278185805 l 0.2701183506010692 -2.6059594353671613 a23.61992146869149,23.61992146869149 0 0,0 0.40405058343045025,0.04539979091347704 l -0.31493563754124476 2.6009236909830835" fill="#ff1502" stroke="none" /><path d="M 102.88285421437855 79.19881850522331 l 0.6513259453975111 -4.699630364552156 a25.74454961514458,25.74454961514458 0 0,0 0.43843092986996257,0.06461332226236778 l -0.7321258556961295 4.6877225581288195" fill="#ff3404" stroke="none" /><path d="M 103.59715602781102 79.31037775812273 l 2.890128163451439 -16.623037608076217 a37.8724100270439,37.8724100270439 0 0,0 0.6413149419622965,0.11719620646166244 l -3.1758382265166363 16.570825920263815" fill="#ffd614" stroke="none" /><path d="M 108.09893153111575 80.62456947434976 l 2.678464247604619 -6.407807961521541 a27.945082691907636,27.945082691907636 0 0,0 0.44221927944826894,0.18933521697730774 l -2.788367284843203 6.360753216581442" fill="#ff5307" stroke="none" /><path d="M 109.41281617654863 81.2277094730956 l 1.2388955969835884 -2.47077045199518 a23.76397701268983,23.76397701268983 0 0,0 0.3640862084292784,0.18649909714253324 l -1.2812422930016223 2.449078829540146" fill="#ff1702" stroke="none" /><line stroke="#e1ed5e" stroke-width="0.3" x1="143.23703022742887" x2="145.7803849466894" y1="26.81831364943548" y2="22.513508569990506" /><path d="M 143.74570117128098 25.957352633546492 a86.0,86.0 0 0,1 28.547481713284135,27.462654790039103" fill="none" id="id134" stroke="none" /><text fill="#e1ed5e" style="font-size:6.75px; font-family:Arial;" text-anchor="middle"><textPath startOffset="19.985693538727396" xlink:href="#id134">February</textPath></text><path d="M 111.60114157652 82.49532879139004 l 2.424003869244165 -3.657518569154952 a25.38785105055128,25.38785105055128 0 0,0 0.36219433304052895,0.2445552304696294 l -2.486602896691236 3.6152514263866524" fill="#ff2f04" stroke="none" /><path d="M 112.19680574252982 82.90503203632743 l 1.4531439793672989 -2.0367176700426093 a23.501968483461617,23.501968483461617 0 0,0 0.3272981313282855,0.23779601174668172 l -1.487987427049373 2.011402423479253" fill="#ff1302" stroke="none" /><path d="M 112.48926042617603 83.11751280151076 l 5.339860330071483 -7.218211534384234 a29.9786795298523,29.9786795298523 0 0,0 0.4122123342614135,0.31046978410778664 l -5.463318818091279 7.125225160770601" fill="#ff6f0a" stroke="none" /><path d="M 112.77801427241765 83.33499621200491 l 13.548031182000045 -17.66925487438733 a43.26548262949865,43.26548262949865 0 0,0 0.5871073349867754,0.45824658749941466 l -13.850171072146251 17.433429897664695" fill="#e6ff1a" stroke="none" /><path d="M 113.6212207817346 84.01681056812373 l 2.7673506304767614 -3.2472191780816027 a25.26645776991887,25.26645776991887 0 0,0 0.32859172872354725,0.28495150915239686 l -2.822836157847073 3.199102675509535" fill="#ff2d04" stroke="none" /><path d="M 115.4437574822437 85.77008943001954 l 3.2402734877648016 -2.985594794931542 a25.40603546910755,25.40603546910755 0 0,0 0.2935683844435003,0.32416554240373063 l -3.2911855128243377 2.929376465258262" fill="#ff2f04" stroke="none" /><path d="M 115.9244219780498 86.31012108654704 l 3.164925035839264 -2.720817155593952 a25.17367900977741,25.17367900977741 0 0,0 0.27965486345062884,0.3310231506409355 l -3.21129051277701 2.66593505532391" fill="#ff2b04" stroke="none" /><path d="M 116.38621287248628 86.86637796730983 l 4.58789246461793 -3.6772160856089657 a26.879683274391514,26.879683274391514 0 0,0 0.28626340377353987,0.3635254522885947 l -4.650509948985434 3.5976982393673325" fill="#ff4406" stroke="none" /><path d="M 117.04232023915458 87.72973835380427 l 2.064081307101268 -1.4861132370324852 a23.54341585188267,23.54341585188267 0 0,0 0.233962560714149,0.3309234500544831 l -2.0893564876193 1.450363286646209" fill="#ff1402" stroke="none" /><path d="M 117.45458315368197 88.32363383020206 l 2.0310878446643295 -1.3587104996158936 a23.44364728520907,23.44364728520907 0 0,0 0.22149040480321566,0.337345082098525 l -2.05417488482547 1.3235473535396947" fill="#ff1302" stroke="none" /><line stroke="#e1ed5e" stroke-width="0.3" x1="172.23445277983987" x2="176.4835382374775" y1="55.19839476539836" y2="52.563006222186495" /><path d="M 173.08426987136738 54.67131705675599 a86.0,86.0 0 0,1 12.851231095245387,41.99856678651699" fill="none" id="id135" stroke="none" /><text fill="#e1ed5e" style="font-size:6.75px; font-family:Arial;" text-anchor="middle"><textPath startOffset="22.20632615414155" xlink:href="#id135">March</textPath></text><path d="M 118.21658344932153 89.55222093294921 l 1.4732524491817904 -0.8449562532877755 a22.698359163719577,22.698359163719577 0 0,0 0.19146861338346685,0.34060129856717714 l -1.4875787038576902 0.8194714447858044" fill="#ff0801" stroke="none" /><path d="M 118.3937258080291 89.86733742301442 l 3.0403026504617263 -1.6748298420103802 a24.47109423757021,24.47109423757021 0 0,0 0.20007088970726197,0.37070097312545575 l -3.0686816393874534 1.6222478855524658" fill="#ff2103" stroke="none" /><path d="M 118.56541770881063 90.18545643968196 l 3.2700934416579917 -1.7287235349534618 a24.69891824422717,24.69891824422717 0 0,0 0.19546320111143128,0.37757268985993103 l -3.2993660759295396 1.672178122833186" fill="#ff2503" stroke="none" /><path d="M 119.04729006885535 91.15688171328212 l 10.675962497117295 -4.956547563736753 a32.77045194508009,32.77045194508009 0 0,0 0.2331347425075688,0.5136815019342467 l -10.759699556588211 4.772044052960443" fill="#ff940d" stroke="none" /><path d="M 119.47837535516314 92.15188598940014 l 2.587712498751635 -1.0426261095473675 a23.78986114000416,23.78986114000416 0 0,0 0.14977014714891587,0.3811486882831195 l -2.6052761957822512 0.9979284163684635" fill="#ff1802" stroke="none" /><path d="M 119.7369772167798 92.82701384747503 l 1.7635278607909588 -0.6409168327098775 a22.876380798835033,22.876380798835033 0 0,0 0.13131796321529482,0.37125356547674276 l -1.7742989048160631 0.6104656408065202" fill="#ff0a01" stroke="none" /><path d="M 119.97218684219823 93.5106431181261 l 3.4793963425553103 -1.130524402696957 a24.6584538173497,24.6584538173497 0 0,0 0.12768912530436774,0.40480942141491133 l -3.4983409516278843 1.0704648148556264" fill="#ff2403" stroke="none" /><path d="M 120.28053869075195 94.5502522615342 l 1.6494022469626524 -0.4432242309867281 a22.707915539837735,22.707915539837735 0 0,0 0.09818866793317248,0.3783609912249538 l -1.6567872467661275 0.41476681421292383" fill="#ff0801" stroke="none" /><path d="M 120.37134235888165 94.90015583598534 l 2.701629031368222 -0.6763367286372657 a23.78500104014978,23.78500104014978 0 0,0 0.09600894923652352,0.39801907764309613 l -2.712870780865565 0.6297324193347633" fill="#ff1802" stroke="none" /><path d="M 120.53481517161879 95.60439243477599 l 1.7558399013760388 -0.37584867890497253 a22.79561576867069,22.79561576867069 0 0,0 0.07883017462724116,0.3844039274491186 l -1.7620493719182768 0.34556909529244206" fill="#ff0901" stroke="none" /><path d="M 120.6074358757038 95.95851677861258 l 2.7953684534431265 -0.5482212716966801 a23.84861920116497,23.84861920116497 0 0,0 0.07553684009118655,0.4035208202105322 l -2.8043910174441726 0.5000223740235852" fill="#ff1802" stroke="none" /><path d="M 120.67395015179393 96.31383870115 l 3.927598944741422 -0.7002901294242321 a24.989541293946328,24.989541293946328 0 0,0 0.07186056572404458,0.4241251266966999 l -3.9390713719856896 0.6325792144116944" fill="#ff2904" stroke="none" /><path d="M 120.78858239683441 97.02765380044208 l 2.2277342432222422 -0.31852087290352993 a23.250390056168087,23.250390056168087 0 0,0 0.053236751303164874,0.3966756331889116 l -2.2328869935832434 0.280126897649954" fill="#ff1001" stroke="none" /><path d="M 120.83666639777658 97.38593545837742 l 3.702279431801737 -0.464469565385191 a24.731300707301852,24.731300707301852 0 0,0 0.04935619440024345,0.4228537323013204 l -3.7097259792055692 0.4006720947590179" fill="#ff2503" stroke="none" /><path d="M 120.91429891909075 98.10471618934814 l 8.76593884615094 -0.7943819701796845 a29.801859267734553,29.801859267734553 0 0,0 0.041900727524697,0.5112950064522588 l -8.778314057495132 0.6433730465196569" fill="#ff6c0a" stroke="none" /><path d="M 120.94382443527127 98.46500227214037 l 42.542878618256154 -3.1180180208947386 a63.656987206157694,63.656987206157694 0 0,0 0.07068777714700383,1.0935086253134234 l -42.59024698640757 2.3852503313282796" fill="#34ff59" stroke="none" /><path d="M 120.98425023603335 99.18683210126433 l 4.084278515490068 -0.15827128160096224 a25.087343977532765,25.087343977532765 0 0,0 0.013007555548748068,0.43165744290001196 l -4.0863977654944605 0.08794369127595118" fill="#ff2a04" stroke="none" /><line stroke="#e1ed5e" stroke-width="0.3" x1="184.98032266829074" x2="189.97916517819016" y1="98.17113171792111" y2="98.06355123074" /><path d="M 185.9800911702706 98.14961562048488 a86.0,86.0 0 0,1 -9.607161424134198,41.387399972396054" fill="none" id="id136" stroke="none" /><text fill="#e1ed5e" style="font-size:6.75px; font-family:Arial;" text-anchor="middle"><textPath startOffset="21.466115282336823" xlink:href="#id136">April</textPath></text><path d="M 120.99980553446 99.90962569577887 l 5.331261739452348 -0.02294350152591197 a26.331311108799667,26.331311108799667 0 0,0 -0.0019506520029951933,0.4532628282048145 l -5.330866790159849 -0.06882880488258727" fill="#ff3c05" stroke="none" /><path d="M 120.99824983174949 100.27111621757518 l 7.955320399253899 0.10271410205736806 a28.955983461618473,28.955983461618473 0 0,0 -0.010724658298020443,0.49833272937342477 l -7.952373678270871 -0.2396366472209077" fill="#ff6008" stroke="none" /><path d="M 120.9904718944345 100.63252640178507 l 9.029789230393408 0.2721034629189405 a30.033888079883504,30.033888079883504 0 0,0 -0.020019541681144823,0.5166154159566068 l -9.02376755586106 -0.4274961258895535" fill="#ff6f0a" stroke="none" /><path d="M 120.95626037817324 101.35467743843564 l 4.708837266689071 0.3043937940899306 a25.718665487830247,25.718665487830247 0 0,0 -0.03236074517853361,0.4415366572293429 l -4.7028999628462 -0.3854035878160438" fill="#ff3304" stroke="none" /><path d="M 120.92983693683757 101.71520430193887 l 4.676775764464461 0.38326270456003536 a25.69245371333472,25.69245371333472 0 0,0 -0.0399155559538143,0.440464833840709 l -4.669485612233571 -0.46370892694931487" fill="#ff3304" stroke="none" /><path d="M 120.70491114924044 103.5080841355445 l 8.483435693106976 1.4373694219398914 a29.60434262533805,29.60434262533805 0 0,0 -0.0894524219898715,0.5016966874870067 l -8.457436828777917 -1.5831848601601164" fill="#ff6909" stroke="none" /><path d="M 120.5718875245553 104.21870165774334 l 6.292303593914644 1.290370247795038 a27.42324994799251,27.42324994799251 0 0,0 -0.09880983660070092,0.4616066611100768 l -6.2691597185895 -1.398490728321284" fill="#ff4b07" stroke="none" /><path d="M 120.41448212921028 104.9243191809786 l 5.1372235258218915 1.239185406960792 a26.284566777615975,26.284566777615975 0 0,0 -0.10988036055860066,0.43891742011476287 l -5.11513185096823 -1.3274306664729507" fill="#ff3b05" stroke="none" /><path d="M 120.13307415673323 105.97154293290107 l 4.385602998323762 1.3007857810125607 a25.574446120241316,25.574446120241316 0 0,0 -0.12881389083361602,0.4209712483661006 l -4.362562334984013 -1.3760840019307183" fill="#ff3104" stroke="none" /><path d="M 119.9155931802556 106.66101706037122 l 5.556023764173451 1.8582810336615 a26.858550031204494,26.858550031204494 0 0,0 -0.15041960720188682,0.4371897883860676 l -5.523213326028334 -1.953643525136868" fill="#ff4306" stroke="none" /><path d="M 119.67450827220406 107.3425965602758 l 4.2145993263883375 1.5729034794023293 a25.498541189931352,25.498541189931352 0 0,0 -0.15700510656565309,0.40989078980262805 l -4.1868999402291776 -1.6452178360381011" fill="#ff3004" stroke="none" /><path d="M 119.54520255179757 107.68017299344265 l 1.9632113037452785 0.7714323960310719 a23.10933794466403,23.10933794466403 0 0,0 -0.148667197265074,0.36897979150380505 l -1.949641492222812 -0.8051115553776905" fill="#ff0e01" stroke="none" /><path d="M 118.81262510543309 109.33194174019688 l 4.15451993727612 2.060836156350686 a25.63757281048471,25.63757281048471 0 0,0 -0.1995107739114663,0.39365368451934823 l -4.118430493578385 -2.1320440525727284" fill="#ff3204" stroke="none" /><line stroke="#e1ed5e" stroke-width="0.3" x1="174.80103733775053" x2="179.2010983576182" y1="140.37084112569926" y2="142.7455964860345" /><path d="M 175.68104954172406 140.8457921977663 a86.0,86.0 0 0,1 -30.038265399797805,32.042727171017184" fill="none" id="id137" stroke="none" /><text fill="#e1ed5e" style="font-size:6.75px; font-family:Arial;" text-anchor="middle"><textPath startOffset="22.206326154141568" xlink:href="#id137">May</textPath></text><path d="M 118.30583269289576 110.29060199501025 l 8.296222798044392 4.663711741981407 a30.51722228000832,30.51722228000832 0 0,0 -0.26135531000160117,0.45569501269243184 l -8.214715491890411 -4.805826600532154" fill="#ff760a" stroke="none" /><path d="M 117.35343817320211 111.8261652097733 l 1.7097125689262558 1.1651491248904988 a23.068982733513625,23.068982733513625 0 0,0 -0.22644853206565915,0.32621599977017357 l -1.6894031296984604 -1.194406386847692" fill="#ff0d01" stroke="none" /><path d="M 116.498646956653 112.99209946851258 l 3.2652785552941106 2.571291081883252 a25.156149885583524,25.156149885583524 0 0,0 -0.27082642337113194,0.33789760462175217 l -3.220534219868125 -2.6271165200832542" fill="#ff2b04" stroke="none" /><path d="M 116.0416608686014 113.55231037782055 l 1.8219148639927045 1.539189484246126 a23.38505304763886,23.38505304763886 0 0,0 -0.2624220435600374,0.3052561227466817 l -1.7951503108618883 -1.5703227061543357" fill="#ff1202" stroke="none" /><path d="M 115.07121518719521 114.62390073753431 l 5.9327821340440625 5.756696852115198 a29.266647597254007,29.266647597254007 0 0,0 -0.3539304538342161,0.35852968112912065 l -5.832811055154311 -5.857967027224983" fill="#ff6509" stroke="none" /><path d="M 114.55890576462653 115.13401014063108 l 1.1261421127381444 1.1706268609403268 a22.624365508633243,22.624365508633243 0 0,0 -0.2829814327982163,0.2675766075211781 l -1.1058248455491204 -1.1898381052074263" fill="#ff0701" stroke="none" /><path d="M 114.0293411484842 115.62618273729858 l 2.463707862961785 2.7441309517318104 a24.687832847930103,24.687832847930103 0 0,0 -0.31865837540930425,0.2811789665247052 l -2.416107134645893 -2.7861330600288046" fill="#ff2503" stroke="none" /><path d="M 113.48314897796784 116.09983520530334 l 6.772884172875445 8.087303583612602 a31.548764822134387,31.548764822134387 0 0,0 -0.41934298425600675,0.3450907273176767 l -6.632671060074747 -8.202689429787457" fill="#ff840c" stroke="none" /><path d="M 112.92097659922987 116.55440617244103 l 1.8839506940280282 2.4137250584952703 a24.06191751612232,24.06191751612232 0 0,0 -0.3286987082254612,0.25203215303532217 l -1.8421232573090731 -2.445796553357964" fill="#ff1c02" stroke="none" /><path d="M 112.34349029814194 116.9893568818739 l 1.7650523494248633 2.4293861424335494 a24.002886415643854,24.002886415643854 0 0,0 -0.3363520726129155,0.23997827310789843 l -1.7229729489630632 -2.459408677385667" fill="#ff1b02" stroke="none" /><path d="M 112.04921762599082 117.19931262002967 l 1.661028640541531 2.3709880380841293 a23.894926669440398,23.894926669440398 0 0,0 -0.33890187623494666,0.23309980074669143 l -1.6199698796837012 -2.3992286281959148" fill="#ff1902" stroke="none" /><path d="M 111.45004920935366 117.60387380957326 l 27.894905484224104 42.88701184560004 a72.16074214686915,72.16074214686915 0 0,0 -1.0470805385690516,0.6682963406157951 l -27.15254314360812 -43.360822615039645" fill="#3effb8" stroke="none" /><line stroke="#e1ed5e" stroke-width="0.3" x1="143.8653032363475" x2="146.44561519142675" y1="172.8068346515853" y2="177.08958963109032" /><path d="M 144.38136562736335 173.6633856474863 a86.0,86.0 0 0,1 -40.68145358897372,12.25698825130547" fill="none" id="id138" stroke="none" /><text fill="#e1ed5e" style="font-size:6.75px; font-family:Arial;" text-anchor="middle"><textPath startOffset="21.466115282336833" xlink:href="#id138">June</textPath></text><path d="M 110.5260780823613 118.17145234162733 l 2.0428901541424875 3.5266963426184614 a25.075657894736842,25.075657894736842 0 0,0 -0.37536018949869976,0.21313931189654564 l -1.9818811977225887 -3.561338820309636" fill="#ff2a04" stroke="none" /><path d="M 110.21172684928248 118.3499491758327 l 2.252257219096092 4.047190657495846 a25.631675161223217,25.631675161223217 0 0,0 -0.3873766185602488,0.21122861893840808 l -2.1822577886671946 -4.085359928194024" fill="#ff3204" stroke="none" /><path d="M 109.57404056367764 118.69057910512821 l 4.837310384654058 9.443466611520728 a31.610307884335345,31.610307884335345 0 0,0 -0.4864165461794187,0.24389935409621746 l -4.674039930791879 -9.525333806526248" fill="#ff850c" stroke="none" /><path d="M 108.92500713936063 119.00905698771935 l 26.775021418081884 57.02717096315804 a84.0,84.0 0 0,0 -1.3141280169303222,0.6032517186637025 l -25.789425405384144 -57.479609752155824" fill="#4dd2ff" stroke="none" /><path d="M 108.2653958097858 119.30500536409082 l 0.45958747295779573 1.0734317913988827 a22.167679945912212,22.167679945912212 0 0,0 -0.35207399708035714,0.1471669593336359 l -0.4410420163799775 -1.0811837937524917" fill="#ff0000" stroke="none" /><path d="M 107.93186726928326 119.44442032107085 l 1.1706805764249517 2.8698419195530978 a24.099433118369046,24.099433118369046 0 0,0 -0.38545198399041936,0.15337929925213878 l -1.1211075163926663 -2.889568063211305" fill="#ff1c02" stroke="none" /><path d="M 106.57524785965236 119.94407469862006 l 3.332164497421342 10.107138021740615 a31.64225348450177,31.64225348450177 0 0,0 -0.5187501175207512,0.1660874060413624 l -3.1576930348096504 -10.162998274441685" fill="#ff850c" stroke="none" /><path d="M 106.2309692047433 120.05430185196036 l 0.6689185891632579 2.1529066924701756 a23.25443103806948,23.25443103806948 0 0,0 -0.38328288273473043,0.1154799884505445 l -0.6317607319882815 -2.164102050026446" fill="#ff1001" stroke="none" /><path d="M 105.18746579009965 120.34920634021253 l 0.6317468934567746 2.4781942493529585 a23.557450072810486,23.557450072810486 0 0,0 -0.39379835561361537,0.09678605474343582 l -0.588995253099948 -2.4887015624104243" fill="#ff1402" stroke="none" /><path d="M 104.83641907484287 120.43548508189849 l 3.075143046820271 12.993505915332877 a34.35244175161223,34.35244175161223 0 0,0 -0.5765973112666042,0.13123167080460313 l -2.8510255861608047 -13.044514319715166" fill="#ffa90f" stroke="none" /><path d="M 103.41894727170886 120.7198165907248 l 0.8715577255569043 5.28189374875685 a26.353318077803205,26.353318077803205 0 0,0 -0.44821238534803026,0.07000155663809428 l -0.7805094766003569 -5.296113612742049" fill="#ff3c05" stroke="none" /><path d="M 103.06178313531738 120.77559828337769 l 0.5018311603366294 3.405153837635988 a24.441933638443935,24.441933638443935 0 0,0 -0.4167598862874104,0.05775912271470255 l -0.4431426828623886 -3.413287525843293" fill="#ff2103" stroke="none" /><path d="M 102.70371172650421 120.8252237178851 l 0.29007812077136763 2.2343142952366892 a23.253065841481174,23.253065841481174 0 0,0 -0.3973756028803939,0.04811665150743654 l -0.2515750948395934 -2.2389764754694768" fill="#ff1001" stroke="none" /><path d="M 101.98527174616119 120.90594882070398 l 1.7022714032945114 17.925807338484898 a39.00645152902018,39.00645152902018 0 0,0 -0.6689711982340832,0.05772164986763691 l -1.3934558873188865 -17.952453240631197" fill="#ffe415" stroke="none" /><path d="M 101.26447882468166 120.96189622390904 l 0.2447642480509628 4.057579033210848 a25.0649547534845,25.0649547534845 0 0,0 -0.43089274908019887,0.02227223329508033 l -0.17488343055728436 -4.06119107326813" fill="#ff2a04" stroke="none" /><line stroke="#e1ed5e" stroke-width="0.3" x1="102.19456741930631" x2="102.32365962044197" y1="184.97166512339345" y2="189.96999836594603" /><path d="M 102.22038585953345 185.97133177190398 a86.0,86.0 0 0,1 -42.740103519485714,-10.115201625700543" fill="none" id="id139" stroke="none" /><text fill="#e1ed5e" style="font-size:6.75px; font-family:Arial;" text-anchor="middle"><textPath startOffset="22.20632615414155" xlink:href="#id139">July</textPath></text><path d="M 100.54218724476979 120.99299961872073 l 0.17655063800657375 6.835880984124888 a27.838160495111296,27.838160495111296 0 0,0 -0.4791349220081289,0.008248742199391906 l -0.05885602610577689 -6.837907203603439" fill="#ff5107" stroke="none" /><path d="M 99.45781275523022 120.99299961872073 l -0.09319512967164355 3.6084311103522455 a24.60963438735178,24.60963438735178 0 0,0 -0.42337905032752676,-0.014582030540092961 l 0.15529453167381335 -3.6062922813860587" fill="#ff2303" stroke="none" /><path d="M 99.09653310690486 120.98055641714683 l -0.23460631356480238 5.448092271209389 a26.453141252340338,26.453141252340338 0 0,0 -0.454757124763724,-0.02350574892930663 l 0.3283515067420153 -5.443246715517881" fill="#ff3e05" stroke="none" /><path d="M 98.37488393609728 120.93702456842531 l -0.1347685052889577 1.736276915206084 a22.74149937591013,22.74149937591013 0 0,0 -0.3900228677767246,-0.03365281416241508 l 0.164635690807224 -1.7336998487650055" fill="#ff0801" stroke="none" /><line stroke="#e1ed5e" stroke-width="0.3" x1="58.666819895761336" x2="56.23545636021788" y1="174.27360380694188" y2="178.64263932499728" /><path d="M 58.180547188652646 175.14741091055294 a86.0,86.0 0 0,1 -31.652253787137756,-30.449443065178592" fill="none" id="id140" stroke="none" /><text fill="#e1ed5e" style="font-size:6.75px; font-family:Arial;" text-anchor="middle"><textPath startOffset="22.20632615414155" xlink:href="#id140">August</textPath></text><line stroke="#e1ed5e" stroke-width="0.3" x1="26.63291911575756" x2="22.317208475507996" y1="142.92168965132927" y2="145.44649492493687" /><path d="M 25.769776987707644 143.4266507060508 a86.0,86.0 0 0,1 -11.730757126820373,-40.83630448921669" fill="none" id="id141" stroke="none" /><text fill="#e1ed5e" style="font-size:6.75px; font-family:Arial;" text-anchor="middle"><textPath startOffset="21.46611528233685" xlink:href="#id141">September</textPath></text><line stroke="#e1ed5e" stroke-width="0.3" x1="15.007084014347285" x2="10.007500721073583" y1="101.09737516637583" y2="101.16192664675087" /><path d="M 14.007167355692545 101.11028546245083 a86.0,86.0 0 0,1 10.666146001902534,-42.60595125391555" fill="none" id="id142" stroke="none" /><text fill="#e1ed5e" style="font-size:6.75px; font-family:Arial;" text-anchor="middle"><textPath startOffset="22.20632615414155" xlink:href="#id142">October</textPath></text><line stroke="#e1ed5e" stroke-width="0.3" x1="26.266209847984243" x2="21.928928074336255" y1="57.711370442889674" y2="55.22380399835377" /><path d="M 25.398753493254645 57.213857153982495 a86.0,86.0 0 0,1 29.58750427330803,-30.492523968695096" fill="none" id="id143" stroke="none" /><text fill="#e1ed5e" style="font-size:6.75px; font-family:Arial;" text-anchor="middle"><textPath startOffset="21.46611528233685" xlink:href="#id143">November</textPath></text><line stroke="#e1ed5e" stroke-width="0.3" x1="56.762969772571076" x2="54.21961505331055" y1="26.818313649435495" y2="22.513508569990535" /><path d="M 56.25429882871897 25.957352633546506 a86.0,86.0 0 0,1 42.265352541879196,-11.944610805530505" fill="none" id="id144" stroke="none" /><text fill="#e1ed5e" style="font-size:6.75px; font-family:Arial;" text-anchor="middle"><textPath startOffset="22.20632615414155" xlink:href="#id144">December</textPath></text></svg>