<?xml version="1.0" encoding="utf-8" ?>
<svg baseProfile="full" height="200mm" version="1.1" viewBox="0,0,200,200" width="200mm" xmlns="http://www.w3.org/2000/svg" xmlns:ev="http://www.w3.org/2001/xml-events" xmlns:xlink="http://www.w3.org/1999/xlink"><defs /><rect fill="#1a1a1a" height="200" width="200" x="0" y="0" /><text alignment-baseline="middle" fill="#e1ed5e" style="dominant-baseline: central; font-size:9.0px; font-family:Arial;" text-anchor="middle" x="100.0" y="100.0">2025</text><line stroke="#e1ed5e" stroke-width="0.3" x1="100.0" x2="100.0" y1="15.0" y2="10.0" /><path d="M 100.0 14.0 a86.0,86.0 0 0,1 42.46469731375804,11.215312516191453" fill="none" id="id121" stroke="none" /><text fill="#e1ed5e" style="font-size:6.75px; font-family:Arial;" text-anchor="middle"><textPath startOffset="22.20632615414155" xlink:href="#id121">January</textPath></text><path d="M 100.0 79.0 l 0.0 -15.798681532659629 a36.79868153265963,36.79868153265963 0 0,0 0.6334288112868067,0.005452121759358304 l -0.27194833201427837 15.796340787508829" fill="#ffc011" stroke="none" /><path d="M 100.36148047927253 79.00311137660856 l 0.2429770605891308 -14.113520844877154 a35.11561222514824,35.11561222514824 0 0,0 0.604278426047336,0.01560672894979073 l -0.48588212183133456 14.107247323785003" fill="#ffaa0f" stroke="none" /><path d="M 100.72285384407766 79.0124445844662 l 0.7822038242141006 -22.710740547949786 a43.72420689614724,43.72420689614724 0 0,0 0.7519713412880564,0.03238146776959862 l -1.1730159978914887 22.69391135365599" fill="#e7ff1a" stroke="none" /><path d="M 101.80526077348638 79.07773832637324 l 1.0531173127645128 -12.205215066039354 a33.25056451281811,33.25056451281811 0 0,0 0.5698115561060978,0.05411047318040464 l -1.2630539959608547 12.185279048343771" fill="#ff910d" stroke="none" /><path d="M 102.16513564639614 79.11191278185805 l 0.5917833408211831 -5.709213673467316 a26.73980211259758,26.73980211259758 0 0,0 0.457420345733621,0.051396505555229295 l -0.6899703900645293 5.698181214441486" fill="#ff3705" stroke="none" /><path d="M 102.88285421437855 79.19881850522331 l 1.5136924834173024 -10.922020238761856 a32.02641333481915,32.02641333481915 0 0,0 0.545411374006889,0.08037945882312696 l -1.7014728378528472 10.89434629577776" fill="#ff810b" stroke="none" /><path d="M 103.2404852339499 79.25152402106235 l 1.0804436620442175 -6.917963746187042 a28.00182696875678,28.00182696875678 0 0,0 0.4755920883099207,0.07847676960139707 l -1.1993649564930136 6.89834071364602" fill="#ff4906" stroke="none" /><path d="M 104.307194497241 79.44645832069477 l 3.052507257315907 -14.566287911960442 a35.88269277013038,35.88269277013038 0 0,0 0.6034397156540545,0.1318885492298553 l -3.3027896971234894 14.511585864634716" fill="#ffb410" stroke="none" /><path d="M 104.66035177308747 79.52364482259891 l 1.7799296032725314 -7.820540706358147 a29.020536536442602,29.020536536442602 0 0,0 0.4861303497694836,0.11505134754876781 l -1.9142836400045384 7.78874344666851" fill="#ff5708" stroke="none" /><path d="M 105.01212808612495 79.60689891045804 l 1.272617421836109 -5.1779633891760515 a26.332059636013867,26.332059636013867 0 0,0 0.43923268729102344,0.11197019191422526 l -1.3615589978121574 5.155290201092958" fill="#ff3104" stroke="none" /><path d="M 106.0581310904928 79.89281104454417 l 6.34746289188916 -21.06749323322708 a43.00294426425651,43.00294426425651 0 0,0 0.706916446501289,0.21964238102088757 l -6.709164711101168 20.95511071732367" fill="#f0ff19" stroke="none" /><path d="M 106.74666289553966 80.11325718540242 l 6.8726526238075145 -20.258115352715713 a42.39216192280398,42.39216192280398 0 0,0 0.6890098929007931,0.2403820225691967 l -7.220344520771581 20.13681247697431" fill="#f7ff18" stroke="none" /><path d="M 107.4271985657038 80.35727306442388 l 5.162765729292399 -13.653976873746252 a35.59743931120639,35.59743931120639 0 0,0 0.5712826824180576,0.22164880536922396 l -5.397031576710123 13.563085364486483" fill="#ffb110" stroke="none" /><path d="M 108.43124777332544 80.76684994638697 l 8.865590474054482 -20.223961682259837 a43.08183236461956,43.08183236461956 0 0,0 0.6766266039556251,0.3035826340027909 l -9.212399196476888 20.068358717740516" fill="#efff19" stroke="none" /><path d="M 109.41281617654863 81.2277094730956 l 2.6804010006028633 -5.34561234046875 a26.979976657028406,26.979976657028406 0 0,0 0.41335831116662264,0.21173818190345406 l -2.7720197993582416 5.298681633252796" fill="#ff3a05" stroke="none" /><line stroke="#e1ed5e" stroke-width="0.3" x1="143.23703022742887" x2="145.7803849466894" y1="26.81831364943548" y2="22.513508569990506" /><path d="M 143.74570117128098 25.957352633546492 a86.0,86.0 0 0,1 28.547481713284135,27.462654790039103" fill="none" id="id122" stroke="none" /><text fill="#e1ed5e" style="font-size:6.75px; font-family:Arial;" text-anchor="middle"><textPath startOffset="19.985693538727396" xlink:href="#id122">February</textPath></text><path d="M 111.2981086023043 82.29822771554956 l 1.2424533363042178 -1.9466644203461898 a23.309370619527158,23.309370619527158 0 0,0 0.3363575193300872,0.2187762869653853 l -1.2757778814185852 1.9249892092212764" fill="#ff0500" stroke="none" /><path d="M 111.60114157652 82.49532879139004 l 1.4799023424455593 -2.2329874826966813 a23.678869918651504,23.678869918651504 0 0,0 0.33781325092314957,0.2280930149891694 l -1.5181202877752507 2.2071825554088416" fill="#ff0a01" stroke="none" /><path d="M 111.90073688211348 82.69761687909136 l 3.6339611771304248 -5.283386159702446 a27.41247558665345,27.41247558665345 0 0,0 0.3864752575300703,0.2707506159064525 l -3.724367574244146 5.220050701032058" fill="#ff4006" stroke="none" /><path d="M 112.19680574252982 82.90503203632743 l 2.2265299249637285 -3.120690657939302 a24.833555228415083,24.833555228415083 0 0,0 0.3458423589588976,0.25126918176933344 l -2.2799176002764145 3.0819022413532933" fill="#ff1b02" stroke="none" /><path d="M 113.34407831869373 83.78471172551755 l 1.3207038177368848 -1.6048761569251282 a23.078433557574442,23.078433557574442 0 0,0 0.30457209139388286,0.25507036751793655 l -1.348133446089885 1.5819046320133723" fill="#ff0100" stroke="none" /><path d="M 113.6212207817346 84.01681056812373 l 1.6177601353078612 -1.8982855584160458 a23.49412026908933,23.49412026908933 0 0,0 0.3055423781346214,0.26496333945375267 l -1.6501963120892467 1.8701572255426218" fill="#ff0801" stroke="none" /><path d="M 114.42810811169701 84.74124197986012 l 6.852084141022294 -7.246569892052167 a30.973155582665207,30.973155582665207 0 0,0 0.38423933464208854,0.36963793549326335 l -6.9758067192768 7.127548869796603" fill="#ff720a" stroke="none" /><path d="M 115.9244219780498 86.31012108654704 l 4.545438481983912 -3.9076145126449227 a26.99420238004469,26.99420238004469 0 0,0 0.2998790910783441,0.35496225710238155 l -4.612028186549374 3.8287933059134347" fill="#ff3a05" stroke="none" /><path d="M 116.15771136456269 86.58626213691792 l 4.321617535135587 -3.587701466678388 a26.616758845989175,26.616758845989175 0 0,0 0.2896175967784338,0.3550369288802469 l -4.38273362399043 3.5127803681900405" fill="#ff3505" stroke="none" /><path d="M 116.38621287248628 86.86637796730983 l 5.796072234923991 -4.645577510803523 a28.428044410296714,28.428044410296714 0 0,0 0.3027531490026871,0.38446575416976564 l -5.875179464520642 4.54511936268072" fill="#ff4f07" stroke="none" /><path d="M 117.2510076193507 88.02491185347247 l 4.580950381368568 -3.179946691938349 a26.57648342238462,26.57648342238462 0 0,0 0.2576343720646666,0.3780466505931432 l -4.635009219101968 3.1006220180747994" fill="#ff3405" stroke="none" /><path d="M 117.65298651832404 88.62581576622439 l 1.6695175254571832 -1.075704663137646 a22.986058732793357,22.986058732793357 0 0,0 0.2114415342021588,0.33444972931354394 l -1.6877866559052979 1.0468072861098958" fill="#ff0000" stroke="none" /><line stroke="#e1ed5e" stroke-width="0.3" x1="172.23445277983987" x2="176.4835382374775" y1="55.19839476539836" y2="52.563006222186495" /><path d="M 173.08426987136738 54.67131705675599 a86.0,86.0 0 0,1 12.851231095245387,41.99856678651699" fill="none" id="id123" stroke="none" /><text fill="#e1ed5e" style="font-size:6.75px; font-family:Arial;" text-anchor="middle"><textPath startOffset="22.20632615414155" xlink:href="#id123">March</textPath></text><path d="M 117.84615892207809 88.93136811851018 l 6.83639947517064 -4.240105084565878 a29.044553990885685,29.044553990885685 0 0,0 0.25985775431953456,0.4271378231053512 l -6.908373027776398 4.121799488253445" fill="#ff5808" stroke="none" /><path d="M 118.21658344932153 89.55222093294921 l 5.143617155963673 -2.950024948448942 a26.929540002697934,26.929540002697934 0 0,0 0.22716010642798534,0.4040924821295587 l -5.193634903684091 2.861048956384589" fill="#ff3a05" stroke="none" /><path d="M 118.56541770881063 90.18545643968196 l 8.186974527898371 -4.328015635928313 a30.260576184303908,30.260576184303908 0 0,0 0.23947725280814047,0.46259382834669166 l -8.260261213866627 4.186449085321277" fill="#ff6909" stroke="none" /><path d="M 118.73160827565052 90.50648371742162 l 5.529307621124526 -2.802352641591716 a27.19890499175958,27.19890499175958 0 0,0 0.20805865455036868,0.41943355166235186 l -5.576726288628303 2.7067595014304144" fill="#ff3d05" stroke="none" /><path d="M 119.04729006885535 91.15688171328212 l 4.623269655307471 -2.1464533949702327 a26.097242831420346,26.097242831420346 0 0,0 0.18566036250757628,0.40907799857180127 l -4.659532334778395 2.0665533875563686" fill="#ff2e04" stroke="none" /><path d="M 119.47837535516314 92.15188598940014 l 3.603935273937712 -1.4520766953589024 a24.885469879942054,24.885469879942054 0 0,0 0.15666760154061932,0.39870195736868996 l -3.6283964253600316 1.3898257330944281" fill="#ff1c02" stroke="none" /><path d="M 119.7369772167798 92.82701384747503 l 10.687770936656356 -3.884243878278281 a32.37171042985085,32.37171042985085 0 0,0 0.18582428386835598,0.5253502738630232 l -10.753048301334523 3.699695977988643" fill="#ff860c" stroke="none" /><path d="M 119.85752413597 93.16781622104841 l 4.023134087136612 -1.384200329430408 a25.254599679767274,25.254599679767274 0 0,0 0.13789336876155736,0.412283621197797 l -4.04636474966994 1.314743605310297" fill="#ff2103" stroke="none" /><path d="M 120.18372546131832 94.20196356495316 l 13.114491067540301 -3.767307337905525 a34.64487011806383,34.64487011806383 0 0,0 0.1597181790208888,0.5745912693638168 l -13.177396017127554 3.5410047651227563" fill="#ffa40f" stroke="none" /><path d="M 120.28053869075195 94.5502522615342 l 16.499043299012072 -4.433591497579025 a38.08435434396279,38.08435434396279 0 0,0 0.16467614632299968,0.6345643674103212 l -16.572915777205374 4.148930704619853" fill="#ffd113" stroke="none" /><path d="M 120.53481517161879 95.60439243477599 l 23.231785372016798 -4.972911159971623 a44.75806593509716,44.75806593509716 0 0,0 0.15477915531855943,0.7547581300314776 l -23.31394382325035 4.572277373776734" fill="#daff1b" stroke="none" /><path d="M 120.73433829027371 96.67025291283417 l 12.904404903802622 -2.072330644870462 a34.069744458976785,34.069744458976785 0 0,0 0.08800394518707423,0.5798360433434878 l -12.938164742428997 1.849895489134892" fill="#ff9c0e" stroke="none" /><path d="M 120.83666639777658 97.38593545837742 l 12.656275811596036 -1.5877934212940623 a33.755485305071524,33.755485305071524 0 0,0 0.06736573682514711,0.5771484935556833 l -12.68173190142477 1.3697011894135263" fill="#ff980e" stroke="none" /><path d="M 120.94382443527127 98.46500227214037 l 19.337976863454678 -1.4173032551215914 a40.38984522084915,40.38984522084915 0 0,0 0.044850824760635,0.6938224076021046 l -19.359508279219728 1.0842217832664516" fill="#ffee16" stroke="none" /><path d="M 120.96714384426684 98.82574320788733 l 20.759748649556222 -1.1626417043425203 a41.792279810675595,41.792279810675595 0 0,0 0.03404357672651202,0.7186060985018475 l -20.776685834516233 0.8051244992176729" fill="#feff18" stroke="none" /><line stroke="#e1ed5e" stroke-width="0.3" x1="184.98032266829074" x2="189.97916517819016" y1="98.17113171792111" y2="98.06355123074" /><path d="M 185.9800911702706 98.14961562048488 a86.0,86.0 0 0,1 -9.607161424134198,41.387399972396054" fill="none" id="id124" stroke="none" /><text fill="#e1ed5e" style="font-size:6.75px; font-family:Arial;" text-anchor="middle"><textPath startOffset="21.466115282336823" xlink:href="#id124">April</textPath></text><path d="M 120.99980553446 99.90962569577887 l 13.014014300136926 -0.056006827566508495 a34.014134814458565,34.014134814458565 0 0,0 -0.002519803891717291,0.5855136829775638 l -13.013050198955705 -0.16801633361474005" fill="#ff9c0e" stroke="none" /><path d="M 120.99824983174949 100.27111621757518 l 12.44628551296729 0.16069862384599384 a33.44732288960182,33.44732288960182 0 0,0 -0.012388151466173251,0.5756287203265954 l -12.44167529881611 -0.374917159962704" fill="#ff940d" stroke="none" /><path d="M 120.9764740272857 100.99374915477107 l 33.54930512494173 1.5893802536927808 a54.58693204145431,54.58693204145431 0 0,0 -0.05254290906724959,0.938188937725571 l -33.516975864986954 -2.166640907753775" fill="#6cff28" stroke="none" /><path d="M 120.95626037817324 101.35467743843564 l 12.074791208333771 0.7805518221556224 a33.09999354842493,33.09999354842493 0 0,0 -0.0416483684636956,0.5682588979043229 l -12.059566281205738 -0.9882838565567156" fill="#ff8f0d" stroke="none" /><path d="M 120.92983693683757 101.71520430193887 l 16.82767433464305 1.3790312603728847 a37.8840857238374,37.8840857238374 0 0,0 -0.05885636149590866,0.6494750446858506 l -16.801443376870065 -1.6684876936073059" fill="#ffce13" stroke="none" /><path d="M 120.8583938346157 102.4346265915055 l 20.581975861294055 2.402362623648976 a41.72170544454285,41.72170544454285 0 0,0 -0.08940065603104703,0.7126111906575453 l -20.53757369601616 -2.7562915685939164" fill="#ffff18" stroke="none" /><path d="M 120.76222939487914 103.15116336523771 l 32.76899885341477 4.973476919962429 a54.144271881103336,54.144271881103336 0 0,0 -0.1477835559814412,0.9202483441668546 l -32.67853354307204 -5.536804493822489" fill="#70ff27" stroke="none" /><path d="M 120.70491114924044 103.5080841355445 l 15.783971597562331 2.6743172167307123 a37.00892663386139,37.00892663386139 0 0,0 -0.11182609810125993,0.6271801449752982 l -15.735599057121883 -2.945616112439229" fill="#ffc312" stroke="none" /><path d="M 120.5718875245553 104.21870165774334 l 14.618201012714199 2.9977720212572394 a35.92241394478625,35.92241394478625 0 0,0 -0.1294335229747963,0.6046703286997067 l -14.564433451014958 -3.2489561693731153" fill="#ffb510" stroke="none" /><path d="M 120.41448212921028 104.9243191809786 l 20.126525873700054 4.854859250360873 a41.70378472853532,41.70378472853532 0 0,0 -0.17433906905903943,0.696397918860065 l -20.039975490345952 -5.200585008618334" fill="#ffff18" stroke="none" /><path d="M 120.23288151984713 105.62410040840565 l 38.3622083727916 10.663479226383092 a60.816690224690774,60.816690224690774 0 0,0 -0.2890454040305391,1.006204970624875 l -38.172970331874964 -11.32224167251255" fill="#30ff33" stroke="none" /><path d="M 119.9155931802556 106.66101706037122 l 28.20784855269398 9.434464680275761 a50.743769831261986,50.743769831261986 0 0,0 -0.2841872668886989,0.8259812226894758 l -28.04127045486205 -9.918618606054538" fill="#95ff23" stroke="none" /><path d="M 119.67450827220406 107.3425965602758 l 14.298148664820346 5.3361200062592795 a36.26142955173284,36.26142955173284 0 0,0 -0.22327667957886277,0.5829049547431049 l -14.204177705647977 -5.581448527835528" fill="#ffb911" stroke="none" /><path d="M 119.26925614724726 108.34839909993367 l 2.4040092558763306 1.0415362458533326 a23.61993478044117,23.61993478044117 0 0,0 -0.1648434295304542,0.37167841619671466 l -2.3857247416146037 -1.082762998542735" fill="#ff0901" stroke="none" /><path d="M 118.97047184881838 109.00673069616215 l 17.425806065760536 8.273359969569238 a40.29008041008558,40.29008041008558 0 0,0 -0.3028408563553955,0.6239418625908064 l -17.280811952790426 -8.57209078812532" fill="#ffed16" stroke="none" /><path d="M 118.81262510543309 109.33194174019688 l 2.503940198768017 1.24207142410401 a23.79507744822611,23.79507744822611 0 0,0 -0.18517253376799342,0.3653629764470814 l -2.482188995213755 -1.2849886122537857" fill="#ff0c01" stroke="none" /><path d="M 118.64920377521936 109.65438752849418 l 17.488530079107658 9.053525754905664 a40.69301939578067,40.69301939578067 0 0,0 -0.32738016950823434,0.6192799042714384 l -17.33009740137453 -9.353220674263236" fill="#fff216" stroke="none" /><line stroke="#e1ed5e" stroke-width="0.3" x1="174.80103733775053" x2="179.2010983576182" y1="140.37084112569926" y2="142.7455964860345" /><path d="M 175.68104954172406 140.8457921977663 a86.0,86.0 0 0,1 -30.038265399797805,32.042727171017184" fill="none" id="id125" stroke="none" /><text fill="#e1ed5e" style="font-size:6.75px; font-family:Arial;" text-anchor="middle"><textPath startOffset="22.206326154141568" xlink:href="#id125">May</textPath></text><path d="M 118.48025628344425 109.97397251340804 l 11.706713042938778 6.318225912117347 a34.30289851672424,34.30289851672424 0 0,0 -0.28491593930988235,0.5172051892763381 l -11.596220694177386 -6.51880161979149" fill="#ffa00e" stroke="none" /><path d="M 118.30583269289576 110.29060199501025 l 10.005233065015824 5.624429823361797 a32.47775672869954,32.47775672869954 0 0,0 -0.27814570081453505,0.48497047434103546 l -9.90693536804891 -5.795820143561147" fill="#ff870c" stroke="none" /><path d="M 117.75023020441432 111.22182372390056 l 6.07366631489397 3.8398157070989742 a28.185652870071145,28.185652870071145 0 0,0 -0.2627911311667911,0.4078576713965013 l -6.006670320350128 -3.9437949784169284" fill="#ff4b07" stroke="none" /><path d="M 116.498646956653 112.99209946851258 l 7.10502080804363 5.5949519561500285 a30.043495346068354,30.043495346068354 0 0,0 -0.32344267414330535,0.40354446757844076 l -7.00766022184547 -5.716424257306719" fill="#ff6509" stroke="none" /><path d="M 116.0416608686014 113.55231037782055 l 9.09246354667758 7.681491903670756 a32.9028656723421,32.9028656723421 0 0,0 -0.3692288929654243,0.42949661828576186 l -8.958892144141377 -7.836865621118045" fill="#ff8d0d" stroke="none" /><path d="M 114.29624159901734 115.38237550388516 l 12.479791080367523 13.427923085844112 a39.33178397780658,39.33178397780658 0 0,0 -0.49988908875945515,0.45663683032586594 l -12.246802442141204 -13.640752682756561" fill="#ffe115" stroke="none" /><path d="M 114.0293411484842 115.62618273729858 l 9.543804473051841 10.630095250130022 a35.285766652395004,35.285766652395004 0 0,0 -0.4554512802231134,0.4018828003845704 l -9.35941083992214 -10.792801192286882" fill="#ffad10" stroke="none" /><path d="M 113.20401910651253 116.32954008644616 l 27.342613978430503 33.81487919907535 a64.4863725139442,64.4863725139442 0 0,0 -0.8691611696147459,0.6905141993913361 l -26.756495316098405 -34.28052731247181" fill="#34ff5f" stroke="none" /><path d="M 112.63410532772338 116.77436683061366 l 11.544577596588775 15.327795240453327 a40.189022351775066,40.189022351775066 0 0,0 -0.5561682818861948,0.41143999883365184 l -11.279024344284016 -15.524245188026747" fill="#ffec16" stroke="none" /><path d="M 112.04921762599082 117.19931262002967 l 12.084587702540574 17.249800628700157 a42.06164479973725,42.06164479973725 0 0,0 -0.5965605392875926,0.410319778651427 l -11.785870278630098 -17.455261196716677" fill="#fbff18" stroke="none" /><path d="M 111.1453310114006 117.79835938074945 l 20.941104358060986 33.441564078562955 a60.457167406642775,60.457167406642775 0 0,0 -0.8867650035438313,0.5447234922011565 l -20.36236015458485 -33.79707603759249" fill="#30ff2f" stroke="none" /><line stroke="#e1ed5e" stroke-width="0.3" x1="143.8653032363475" x2="146.44561519142675" y1="172.8068346515853" y2="177.08958963109032" /><path d="M 144.38136562736335 173.6633856474863 a86.0,86.0 0 0,1 -40.68145358897372,12.25698825130547" fill="none" id="id126" stroke="none" /><text fill="#e1ed5e" style="font-size:6.75px; font-family:Arial;" text-anchor="middle"><textPath startOffset="21.466115282336833" xlink:href="#id126">June</textPath></text><path d="M 110.21172684928248 118.3499491758327 l 3.3554759017897346 6.0296180232140975 a27.90039941114715,27.90039941114715 0 0,0 -0.4216643006119758,0.22992499703500993 l -3.25118878930911 -6.086483672008878" fill="#ff4706" stroke="none" /><path d="M 109.89434966115114 118.52300852407294 l 4.345712158432878 8.135518362553446 a30.223441504741906,30.223441504741906 0 0,0 -0.46099253671081586,0.24116950735428402 l -4.205028719195567 -8.209117288852447" fill="#ff6809" stroke="none" /><path d="M 109.57404056367764 118.69057910512821 l 8.163941463759906 15.937763447226033 a38.90704453346315,38.90704453346315 0 0,0 -0.5986980668857824,0.30019963950452233 l -7.888389489191364 -16.075930927639856" fill="#ffdb14" stroke="none" /><path d="M 108.92500713936063 119.00905698771935 l 17.839518950650206 37.99576034744802 a62.97530513017519,62.97530513017519 0 0,0 -0.9852096767416555,0.4522614411089198 l -17.182841278141133 -38.29720885889101" fill="#32ff4d" stroke="none" /><path d="M 107.59598834532513 119.57807347666477 l 4.465412553794148 11.509256084576199 a33.345156333393945,33.345156333393945 0 0,0 -0.536904302367839,0.2030112660805893 l -4.266638030666034 -11.58441560076342" fill="#ff930d" stroke="none" /><path d="M 107.2578585660854 119.70592522655815 l 4.332086078157579 11.762114617401632 a33.534524724195165,33.534524724195165 0 0,0 -0.5433877527248644,0.1948395153169193 l -4.12897876480298 -11.834941673758513" fill="#ff950d" stroke="none" /><path d="M 106.57524785965236 119.94407469862006 l 3.367239880502439 10.213528849156374 a31.754277101014072,31.754277101014072 0 0,0 -0.5205866575212704,0.16667540815350695 l -3.1909318778902285 -10.269977103969588" fill="#ff7d0b" stroke="none" /><path d="M 106.2309692047433 120.05430185196036 l 10.435514855354867 33.5865830841519 a56.17042128785168,56.17042128785168 0 0,0 -0.9258089763790391,0.278938650056167 l -9.855830904535583 -33.761237103313796" fill="#5bff2a" stroke="none" /><path d="M 104.83641907484287 120.43548508189849 l 11.90220152203619 50.29077461680107 a72.68001947202656,72.68001947202656 0 0,0 -1.2199163050297046,0.27764897931826055 l -11.034765067613623 -50.48820032969702" fill="#3fffbc" stroke="none" /><path d="M 104.13013068566511 120.58985236759428 l 4.495142469976897 22.409537826337004 a43.85593339628507,43.85593339628507 0 0,0 -0.7414417451841687,0.14209907511077224 l -4.108733110221024 -22.483594099796246" fill="#e5ff1a" stroke="none" /><path d="M 103.7750983002368 120.6578951692458 l 4.213483170680614 23.05680189356697 a44.438633791004165,44.438633791004165 0 0,0 -0.7536602443353833,0.13103349394873456 l -3.8159739548731806 -23.125913966036713" fill="#deff1b" stroke="none" /><path d="M 102.34483914955558 120.86867818915974 l 1.072396612245505 9.54415137445061 a30.604210532489546,30.604210532489546 0 0,0 -0.5240131673382253,0.0543161073551817 l -0.9079508483016772 -9.56119685026155" fill="#ff6d0a" stroke="none" /><path d="M 101.26447882468166 120.96189622390904 l 3.047691285129517 50.523098682558214 a71.61493774230064,71.61493774230064 0 0,0 -1.2311355716569694,0.06363564652305766 l -2.1775676450590677 -50.568074135843474" fill="#3dffb0" stroke="none" /><line stroke="#e1ed5e" stroke-width="0.3" x1="102.19456741930631" x2="102.32365962044197" y1="184.97166512339345" y2="189.96999836594603" /><path d="M 102.22038585953345 185.97133177190398 a86.0,86.0 0 0,1 -42.740103519485714,-10.115201625700543" fill="none" id="id127" stroke="none" /><text fill="#e1ed5e" style="font-size:6.75px; font-family:Arial;" text-anchor="middle"><textPath startOffset="22.20632615414155" xlink:href="#id127">July</textPath></text><path d="M 100.54218724476979 120.99299961872073 l 0.3038981432794681 11.766661181239263 a32.77058492325558,32.77058492325558 0 0,0 -0.5640290655742932,0.009710271869532655 l -0.1013093878125069 -11.770148930387954" fill="#ff8b0c" stroke="none" /><path d="M 99.81925306533755 120.99922214144158 l -0.1343016054567631 15.603192674916983 a36.60377065237154,36.60377065237154 0 0,0 -0.6300037245567062,-0.010846085454895748 l 0.4028650199061371 -15.598569112182927" fill="#ffbe11" stroke="none" /><path d="M 99.09653310690486 120.98055641714683 l -2.7104006792854114 62.94166925144049 a84.0,84.0 0 0,0 -1.4440477263460443,-0.07464077295119242 l 3.793436474044945 -62.885688671727095" fill="#4dd2ff" stroke="none" /><path d="M 98.73552117531835 120.96189622390904 l -0.6744935228951535 11.181415579803515 a32.201740752253656,32.201740752253656 0 0,0 -0.5530069944288275,-0.03813860009361682 l 0.8668632781029112 -11.168148635193614" fill="#ff830c" stroke="none" /><path d="M 98.37488393609728 120.93702456842531 l -0.8711238213288423 11.223038928987114 a32.25679614782318,32.25679614782318 0 0,0 -0.5532127820995841,-0.04773352663753976 l 1.0641809211699682 -11.20638115007091" fill="#ff840c" stroke="none" /><path d="M 97.65516085044442 120.86867818915974 l -0.6230565524603431 5.545099624171048 a26.579993665726303,26.579993665726303 0 0,0 -0.4542300391474736,-0.05500093196322476 l 0.7184140146592061 -5.533553163482474" fill="#ff3505" stroke="none" /><path d="M 97.2962882734958 120.8252237178851 l -0.5383050546552491 4.14627161681859 a25.18106931924153,25.18106931924153 0 0,0 -0.42936290316966097,-0.059505786015628406 l 0.6095965490117411 -4.136391265310356" fill="#ff2003" stroke="none" /><path d="M 96.22490169976321 120.6578951692458 l -7.049606002940126 38.576484692885565 a60.2153301153659,60.2153301153659 0 0,0 -1.0180186804862479,-0.19510570302006455 l 7.712592297998069 -38.44942179151703" fill="#32ff2f" stroke="none" /><path d="M 95.51606077576429 120.51570834832081 l -3.851023737874525 17.619881960411867 a39.035815039207975,39.035815039207975 0 0,0 -0.6552065834927558,-0.14912288523345352 l 4.153750470760143 -17.550982341600726" fill="#ffdd14" stroke="none" /><path d="M 95.16358092515715 120.4354850818985 l -3.859056845687317 16.30580340120834 a37.756238966340376,37.756238966340376 0 0,0 -0.6311525556944851,-0.15512194232431611 l 4.139162686125013 -16.236960200569992" fill="#ffcd13" stroke="none" /><path d="M 93.76903079525671 120.05430185196036 l -9.007516651969857 28.990587489607886 a51.35769291675709,51.35769291675709 0 0,0 -0.8419694017435081,-0.2695720139209088 l 9.505207398804304 -28.83124262902727" fill="#8fff24" stroke="none" /><path d="M 93.08242187328487 119.8279376855182 l -3.0836800107974915 8.838789237528285 a30.36126474331529,30.36126474331529 0 0,0 -0.49196878603297695,-0.17640250326041584 l 3.2353683574601955 -8.78439919322791" fill="#ff6a09" stroke="none" /><path d="M 92.7421414339146 119.70592522655815 l -5.045437869938618 13.698947216311097 a35.59854780910376,35.59854780910376 0 0,0 -0.5731871005688938,-0.21673031576459972 l 5.280495191267795 -13.610068650439864" fill="#ffb110" stroke="none" /><line stroke="#e1ed5e" stroke-width="0.3" x1="58.666819895761336" x2="56.23545636021788" y1="174.27360380694188" y2="178.64263932499728" /><path d="M 58.180547188652646 175.14741091055294 a86.0,86.0 0 0,1 -31.652253787137756,-30.449443065178592" fill="none" id="id128" stroke="none" /><text fill="#e1ed5e" style="font-size:6.75px; font-family:Arial;" text-anchor="middle"><textPath startOffset="22.20632615414155" xlink:href="#id128">August</textPath></text><line stroke="#e1ed5e" stroke-width="0.3" x1="26.63291911575756" x2="22.317208475507996" y1="142.92168965132927" y2="145.44649492493687" /><path d="M 25.769776987707644 143.4266507060508 a86.0,86.0 0 0,1 -11.730757126820373,-40.83630448921669" fill="none" id="id129" stroke="none" /><text fill="#e1ed5e" style="font-size:6.75px; font-family:Arial;" text-anchor="middle"><textPath startOffset="21.46611528233685" xlink:href="#id129">September</textPath></text><line stroke="#e1ed5e" stroke-width="0.3" x1="15.007084014347285" x2="10.007500721073583" y1="101.09737516637583" y2="101.16192664675087" /><path d="M 14.007167355692545 101.11028546245083 a86.0,86.0 0 0,1 10.666146001902534,-42.60595125391555" fill="none" id="id130" stroke="none" /><text fill="#e1ed5e" style="font-size:6.75px; font-family:Arial;" text-anchor="middle"><textPath startOffset="22.20632615414155" xlink:href="#id130">October</textPath></text><line stroke="#e1ed5e" stroke-width="0.3" x1="26.266209847984243" x2="21.928928074336255" y1="57.711370442889674" y2="55.22380399835377" /><path d="M 25.398753493254645 57.213857153982495 a86.0,86.0 0 0,1 29.58750427330803,-30.492523968695096" fill="none" id="id131" stroke="none" /><text fill="#e1ed5e" style="font-size:6.75px; font-family:Arial;" text-anchor="middle"><textPath startOffset="21.46611528233685" xlink:href="#id131">November</textPath></text><line stroke="#e1ed5e" stroke-width="0.3" x1="56.762969772571076" x2="54.21961505331055" y1="26.818313649435495" y2="22.513508569990535" /><path d="M 56.25429882871897 25.957352633546506 a86.0,86.0 0 0,1 42.265352541879196,-11.944610805530505" fill="none" id="id132" stroke="none" /><text fill="#e1ed5e" style="font-size:6.75px; font-family:Arial;" text-anchor="middle"><textPath startOffset="22.20632615414155" xlink:href="#id132">December</textPath></text></svg>