<?xml version="1.0" encoding="utf-8" ?>
<svg baseProfile="full" height="200mm" version="1.1" viewBox="0,0,200,200" width="200mm" xmlns="http://www.w3.org/2000/svg" xmlns:ev="http://www.w3.org/2001/xml-events" xmlns:xlink="http://www.w3.org/1999/xlink"><defs /><rect fill="#1a1a1a" height="200" width="200" x="0" y="0" /><text alignment-baseline="middle" fill="#e1ed5e" style="dominant-baseline: central; font-size:9.0px; font-family:Arial;" text-anchor="middle" x="100.0" y="100.0">2025</text><line stroke="#e1ed5e" stroke-width="0.3" x1="100.0" x2="100.0" y1="15.0" y2="10.0" /><path d="M 100.0 14.0 a86.0,86.0 0 0,1 42.46469731375804,11.215312516191453" fill="none" id="id121" stroke="none" /><text fill="#e1ed5e" style="font-size:6.75px; font-family:Arial;" text-anchor="middle"><textPath startOffset="22.20632615414155" xlink:href="#id121">January</textPath></text><path d="M 100.0 79.0 l 0.0 -19.259221392056624 a40.259221392056624,40.259221392056624 0 0,0 0.6929963163780694,0.005964838081811324 l -0.33151583710554094 19.256367930583373" fill="#ffe915" stroke="none" /><path d="M 100.36148047927253 79.00311137660856 l 0.29619870451869584 -17.20494346385729 a38.20749293962035,38.20749293962035 0 0,0 0.6574842992551875,0.016980879682133482 l -0.5923096389687512 17.197295792032797" fill="#ffce13" stroke="none" /><path d="M 100.72285384407766 79.0124445844662 l 0.9535375843300924 -27.685296351238595 a48.7017123654953,48.7017123654953 0 0,0 0.8375747571017372,0.036067730926104206 l -1.429953173821161 27.664780893788294" fill="#afff20" stroke="none" /><path d="M 101.80526077348638 79.07773832637324 l 1.2837919060784482 -14.878642791082656 a35.933925571086405,35.933925571086405 0 0,0 0.6157960427639687,0.058477254277332934 l -1.5397130759326612 14.854339992290145" fill="#ffb110" stroke="none" /><path d="M 102.16513564639614 79.11191278185805 l 0.7214074385539809 -6.959758628247602 a27.997047152611447,27.997047152611447 0 0,0 0.47892721622029855,0.05381305304541863 l -0.8411013582840048 6.946309621731583" fill="#ff4306" stroke="none" /><path d="M 102.88285421437855 79.19881850522331 l 1.8452513646382824 -13.314377240404207 a34.44163657812891,34.44163657812891 0 0,0 0.5865427431019974,0.08644115343765353 l -2.0741630881689357 13.280641602805586" fill="#ff9d0e" stroke="none" /><path d="M 103.2404852339499 79.25152402106235 l 1.3171038131212323 -8.433273061084881 a29.5355056661781,29.5355056661781 0 0,0 0.5016405834783568,0.08277499449630818 l -1.4620736027384642 8.409351803648947" fill="#ff5908" stroke="none" /><path d="M 104.307194497241 79.44645832069477 l 3.7211278009481963 -17.75688453349421 a39.142594644836095,39.142594644836095 0 0,0 0.6582615283015724,0.14387047409934328 l -4.026232053403296 17.690200561298994" fill="#ffda14" stroke="none" /><path d="M 104.66035177308747 79.52364482259891 l 2.1698050068821355 -9.533550287597114 a30.777353161977622,30.777353161977622 0 0,0 0.5155592295415622,0.12201621258184758 l -2.3335879233862213 9.494788162874398" fill="#ff6a09" stroke="none" /><path d="M 105.01212808612495 79.60689891045804 l 1.5513712725876978 -6.31214339411508 a27.499992850248454,27.499992850248454 0 0,0 0.45871443126987604,0.11693652223355919 l -1.6597945925425988 6.2845038757126535" fill="#ff3c05" stroke="none" /><path d="M 106.0581310904928 79.89281104454417 l 7.737809820398196 -25.682112492463805 a47.82246451935795,47.82246451935795 0 0,0 0.786143536433574,0.2442586235205609 l -8.178738729542488 25.545113734060724" fill="#baff1f" stroke="none" /><path d="M 106.74666289553966 80.11325718540242 l 8.378037000048652 -24.695448652296008 a47.07789654309513,47.07789654309513 0 0,0 0.765168252428846,0.26695217879994526 l -8.801887256540772 24.547575620323855" fill="#c2ff1e" stroke="none" /><path d="M 107.4271985657038 80.35727306442388 l 6.293616842026833 -16.644741078544374 a38.794859328638324,38.794859328638324 0 0,0 0.6225962240581348,0.2415576623218735 l -6.5791962310846355 16.533940712331955" fill="#ffd614" stroke="none" /><path d="M 108.43124777332544 80.76684994638697 l 10.807507535243008 -24.653813969091516 a47.91863225252922,47.91863225252922 0 0,0 0.7525915131189813,0.33766587442043616 l -11.230281166828771 24.464127764154547" fill="#b8ff1f" stroke="none" /><path d="M 109.41281617654863 81.2277094730956 l 3.267515468514558 -6.516514136218941 a28.289829478425624,28.289829478425624 0 0,0 0.4334264734564719,0.22201787407996698 l -3.379202429559786 6.459303736826473" fill="#ff4706" stroke="none" /><line stroke="#e1ed5e" stroke-width="0.3" x1="143.23703022742887" x2="145.7803849466894" y1="26.81831364943548" y2="22.513508569990506" /><path d="M 143.74570117128098 25.957352633546492 a86.0,86.0 0 0,1 28.547481713284135,27.462654790039103" fill="none" id="id122" stroke="none" /><text fill="#e1ed5e" style="font-size:6.75px; font-family:Arial;" text-anchor="middle"><textPath startOffset="19.985693538727396" xlink:href="#id122">February</textPath></text><path d="M 111.2981086023043 82.29822771554956 l 1.5146000521446064 -2.3730613830010765 a23.81521467129017,23.81521467129017 0 0,0 0.34365692063937653,0.22352402062300405 l -1.555223998568263 2.3466384382185446" fill="#ff0601" stroke="none" /><path d="M 111.60114157652 82.49532879139004 l 1.8040598383391857 -2.7221005883335123 a24.2656490186966,24.2656490186966 0 0,0 0.34618450158000025,0.23374532080113272 l -1.8506490343257278 2.6906433552337097" fill="#ff0d01" stroke="none" /><path d="M 111.90073688211348 82.69761687909136 l 4.429943264304256 -6.44065794598668 a28.81706288206485,28.81706288206485 0 0,0 0.40627785562091484,0.2846236013697636 l -4.5401522595088215 6.363449501852981" fill="#ff4f07" stroke="none" /><path d="M 112.19680574252982 82.90503203632743 l 2.7142285685213654 -3.804246079214307 a25.67325635434169,25.67325635434169 0 0,0 0.35753638406081345,0.25976538832943746 l -2.779310268935968 3.7569614560681948" fill="#ff2103" stroke="none" /><path d="M 113.34407831869373 83.78471172551755 l 1.60999050246993 -1.9564078906938225 a23.533693204161157,23.533693204161157 0 0,0 0.31058027138331923,0.260102045473083 l -1.6434283108123666 1.92840468782692" fill="#ff0200" stroke="none" /><path d="M 113.6212207817346 84.01681056812373 l 1.972113972974838 -2.314085625392302 a24.040431844993385,24.040431844993385 0 0,0 0.3126471914322622,0.271124563533474 l -2.0116549630538643 2.2797960684391567" fill="#ff0901" stroke="none" /><path d="M 114.42810811169701 84.74124197986012 l 8.35296320114712 -8.833857027596514 a33.15767347084689,33.15767347084689 0 0,0 0.4113395019992191,0.3957082750193885 l -8.503785946758756 8.688765665814822" fill="#ff8b0c" stroke="none" /><path d="M 115.9244219780498 86.31012108654704 l 5.541070365114498 -4.763537568515871 a28.307171200800774,28.307171200800774 0 0,0 0.31446488587380744,0.3722272375437062 l -5.622245864475423 4.667451381343058" fill="#ff4706" stroke="none" /><path d="M 116.15771136456269 86.58626213691792 l 5.268223725436332 -4.373550836664868 a27.847052514925107,27.847052514925107 0 0,0 0.30300445194703896,0.37144763043738427 l -5.34272666945978 4.282219036619383" fill="#ff4106" stroke="none" /><path d="M 116.38621287248628 86.86637796730983 l 7.06564267062364 -5.663143825614068 a30.055081685911414,30.055081685911414 0 0,0 0.3200807798318653,0.40647008567436094 l -7.162077531049468 5.540681345986668" fill="#ff6008" stroke="none" /><path d="M 117.2510076193507 88.02491185347247 l 5.584360783424891 -3.8764815423599948 a27.797955171057808,27.797955171057808 0 0,0 0.2694754084411757,0.39542191036852453 l -5.6502606575348 3.7797816087210636" fill="#ff4006" stroke="none" /><path d="M 117.65298651832404 88.62581576622439 l 2.035208290908914 -1.3113267848970924 a23.42108461730955,23.42108461730955 0 0,0 0.2154432006691694,0.34077940466207396 l -2.0574790878240394 1.276099732520812" fill="#ff0000" stroke="none" /><line stroke="#e1ed5e" stroke-width="0.3" x1="172.23445277983987" x2="176.4835382374775" y1="55.19839476539836" y2="52.563006222186495" /><path d="M 173.08426987136738 54.67131705675599 a86.0,86.0 0 0,1 12.851231095245387,41.99856678651699" fill="none" id="id123" stroke="none" /><text fill="#e1ed5e" style="font-size:6.75px; font-family:Arial;" text-anchor="middle"><textPath startOffset="22.20632615414155" xlink:href="#id123">March</textPath></text><path d="M 117.84615892207809 88.93136811851018 l 8.333842969406708 -5.1688568049445305 a30.80663139455904,30.80663139455904 0 0,0 0.27562282605034655,0.4530514558843001 l -8.421581593743278 5.024637575853149" fill="#ff6b09" stroke="none" /><path d="M 118.21658344932153 89.55222093294921 l 6.270273969248645 -3.596197788835611 a28.228345190004646,28.228345190004646 0 0,0 0.23811598330327746,0.42358176460110986 l -6.331247593844355 3.487732514299707" fill="#ff4606" stroke="none" /><path d="M 118.56541770881063 90.18545643968196 l 9.980247695858145 -5.276023264872649 a32.28901083187359,32.28901083187359 0 0,0 0.25552995299277215,0.4936025356315532 l -10.069587082011033 5.10344800698075" fill="#ff7f0b" stroke="none" /><path d="M 118.73160827565052 90.50648371742162 l 6.74044599227364 -3.416179371136661 a28.556711829263932,28.556711829263932 0 0,0 0.21844522944505787,0.4403722528526542 l -6.798251234672106 3.299647529785057" fill="#ff4b07" stroke="none" /><path d="M 119.04729006885535 91.15688171328212 l 5.635949662171227 -2.6166120923449 a27.21374182247167,27.21374182247167 0 0,0 0.1936033321445205,0.42657927928628403 l -5.680155311279095 2.5192108042165535" fill="#ff3805" stroke="none" /><path d="M 119.47837535516314 92.15188598940014 l 4.393340493630671 -1.7701392674034833 a25.73654238015229,25.73654238015229 0 0,0 0.16202556697138604,0.41233739496876454 l -4.423159610483757 1.6942528675389343" fill="#ff2203" stroke="none" /><path d="M 119.7369772167798 92.82701384747503 l 13.028818020740326 -4.735047835343548 a34.86256747578022,34.86256747578022 0 0,0 0.20012262401263997,0.5657736068861051 l -13.108393725562776 4.510076602030828" fill="#ffa20f" stroke="none" /><path d="M 119.85752413597 93.16781622104841 l 4.9043605261565055 -1.687395276646867 a26.186526293211312,26.186526293211312 0 0,0 0.14298180816649084,0.42749740734975583 l -4.932679628094767 1.602724766374797" fill="#ff2904" stroke="none" /><path d="M 120.18372546131832 94.20196356495316 l 15.987086415519883 -4.592497539915131 a37.63363958102456,37.63363958102456 0 0,0 0.1734968658657395,0.6241605370131422 l -16.063770051951984 4.316625699483037" fill="#ffc712" stroke="none" /><path d="M 120.28053869075195 94.5502522615342 l 20.112990251491492 -5.404724440916036 a41.82650770385729,41.82650770385729 0 0,0 0.18085715831263263,0.6969164072565814 l -20.203043741674428 5.057711608110605" fill="#fffc17" stroke="none" /><path d="M 120.53481517161879 95.60439243477599 l 28.320470723299152 -6.062176568021462 a49.962027669538486,49.962027669538486 0 0,0 0.1727751250893472,0.8425128697724181 l -28.420625144303497 5.573788042085632" fill="#a1ff22" stroke="none" /><path d="M 120.73433829027371 96.67025291283417 l 15.730983022938188 -2.5262535107500694 a36.93253851928645,36.93253851928645 0 0,0 0.09539869309511123,0.6285581927812665 l -15.7721376094726 2.255096205576721" fill="#ffbe11" stroke="none" /><path d="M 120.83666639777658 97.38593545837742 l 15.428503786886898 -1.9355833562653912 a36.54944410681729,36.54944410681729 0 0,0 0.07294163335389382,0.6249193698713599 l -15.459535773244381 1.6697202480691786" fill="#ffb911" stroke="none" /><path d="M 120.94382443527127 98.46500227214037 l 23.573763223078576 -1.7277490601757866 a44.6369928144997,44.6369928144997 0 0,0 0.049567061513061166,0.7667805027063411 l -23.600010875596052 1.3217094932164102" fill="#dfff1b" stroke="none" /><path d="M 120.96714384426684 98.82574320788733 l 25.306959600314485 -1.417306497208766 a46.34661638008079,46.34661638008079 0 0,0 0.03775349413569102,0.7969165914500821 l -25.327606702683674 0.981478799135684" fill="#cbff1d" stroke="none" /><line stroke="#e1ed5e" stroke-width="0.3" x1="184.98032266829074" x2="189.97916517819016" y1="98.17113171792111" y2="98.06355123074" /><path d="M 185.9800911702706 98.14961562048488 a86.0,86.0 0 0,1 -9.607161424134198,41.387399972396054" fill="none" id="id124" stroke="none" /><text fill="#e1ed5e" style="font-size:6.75px; font-family:Arial;" text-anchor="middle"><textPath startOffset="21.466115282336823" xlink:href="#id124">April</textPath></text><path d="M 120.99980553446 99.90962569577887 l 15.86460123824864 -0.06827455122380342 a36.86474815000179,36.86474815000179 0 0,0 -0.002730980410416503,0.6345836687920903 l -15.863425960548721 -0.2048185957719715" fill="#ffbd11" stroke="none" /><path d="M 120.99824983174949 100.27111621757518 l 15.172517257687312 0.1958980164041454 a36.17378186108033,36.17378186108033 0 0,0 -0.013397971798176055,0.622551103141964 l -15.16689722320413 -0.45703893533622425" fill="#ffb410" stroke="none" /><path d="M 120.9764740272857 100.99374915477107 l 40.89793781938076 1.9375177680968987 a61.94380652772316,61.94380652772316 0 0,0 -0.05962430332581752,1.0646319892238916 l -40.85852716516741 -2.6412214736562136" fill="#31ff3f" stroke="none" /><path d="M 120.95626037817324 101.35467743843564 l 14.719650919187194 0.9515237280903428 a35.750373574518285,35.750373574518285 0 0,0 -0.044983233279728405,0.6137604787566583 l -14.701091127243128 -1.2047573433437715" fill="#ffae10" stroke="none" /><path d="M 120.92983693683757 101.71520430193887 l 20.51360455961801 1.6810939757969265 a41.582372287563004,41.582372287563004 0 0,0 -0.06460198493517606,0.7128775205630873 l -20.481627978405758 -2.0339528849085844" fill="#fff917" stroke="none" /><path d="M 120.8583938346157 102.4346265915055 l 25.0902474981339 2.9285756243146897 a46.26058341972617,46.26058341972617 0 0,0 -0.09912649691656947,0.790135711855366 l -25.03611949197048 -3.360029090457451" fill="#ccff1d" stroke="none" /><path d="M 120.76222939487914 103.15116336523771 l 39.94671342727681 6.062866251960919 a61.40418617953026,61.40418617953026 0 0,0 -0.1675990584134997,1.0436394967266571 l -39.83643261450202 -6.749584978380781" fill="#30ff38" stroke="none" /><path d="M 120.70491114924044 103.5080841355445 l 19.241289395888714 3.260099093910579 a40.51551853573089,40.51551853573089 0 0,0 -0.12242160912212707,0.6866053976755885 l -19.182321344427397 -3.5908232423193858" fill="#ffec16" stroke="none" /><path d="M 120.5718875245553 104.21870165774334 l 17.820168668850556 3.6544033703670005 a39.19101633718228,39.19101633718228 0 0,0 -0.14121075831042634,0.6596896513442422 l -17.75462387181569 -3.9606068411274116" fill="#ffdb14" stroke="none" /><path d="M 120.41448212921028 104.9243191809786 l 24.535035841645385 5.918266593113209 a46.23873735387695,46.23873735387695 0 0,0 -0.1932970467120349,0.7721256157819222 l -24.429527480638292 -6.339720048292527" fill="#ccff1d" stroke="none" /><path d="M 120.23288151984713 105.62410040840565 l 46.76505837607221 12.99920545938972 a69.53812962499553,69.53812962499553 0 0,0 -0.3304960644639723,1.1505001574094316 l -46.534369674722136 -13.802263092303734" fill="#3bff98" stroke="none" /><path d="M 119.9155931802556 106.66101706037122 l 34.38648972997446 11.500987827202644 a57.25883888034891,57.25883888034891 0 0,0 -0.3206744981844412,0.9320301961292828 l -34.18342440084678 -12.091190726421228" fill="#52ff2b" stroke="none" /><path d="M 119.67450827220406 107.3425965602758 l 17.43001212240756 6.504942603133117 a39.604289850927685,39.604289850927685 0 0,0 -0.24386005858865586,0.6366416621896424 l -17.3154577842254 -6.804007832155903" fill="#ffe015" stroke="none" /><path d="M 119.26925614724726 108.34839909993367 l 2.9305829345166416 1.2696741247219747 a24.193804740285273,24.193804740285273 0 0,0 -0.16884846566474274,0.3807087153808746 l -2.908293384120626 -1.3199311765955368" fill="#ff0c01" stroke="none" /><path d="M 118.97047184881838 109.00673069616215 l 21.242750938535277 10.08555498639062 a44.515375540699964,44.515375540699964 0 0,0 -0.3346003361748805,0.689375797866137 l -21.065997345745682 -10.449719740222033" fill="#e1ff1b" stroke="none" /><path d="M 118.81262510543309 109.33194174019688 l 3.0524027299906753 1.514134485976891 a24.407310620955922,24.407310620955922 0 0,0 -0.1899369127912543,0.3747635482567302 l -3.0258871474131523 -1.5664522459363155" fill="#ff0f01" stroke="none" /><path d="M 118.64920377521936 109.65438752849418 l 21.31921400649151 11.03660812023859 a45.006574196546666,45.006574196546666 0 0,0 -0.3620832297093718,0.6849250159822925 l -21.126078268557244 -11.401948151307018" fill="#dbff1b" stroke="none" /><line stroke="#e1ed5e" stroke-width="0.3" x1="174.80103733775053" x2="179.2010983576182" y1="140.37084112569926" y2="142.7455964860345" /><path d="M 175.68104954172406 140.8457921977663 a86.0,86.0 0 0,1 -30.038265399797805,32.042727171017184" fill="none" id="id125" stroke="none" /><text fill="#e1ed5e" style="font-size:6.75px; font-family:Arial;" text-anchor="middle"><textPath startOffset="22.206326154141568" xlink:href="#id125">May</textPath></text><path d="M 118.48025628344425 109.97397251340804 l 14.270948990341436 7.7021687787646655 a37.21676259249991,37.21676259249991 0 0,0 -0.3091181599987895,0.5611392498369147 l -14.136254420891138 -7.946678546999385" fill="#ffc112" stroke="none" /><path d="M 118.30583269289576 110.29060199501025 l 12.196777198142945 6.856403741557999 a34.99184213348586,34.99184213348586 0 0,0 -0.2996768075551663,0.5225117738057142 l -12.076948394435398 -7.065335361222028" fill="#ffa40f" stroke="none" /><path d="M 117.75023020441432 111.22182372390056 l 7.40404089912227 4.680888126951575 a29.759596754012797,29.759596754012797 0 0,0 -0.27746591963313455,0.4306332689805777 l -7.3223701161120855 -4.807642995853605" fill="#ff5c08" stroke="none" /><path d="M 116.498646956653 112.99209946851258 l 8.661303062183151 6.820469048550642 a32.024380652772315,32.024380652772315 0 0,0 -0.34476851633947164,0.4301517347162978 l -8.542616633788827 -6.96854861684519" fill="#ff7c0b" stroke="none" /><path d="M 116.0416608686014 113.55231037782055 l 11.084074837679715 9.36404426459634 a35.510066850176955,35.510066850176955 0 0,0 -0.3984863447088849,0.4635296444732652 l -10.92124598340005 -9.553451008231132" fill="#ffab0f" stroke="none" /><path d="M 114.29624159901734 115.38237550388516 l 15.213361877480022 16.36917251678052 a43.34717406070139,43.34717406070139 0 0,0 -0.5509228707685462,0.5032549801918781 l -14.929339457244613 -16.62862026355898" fill="#efff19" stroke="none" /><path d="M 114.0293411484842 115.62618273729858 l 11.634277385048522 12.958509064043318 a38.41491795660101,38.41491795660101 0 0,0 -0.4958408226001306,0.4375218755207198 l -11.409494209541805 -13.156854081336325" fill="#ffd113" stroke="none" /><path d="M 113.20401910651253 116.32954008644616 l 33.331734357676176 41.22168318250846 a74.01161834626247,74.01161834626247 0 0,0 -0.997544477370125,0.7925096636033548 l -32.6172323875887 -41.78932676011694" fill="#40ffc9" stroke="none" /><path d="M 112.63410532772338 116.77436683061366 l 14.073299430136075 18.68519226606036 a44.3921817466843,44.3921817466843 0 0,0 -0.6143350100712918,0.4544703537749118 l -13.74957944964622 -18.92467256857504" fill="#e2ff1b" stroke="none" /><path d="M 112.04921762599082 117.19931262002967 l 14.731593235411786 21.028193307789685 a46.674983019340075,46.674983019340075 0 0,0 -0.6619915406025842,0.455323817987602 l -14.367444810186319 -21.27865791514238" fill="#c7ff1e" stroke="none" /><path d="M 111.1453310114006 117.79835938074945 l 25.52803942482934 40.76659719700469 a69.09985700496907,69.09985700496907 0 0,0 -1.0135330113920777,0.6225947564690492 l -24.822527213504955 -41.19998042030212" fill="#3aff93" stroke="none" /><line stroke="#e1ed5e" stroke-width="0.3" x1="143.8653032363475" x2="146.44561519142675" y1="172.8068346515853" y2="177.08958963109032" /><path d="M 144.38136562736335 173.6633856474863 a86.0,86.0 0 0,1 -40.68145358897372,12.25698825130547" fill="none" id="id126" stroke="none" /><text fill="#e1ed5e" style="font-size:6.75px; font-family:Arial;" text-anchor="middle"><textPath startOffset="21.466115282336833" xlink:href="#id126">June</textPath></text><path d="M 110.21172684928248 118.3499491758327 l 4.090458633189514 7.350344278954897 a29.411861437815034,29.411861437815034 0 0,0 -0.4445073276591742,0.2423808367123909 l -3.9633284936616913 -7.419665767427058" fill="#ff5708" stroke="none" /><path d="M 109.89434966115114 118.52300852407294 l 5.297596029921452 9.917520582945873 a32.24374217995924,32.24374217995924 0 0,0 -0.49180780746814806,0.2572906005948816 l -5.126097319926808 -10.007240602485473" fill="#ff7f0b" stroke="none" /><path d="M 109.57404056367764 118.69057910512821 l 9.952169474225345 19.428767779755375 a42.829399778357704,42.829399778357704 0 0,0 -0.6590549130794827,0.330463815173617 l -9.616260653463101 -19.597199435838295" fill="#f5ff19" stroke="none" /><path d="M 108.92500713936063 119.00905698771935 l 21.747083406176035 46.318343652809745 a72.16956708254388,72.16956708254388 0 0,0 -1.12904821515361,0.5182906592590473 l -20.946567195255003 -46.685821382402864" fill="#3effb5" stroke="none" /><path d="M 107.59598834532513 119.57807347666477 l 5.443515574550143 14.03024110160745 a36.04923676402245,36.04923676402245 0 0,0 -0.5804438318466427,0.21947419060003073 l -5.201201521943226 -14.121863542314111" fill="#ffb210" stroke="none" /><path d="M 107.2578585660854 119.70592522655815 l 5.280985295906379 14.338485713949854 a36.28008436706825,36.28008436706825 0 0,0 -0.5878763356579177,0.21079153832874756 l -5.033389399618726 -14.427264793318562" fill="#ffb510" stroke="none" /><path d="M 106.57524785965236 119.94407469862006 l 4.1047993913098075 12.45069804675945 a34.109891681264074,34.109891681264074 0 0,0 -0.5592051251009199,0.17903982194149973 l -3.889872921117947 -12.519510715360656" fill="#ff980e" stroke="none" /><path d="M 106.2309692047433 120.05430185196036 l 12.721307820776179 40.9433811348871 a63.874142923533405,63.874142923533405 0 0,0 -1.0527828262864471,0.3171948294508958 l -12.014650020049487 -41.15629133344372" fill="#33ff56" stroke="none" /><path d="M 104.83641907484287 120.43548508189849 l 14.509257224528598 61.306455245695496 a84.0,84.0 0 0,0 -1.4099194024285517,0.32089306568926235 l -13.451817672707184 -61.54712504496244" fill="#4dd2ff" stroke="none" /><path d="M 104.13013068566511 120.58985236759428 l 5.479757525281741 27.318118249228075 a48.862292210345686,48.862292210345686 0 0,0 -0.8260807695682598,0.15832034557655916 l -5.008709141141777 -27.4083957931531" fill="#adff20" stroke="none" /><path d="M 103.7750983002368 120.6578951692458 l 5.136403632675903 28.10715890076189 a49.57262717620563,49.57262717620563 0 0,0 -0.8407305788399163,0.1461717876761358 l -4.6518240823639365 -28.191409266959027" fill="#a5ff21" stroke="none" /><path d="M 102.34483914955558 120.86867818915974 l 1.3072941392376278 11.63470027165626 a32.707914774961566,32.707914774961566 0 0,0 -0.5600333326703892,0.05804974476943087 l -1.1068282099616358 -11.65547938488145" fill="#ff850c" stroke="none" /><path d="M 101.26447882468166 120.96189622390904 l 3.7152569392333157 61.589667525648714 a82.70162299360098,82.70162299360098 0 0,0 -1.4217272696314323,0.07348706029238673 l -2.6545416011884035 -61.6444943927033" fill="#4bdeff" stroke="none" /><line stroke="#e1ed5e" stroke-width="0.3" x1="102.19456741930631" x2="102.32365962044197" y1="184.97166512339345" y2="189.96999836594603" /><path d="M 102.22038585953345 185.97133177190398 a86.0,86.0 0 0,1 -42.740103519485714,-10.115201625700543" fill="none" id="id127" stroke="none" /><text fill="#e1ed5e" style="font-size:6.75px; font-family:Arial;" text-anchor="middle"><textPath startOffset="22.20632615414155" xlink:href="#id127">July</textPath></text><path d="M 100.54218724476979 120.99299961872073 l 0.3704639282686348 14.344028156168275 a35.34881135380546,35.34881135380546 0 0,0 -0.6084040636973822,0.01047422770494064 l -0.12350017467858465 -14.348279861152376" fill="#ffa90f" stroke="none" /><path d="M 99.81925306533755 120.99922214144158 l -0.1637190006934084 19.020912696285855 a40.021617273799734,40.021617273799734 0 0,0 -0.6888297980209112,-0.011858829657666431 l 0.4911084886069874 -19.015276389349026" fill="#ffe615" stroke="none" /><line stroke="#e1ed5e" stroke-width="0.3" x1="58.666819895761336" x2="56.23545636021788" y1="174.27360380694188" y2="178.64263932499728" /><path d="M 58.180547188652646 175.14741091055294 a86.0,86.0 0 0,1 -31.652253787137756,-30.449443065178592" fill="none" id="id128" stroke="none" /><text fill="#e1ed5e" style="font-size:6.75px; font-family:Arial;" text-anchor="middle"><textPath startOffset="22.20632615414155" xlink:href="#id128">August</textPath></text><line stroke="#e1ed5e" stroke-width="0.3" x1="26.63291911575756" x2="22.317208475507996" y1="142.92168965132927" y2="145.44649492493687" /><path d="M 25.769776987707644 143.4266507060508 a86.0,86.0 0 0,1 -11.730757126820373,-40.83630448921669" fill="none" id="id129" stroke="none" /><text fill="#e1ed5e" style="font-size:6.75px; font-family:Arial;" text-anchor="middle"><textPath startOffset="21.46611528233685" xlink:href="#id129">September</textPath></text><line stroke="#e1ed5e" stroke-width="0.3" x1="15.007084014347285" x2="10.007500721073583" y1="101.09737516637583" y2="101.16192664675087" /><path d="M 14.007167355692545 101.11028546245083 a86.0,86.0 0 0,1 10.666146001902534,-42.60595125391555" fill="none" id="id130" stroke="none" /><text fill="#e1ed5e" style="font-size:6.75px; font-family:Arial;" text-anchor="middle"><textPath startOffset="22.20632615414155" xlink:href="#id130">October</textPath></text><line stroke="#e1ed5e" stroke-width="0.3" x1="26.266209847984243" x2="21.928928074336255" y1="57.711370442889674" y2="55.22380399835377" /><path d="M 25.398753493254645 57.213857153982495 a86.0,86.0 0 0,1 29.58750427330803,-30.492523968695096" fill="none" id="id131" stroke="none" /><text fill="#e1ed5e" style="font-size:6.75px; font-family:Arial;" text-anchor="middle"><textPath startOffset="21.46611528233685" xlink:href="#id131">November</textPath></text><line stroke="#e1ed5e" stroke-width="0.3" x1="56.762969772571076" x2="54.21961505331055" y1="26.818313649435495" y2="22.513508569990535" /><path d="M 56.25429882871897 25.957352633546506 a86.0,86.0 0 0,1 42.265352541879196,-11.944610805530505" fill="none" id="id132" stroke="none" /><text fill="#e1ed5e" style="font-size:6.75px; font-family:Arial;" text-anchor="middle"><textPath startOffset="22.20632615414155" xlink:href="#id132">December</textPath></text></svg>