<?xml version="1.0" encoding="utf-8" ?>
<svg baseProfile="full" height="200mm" version="1.1" viewBox="0,0,200,200" width="200mm" xmlns="http://www.w3.org/2000/svg" xmlns:ev="http://www.w3.org/2001/xml-events" xmlns:xlink="http://www.w3.org/1999/xlink"><defs /><rect fill="#1a1a1a" height="200" width="200" x="0" y="0" /><text alignment-baseline="middle" fill="#e1ed5e" style="dominant-baseline: central; font-size:9.0px; font-family:Arial;" text-anchor="middle" x="100.0" y="100.0">2025</text><line stroke="#e1ed5e" stroke-width="0.3" x1="100.0" x2="100.0" y1="15.0" y2="10.0" /><path d="M 100.0 14.0 a86.0,86.0 0 0,1 42.46469731375804,11.215312516191453" fill="none" id="id121" stroke="none" /><text fill="#e1ed5e" style="font-size:6.75px; font-family:Arial;" text-anchor="middle"><textPath startOffset="22.20632615414155" xlink:href="#id121">January</textPath></text><path d="M 100.0 79.0 l 0.0 -12.658500824729671 a33.65850082472967,33.65850082472967 0 0,0 0.5793757623675273,0.0049868701021534905 l -0.21789528309499892 12.656625331236077" fill="#ff9b0e" stroke="none" /><path d="M 100.36148047927253 79.00311137660856 l 0.1946824053323467 -11.308286383606909 a32.30996207653303,32.30996207653303 0 0,0 0.5559980815391885,0.014359790092036194 l -0.389307122066403 11.303259801372512" fill="#ff890c" stroke="none" /><path d="M 100.72285384407766 79.0124445844662 l 0.6267312707995337 -18.19670377949871 a39.207493526694456,39.207493526694456 0 0,0 0.6742926536286497,0.029036460077524553 l -0.9398647568175149 18.18321959289699" fill="#ffe315" stroke="none" /><path d="M 101.80526077348638 79.07773832637324 l 0.8437973981948154 -9.779279660778936 a30.815615351720183,30.815615351720183 0 0,0 0.5280840789683915,0.05014794643213106 l -1.012006604253451 9.763306169831628" fill="#ff750a" stroke="none" /><path d="M 102.16513564639614 79.11191278185805 l 0.4741591817241433 -4.574437800062269 a25.598946413718238,25.598946413718238 0 0,0 0.43790447175609043,0.049203669721281866 l -0.552830356989959 4.565598176870386" fill="#ff2c04" stroke="none" /><path d="M 102.88285421437855 79.19881850522331 l 1.2128276343892697 -8.75113546116315 a29.83477915572118,29.83477915572118 0 0,0 0.5080877375307835,0.07487892501646932 l -1.3632843523487088 8.728962051985711" fill="#ff6709" stroke="none" /><path d="M 103.2404852339499 79.25152402106235 l 0.8656923021574604 -5.542934048358937 a26.61012843226173,26.61012843226173 0 0,0 0.45195503012768,0.0745764524711976 l -0.9609765384240156 5.527211332948115" fill="#ff3a05" stroke="none" /><path d="M 104.307194497241 79.44645832069477 l 2.445784197519793 -11.671060472079809 a32.924576004360965,32.924576004360965 0 0,0 0.5536930271476305,0.12101584992634584 l -2.6463199488209517 11.627231124057593" fill="#ff910d" stroke="none" /><path d="M 104.66035177308747 79.52364482259891 l 1.4261468784220164 -6.266112825720148 a27.426357044507206,27.426357044507206 0 0,0 0.4594258457698174,0.1087312542399671 l -1.5337964111543574 6.240635659339312" fill="#ff4606" stroke="none" /><path d="M 105.01212808612495 79.60689891045804 l 1.0196691825565136 -4.148779991343421 a25.272247729056332,25.272247729056332 0 0,0 0.4215544639256426,0.10746361915632686 l -1.0909325351671812 4.130613376018227" fill="#ff2703" stroke="none" /><path d="M 106.0581310904928 79.89281104454417 l 5.085827199302592 -16.880071917172 a38.629590642725226,38.629590642725226 0 0,0 0.6350237969555198,0.1973049848515311 l -5.375636368968831 16.79002679743795" fill="#ffdc14" stroke="none" /><path d="M 106.74666289553966 80.11325718540242 l 5.506629064374991 -16.231567765303936 a38.14020874354432,38.14020874354432 0 0,0 0.6199018863311884,0.21627159604834145 l -5.785212954769452 16.134375316083386" fill="#ffd513" stroke="none" /><path d="M 107.4271985657038 80.35727306442388 l 4.136603051782137 -10.940082383448122 a32.69602015066002,32.69602015066002 0 0,0 0.5247194870610737,0.20358300897335715 l -4.324305703842877 10.867256670584217" fill="#ff8e0d" stroke="none" /><path d="M 108.43124777332544 80.76684994638697 l 7.1034462018579365 -16.204202553546267 a38.69279877065936,38.69279877065936 0 0,0 0.6076941391014304,0.27265464635583514 l -7.381322459426148 16.0795275766739" fill="#ffdc14" stroke="none" /><path d="M 109.41281617654863 81.2277094730956 l 2.1476385992461764 -4.283106668149748 a25.791383337171105,25.791383337171105 0 0,0 0.39514795711013934,0.20241013126173438 l -2.221047043945071 4.245504011575513" fill="#ff2f04" stroke="none" /><line stroke="#e1ed5e" stroke-width="0.3" x1="143.23703022742887" x2="145.7803849466894" y1="26.81831364943548" y2="22.513508569990506" /><path d="M 143.74570117128098 25.957352633546492 a86.0,86.0 0 0,1 28.547481713284135,27.462654790039103" fill="none" id="id122" stroke="none" /><text fill="#e1ed5e" style="font-size:6.75px; font-family:Arial;" text-anchor="middle"><textPath startOffset="19.985693538727396" xlink:href="#id122">February</textPath></text><path d="M 111.2981086023043 82.29822771554956 l 0.9955005770438755 -1.559741116338322 a22.850355033200657,22.850355033200657 0 0,0 0.3297338594093304,0.21446807430383777 l -1.022201462237486 1.5423741178749562" fill="#ff0400" stroke="none" /><path d="M 111.60114157652 82.49532879139004 l 1.1857536961954838 -1.7891539767349491 a23.146411838512762,23.146411838512762 0 0,0 0.33021696800720324,0.2229639708552462 l -1.216375358609229 1.768478093581033" fill="#ff0801" stroke="none" /><path d="M 111.90073688211348 82.69761687909136 l 2.911667056687428 -4.233248700007175 a26.137917827788925,26.137917827788925 0 0,0 0.36850588309188764,0.2581619207654367 l -2.9841040793629667 4.182501936477802" fill="#ff3404" stroke="none" /><path d="M 112.19680574252982 82.90503203632743 l 1.783979937387467 -2.500415315391237 a24.07158935511309,24.07158935511309 0 0,0 0.3352309071291003,0.24355951073110543 l -1.826756160870356 2.4693365698434566" fill="#ff1602" stroke="none" /><path d="M 113.34407831869373 83.78471172551755 l 1.0581978205893727 -1.2858874402923512 a22.66531952988059,22.66531952988059 0 0,0 0.2991201181009394,0.25050449667545466 l -1.0801754756494295 1.2674817862230772" fill="#ff0100" stroke="none" /><path d="M 113.6212207817346 84.01681056812373 l 1.2962105707793152 -1.5209781434676926 a22.99838343585671,22.99838343585671 0 0,0 0.29909529225866693,0.25937249011276414 l -1.3221996616847465 1.498440659935257" fill="#ff0601" stroke="none" /><path d="M 114.42810811169701 84.74124197986012 l 5.490148818491057 -5.806225713542888 a28.990869232179023,28.990869232179023 0 0,0 0.3596479627249439,0.3459810551926886 l -5.589280024828419 5.710861571587897" fill="#ff5c08" stroke="none" /><path d="M 115.9244219780498 86.31012108654704 l 3.641977126635897 -3.1309284530349206 a25.80278152417562,25.80278152417562 0 0,0 0.2866435748619465,0.33929558059888276 l -3.6953313149849607 3.067773922806931" fill="#ff2f04" stroke="none" /><path d="M 116.15771136456269 86.58626213691792 l 3.462643323722386 -2.874602028083722 a25.500359497549308,25.500359497549308 0 0,0 0.2774700284658898,0.34014544647371314 l -3.5116118442646846 2.8145724120019078" fill="#ff2a04" stroke="none" /><path d="M 116.38621287248628 86.86637796730983 l 4.644032162703307 -3.722212301721884 a26.951629957189247,26.951629957189247 0 0,0 0.28702962196508813,0.36449847158118537 l -4.707415865262359 3.64172143618766" fill="#ff3f05" stroke="none" /><path d="M 117.2510076193507 88.02491185347247 l 3.670430602751553 -2.547893489674105 a25.468089305770288,25.468089305770288 0 0,0 0.2468895185151716,0.36227990385454867 l -3.713744586935458 2.4843355625491497" fill="#ff2a04" stroke="none" /><path d="M 117.65298651832404 88.62581576622439 l 1.3376805481655065 -0.8618952371021763 a22.591305328552565,22.591305328552565 0 0,0 0.20781032163133567,0.32870602306408686 l -1.3523184660427978 0.8387415663238832" fill="#ff0000" stroke="none" /><line stroke="#e1ed5e" stroke-width="0.3" x1="172.23445277983987" x2="176.4835382374775" y1="55.19839476539836" y2="52.563006222186495" /><path d="M 173.08426987136738 54.67131705675599 a86.0,86.0 0 0,1 12.851231095245387,41.99856678651699" fill="none" id="id123" stroke="none" /><text fill="#e1ed5e" style="font-size:6.75px; font-family:Arial;" text-anchor="middle"><textPath startOffset="22.20632615414155" xlink:href="#id123">March</textPath></text><path d="M 117.84615892207809 88.93136811851018 l 5.477581671339677 -3.397332467203799 a27.445600736852494,27.445600736852494 0 0,0 0.24555213261897882,0.4036231424395963 l -5.53524960224488 3.302541551557121" fill="#ff4606" stroke="none" /><path d="M 118.21658344932153 89.55222093294921 l 4.121260491026481 -2.3636714978852758 a25.750971583246006,25.750971583246006 0 0,0 0.2172184688222728,0.3864074181467307 l -4.161336601141187 2.292380569803751" fill="#ff2e04" stroke="none" /><path d="M 118.56541770881063 90.18545643968196 l 6.559713454518624 -3.467769723921921 a28.41992368313463,28.41992368313463 0 0,0 0.22491062983077992,0.4344557492174031 l -6.61843351750952 3.3543412524441734" fill="#ff5407" stroke="none" /><path d="M 118.73160827565052 90.50648371742162 l 4.4302902705834795 -2.245350863705922 a25.96679699431853,25.96679699431853 0 0,0 0.19863361584803854,0.4004332487621116 l -4.468283899384926 2.1687580264448605" fill="#ff3104" stroke="none" /><path d="M 119.04729006885535 91.15688171328212 l 3.7043384046747785 -1.7198195947114834 a25.084103629280488,25.084103629280488 0 0,0 0.17845271253646686,0.39319689727067014 l -3.7333934341745922 1.6558006885987504" fill="#ff2403" stroke="none" /><path d="M 119.47837535516314 92.15188598940014 l 2.8876091680881495 -1.163458735956749 a24.11318533625944,24.11318533625944 0 0,0 0.15180564925483317,0.3863288191198509 l -2.9072083672246833 1.1135809119411135" fill="#ff1602" stroke="none" /><path d="M 119.7369772167798 92.82701384747503 l 8.563446065831972 -3.1122030173842927 a30.111444240285344,30.111444240285344 0 0,0 0.17284961121588585,0.4886691270862805 l -8.615748757857666 2.964336263871398" fill="#ff6b09" stroke="none" /><path d="M 119.85752413597 93.16781622104841 l 3.2234871026888503 -1.1090736258885883 a24.40894608476623,24.40894608476623 0 0,0 0.13327599115515493,0.3984782498655685 l -3.2421003876157752 1.0534222731007057" fill="#ff1b02" stroke="none" /><path d="M 120.18372546131832 94.20196356495316 l 10.507825963273392 -3.018509041105982 a31.93278570656541,31.93278570656541 0 0,0 0.14721505281261327,0.5296108719972186 l -10.558227786652369 2.837186865689812" fill="#ff840c" stroke="none" /><path d="M 120.28053869075195 94.5502522615342 l 13.219657145189347 -3.5523610949812325 a34.68863047881314,34.68863047881314 0 0,0 0.14999308999389768,0.5779845617786576 l -13.278846567053547 3.3242801076537245" fill="#ffa90f" stroke="none" /><path d="M 120.53481517161879 95.60439243477599 l 18.614184587725557 -3.9844843944525614 a40.035860467957725,40.035860467957725 0 0,0 0.13844916075390626,0.6751272770547014 l -18.68001304439446 3.6634814612344484" fill="#ffed16" stroke="none" /><path d="M 120.73433829027371 96.67025291283417 l 10.339496987754762 -1.6604296455356915 a31.47197328909712,31.47197328909712 0 0,0 0.08129376536996628,0.5356243422998092 l -10.366546646564029 1.4822061908438" fill="#ff7e0b" stroke="none" /><path d="M 120.83666639777658 97.38593545837742 l 10.140686579946783 -1.2722001067874966 a31.220176976179175,31.220176976179175 0 0,0 0.06230602839224524,0.5338000016144475 l -10.161082961342618 1.0974563668481963" fill="#ff7a0b" stroke="none" /><path d="M 120.94382443527127 98.46500227214037 l 15.494318027020517 -1.1355969412232614 a36.53587691555802,36.53587691555802 0 0,0 0.04057119318124911,0.6276184012787775 l -15.511569811206181 0.8687194756914486" fill="#ffc111" stroke="none" /><path d="M 120.96714384426684 98.82574320788733 l 16.63349532417273 -0.9315524806839571 a37.65956052012011,37.65956052012011 0 0,0 0.030677104571977327,0.6475451920606827 l -16.647066036978206 0.6450961820002746" fill="#ffcf13" stroke="none" /><line stroke="#e1ed5e" stroke-width="0.3" x1="184.98032266829074" x2="189.97916517819016" y1="98.17113171792111" y2="98.06355123074" /><path d="M 185.9800911702706 98.14961562048488 a86.0,86.0 0 0,1 -9.607161424134198,41.387399972396054" fill="none" id="id124" stroke="none" /><text fill="#e1ed5e" style="font-size:6.75px; font-family:Arial;" text-anchor="middle"><textPath startOffset="21.466115282336823" xlink:href="#id124">April</textPath></text><path d="M 120.99980553446 99.90962569577887 l 10.427320179267781 -0.0448747872710483 a31.427416739897648,31.427416739897648 0 0,0 -0.002328177019341769,0.5409863464769454 l -10.426547704958937 -0.13462103740958187" fill="#ff7d0b" stroke="none" /><path d="M 120.99824983174949 100.27111621757518 l 9.972434415177071 0.12875781173778666 a30.973265600548878,30.973265600548878 0 0,0 -0.01147181515627067,0.5330501726798128 l -9.968740537335794 -0.30039780020771434" fill="#ff770b" stroke="none" /><path d="M 120.9764740272857 100.99374915477107 l 26.880971409877436 1.27347153688667 a47.91111951766237,47.91111951766237 0 0,0 -0.046117074215032076,0.8234513398075372 l -26.855067984774877 -1.7359945930296306" fill="#b3ff20" stroke="none" /><path d="M 120.95626037817324 101.35467743843564 l 9.674779136041002 0.625407624305586 a30.6949722035555,30.6949722035555 0 0,0 -0.03862222844383021,0.5269696216126993 l -9.662580348932833 -0.7918503824150556" fill="#ff730a" stroke="none" /><path d="M 120.92983693683757 101.71520430193887 l 13.482968752994513 1.1049319723719657 a34.52816769033398,34.52816769033398 0 0,0 -0.05364263860523758,0.5919420470398167 l -13.461951518112201 -1.3368554079603527" fill="#ffa70f" stroke="none" /><path d="M 120.8583938346157 102.4346265915055 l 16.49105704651145 1.924863741945488 a37.6030136703055,37.6030136703055 0 0,0 -0.08057518394923265,0.6422634947060459 l -16.45548035331537 -2.2084449909389288" fill="#ffcf13" stroke="none" /><path d="M 120.76222939487914 103.15116336523771 l 26.2557605300172 3.984937702742585 a47.556443464898464,47.556443464898464 0 0,0 -0.12980247182021667,0.8082801159306243 l -26.183276303835694 -4.436297048366415" fill="#b7ff1f" stroke="none" /><path d="M 120.70491114924044 103.5080841355445 l 12.646714668702913 2.1427640416443983 a33.82695714695226,33.82695714695226 0 0,0 -0.10221146551494895,0.573256179445298 l -12.607956760848776 -2.3601389718229147" fill="#ff9d0e" stroke="none" /><path d="M 120.5718875245553 104.21870165774334 l 11.712655210688045 2.40192825743023 a32.95640211093202,32.95640211093202 0 0,0 -0.11874656409083163,0.5547444146656316 l -11.66957460787277 -2.6031864915120306" fill="#ff920d" stroke="none" /><path d="M 120.41448212921028 104.9243191809786 l 16.126133300712567 3.8898967421804778 a37.588654915247865,37.588654915247865 0 0,0 -0.15713612440124336,0.6276807063464601 l -16.056785862016262 -4.166905287924334" fill="#ffce13" stroke="none" /><path d="M 120.23288151984713 105.62410040840565 l 30.737251416934164 8.543982629348832 a52.90263725522446,52.90263725522446 0 0,0 -0.25143203458167396,0.8752678971628828 l -30.585626745466392 -9.071808002016295" fill="#7cff26" stroke="none" /><path d="M 119.9155931802556 106.66101706037122 l 22.601194500311923 7.559249718988979 a44.83183268561117,44.83183268561117 0 0,0 -0.25107783759270647,0.7297497229750104 l -22.467725831775986 -7.9471721450532895" fill="#d7ff1c" stroke="none" /><path d="M 119.67450827220406 107.3425965602758 l 11.456217171767145 4.275501051176535 a33.22803422980587,33.22803422980587 0 0,0 -0.20459880494174595,0.5341429179259081 l -11.380924087231891 -4.472067535935587" fill="#ff950d" stroke="none" /><path d="M 119.26925614724726 108.34839909993367 l 1.926183085927764 0.8345182096281392 a23.09919077806548,23.09919077806548 0 0,0 -0.16120915923898388,0.363484096108786 l -1.911532841957507 -0.8675506422296128" fill="#ff0701" stroke="none" /><path d="M 118.97047184881838 109.00673069616215 l 13.962214504989436 6.628928735703626 a36.455941578123756,36.455941578123756 0 0,0 -0.2740215073881461,0.5645654677090739 l -13.846039740986576 -6.868283159377976" fill="#ffc011" stroke="none" /><path d="M 118.81262510543309 109.33194174019688 l 2.006251534702771 0.9951945745530142 a23.239521703783417,23.239521703783417 0 0,0 -0.18084921668395987,0.35683266168708516 l -1.9888236482325425 -1.0295814479427936" fill="#ff0a01" stroke="none" /><path d="M 118.64920377521936 109.65438752849418 l 14.012471355413542 7.254027052717711 a36.7787915243166,36.7787915243166 0 0,0 -0.2958897418358501,0.5597118825928062 l -13.885529105352798 -7.494153950396652" fill="#ffc412" stroke="none" /><line stroke="#e1ed5e" stroke-width="0.3" x1="174.80103733775053" x2="179.2010983576182" y1="140.37084112569926" y2="142.7455964860345" /><path d="M 175.68104954172406 140.8457921977663 a86.0,86.0 0 0,1 -30.038265399797805,32.042727171017184" fill="none" id="id125" stroke="none" /><text fill="#e1ed5e" style="font-size:6.75px; font-family:Arial;" text-anchor="middle"><textPath startOffset="22.206326154141568" xlink:href="#id125">May</textPath></text><path d="M 118.48025628344425 109.97397251340804 l 9.37986099679086 5.062401425968974 a31.658785133249058,31.658785133249058 0 0,0 -0.26295423692116526,0.4773383202331393 l -9.291330350418185 -5.223110264599918" fill="#ff800b" stroke="none" /><path d="M 118.30583269289576 110.29060199501025 l 8.016570923548091 4.506505774578634 a30.196412543409917,30.196412543409917 0 0,0 -0.2586078342519772,0.4509045571375423 l -7.937811093143734 -4.6438301775744915" fill="#ff6c0a" stroke="none" /><path d="M 117.75023020441432 111.22182372390056 l 4.866451032466325 3.0766054872769923 a26.757416692904506,26.757416692904506 0 0,0 -0.24947485986021103,0.38719052261308706 l -4.812771309229064 -3.1599176098115325" fill="#ff3c05" stroke="none" /><path d="M 116.498646956653 112.99209946851258 l 5.692811236964084 4.48288699312272 a28.245990310013767,28.245990310013767 0 0,0 -0.30409106977934647,0.3794003656892063 l -5.6148022551298835 -4.580215192390176" fill="#ff5107" stroke="none" /><path d="M 116.0416608686014 113.55231037782055 l 7.285225483310729 6.15470166904499 a30.53702589792149,30.53702589792149 0 0,0 -0.3426799470607769,0.3986141962913231 l -7.178203026679173 -6.279192964497842" fill="#ff710a" stroke="none" /><path d="M 114.29624159901734 115.38237550388516 l 9.999280342268653 10.758959543882229 a35.688118253546804,35.688118253546804 0 0,0 -0.45357975431197517,0.414334351291815 l -9.812601038489815 -10.929486661760627" fill="#ffb610" stroke="none" /><path d="M 114.0293411484842 115.62618273729858 l 7.646856893940288 8.51723412568043 a32.44629623537926,32.44629623537926 0 0,0 -0.41880079592655917,0.3695430092716011 l -7.499113745107141 -8.647600276724319" fill="#ff8b0c" stroke="none" /><path d="M 113.20401910651253 116.32954008644616 l 21.907935854059872 27.093759396615297 a55.84292541718163,55.84292541718163 0 0,0 -0.7526629344798597,0.5979609556697763 l -21.438315426862662 -27.466854266290202" fill="#5dff2a" stroke="none" /><path d="M 112.63410532772338 116.77436683061366 l 9.249951948551821 12.281208928192276 a36.37497004187089,36.37497004187089 0 0,0 -0.5033863330829593,0.3723931749471994 l -9.037180645050299 -12.438612051879245" fill="#ffbf11" stroke="none" /><path d="M 112.04921762599082 117.19931262002967 l 9.682628457501139 13.821192295915846 a37.87538593119264,37.87538593119264 0 0,0 -0.5371868067550968,0.36948198401697824 l -9.443284766123158 -13.985815069297919" fill="#ffd213" stroke="none" /><path d="M 111.1453310114006 117.79835938074945 l 16.77880437296464 26.794645210971307 a52.61457398365578,52.61457398365578 0 0,0 -0.7717325320793519,0.4740611528866304 l -16.315092640952976 -27.07949483068632" fill="#7fff26" stroke="none" /><line stroke="#e1ed5e" stroke-width="0.3" x1="143.8653032363475" x2="146.44561519142675" y1="172.8068346515853" y2="177.08958963109032" /><path d="M 144.38136562736335 173.6633856474863 a86.0,86.0 0 0,1 -40.68145358897372,12.25698825130547" fill="none" id="id126" stroke="none" /><text fill="#e1ed5e" style="font-size:6.75px; font-family:Arial;" text-anchor="middle"><textPath startOffset="21.466115282336833" xlink:href="#id126">June</textPath></text><path d="M 110.21172684928248 118.3499491758327 l 2.6885341275067387 4.831157876173192 a26.52886083920356,26.52886083920356 0 0,0 -0.40093596464163556,0.21862225554230078 l -2.6049753509964546 -4.876720783475264" fill="#ff3905" stroke="none" /><path d="M 109.89434966115114 118.52300852407294 l 3.481948846670602 6.518484829831835 a28.390169974200763,28.390169974200763 0 0,0 -0.4330299867407443,0.22654082280167032 l -3.3692279574033623 -6.577455071578222" fill="#ff5307" stroke="none" /><path d="M 109.57404056367764 118.69057910512821 l 6.541258492894766 12.769938511893894 a35.34780095584054,35.34780095584054 0 0,0 -0.5439287500422597,0.2727371670468132 l -6.320475835169745 -12.88064351985001" fill="#ffb110" stroke="none" /><path d="M 108.92500713936063 119.00905698771935 l 14.293696906463957 30.443639407511547 a54.632201111857775,54.632201111857775 0 0,0 -0.8546869774721929,0.3923448716084434 l -13.767541933224345 -30.685171349454063" fill="#69ff28" stroke="none" /><path d="M 107.59598834532513 119.57807347666477 l 3.5778573280377812 9.221651017995205 a30.891405893880084,30.891405893880084 0 0,0 -0.4973954407286866,0.18807239524756691 l -3.4185916665488194 -9.281871663349403" fill="#ff760a" stroke="none" /><path d="M 107.2578585660854 119.70592522655815 l 3.471031116096305 9.424250832397055 a31.043135006602537,31.043135006602537 0 0,0 -0.5030176961655796,0.18036424933257472 l -3.3082938593009907 -9.482602622769589" fill="#ff780b" stroke="none" /><path d="M 106.57524785965236 119.94407469862006 l 2.697959871922754 8.183465379258218 a29.616733318608816,29.616733318608816 0 0,0 -0.4855432909395701,0.1554556288070891 l -2.556695235892244 -8.228693854725014" fill="#ff6409" stroke="none" /><path d="M 106.2309692047433 120.05430185196036 l 8.36132895836342 26.910839919881315 a49.1798709568274,49.1798709568274 0 0,0 -0.8105897186646331,0.24422403286479963 l -7.89686426525854 -27.050779321851838" fill="#a4ff21" stroke="none" /><path d="M 104.83641907484287 120.43548508189849 l 9.536493755591913 40.29486958434188 a62.40798507497756,62.40798507497756 0 0,0 -1.0475027264724088,0.23840821016903901 l -8.841470879726641 -40.45305452808861" fill="#32ff48" stroke="none" /><path d="M 104.13013068566511 120.58985236759428 l 3.601678060656545 17.95536877365886 a39.31303777778822,39.31303777778822 0 0,0 -0.6646381705086121,0.12737948723015347 l -3.292072275576228 -18.014705459237483" fill="#ffe415" stroke="none" /><path d="M 103.7750983002368 120.6578951692458 l 3.3760019835064186 18.473981210520176 a39.779919359765415,39.779919359765415 0 0,0 -0.6746504378447317,0.1172966263369724 l -3.0575025741896367 -18.529356415378157" fill="#ffea16" stroke="none" /><path d="M 102.34483914955558 120.86867818915974 l 0.8592447016850372 7.64713484445365 a28.695256512074888,28.695256512074888 0 0,0 -0.4913275654182352,0.05092811107281154 l -0.7274845396611994 -7.66079232398222" fill="#ff5808" stroke="none" /><path d="M 101.26447882468166 120.96189622390904 l 2.4419254585631736 40.481016407537965 a61.55460133366542,61.55460133366542 0 0,0 -1.0581878821668933,0.05469622645532484 l -1.7447495079828006 -40.51705244075549" fill="#31ff3e" stroke="none" /><line stroke="#e1ed5e" stroke-width="0.3" x1="102.19456741930631" x2="102.32365962044197" y1="184.97166512339345" y2="189.96999836594603" /><path d="M 102.22038585953345 185.97133177190398 a86.0,86.0 0 0,1 -42.740103519485714,-10.115201625700543" fill="none" id="id127" stroke="none" /><text fill="#e1ed5e" style="font-size:6.75px; font-family:Arial;" text-anchor="middle"><textPath startOffset="22.20632615414155" xlink:href="#id127">July</textPath></text><path d="M 100.54218724476979 120.99299961872073 l 0.2434946795645267 9.42789371120117 a30.43103756161976,30.43103756161976 0 0,0 -0.5237620787218913,0.009017039173615465 l -0.08117291094996752 -9.430688227653945" fill="#ff700a" stroke="none" /><path d="M 99.81925306533755 120.99922214144158 l -0.10760752281274436 12.50186776254374 a33.50233085992753,33.50233085992753 0 0,0 -0.5766234693014595,-0.00992709595128617 l 0.3227906820068717 -12.498163189313294" fill="#ff990e" stroke="none" /><path d="M 99.09653310690486 120.98055641714683 l -2.1716754757766403 50.431244561905714 a71.47798136251919,71.47798136251919 0 0,0 -1.2287811484565567,-0.06351394973677808 l 3.0394446926466863 -50.386390805406734" fill="#3dffaf" stroke="none" /><path d="M 98.73552117531835 120.96189622390904 l -0.5404297059974837 8.958972813395295 a29.975258109841775,29.975258109841775 0 0,0 -0.514771158555825,-0.03550163298778161 l 0.6945636253322388 -8.948342835891228" fill="#ff6909" stroke="none" /><path d="M 98.37488393609728 120.93702456842531 l -0.6979773336108541 8.992323014099034 a30.019370573833278,30.019370573833278 0 0,0 -0.5148403280946863,-0.04442258984313134 l 0.8526619794470821 -8.978976171977239" fill="#ff6a09" stroke="none" /><path d="M 97.65516085044442 120.86867818915974 l -0.4992164609982329 4.442943420352674 a25.470901845420755,25.470901845420755 0 0,0 -0.4352765801176795,-0.052705932027681035 l 0.5756204641673017 -4.433691959599644" fill="#ff2a04" stroke="none" /><path d="M 97.2962882734958 120.8252237178851 l -0.4313103574005958 3.3221495459954133 a24.350030780509123,24.350030780509123 0 0,0 -0.41519284886766333,-0.05754194560720048 l 0.48843179745509013 -3.314233034895608" fill="#ff1a02" stroke="none" /><path d="M 96.22490169976321 120.6578951692458 l -5.648410800468494 30.90893770411087 a52.420804804579014,52.420804804579014 0 0,0 -0.8862420655162494,-0.16985040113007804 l 6.179620480556439 -30.80713010463232" fill="#81ff25" stroke="none" /><path d="M 95.51606077576429 120.51570834832081 l -3.0855857851912605 14.117715447737442 a35.45097675249181,35.45097675249181 0 0,0 -0.5950359518854959,-0.13542824537839926 l 3.328141886469619 -14.062510468781356" fill="#ffb310" stroke="none" /><path d="M 95.16358092515715 120.4354850818985 l -3.0920222148175642 13.064826034715823 a34.425732035695994,34.425732035695994 0 0,0 -0.5754781024495955,-0.14143851626943993 l 3.31645360201037 -13.009666260132354" fill="#ffa50f" stroke="none" /><path d="M 93.76903079525671 120.05430185196036 l -7.21716282032882 23.228354523633477 a45.323731067637226,45.323731067637226 0 0,0 -0.7430472936869572,-0.23790027877841283 l 7.615931459106718 -23.100681398195356" fill="#d1ff1d" stroke="none" /><path d="M 93.08242187328487 119.8279376855182 l -2.470760985920775 7.081972038082352 a28.50059916258218,28.50059916258218 0 0,0 -0.4618188764456909,-0.16559181836481768 l 2.5922994229961924 -7.038392678677576" fill="#ff5507" stroke="none" /><path d="M 92.7421414339146 119.70592522655815 l -4.042595535944604 10.976114321763262 a32.69690832107595,32.69690832107595 0 0,0 -0.5264665901155562,-0.1990646164263117 l 4.230932346820443 -10.904901455230318" fill="#ff8e0d" stroke="none" /><path d="M 91.7346041902142 119.30500536409082 l -2.834239518622254 6.619768776873467 a28.20098967560633,28.20098967560633 0 0,0 -0.44460783979922336,-0.19490301114798408 l 2.9477680330792206 -6.570001212431031" fill="#ff5107" stroke="none" /><path d="M 91.40352486487194 119.15986991738527 l -25.789425405384158 57.479609752155824 a84.0,84.0 0 0,0 -1.3141280169303222,-0.6032517186637025 l 26.7750214180819 -57.02717096315804" fill="#4dd2ff" stroke="none" /><line stroke="#e1ed5e" stroke-width="0.3" x1="58.666819895761336" x2="56.23545636021788" y1="174.27360380694188" y2="178.64263932499728" /><path d="M 58.180547188652646 175.14741091055294 a86.0,86.0 0 0,1 -31.652253787137756,-30.449443065178592" fill="none" id="id128" stroke="none" /><text fill="#e1ed5e" style="font-size:6.75px; font-family:Arial;" text-anchor="middle"><textPath startOffset="22.20632615414155" xlink:href="#id128">August</textPath></text><path d="M 88.8546689885994 117.79835938074946 l -11.504312100194795 18.371628530200134 a42.676391114536386,42.676391114536386 0 0,0 -0.6192510950267721,-0.39523534769758745 l 11.818844997268492 -18.170878753678743" fill="#f0ff19" stroke="none" /><line stroke="#e1ed5e" stroke-width="0.3" x1="26.63291911575756" x2="22.317208475507996" y1="142.92168965132927" y2="145.44649492493687" /><path d="M 25.769776987707644 143.4266507060508 a86.0,86.0 0 0,1 -11.730757126820373,-40.83630448921669" fill="none" id="id129" stroke="none" /><text fill="#e1ed5e" style="font-size:6.75px; font-family:Arial;" text-anchor="middle"><textPath startOffset="21.46611528233685" xlink:href="#id129">September</textPath></text><line stroke="#e1ed5e" stroke-width="0.3" x1="15.007084014347285" x2="10.007500721073583" y1="101.09737516637583" y2="101.16192664675087" /><path d="M 14.007167355692545 101.11028546245083 a86.0,86.0 0 0,1 10.666146001902534,-42.60595125391555" fill="none" id="id130" stroke="none" /><text fill="#e1ed5e" style="font-size:6.75px; font-family:Arial;" text-anchor="middle"><textPath startOffset="22.20632615414155" xlink:href="#id130">October</textPath></text><line stroke="#e1ed5e" stroke-width="0.3" x1="26.266209847984243" x2="21.928928074336255" y1="57.711370442889674" y2="55.22380399835377" /><path d="M 25.398753493254645 57.213857153982495 a86.0,86.0 0 0,1 29.58750427330803,-30.492523968695096" fill="none" id="id131" stroke="none" /><text fill="#e1ed5e" style="font-size:6.75px; font-family:Arial;" text-anchor="middle"><textPath startOffset="21.46611528233685" xlink:href="#id131">November</textPath></text><line stroke="#e1ed5e" stroke-width="0.3" x1="56.762969772571076" x2="54.21961505331055" y1="26.818313649435495" y2="22.513508569990535" /><path d="M 56.25429882871897 25.957352633546506 a86.0,86.0 0 0,1 42.265352541879196,-11.944610805530505" fill="none" id="id132" stroke="none" /><text fill="#e1ed5e" style="font-size:6.75px; font-family:Arial;" text-anchor="middle"><textPath startOffset="22.20632615414155" xlink:href="#id132">December</textPath></text></svg>