<?xml version="1.0" encoding="utf-8" ?>
<svg baseProfile="full" height="200mm" version="1.1" viewBox="0,0,200,200" width="200mm" xmlns="http://www.w3.org/2000/svg" xmlns:ev="http://www.w3.org/2001/xml-events" xmlns:xlink="http://www.w3.org/1999/xlink"><defs /><rect fill="#1a1a1a" height="200" width="200" x="0" y="0" /><text alignment-baseline="middle" fill="#e1ed5e" style="dominant-baseline: central; font-size:9.0px; font-family:Arial;" text-anchor="middle" x="100.0" y="100.0">2026</text><line stroke="#e1ed5e" stroke-width="0.3" x1="100.0" x2="100.0" y1="15.0" y2="10.0" /><path d="M 100.0 14.0 a86.0,86.0 0 0,1 42.46469731375804,11.215312516191453" fill="none" id="id133" stroke="none" /><text fill="#e1ed5e" style="font-size:6.75px; font-family:Arial;" text-anchor="middle"><textPath startOffset="22.20632615414155" xlink:href="#id133">January</textPath></text><path d="M 100.0 79.0 l 0.0 -3.3994951300867235 a24.399495130086724,24.399495130086724 0 0,0 0.4199971996967367,0.003615048495637994 l -0.058516720424208336 3.3989914581996445" fill="#ff1c02" stroke="none" /><path d="M 100.36148047927253 79.00311137660856 l 0.0582088229752856 -3.38110698362036 a24.38160800533689,24.38160800533689 0 0,0 0.41956493924992094,0.010836124543681776 l -0.11640039742007434 3.379604066934319" fill="#ff1c02" stroke="none" /><path d="M 100.72285384407766 79.0124445844662 l 0.21544304388061303 -6.255237983973232 a27.25894703135424,27.25894703135424 0 0,0 0.4688008866565333,0.02018755232829097 l -0.32308476292647786 6.2506027051207464" fill="#ff4506" stroke="none" /><path d="M 101.80526077348638 79.07773832637324 l 0.12893825180289895 -1.4943435782689645 a22.499895930620415,22.499895930620415 0 0,0 0.3855784375483216,0.0366153186616243 l -0.15464181644146474 1.491902715092162" fill="#ff0000" stroke="none" /><path d="M 102.16513564639614 79.11191278185805 l 0.3326272327913986 -3.2090121749373046 a24.22620520346898,24.22620520346898 0 0,0 0.4144218836520004,0.04656512733636164 l -0.38781581995312425 3.2028110941303423" fill="#ff1902" stroke="none" /><path d="M 102.88285421437855 79.19881850522331 l 0.8020511985976788 -5.787185653343862 a26.842499799866577,26.842499799866577 0 0,0 0.4571290748223756,0.06736894277909788 l -0.9015492538487102 5.772522226403795" fill="#ff3f05" stroke="none" /><path d="M 103.59715602781102 79.31037775812273 l 3.5589412244009666 -20.46982364529459 a41.77690406937959,41.77690406937959 0 0,0 0.7074319482041647,0.1292786667430955 l -3.910768293708032 20.405529497200757" fill="#faff18" stroke="none" /><path d="M 108.09893153111575 80.62456947434976 l 3.2982955390809825 -7.890657653420326 a29.552264709806536,29.552264709806536 0 0,0 0.46765226462613274,0.20022429393713487 l -3.4336315614974304 7.8327138315204" fill="#ff6509" stroke="none" /><path d="M 109.41281617654863 81.2277094730956 l 1.5255920718644704 -3.0425387112024533 a24.403597064709807,24.403597064709807 0 0,0 0.37388578193715283,0.19151881931076656 l -1.577738341390379 3.015827366579186" fill="#ff1c02" stroke="none" /><line stroke="#e1ed5e" stroke-width="0.3" x1="143.23703022742887" x2="145.7803849466894" y1="26.81831364943548" y2="22.513508569990506" /><path d="M 143.74570117128098 25.957352633546492 a86.0,86.0 0 0,1 28.547481713284135,27.462654790039103" fill="none" id="id134" stroke="none" /><text fill="#e1ed5e" style="font-size:6.75px; font-family:Arial;" text-anchor="middle"><textPath startOffset="19.985693538727396" xlink:href="#id134">February</textPath></text><path d="M 111.60114157652 82.49532879139004 l 2.9849497359515493 -4.503915701521211 a26.403256571047365,26.403256571047365 0 0,0 0.37668055814597223,0.2543363943259402 l -3.0620349885040636 4.451867394896601" fill="#ff3905" stroke="none" /><path d="M 112.19680574252982 82.90503203632743 l 1.7894203027260476 -2.50804049801175 a24.080956370913942,24.080956370913942 0 0,0 0.3353613560644692,0.24365428743038395 l -1.8323269751443054 2.476866975764691" fill="#ff1702" stroke="none" /><path d="M 112.48926042617603 83.11751280151076 l 6.575573118715805 -8.888599101255135 a32.05646217478319,32.05646217478319 0 0,0 0.44078222618416946,0.331988034388031 l -6.727601498658357 8.774094477361256" fill="#ff870c" stroke="none" /><path d="M 112.77801427241765 83.33499621200491 l 16.68322093561021 -21.75814912713348 a48.41800346897932,48.41800346897932 0 0,0 0.657026415849375,0.5128195391507574 l -17.055279906619013 21.467751198759498" fill="#acff20" stroke="none" /><path d="M 113.6212207817346 84.01681056812373 l 3.407751381313868 -3.998667721274645 a26.253771314209473,26.253771314209473 0 0,0 0.3414317978485857,0.29608629056948793 l -3.4760769778092175 3.9394164372854856" fill="#ff3605" stroke="none" /><path d="M 115.4437574822437 85.77008943001954 l 3.9901147083276824 -3.6765000699310173 a26.4256490993996,26.4256490993996 0 0,0 0.30535008594373536,0.33717519146557495 l -4.052808434887454 3.6072720911958935" fill="#ff3905" stroke="none" /><path d="M 115.9244219780498 86.31012108654704 l 3.897329649469824 -3.350449458108745 a26.139522348232155,26.139522348232155 0 0,0 0.2903844348742318,0.3437235789254414 l -3.9544246978311732 3.282866929554197" fill="#ff3505" stroke="none" /><path d="M 116.38621287248628 86.86637796730983 l 5.64959015725728 -4.52817147820718 a28.24031807871915,28.24031807871915 0 0,0 0.30075390004924013,0.3819269110257979 l -5.726698137900485 4.430252173228344" fill="#ff5207" stroke="none" /><path d="M 117.04232023915458 87.72973835380427 l 2.5417364348249154 -1.830019073301816 a24.131995196797867,24.131995196797867 0 0,0 0.2398115645964299,0.3391964512483421 l -2.572860619225228 1.7859961217216807" fill="#ff1802" stroke="none" /><path d="M 117.45458315368197 88.32363383020206 l 2.5011078581799504 -1.6731336936057237 a24.00913889259506,24.00913889259506 0 0,0 0.22683304468808405,0.34548228918063334 l -2.5295375382259593 1.6298333404474163" fill="#ff1602" stroke="none" /><line stroke="#e1ed5e" stroke-width="0.3" x1="172.23445277983987" x2="176.4835382374775" y1="55.19839476539836" y2="52.563006222186495" /><path d="M 173.08426987136738 54.67131705675599 a86.0,86.0 0 0,1 12.851231095245387,41.99856678651699" fill="none" id="id135" stroke="none" /><text fill="#e1ed5e" style="font-size:6.75px; font-family:Arial;" text-anchor="middle"><textPath startOffset="22.20632615414155" xlink:href="#id135">March</textPath></text><path d="M 118.21658344932153 89.55222093294921 l 1.8141821326986498 -1.0404900656897031 a23.09138145430287,23.09138145430287 0 0,0 0.19478389412530378,0.3464988130779388 l -1.8318236681163866 1.0091077426769703" fill="#ff0901" stroke="none" /><path d="M 118.3937258080291 89.86733742301442 l 3.7438680312578367 -2.0624071430345947 a25.274350366911275,25.274350366911275 0 0,0 0.2066381550244518,0.38286911836346316 l -3.7788142855007534 1.997657041338673" fill="#ff2803" stroke="none" /><path d="M 118.56541770881063 90.18545643968196 l 4.026835385480444 -2.1287725340147934 a25.55489579719813,25.55489579719813 0 0,0 0.2022372675271675,0.3906580300330986 l -4.062882086167728 2.0591417817213498" fill="#ff2c04" stroke="none" /><path d="M 119.04729006885535 91.15688171328212 l 13.1465183868438 -6.103556817432228 a35.49428685790527,35.49428685790527 0 0,0 0.2525125817909224,0.5563780021651823 l -13.249633285598069 5.876356806424982" fill="#ffb410" stroke="none" /><path d="M 119.47837535516314 92.15188598940014 l 3.186542661037799 -1.283903284923397 a24.43547111407605,24.43547111407605 0 0,0 0.1538346139504879,0.3914923129605335 l -3.2081708248699874 1.228861967067079" fill="#ff1c02" stroke="none" /><path d="M 119.7369772167798 92.82701384747503 l 2.171631031287325 -0.7892332825197932 a23.310599599733155,23.310599599733155 0 0,0 0.13381052220113898,0.37830036538132705 l -2.1848946342982734 0.7517352907118516" fill="#ff0c01" stroke="none" /><path d="M 119.97218684219823 93.5106431181261 l 4.284573686435447 -1.3921423806841093 a25.505067378252168,25.505067378252168 0 0,0 0.13207315302415895,0.4187079873302572 l -4.307902323227813 1.318184226927433" fill="#ff2c04" stroke="none" /><path d="M 120.28053869075195 94.5502522615342 l 2.031095273409873 -0.5457920542279056 a23.103149299533023,23.103149299533023 0 0,0 0.09989765246407836,0.38494640576119893 l -2.0401892577442537 0.5107492229178562" fill="#ff0901" stroke="none" /><path d="M 120.37134235888165 94.90015583598534 l 3.3268209536052207 -0.832849800767702 a24.429486324216143,24.429486324216143 0 0,0 0.0986104355604957,0.40880391796686294 l -3.3406641894265356 0.7754606511414329" fill="#ff1c02" stroke="none" /><path d="M 120.53481517161879 95.60439243477599 l 2.16216397856652 -0.46282492742264303 a23.21114449633089,23.21114449633089 0 0,0 0.08026712647344256,0.3914110149742577 l -2.1698104009549595 0.42553825628497355" fill="#ff0a01" stroke="none" /><path d="M 120.6074358757038 95.95851677861258 l 3.442252891120229 -0.6750867690257778 a24.50782655103402,24.50782655103402 0 0,0 0.07762477817070276,0.41467466892035515 l -3.453363393200791 0.6157340226428599" fill="#ff1d03" stroke="none" /><path d="M 120.67395015179393 96.31383870115 l 4.836496171388163 -0.8623463285007588 a25.91277278185457,25.91277278185457 0 0,0 0.0745154338640776,0.4397943087426433 l -4.850623466772464 0.7789662314422776" fill="#ff3204" stroke="none" /><path d="M 120.78858239683441 97.02765380044208 l 2.7432607783542493 -0.3922307251782196 a23.771159439626416,23.771159439626416 0 0,0 0.05442916442339632,0.40556049595593124 l -2.7496059418354815 0.344951887157624" fill="#ff1302" stroke="none" /><path d="M 120.83666639777658 97.38593545837742 l 4.559034807077816 -0.5719538339624681 a25.594771981320882,25.594771981320882 0 0,0 0.051079421842418635,0.43761729266861327 l -4.5682045819238235 0.4933928029690021" fill="#ff2d04" stroke="none" /><path d="M 120.91429891909075 98.10471618934814 l 10.794490543591639 -0.9782122389399849 a31.838723415610406,31.838723415610406 0 0,0 0.04476451158924936,0.5462404257388362 l -10.809729539000383 0.7922578959933798" fill="#ff840c" stroke="none" /><path d="M 120.94382443527127 98.46500227214037 l 52.38785131880962 -3.8395677441983636 a73.5283661107405,73.5283661107405 0 0,0 0.08164943057683009,1.2630805521301878 l -52.446181340390865 2.937228127815141" fill="#40ffc5" stroke="none" /><path d="M 120.98425023603335 99.18683210126433 l 5.029433422548986 -0.19489730450422746 a26.033208272181454,26.033208272181454 0 0,0 0.013497977427016198,0.44793215747817233 l -5.032043094431647 0.10829499960105603" fill="#ff3304" stroke="none" /><line stroke="#e1ed5e" stroke-width="0.3" x1="184.98032266829074" x2="189.97916517819016" y1="98.17113171792111" y2="98.06355123074" /><path d="M 185.9800911702706 98.14961562048488 a86.0,86.0 0 0,1 -9.607161424134198,41.387399972396054" fill="none" id="id136" stroke="none" /><text fill="#e1ed5e" style="font-size:6.75px; font-family:Arial;" text-anchor="middle"><textPath startOffset="21.466115282336823" xlink:href="#id136">April</textPath></text><path d="M 120.99980553446 99.90962569577887 l 6.56498470294477 -0.028252924712916995 a27.565045496997996,27.565045496997996 0 0,0 -0.00204204838069774,0.47450012762137983 l -6.564498357274569 -0.08475668111214756" fill="#ff4906" stroke="none" /><path d="M 120.99824983174949 100.27111621757518 l 9.796284497090047 0.1264834745953776 a30.797101000667112,30.797101000667112 0 0,0 -0.011406567669842046,0.5300183783705495 l -9.792655866735199 -0.2950916687560419" fill="#ff760a" stroke="none" /><path d="M 120.9904718944345 100.63252640178507 l 11.119399321489277 0.3350717257908721 a32.12444669779853,32.12444669779853 0 0,0 -0.021413035100208956,0.5525752892538383 l -11.111984153537865 -0.5264242620587166" fill="#ff880c" stroke="none" /><path d="M 120.95626037817324 101.35467743843564 l 5.798523151790634 0.37483445749504607 a26.810625750500336,26.810625750500336 0 0,0 -0.03373471412813063,0.4602833719231815 l -5.7912118789981655 -0.47459096591499783" fill="#ff3e05" stroke="none" /><path d="M 120.92983693683757 101.71520430193887 l 5.759042203012523 0.4719546545663204 a26.77834823215477,26.77834823215477 0 0,0 -0.04160259152891025,0.45908113083348573 l -5.750065015206538 -0.5710171739483767" fill="#ff3e05" stroke="none" /><path d="M 120.70491114924044 103.5080841355445 l 10.446612504788426 1.7699953085562254 a31.595498865910606,31.595498865910606 0 0,0 -0.0954688956719122,0.5354402670289262 l -10.414597166777325 -1.94955432631837" fill="#ff810b" stroke="none" /><path d="M 120.5718875245553 104.21870165774334 l 7.748424080296144 1.5889786230566298 a28.909673115410275,28.909673115410275 0 0,0 -0.10416562887807822,0.4866271395949257 l -7.719924412693622 -1.7221195820677244" fill="#ff5c08" stroke="none" /><path d="M 120.41448212921028 104.9243191809786 l 6.326043535445178 1.5259489476211092 a27.507483922615076,27.507483922615076 0 0,0 -0.11499266002933911,0.45933851523261066 l -6.298839561120778 -1.6346153022511158" fill="#ff4806" stroke="none" /><path d="M 120.13307415673323 105.97154293290107 l 5.400488290440194 1.6018044454581142 a26.633032154769847,26.633032154769847 0 0,0 -0.13414579852180733,0.4383962311932239 l -5.372115719412254 -1.6945276492033954" fill="#ff3c05" stroke="none" /><path d="M 119.9155931802556 106.66101706037122 l 6.841759569047766 2.288311314652007 a28.214294329553034,28.214294329553034 0 0,0 -0.158012367220088,0.45925790309114256 l -6.801356370884448 -2.4057419208324498" fill="#ff5207" stroke="none" /><path d="M 119.67450827220406 107.3425965602758 l 5.189912155696006 1.9368937009919984 a26.539561841227485,26.539561841227485 0 0,0 -0.16341510300726658,0.42662526781775123 l -5.155802773095232 -2.0259425356428933" fill="#ff3a05" stroke="none" /><path d="M 119.54520255179757 107.68017299344265 l 2.417523807236669 0.9499518363208834 a23.597466044029353,23.597466044029353 0 0,0 -0.1518074272713484,0.3767735848509897 l -2.4008137657079285 -0.9914247890146867" fill="#ff1001" stroke="none" /><path d="M 118.81262510543309 109.33194174019688 l 5.115929618398096 2.537740314192032 a26.710767178118747,26.710767178118747 0 0,0 -0.2078623382513062,0.4101321132749666 l -5.071488610360521 -2.6254266391696928" fill="#ff3d05" stroke="none" /><line stroke="#e1ed5e" stroke-width="0.3" x1="174.80103733775053" x2="179.2010983576182" y1="140.37084112569926" y2="142.7455964860345" /><path d="M 175.68104954172406 140.8457921977663 a86.0,86.0 0 0,1 -30.038265399797805,32.042727171017184" fill="none" id="id137" stroke="none" /><text fill="#e1ed5e" style="font-size:6.75px; font-family:Arial;" text-anchor="middle"><textPath startOffset="22.206326154141568" xlink:href="#id137">May</textPath></text><path d="M 118.30583269289576 110.29060199501025 l 10.216076122906316 5.74295499665282 a32.71963068712475,32.71963068712475 0 0,0 -0.28021715551003484,0.48858223020607533 l -10.1157069712439 -5.91795707271721" fill="#ff900d" stroke="none" /><path d="M 117.35343817320211 111.8261652097733 l 2.1053621844097052 1.4347797117050523 a23.54777211474316,23.54777211474316 0 0,0 -0.23114839914694765,0.3329865088334203 l -2.0803528781006215 -1.470807482725492" fill="#ff0f01" stroke="none" /><path d="M 116.498646956653 112.99209946851258 l 4.020906272097887 3.166321115780727 a26.117936757838557,26.117936757838557 0 0,0 -0.2811808416681628,0.35081633351189384 l -3.9658075183748704 -3.2350652828708713" fill="#ff3405" stroke="none" /><path d="M 116.0416608686014 113.55231037782055 l 2.243529542672293 1.8953778510314307 a23.93698519012675,23.93698519012675 0 0,0 -0.2686157075403193,0.3124607532211947 l -2.2105713255611947 -1.9337157034141534" fill="#ff1502" stroke="none" /><path d="M 115.07121518719521 114.62390073753431 l 7.305704701698683 7.088871006642573 a31.17965683789193,31.17965683789193 0 0,0 -0.37706505531113954,0.3819649102842128 l -7.182599021332007 -7.21357641090745" fill="#ff7b0b" stroke="none" /><path d="M 114.55890576462653 115.13401014063108 l 1.3867459721134001 1.4415250667694575 a23.000264709806537,23.000264709806537 0 0,0 -0.28768311137104224,0.2720223380757649 l -1.3617270263515502 -1.465182041591144" fill="#ff0701" stroke="none" /><path d="M 114.0293411484842 115.62618273729858 l 3.0338417476629758 3.3791583683991493 a25.541245096731153,25.541245096731153 0 0,0 -0.3296737999883857,0.29089879797429 l -2.975225594768002 -3.430880308145728" fill="#ff2c04" stroke="none" /><path d="M 113.48314897796784 116.09983520530334 l 8.340217224883729 9.958810298430617 a33.98988552368245,33.98988552368245 0 0,0 -0.4517901131907689,0.3717925054416948 l -8.167556983148268 -10.10089792272949" fill="#ffa10e" stroke="none" /><path d="M 112.92097659922987 116.55440617244103 l 2.319921266643102 2.972292275367391 a24.77048485657105,24.77048485657105 0 0,0 -0.338378118411295,0.25945391201459506 l -2.2684144197383134 -3.011785529209358" fill="#ff2103" stroke="none" /><path d="M 112.34349029814194 116.9893568818739 l 2.173508306320988 2.991577536814128 a24.697793195463642,24.697793195463642 0 0,0 -0.34608979046974864,0.24692587624630416 l -2.121691188002355 -3.028547674904652" fill="#ff2003" stroke="none" /><path d="M 112.04921762599082 117.19931262002967 l 2.0454121649312387 2.9196653553322474 a24.564850166777852,24.564850166777852 0 0,0 -0.34840340487834287,0.23963503878718317 l -1.9948518754300126 -2.954441183484525" fill="#ff1e03" stroke="none" /><path d="M 111.45004920935366 117.60387380957326 l 34.35014762806101 52.81162142871979 a84.0,84.0 0 0,0 -1.2188727918122781,0.7779422847047646 l -33.4359930342018 -53.39507814224836" fill="#4dd2ff" stroke="none" /><line stroke="#e1ed5e" stroke-width="0.3" x1="143.8653032363475" x2="146.44561519142675" y1="172.8068346515853" y2="177.08958963109032" /><path d="M 144.38136562736335 173.6633856474863 a86.0,86.0 0 0,1 -40.68145358897372,12.25698825130547" fill="none" id="id138" stroke="none" /><text fill="#e1ed5e" style="font-size:6.75px; font-family:Arial;" text-anchor="middle"><textPath startOffset="21.466115282336833" xlink:href="#id138">June</textPath></text><line stroke="#e1ed5e" stroke-width="0.3" x1="102.19456741930631" x2="102.32365962044197" y1="184.97166512339345" y2="189.96999836594603" /><path d="M 102.22038585953345 185.97133177190398 a86.0,86.0 0 0,1 -42.740103519485714,-10.115201625700543" fill="none" id="id139" stroke="none" /><text fill="#e1ed5e" style="font-size:6.75px; font-family:Arial;" text-anchor="middle"><textPath startOffset="22.20632615414155" xlink:href="#id139">July</textPath></text><line stroke="#e1ed5e" stroke-width="0.3" x1="58.666819895761336" x2="56.23545636021788" y1="174.27360380694188" y2="178.64263932499728" /><path d="M 58.180547188652646 175.14741091055294 a86.0,86.0 0 0,1 -31.652253787137756,-30.449443065178592" fill="none" id="id140" stroke="none" /><text fill="#e1ed5e" style="font-size:6.75px; font-family:Arial;" text-anchor="middle"><textPath startOffset="22.20632615414155" xlink:href="#id140">August</textPath></text><line stroke="#e1ed5e" stroke-width="0.3" x1="26.63291911575756" x2="22.317208475507996" y1="142.92168965132927" y2="145.44649492493687" /><path d="M 25.769776987707644 143.4266507060508 a86.0,86.0 0 0,1 -11.730757126820373,-40.83630448921669" fill="none" id="id141" stroke="none" /><text fill="#e1ed5e" style="font-size:6.75px; font-family:Arial;" text-anchor="middle"><textPath startOffset="21.46611528233685" xlink:href="#id141">September</textPath></text><line stroke="#e1ed5e" stroke-width="0.3" x1="15.007084014347285" x2="10.007500721073583" y1="101.09737516637583" y2="101.16192664675087" /><path d="M 14.007167355692545 101.11028546245083 a86.0,86.0 0 0,1 10.666146001902534,-42.60595125391555" fill="none" id="id142" stroke="none" /><text fill="#e1ed5e" style="font-size:6.75px; font-family:Arial;" text-anchor="middle"><textPath startOffset="22.20632615414155" xlink:href="#id142">October</textPath></text><line stroke="#e1ed5e" stroke-width="0.3" x1="26.266209847984243" x2="21.928928074336255" y1="57.711370442889674" y2="55.22380399835377" /><path d="M 25.398753493254645 57.213857153982495 a86.0,86.0 0 0,1 29.58750427330803,-30.492523968695096" fill="none" id="id143" stroke="none" /><text fill="#e1ed5e" style="font-size:6.75px; font-family:Arial;" text-anchor="middle"><textPath startOffset="21.46611528233685" xlink:href="#id143">November</textPath></text><line stroke="#e1ed5e" stroke-width="0.3" x1="56.762969772571076" x2="54.21961505331055" y1="26.818313649435495" y2="22.513508569990535" /><path d="M 56.25429882871897 25.957352633546506 a86.0,86.0 0 0,1 42.265352541879196,-11.944610805530505" fill="none" id="id144" stroke="none" /><text fill="#e1ed5e" style="font-size:6.75px; font-family:Arial;" text-anchor="middle"><textPath startOffset="22.20632615414155" xlink:href="#id144">December</textPath></text></svg>