<?xml version="1.0" encoding="utf-8" ?>
<svg baseProfile="full" height="200mm" version="1.1" viewBox="0,0,200,200" width="200mm" xmlns="http://www.w3.org/2000/svg" xmlns:ev="http://www.w3.org/2001/xml-events" xmlns:xlink="http://www.w3.org/1999/xlink"><defs /><rect fill="#1a1a1a" height="200" width="200" x="0" y="0" /><text alignment-baseline="middle" fill="#e1ed5e" style="dominant-baseline: central; font-size:9.0px; font-family:Arial;" text-anchor="middle" x="100.0" y="100.0">2026</text><line stroke="#e1ed5e" stroke-width="0.3" x1="100.0" x2="100.0" y1="15.0" y2="10.0" /><path d="M 100.0 14.0 a86.0,86.0 0 0,1 42.46469731375804,11.215312516191453" fill="none" id="id133" stroke="none" /><text fill="#e1ed5e" style="font-size:6.75px; font-family:Arial;" text-anchor="middle"><textPath startOffset="22.20632615414155" xlink:href="#id133">January</textPath></text><path d="M 100.0 79.0 l 0.0 -4.077191221671608 a25.077191221671608,25.077191221671608 0 0,0 0.4316626238866045,0.0037154564845460402 l -0.07018214461407611 4.076587141795621" fill="#ff2103" stroke="none" /><path d="M 100.36148047927253 79.00311137660856 l 0.06981286719849389 -4.055137361764019 a25.055738263152705,25.055738263152705 0 0,0 0.4311655449443901,0.011135733963649381 l -0.13960504733775178 4.05333483565801" fill="#ff2103" stroke="none" /><path d="M 100.72285384407766 79.0124445844662 l 0.2583920416611504 -7.502232073229017 a28.506680526556327,28.506680526556327 0 0,0 0.490259476681635,0.021111604354115025 l -0.3874923507321169 7.496672742350707" fill="#ff5207" stroke="none" /><path d="M 101.80526077348638 79.07773832637324 l 0.15464234784035458 -1.79224393221123 a22.798903157008056,22.798903157008056 0 0,0 0.39070249410048113,0.03710190957342546 l -0.18546996903107993 1.7893164781226263" fill="#ff0000" stroke="none" /><path d="M 102.16513564639614 79.11191278185805 l 0.3989371308766699 -3.848735111898195 a24.869355604742232,24.869355604742232 0 0,0 0.425423837880021,0.04780132508504713 l -0.4651276722664162 3.8412978333425474" fill="#ff1e03" stroke="none" /><path d="M 102.88285421437855 79.19881850522331 l 0.9619416946098776 -6.94087258286366 a28.007213714121853,28.007213714121853 0 0,0 0.4769642093301873,0.0702921260007989 l -1.0812748843687208 6.923285972701892" fill="#ff4b07" stroke="none" /><path d="M 103.59715602781102 79.31037775812273 l 4.268423210890922 -24.55052355778251 a45.91882107300637,45.91882107300637 0 0,0 0.7775693717506664,0.14209583258908967 l -4.69038770374449 24.47341224384268" fill="#cbff1d" stroke="none" /><path d="M 108.09893153111575 80.62456947434976 l 3.9558172916331107 -9.46367589499107 a31.257175629295745,31.257175629295745 0 0,0 0.49463176891503335,0.211775509670769 l -4.118132818338459 9.39418085735751" fill="#ff780b" stroke="none" /><path d="M 109.41281617654863 81.2277094730956 l 1.8297218749358655 -3.649074833236851 a25.08211088509136,25.08211088509136 0 0,0 0.3842812441149553,0.19684377880017853 l -1.8922636066395764 3.6170385291241716" fill="#ff2103" stroke="none" /><line stroke="#e1ed5e" stroke-width="0.3" x1="143.23703022742887" x2="145.7803849466894" y1="26.81831364943548" y2="22.513508569990506" /><path d="M 143.74570117128098 25.957352633546492 a86.0,86.0 0 0,1 28.547481713284135,27.462654790039103" fill="none" id="id134" stroke="none" /><text fill="#e1ed5e" style="font-size:6.75px; font-family:Arial;" text-anchor="middle"><textPath startOffset="19.985693538727396" xlink:href="#id134">February</textPath></text><path d="M 111.60114157652 82.49532879139004 l 3.5800053816350594 -5.401780222854076 a27.48040647710878,27.48040647710878 0 0,0 0.39204765601627867,0.26471232740521783 l -3.6724577320578797 5.339355983150188" fill="#ff4406" stroke="none" /><path d="M 112.19680574252982 82.90503203632743 l 2.1461447864964205 -3.00802334193358 a24.695151129551135,24.695151129551135 0 0,0 0.34391488624705974,0.2498687908726134 l -2.197604989097269 2.970635316244292" fill="#ff1c02" stroke="none" /><path d="M 112.48926042617603 83.11751280151076 l 7.886426651949323 -10.660558948255074 a34.26058982194223,34.26058982194223 0 0,0 0.4710893850282008,0.35481475809605956 l -8.068762190735907 10.523227600653168" fill="#ffa10e" stroke="none" /><path d="M 112.77801427241765 83.33499621200491 l 20.00905409331846 -26.09567927773654 a53.88383679979927,53.88383679979927 0 0,0 0.7311971090973837,0.5707109417068699 l -20.455283757575277 25.747389946806447" fill="#72ff27" stroke="none" /><path d="M 113.6212207817346 84.01681056812373 l 4.0870933729438095 -4.795810056402901 a27.301121038057943,27.301121038057943 0 0,0 0.35505264092328165,0.30789815146184785 l -4.169039812513855 4.7247469115213825" fill="#ff4106" stroke="none" /><path d="M 115.4437574822437 85.77008943001954 l 4.78555198337389 -4.409417645265283 a27.507263000367406,27.507263000367406 0 0,0 0.31784820458506563,0.35097592622818613 l -4.860743828574991 4.326388931767548" fill="#ff4406" stroke="none" /><path d="M 115.9244219780498 86.31012108654704 l 4.674270039143574 -4.0183681977820305 a27.164096314284947,27.164096314284947 0 0,0 0.3017664459207807,0.35719628993346475 l -4.7427470985514715 3.937312958219459" fill="#ff3f05" stroke="none" /><path d="M 116.38621287248628 86.86637796730983 l 6.7758471519340215 -5.430871436694507 a29.683689837176168,29.683689837176168 0 0,0 0.31612552880947,0.4014473185379489 l -6.868326761337456 5.31343172420352" fill="#ff6309" stroke="none" /><path d="M 117.04232023915458 87.72973835380427 l 3.048436630531859 -2.194837002448488 a24.75636464652801,24.75636464652801 0 0,0 0.24601623244112872,0.34797251389418776 l -3.085765482776871 2.1420379882225067" fill="#ff1d02" stroke="none" /><path d="M 117.45458315368197 88.32363383020206 l 2.9997086666116317 -2.0066762113814915 a24.60901669459554,24.60901669459554 0 0,0 0.23250055774955963,0.354114300398982 l -3.033805859719116 1.9547438470048355" fill="#ff1b02" stroke="none" /><line stroke="#e1ed5e" stroke-width="0.3" x1="172.23445277983987" x2="176.4835382374775" y1="55.19839476539836" y2="52.563006222186495" /><path d="M 173.08426987136738 54.67131705675599 a86.0,86.0 0 0,1 12.851231095245387,41.99856678651699" fill="none" id="id135" stroke="none" /><text fill="#e1ed5e" style="font-size:6.75px; font-family:Arial;" text-anchor="middle"><textPath startOffset="22.20632615414155" xlink:href="#id135">March</textPath></text><path d="M 118.21658344932153 89.55222093294921 l 2.1758429363491136 -1.2479138224146675 a23.508302492091797,23.508302492091797 0 0,0 0.19830076917429126,0.352754941366624 l -2.197001346815838 1.2102753711132497" fill="#ff0a01" stroke="none" /><path d="M 118.3937258080291 89.86733742301442 l 4.490215543198031 -2.473552094448494 a26.12645058381798,26.12645058381798 0 0,0 0.21360476006716947,0.3957771794636803 l -4.532128402483665 2.395893931652355" fill="#ff3104" stroke="none" /><path d="M 118.56541770881063 90.18545643968196 l 4.829593000293148 -2.553147557649046 a26.462923301640785,26.462923301640785 0 0,0 0.20942324874952606,0.4045390585028109 l -4.87282568220279 2.4696357768858905" fill="#ff3505" stroke="none" /><path d="M 119.04729006885535 91.15688171328212 l 15.767302882124302 -7.3203129655237165 a38.383751669011495,38.383751669011495 0 0,0 0.2730687412192657,0.6016707746433487 l -15.890973940306916 7.047820182038305" fill="#ffd714" stroke="none" /><path d="M 119.47837535516314 92.15188598940014 l 3.8217862558708693 -1.539851949319154 a25.120339089369402,25.120339089369402 0 0,0 0.15814623127492794,0.4024649087606505 l -3.8477260370274977 1.473838035662719" fill="#ff2203" stroke="none" /><path d="M 119.7369772167798 92.82701384747503 l 2.6045499812933897 -0.9465685015582536 a23.77122220927836,23.77122220927836 0 0,0 0.1364546477482828,0.3857756643648781 l -2.620457709851482 0.9015952107667609" fill="#ff0e01" stroke="none" /><path d="M 119.97218684219823 93.5106431181261 l 5.138711942350723 -1.6696687233370051 a26.403161488623837,26.403161488623837 0 0,0 0.13672376300334896,0.4334516918580689 l -5.166691189122278 1.580966865052517" fill="#ff3505" stroke="none" /><path d="M 120.28053869075195 94.5502522615342 l 2.4359981415576177 -0.654596781934311 a23.522416280591077,23.522416280591077 0 0,0 0.10171055626435148,0.39193226363365397 l -2.446905029692272 0.6125680927518067" fill="#ff0b01" stroke="none" /><path d="M 120.37134235888165 94.90015583598534 l 3.9900293040767933 -0.9988800591617253 a25.11316121978977,25.11316121978977 0 0,0 0.10137011205715062,0.420244558683448 l -4.006632216394763 0.9300502688188711" fill="#ff2203" stroke="none" /><path d="M 120.53481517161879 95.60439243477599 l 2.593195652850097 -0.5550899939692686 a23.651940533904455,23.651940533904455 0 0,0 0.0817914559308936,0.3988441867633771 l -2.6023664046959873 0.5103701510424797" fill="#ff0d01" stroke="none" /><path d="M 120.6074358757038 95.95851677861258 l 4.128472827108033 -0.8096666543741556 a25.20711872608497,25.20711872608497 0 0,0 0.07983967878017961,0.4265067565419975 l -4.141798229798072 0.7384818203695954" fill="#ff2303" stroke="none" /><path d="M 120.67395015179393 96.31383870115 l 5.80066126852463 -1.0342567781570375 a26.892143772458844,26.892143772458844 0 0,0 0.07733173819758651,0.4564162963408604 l -5.817604868242439 0.9342546935003392" fill="#ff3c05" stroke="none" /><path d="M 120.78858239683441 97.02765380044208 l 3.290135251341469 -0.470422697597961 a24.32359556603013,24.32359556603013 0 0,0 0.05569408533875258,0.4149856260164692 l -3.2977453357380573 0.4137187295168275" fill="#ff1602" stroke="none" /><path d="M 120.83666639777658 97.38593545837742 l 5.467887431343016 -0.6859739643085488 a26.51074888209834,26.51074888209834 0 0,0 0.05290743463139244,0.4532785898959438 l -5.4788852189779975 0.5917516360877524" fill="#ff3605" stroke="none" /><path d="M 120.91429891909075 98.10471618934814 l 12.94639362687549 -1.1732207874750187 a33.99944440959558,33.99944440959558 0 0,0 0.04780243552589063,0.5833107925450198 l -12.964670546220876 0.95019607772223" fill="#ff9e0e" stroke="none" /><path d="M 120.94382443527127 98.46500227214037 l 62.831473305813795 -4.6049931835789 a84.0,84.0 0 0,0 0.09327763598233796,1.442963742987859 l -62.90143153280055 3.5227703763380056" fill="#4dd2ff" stroke="none" /><path d="M 120.98425023603335 99.18683210126433 l 6.032060943083451 -0.23375046842082783 a27.036588316471462,27.036588316471462 0 0,0 0.014018220688889435,0.4651964985962679 l -6.035190858227986 0.12988382239956084" fill="#ff3e05" stroke="none" /><line stroke="#e1ed5e" stroke-width="0.3" x1="184.98032266829074" x2="189.97916517819016" y1="98.17113171792111" y2="98.06355123074" /><path d="M 185.9800911702706 98.14961562048488 a86.0,86.0 0 0,1 -9.607161424134198,41.387399972396054" fill="none" id="id136" stroke="none" /><text fill="#e1ed5e" style="font-size:6.75px; font-family:Arial;" text-anchor="middle"><textPath startOffset="21.466115282336823" xlink:href="#id136">April</textPath></text><path d="M 120.99980553446 99.90962569577887 l 7.873727414509336 -0.033885201248432265 a28.87380032797756,28.87380032797756 0 0,0 -0.002139002353932546,0.4970288165144394 l -7.8731441148659 -0.10165309346969184" fill="#ff5808" stroke="none" /><path d="M 120.99824983174949 100.27111621757518 l 11.749193226676065 0.15169820593143238 a32.75017250185943,32.75017250185943 0 0,0 -0.01212994232260263,0.5636307560382159 l -11.744841221668455 -0.35391877775976305" fill="#ff8d0d" stroke="none" /><path d="M 120.9904718944345 100.63252640178507 l 13.336073613578256 0.4018689384002879 a34.34212719435807,34.34212719435807 0 0,0 -0.022891263527319346,0.5907217965971994 l -13.327180217199732 -0.6313679820114935" fill="#ffa20f" stroke="none" /><path d="M 120.95626037817324 101.35467743843564 l 6.954470234095391 0.4495584494747766 a27.968985509843808,27.968985509843808 0 0,0 -0.035192230849397495,0.48017002958244137 l -6.945701444581656 -0.5692016155539883" fill="#ff4b07" stroke="none" /><path d="M 120.92983693683757 101.71520430193887 l 6.907118679931738 0.5660397503130911 a27.930273404245785,27.930273404245785 0 0,0 -0.04339221170977067,0.47882944040263603 l -6.896351871944892 -0.6848505792642976" fill="#ff4a06" stroke="none" /><path d="M 120.70491114924044 103.5080841355445 l 12.529165411583236 2.1228473812407764 a33.70773256387049,33.70773256387049 0 0,0 -0.10185121675508393,0.5712357130848004 l -12.490767752488964 -2.338201845058795" fill="#ff9a0e" stroke="none" /><path d="M 120.5718875245553 104.21870165774334 l 9.293087777174259 1.9057446607329185 a30.486482127015137,30.486482127015137 0 0,0 -0.10984709409765168,0.5131690536436099 l -9.258906644352164 -2.0654275337926973" fill="#ff6e0a" stroke="none" /><path d="M 120.41448212921028 104.9243191809786 l 7.587152851715225 1.8301498945818753 a28.804763739661087,28.804763739661087 0 0,0 -0.12041582622600641,0.481001368392119 l -7.554525711194158 -1.9604791023713901" fill="#ff5708" stroke="none" /><path d="M 120.13307415673323 105.97154293290107 l 6.477086334276159 1.9211273362494197 a27.755988278834693,27.755988278834693 0 0,0 -0.13980192678734746,0.4568807856264003 l -6.4430576349826785 -2.032335094427877" fill="#ff4806" stroke="none" /><path d="M 119.9155931802556 106.66101706037122 l 8.205677898705407 2.744490710393508 a29.652478202037763,29.652478202037763 0 0,0 -0.16606682484836302,0.4826679271669529 l -8.157220242913812 -2.8853313406497616" fill="#ff6209" stroke="none" /><path d="M 119.67450827220406 107.3425965602758 l 6.224531429733425 2.323017298981731 a27.643884473040423,27.643884473040423 0 0,0 -0.17021487602954116,0.4443773294897916 l -6.183622274110377 -2.4298181953046663" fill="#ff4606" stroke="none" /><path d="M 119.54520255179757 107.68017299344265 l 2.899461969458983 1.1393266175849837 a24.115276047780775,24.115276047780775 0 0,0 -0.15513860716745256,0.3850413001650453 l -2.879420748034138 -1.1890672855928424" fill="#ff1302" stroke="none" /><path d="M 118.81262510543309 109.33194174019688 l 6.135800327000433 3.043643875330966 a27.84921993314993,27.84921993314993 0 0,0 -0.21672174128048155,0.42761255594331277 l -6.082499915933682 -3.148810642976973" fill="#ff4906" stroke="none" /><line stroke="#e1ed5e" stroke-width="0.3" x1="174.80103733775053" x2="179.2010983576182" y1="140.37084112569926" y2="142.7455964860345" /><path d="M 175.68104954172406 140.8457921977663 a86.0,86.0 0 0,1 -30.038265399797805,32.042727171017184" fill="none" id="id137" stroke="none" /><text fill="#e1ed5e" style="font-size:6.75px; font-family:Arial;" text-anchor="middle"><textPath startOffset="22.206326154141568" xlink:href="#id137">May</textPath></text><path d="M 118.30583269289576 110.29060199501025 l 12.252671145076757 6.8878244571012655 a35.05596229154158,35.05596229154158 0 0,0 -0.30022594481386705,0.5234692409031763 l -12.13229320411051 -7.097713543862757" fill="#ffab0f" stroke="none" /><line stroke="#e1ed5e" stroke-width="0.3" x1="143.8653032363475" x2="146.44561519142675" y1="172.8068346515853" y2="177.08958963109032" /><path d="M 144.38136562736335 173.6633856474863 a86.0,86.0 0 0,1 -40.68145358897372,12.25698825130547" fill="none" id="id138" stroke="none" /><text fill="#e1ed5e" style="font-size:6.75px; font-family:Arial;" text-anchor="middle"><textPath startOffset="21.466115282336833" xlink:href="#id138">June</textPath></text><line stroke="#e1ed5e" stroke-width="0.3" x1="102.19456741930631" x2="102.32365962044197" y1="184.97166512339345" y2="189.96999836594603" /><path d="M 102.22038585953345 185.97133177190398 a86.0,86.0 0 0,1 -42.740103519485714,-10.115201625700543" fill="none" id="id139" stroke="none" /><text fill="#e1ed5e" style="font-size:6.75px; font-family:Arial;" text-anchor="middle"><textPath startOffset="22.20632615414155" xlink:href="#id139">July</textPath></text><line stroke="#e1ed5e" stroke-width="0.3" x1="58.666819895761336" x2="56.23545636021788" y1="174.27360380694188" y2="178.64263932499728" /><path d="M 58.180547188652646 175.14741091055294 a86.0,86.0 0 0,1 -31.652253787137756,-30.449443065178592" fill="none" id="id140" stroke="none" /><text fill="#e1ed5e" style="font-size:6.75px; font-family:Arial;" text-anchor="middle"><textPath startOffset="22.20632615414155" xlink:href="#id140">August</textPath></text><line stroke="#e1ed5e" stroke-width="0.3" x1="26.63291911575756" x2="22.317208475507996" y1="142.92168965132927" y2="145.44649492493687" /><path d="M 25.769776987707644 143.4266507060508 a86.0,86.0 0 0,1 -11.730757126820373,-40.83630448921669" fill="none" id="id141" stroke="none" /><text fill="#e1ed5e" style="font-size:6.75px; font-family:Arial;" text-anchor="middle"><textPath startOffset="21.46611528233685" xlink:href="#id141">September</textPath></text><line stroke="#e1ed5e" stroke-width="0.3" x1="15.007084014347285" x2="10.007500721073583" y1="101.09737516637583" y2="101.16192664675087" /><path d="M 14.007167355692545 101.11028546245083 a86.0,86.0 0 0,1 10.666146001902534,-42.60595125391555" fill="none" id="id142" stroke="none" /><text fill="#e1ed5e" style="font-size:6.75px; font-family:Arial;" text-anchor="middle"><textPath startOffset="22.20632615414155" xlink:href="#id142">October</textPath></text><line stroke="#e1ed5e" stroke-width="0.3" x1="26.266209847984243" x2="21.928928074336255" y1="57.711370442889674" y2="55.22380399835377" /><path d="M 25.398753493254645 57.213857153982495 a86.0,86.0 0 0,1 29.58750427330803,-30.492523968695096" fill="none" id="id143" stroke="none" /><text fill="#e1ed5e" style="font-size:6.75px; font-family:Arial;" text-anchor="middle"><textPath startOffset="21.46611528233685" xlink:href="#id143">November</textPath></text><line stroke="#e1ed5e" stroke-width="0.3" x1="56.762969772571076" x2="54.21961505331055" y1="26.818313649435495" y2="22.513508569990535" /><path d="M 56.25429882871897 25.957352633546506 a86.0,86.0 0 0,1 42.265352541879196,-11.944610805530505" fill="none" id="id144" stroke="none" /><text fill="#e1ed5e" style="font-size:6.75px; font-family:Arial;" text-anchor="middle"><textPath startOffset="22.20632615414155" xlink:href="#id144">December</textPath></text></svg>