<?xml version="1.0" encoding="utf-8" ?>
<svg baseProfile="full" height="200mm" version="1.1" viewBox="0,0,200,200" width="200mm" xmlns="http://www.w3.org/2000/svg" xmlns:ev="http://www.w3.org/2001/xml-events" xmlns:xlink="http://www.w3.org/1999/xlink"><defs /><rect fill="#1a1a1a" height="200" width="200" x="0" y="0" /><text alignment-baseline="middle" fill="#e1ed5e" style="dominant-baseline: central; font-size:9.0px; font-family:Arial;" text-anchor="middle" x="100.0" y="100.0">2024</text><line stroke="#e1ed5e" stroke-width="0.3" x1="100.0" x2="100.0" y1="15.0" y2="10.0" /><path d="M 100.0 14.0 a86.0,86.0 0 0,1 42.35913384403234,11.155469271406648" fill="none" id="id109" stroke="none" /><text fill="#e1ed5e" style="font-size:6.75px; font-family:Arial;" text-anchor="middle"><textPath startOffset="22.145653131862478" xlink:href="#id109">January</textPath></text><path d="M 100.0 79.0 l 0.0 -20.874327824845473 a41.87432782484547,41.87432782484547 0 0,0 0.7188285196980156,0.006170278305446542 l -0.35833559484916083 20.87125194473446" fill="#ffce13" stroke="none" /><path d="M 102.15924093988457 79.11130261209362 l 1.5843897194201344 -15.327533292901695 a36.40920399073275,36.40920399073275 0 0,0 0.6211481257701211,0.06960094308354894 l -1.8472737467910523 15.298076589311174" fill="#ff7e0b" stroke="none" /><path d="M 102.87502721639298 79.19773525538626 l 2.975837879959469 -21.53168048740497 a42.73634918056612,42.73634918056612 0 0,0 0.7258563252710308,0.1066758835794982 l -3.345019310838182 21.47742353052659" fill="#ffda14" stroke="none" /><path d="M 103.23170211078529 79.25015418208739 l 3.389735606897085 -21.764534228531147 a43.02692120269126,43.02692120269126 0 0,0 0.7288401831504818,0.11993037478119471 l -3.7628532931006373 21.703137855254287" fill="#ffde14" stroke="none" /><path d="M 103.94208987418118 79.37332000966035 l 3.53617301026127 -18.50275143417064 a39.8376306947876,39.8376306947876 0 0,0 0.6706067837489164,0.13414013818812537 l -3.853276279541143 18.439321899319655" fill="#ffb110" stroke="none" /><path d="M 104.9986988182912 79.60360301121754 l 5.55762352479478 -22.677000524840846 a44.34809482692291,44.34809482692291 0 0,0 0.7378566470507206,0.18756027431432015 l -5.946085465070895 22.57825501869126" fill="#fff016" stroke="none" /><path d="M 105.69591212413111 79.78721728523813 l 5.613617440065986 -19.920747913076426 a41.69659146284121,41.69659146284121 0 0,0 0.6872789358417692,0.20005688171300634 l -5.9547563882893595 19.821447337060903" fill="#ffcb12" stroke="none" /><path d="M 106.38641147887787 79.99465700312896 l 9.098633966714496 -28.501341310235585 a50.91841567568029,50.91841567568029 0 0,0 0.830399981139108,0.27296896763985473 l -9.586556685501346 28.340951421193708" fill="#b7ff1f" stroke="none" /><path d="M 107.40779381753099 80.34994680014964 l 16.189472436230798 -42.944499062134625 a66.89476023971754,66.89476023971754 0 0,0 1.0710416136399177,0.41430190475032264 l -16.92428631236424 42.66025726924626" fill="#35ff68" stroke="none" /><path d="M 108.07796709384702 80.6158196554323 l 8.389080461756857 -20.130739170706466 a42.80879021295877,42.80879021295877 0 0,0 0.675899681381167,0.28850138250219864 l -8.733415218308453 19.983763138544866" fill="#ffdb14" stroke="none" /><path d="M 109.06512990194946 81.05736502329252 l 24.877396054709987 -51.984189717349025 a78.63020748732592,78.63020748732592 0 0,0 1.2125517520555986,0.5931198236735572 l -25.766108056027655 51.54947614357825" fill="#46fff4" stroke="none" /><path d="M 109.3889696526874 81.21577127319529 l 8.335137655268095 -16.675858797897384 a39.64292858913748,39.64292858913748 0 0,0 0.606107867691646,0.30948299593289386 l -8.62017274467332 16.530317850291656" fill="#ffae10" stroke="none" /><path d="M 109.71004243097381 81.37971332152246 l 4.324032454086866 -8.291902375761653 a30.351625616605823,30.351625616605823 0 0,0 0.4599155585839588,0.24487913009909962 l -4.465736828457384 8.216452777939981" fill="#ff2103" stroke="none" /><line stroke="#e1ed5e" stroke-width="0.3" x1="143.13028292997686" x2="145.6673583964461" y1="26.7553504044142" y2="22.446841604673864" /><path d="M 143.63769802327073 25.89364864446614 a86.0,86.0 0 0,1 29.32050498858742,28.57503671076993" fill="none" id="id110" stroke="none" /><text fill="#e1ed5e" style="font-size:6.75px; font-family:Arial;" text-anchor="middle"><textPath startOffset="20.669276256404974" xlink:href="#id110">February</textPath></text><path d="M 110.65571695917076 81.90426304109057 l 13.808177083736535 -23.449303444034296 a48.21278351044276,48.21278351044276 0 0,0 0.7095710522983683,0.4260770292728945 l -14.208680892592337 23.20881241422548" fill="#daff1c" stroke="none" /><path d="M 110.96478420261332 82.08984904055464 l 11.400718997855334 -18.622217685701443 a42.834912072223034,42.834912072223034 0 0,0 0.6238310786583043,0.38931673142987233 l -11.718714205303352 18.423765157430026" fill="#ffdb14" stroke="none" /><path d="M 111.27062007382361 82.28071324371311 l 29.568865032399515 -46.48716708887187 a76.09423275854698,76.09423275854698 0 0,0 1.0961713672304743,0.7105250366720536 l -30.362522031886996 45.97272821049592" fill="#42ffd8" stroke="none" /><path d="M 111.8722381534696 82.67804972795209 l 16.474987483667817 -24.03749909963735 a50.141492335707134,50.141492335707134 0 0,0 0.7058129176337277,0.49271223270193687 l -16.885195492475304 23.751142051130287" fill="#c1ff1e" stroke="none" /><path d="M 112.45986205192187 83.09580414077388 l 12.133801423724002 -16.461831995318892 a41.450453531217136,41.450453531217136 0 0,0 0.5691483040009349,0.4270994978777387 l -12.414602716635702 16.25111347017714" fill="#ffc812" stroke="none" /><path d="M 113.03279911837588 83.53348406188908 l 20.03036189744487 -25.30770791712382 a53.27530755486403,53.27530755486403 0 0,0 0.7122381692911761,0.5737286524863537 l -20.461850837091305 24.960130970844062" fill="#9aff23" stroke="none" /><path d="M 113.31354834802062 83.75963576809568 l 36.39460714763811 -44.3955030397728 a78.40669054722966,78.40669054722966 0 0,0 1.0335706817571089,0.8622414229369061 l -37.151352163557114 43.76419943292402" fill="#45fff1" stroke="none" /><path d="M 113.86319453409587 84.22622945171908 l 14.095253205884257 -16.037810718353278 a42.35152302707509,42.35152302707509 0 0,0 0.5419683526033436,0.4846314428406102 l -14.368486585310977 15.793483745629281" fill="#ffd513" stroke="none" /><path d="M 114.39649973595853 84.71141617570332 l 16.360509144585947 -17.37429375561482 a44.8648767643262,44.8648767643262 0 0,0 0.556169611429341,0.5327979066837136 l -16.6563512418806 17.090883718625523" fill="#fff717" stroke="none" /><path d="M 114.91283532996326 85.21462403516908 l 16.13930578737788 -16.001363831752407 a43.727094749980765,43.727094749980765 0 0,0 0.5239197231630573,0.5375877907737527 l -16.411612311691748 15.721953348910914" fill="#ffe815" stroke="none" /><path d="M 115.41159269507618 85.73525988315684 l 42.13585913314794 -39.00032216179046 a78.4147694727753,78.4147694727753 0 0,0 0.9058858743833069,0.9957272637950729 l -42.799142708373125 38.27125732243771" fill="#45fff1" stroke="none" /><path d="M 116.1254893667686 86.54754324733833 l 11.184351906340629 -9.330384145529141 a35.56522556873071,35.56522556873071 0 0,0 0.3870735918204331,0.47216684473526 l -11.342872317399689 9.137015019095386" fill="#ff720a" stroke="none" /><path d="M 116.57777611688842 87.10902102172516 l 17.031722966127912 -13.243970793916457 a42.57503996717135,42.57503996717135 0 0,0 0.44368872908937196,0.5808027889775333 l -17.25656367257159 12.949647091698042" fill="#ffd814" stroke="none" /><path d="M 116.7966241395341 87.39550010848427 l 33.102076511114824 -24.8404153315099 a62.385911892691354,62.385911892691354 0 0,0 0.6354390742984793,0.8620951438936613 l -33.52361760499713 24.26851387834736" fill="#31ff2f" stroke="none" /><path d="M 117.01052211995028 87.68569379921539 l 12.061050754471248 -8.731270624525504 a35.889729078147575,35.889729078147575 0 0,0 0.3569915486797744,0.5021533204945655 l -12.209157401680983 8.522940077321433" fill="#ff770a" stroke="none" /><path d="M 117.42321728460499 88.27688183743584 l 13.336087491132457 -8.973114834708557 a37.073830265621396,37.073830265621396 0 0,0 0.3507459061609601,0.5310740062353008 l -13.488157836214143 8.742860950134197" fill="#ff880c" stroke="none" /><path d="M 117.62189284568427 88.57770195909679 l 18.262614992820698 -11.837606395691681 a42.76354822990314,42.76354822990314 0 0,0 0.39399952503758323,0.6194326949407437 l -18.463132209484172 11.522360026072267" fill="#ffda14" stroke="none" /><path d="M 117.81537515405839 88.88188828441811 l 27.307003608233703 -17.041589868792567 a53.18832445648922,53.18832445648922 0 0,0 0.47674983712626057,0.7787350298045262 l -27.595521409815365 16.570317722863486" fill="#9bff22" stroke="none" /><line stroke="#e1ed5e" stroke-width="0.3" x1="172.87174338648825" x2="177.1583165268699" y1="56.24261187166439" y2="53.66864786411523" /><path d="M 173.72905801456457 55.72781907015455 a86.0,86.0 0 0,1 12.242430191666344,42.057860355516425" fill="none" id="id111" stroke="none" /><text fill="#e1ed5e" style="font-size:6.75px; font-family:Arial;" text-anchor="middle"><textPath startOffset="22.145653131862474" xlink:href="#id111">March</textPath></text><path d="M 118.18653347947321 89.5 l 52.06462901178306 -30.059527575210957 a81.1190551504219,81.1190551504219 0 0,0 0.6859065550336112,1.2119311604476732 l -52.57296893183805 29.161339644664164" fill="#49f0ff" stroke="none" /><path d="M 118.36410011445183 89.81374322990088 l 11.972593845723273 -6.640995984370134 a34.69108582469159,34.69108582469159 0 0,0 0.2843919881720938,0.523249226499465 l -12.084831183510708 6.434491924396066" fill="#ff6409" stroke="none" /><path d="M 118.53625476483649 90.13048839642627 l 23.18366945299304 -12.343998158343766 a47.26512554393824,47.26512554393824 0 0,0 0.3751769070028923,0.7194511881074955 l -23.39215442897088 11.944200727131772" fill="#e7ff1a" stroke="none" /><path d="M 118.8641267826498 90.77261029715802 l 23.53980020380526 -11.514495874112164 a47.20507219738225,47.20507219738225 0 0,0 0.34981373159107404,0.7309761579858515 l -23.733993193356245 11.108707214061209" fill="#e7ff1a" stroke="none" /><path d="M 119.16976305983485 91.42560881287824 l 20.814182638554207 -9.309919148510305 a43.80142086500072,43.80142086500072 0 0,0 0.30111624249623964,0.6890128909248221 l -20.97093276306742 8.951244187809634" fill="#ffe915" stroke="none" /><path d="M 119.31412917781788 91.75594674310238 l 43.43165128933139 -18.53838932979047 a68.2226663019039,68.2226663019039 0 0,0 0.45051050632789763,1.081061212595698 l -43.74348764019577 17.790095607753493" fill="#37ff79" stroke="none" /><path d="M 119.4528033332814 92.08871423366111 l 25.366508098820038 -10.316338011836729 a48.38405673201051,48.38405673201051 0 0,0 0.3062971720222707,0.7720689616179938 l -25.539863945808435 9.87936803300517" fill="#d8ff1c" stroke="none" /><path d="M 119.71291397450082 92.76114493625339 l 7.515768592760823 -2.7598943315041824 a29.006484513255423,29.006484513255423 0 0,0 0.16762962038817486,0.4688898824061197 l -7.562038383192942 2.630469492717146" fill="#ff0b01" stroke="none" /><path d="M 120.05942366710727 93.78553927170692 l 16.287660032237444 -5.0459587127671925 a38.051380256644805,38.051380256644805 0 0,0 0.18794424710288182,0.6256052730518961 l -16.371880599343953 4.7656158361245735" fill="#ff970d" stroke="none" /><path d="M 120.16314734710363 94.1308016681162 l 14.400056450593253 -4.191646564096303 a35.99771738294107,35.99771738294107 0 0,0 0.16761481369414322,0.5948058423552054 l -14.469889756361978 3.9438327978380854" fill="#ff780b" stroke="none" /><path d="M 120.26092885502905 94.47779374421319 l 42.07731283242314 -11.468358721975907 a64.61219447555376,64.61219447555376 0 0,0 0.2824799581498252,1.0726224118778191 l -42.2679822713777 10.74435580572529" fill="#32ff4b" stroke="none" /><path d="M 120.35273937422433 94.82641323984039 l 16.17974137974687 -4.1128269883451605 a37.69429174752716,37.69429174752716 0 0,0 0.15403049576532657,0.6284969857580852 l -16.247959402028485 3.83447417797898" fill="#ff920d" stroke="none" /><path d="M 120.51834098615036 95.52812308129327 l 8.756399488053852 -1.9084165132080773 a29.9619521077874,29.9619521077874 0 0,0 0.10521252079042528,0.5034799993434654 l -8.787869719668643 1.7578200625792075" fill="#ff1a02" stroke="none" /><path d="M 120.86939407059847 97.66154086499901 l 8.636986366369754 -0.9677923373813179 a29.691038804490002,29.691038804490002 0 0,0 0.05240837015316468,0.507003440191053 l -8.652327129004586 0.8193843749073334" fill="#ff1602" stroke="none" /><path d="M 120.9064616781168 98.02013634271609 l 18.729058993744967 -1.7736613592368669 a39.81285532311428,39.81285532311428 0 0,0 0.058593863242687075,0.6809495083781184 l -18.756746479685397 1.4518908034830864" fill="#ffb010" stroke="none" /><path d="M 120.93736805541906 98.37931529534042 l 30.20453988718258 -2.3380224141289347 a51.29489360610749,51.29489360610749 0 0,0 0.060420594298784686,0.8785021806066838 l -30.24022444264643 1.8191768093679168" fill="#b3ff20" stroke="none" /><path d="M 120.98066250479742 99.09900007780936 l 62.04578349625768 -2.6645129099046696 a83.10296996691487,83.10296996691487 0 0,0 0.04897263165867146,1.425784736914072 l -62.08238081491319 1.5990219084264778" fill="#4cdbff" stroke="none" /><line stroke="#e1ed5e" stroke-width="0.3" x1="184.99686870605535" x2="189.99668451229388" y1="99.2704041080226" y2="99.22748670261217" /><path d="M 185.99683186730306 99.26182062694052 a86.0,86.0 0 0,1 -10.086455211305974,41.156179273409016" fill="none" id="id112" stroke="none" /><text fill="#e1ed5e" style="font-size:6.75px; font-family:Arial;" text-anchor="middle"><textPath startOffset="21.40746469413373" xlink:href="#id112">April</textPath></text><path d="M 120.99922638620191 99.81974689727618 l 24.67913116998906 -0.21184065946552508 a45.68004035188209,45.68004035188209 0 0,0 0.0,0.7841875243787009 l -24.67913116998906 -0.21184065946552208" fill="#fcff18" stroke="none" /><path d="M 120.99303781780057 100.54070618675476 l 24.16143929881255 0.6223129698118238 a45.16945225739713,45.16945225739713 0 0,0 -0.02661838618411045,0.7749652705433655 l -24.147196225631593 -1.0369845049193" fill="#fffb17" stroke="none" /><path d="M 120.96210409425399 101.26102812881392 l 7.3076420625919445 0.43960960000948396 a28.32085303194809,28.32085303194809 0 0,0 -0.033359320020796376,0.48503719173802523 l -7.299018781406081 -0.5649902159018527" fill="#ff0000" stroke="none" /><path d="M 120.93736805541906 101.62068470465957 l 62.812104166257186 4.86205411397871 a84.0,84.0 0 0,0 -0.12362550920903681,1.4367158104973705 l -62.7193850343504 -5.939590971851738" fill="#4dd2ff" stroke="none" /><line stroke="#e1ed5e" stroke-width="0.3" x1="174.33088141563837" x2="178.70328620479359" y1="141.23008692659167" y2="143.65538615756765" /><path d="M 175.20536237346943 141.71514677278685 a86.0,86.0 0 0,1 -30.301960400862466,31.631185727798858" fill="none" id="id113" stroke="none" /><text fill="#e1ed5e" style="font-size:6.75px; font-family:Arial;" text-anchor="middle"><textPath startOffset="22.145653131862474" xlink:href="#id113">May</textPath></text><line stroke="#e1ed5e" stroke-width="0.3" x1="143.1302829299769" x2="145.66735839644613" y1="173.24464959558577" y2="177.55315839532614" /><path d="M 143.63769802327073 174.10635135553383 a86.0,86.0 0 0,1 -40.68552437913181,11.842963189579606" fill="none" id="id114" stroke="none" /><text fill="#e1ed5e" style="font-size:6.75px; font-family:Arial;" text-anchor="middle"><textPath startOffset="21.407464694133747" xlink:href="#id114">June</textPath></text><line stroke="#e1ed5e" stroke-width="0.3" x1="101.45913802915013" x2="101.54496967792366" y1="184.9874750549273" y2="189.98673829345242" /><path d="M 101.47630435890484 185.9873277026323 a86.0,86.0 0 0,1 -42.54439059252881,-10.42667462771756" fill="none" id="id115" stroke="none" /><text fill="#e1ed5e" style="font-size:6.75px; font-family:Arial;" text-anchor="middle"><textPath startOffset="22.145653131862474" xlink:href="#id115">July</textPath></text><line stroke="#e1ed5e" stroke-width="0.3" x1="58.13341422392154" x2="55.67067388415222" y1="173.97424548756322" y2="178.32567169271397" /><path d="M 57.64086615596768 174.84453072859336 a86.0,86.0 0 0,1 -31.369924170532247,-30.572349798747897" fill="none" id="id116" stroke="none" /><text fill="#e1ed5e" style="font-size:6.75px; font-family:Arial;" text-anchor="middle"><textPath startOffset="22.145653131862474" xlink:href="#id116">August</textPath></text><line stroke="#e1ed5e" stroke-width="0.3" x1="26.387840678322732" x2="22.057713659400548" y1="142.50000000000003" y2="145.00000000000006" /><path d="M 25.521815274538298 143.00000000000003 a86.0,86.0 0 0,1 -11.493303480769221,-40.785679425670985" fill="none" id="id117" stroke="none" /><text fill="#e1ed5e" style="font-size:6.75px; font-family:Arial;" text-anchor="middle"><textPath startOffset="21.40746469413373" xlink:href="#id117">September</textPath></text><line stroke="#e1ed5e" stroke-width="0.3" x1="15.003131293944662" x2="10.003315487706104" y1="100.72959589197737" y2="100.7725132973878" /><path d="M 14.003168132696942 100.73817937305945 a86.0,86.0 0 0,1 10.791469493833604,-42.45332614584628" fill="none" id="id118" stroke="none" /><text fill="#e1ed5e" style="font-size:6.75px; font-family:Arial;" text-anchor="middle"><textPath startOffset="22.145653131862435" xlink:href="#id118">October</textPath></text><line stroke="#e1ed5e" stroke-width="0.3" x1="26.387840678322718" x2="22.05771365940052" y1="57.49999999999999" y2="54.99999999999999" /><path d="M 25.521815274538284 56.99999999999999 a86.0,86.0 0 0,1 29.574782752854787,-30.34633250058573" fill="none" id="id119" stroke="none" /><text fill="#e1ed5e" style="font-size:6.75px; font-family:Arial;" text-anchor="middle"><textPath startOffset="21.40746469413373" xlink:href="#id119">November</textPath></text><line stroke="#e1ed5e" stroke-width="0.3" x1="56.869717070023135" x2="54.33264160355391" y1="26.7553504044142" y2="22.446841604673864" /><path d="M 56.362301976729285 25.89364864446614 a86.0,86.0 0 0,1 42.16139366436587,-11.88097634709845" fill="none" id="id120" stroke="none" /><text fill="#e1ed5e" style="font-size:6.75px; font-family:Arial;" text-anchor="middle"><textPath startOffset="22.145653131862474" xlink:href="#id120">December</textPath></text></svg>