<?xml version="1.0" encoding="utf-8" ?>
<svg baseProfile="full" height="200mm" version="1.1" viewBox="0,0,200,200" width="200mm" xmlns="http://www.w3.org/2000/svg" xmlns:ev="http://www.w3.org/2001/xml-events" xmlns:xlink="http://www.w3.org/1999/xlink"><defs /><rect fill="#1a1a1a" height="200" width="200" x="0" y="0" /><text alignment-baseline="middle" fill="#e1ed5e" style="dominant-baseline: central; font-size:9.0px; font-family:Arial;" text-anchor="middle" x="100.0" y="100.0">2025</text><line stroke="#e1ed5e" stroke-width="0.3" x1="100.0" x2="100.0" y1="15.0" y2="10.0" /><path d="M 100.0 14.0 a86.0,86.0 0 0,1 42.46469731375804,11.215312516191453" fill="none" id="id121" stroke="none" /><text fill="#e1ed5e" style="font-size:6.75px; font-family:Arial;" text-anchor="middle"><textPath startOffset="22.20632615414155" xlink:href="#id121">January</textPath></text><path d="M 100.0 79.0 l 0.0 -43.79985365853659 a64.79985365853659,64.79985365853659 0 0,0 1.1154229598703576,0.00960079756720041 l -0.7539424805978292 43.79336423757795" fill="#33ff54" stroke="none" /><path d="M 100.36148047927253 79.00311137660856 l 0.6736232814228842 -39.1279580093073 a60.13375609756097,60.13375609756097 0 0,0 1.0347970371117496,0.026725754519961183 l -1.3470469537295018 39.110565462644985" fill="#43ff2d" stroke="none" /><path d="M 100.72285384407766 79.0124445844662 l 2.1685615322329816 -62.9626662466014 a84.0,84.0 0 0,0 1.4446366704426739,0.062209093903220936 l -3.2520390350649873 62.916009426173986" fill="#4dd2ff" stroke="none" /><path d="M 101.80526077348638 79.07773832637324 l 2.919635039734344 -33.837420715037005 a54.963146341463414,54.963146341463414 0 0,0 0.9418978716359264,0.0894445522834327 l -3.5016580384605147 33.78215061823839" fill="#7cff26" stroke="none" /><path d="M 102.16513564639614 79.11191278185805 l 1.6406447381032936 -15.828075455932538 a36.91287804878049,36.91287804878049 0 0,0 0.6314445173527103,0.07095014890928635 l -1.9128559589657292 15.79748935355265" fill="#ff990e" stroke="none" /><path d="M 102.88285421437855 79.19881850522331 l 4.196521660408673 -30.279924759823327 a51.56934146341463,51.56934146341463 0 0,0 0.8782283888658938,0.1294280353956381 l -4.717119029703222 30.20320224026672" fill="#a4ff21" stroke="none" /><path d="M 103.2404852339499 79.25152402106235 l 2.9953938995479867 -19.179182710384342 a40.41168292682927,40.41168292682927 0 0,0 0.6863650967036314,0.11325612195918423 l -3.3250882023904933 19.124780325485535" fill="#ffca12" stroke="none" /><path d="M 104.307194497241 79.44645832069477 l 8.462691705359665 -40.38319764678321 a62.26039024390244,62.26039024390244 0 0,0 1.0470338005559454,0.2288410347672771 l -9.156568230069139 40.23154311392006" fill="#30ff33" stroke="none" /><path d="M 104.66035177308747 79.52364482259891 l 4.934630525001136 -21.6814635930857 a43.235926829268294,43.235926829268294 0 0,0 0.7242559490837196,0.17140798337689891 l -5.307110161047379 21.593309697567932" fill="#fff016" stroke="none" /><path d="M 105.01212808612495 79.60689891045804 l 3.528171431552493 -14.355250988909035 a35.782463414634144,35.782463414634144 0 0,0 0.5968704226237918,0.15215556060113958 l -3.77475074286131 14.292392432139026" fill="#ff890c" stroke="none" /><path d="M 106.0581310904928 79.89281104454417 l 17.597540984227543 -58.40697014241383 a82.00039024390244,82.00039024390244 0 0,0 1.3479873407440208,0.41882622843531675 l -18.60031369768228 58.095403779095996" fill="#4ae6ff" stroke="none" /><path d="M 106.74666289553966 80.11325718540242 l 19.05356333352528 -56.16307196346961 a80.30707317073171,80.30707317073171 0 0,0 1.3052499654370568,0.4553760836860876 l -20.017495303025612 55.826775026611315" fill="#48f7ff" stroke="none" /><path d="M 107.4271985657038 80.35727306442388 l 14.313117392033874 -37.85393025935951 a61.46956097560975,61.46956097560975 0 0,0 0.986489375659999,0.3827425517240901 l -14.96258993269354 37.601945003744866" fill="#34ff2f" stroke="none" /><path d="M 108.43124777332544 80.76684994638697 l 24.57873238076038 -56.06838521604853 a82.2190975609756,82.2190975609756 0 0,0 1.291301360911147,0.5793692801096305 l -25.540215860138307 55.63699560542237" fill="#4be4ff" stroke="none" /><path d="M 109.41281617654863 81.2277094730956 l 7.4310740000616065 -14.820036579874186 a37.578731707317075,37.578731707317075 0 0,0 0.5757410865021508,0.29491694641152344 l -7.685075574152513 14.689927108150162" fill="#ffa20f" stroke="none" /><line stroke="#e1ed5e" stroke-width="0.3" x1="143.23703022742887" x2="145.7803849466894" y1="26.81831364943548" y2="22.513508569990506" /><path d="M 143.74570117128098 25.957352633546492 a86.0,86.0 0 0,1 28.547481713284135,27.462654790039103" fill="none" id="id122" stroke="none" /><text fill="#e1ed5e" style="font-size:6.75px; font-family:Arial;" text-anchor="middle"><textPath startOffset="19.985693538727396" xlink:href="#id122">February</textPath></text><path d="M 111.2981086023043 82.29822771554956 l 3.444545305580577 -5.396881794039768 a27.402439024390244,27.402439024390244 0 0,0 0.3954210761107564,0.25719286725525004 l -3.5369334074756136 5.33679000262499" fill="#ff0a01" stroke="none" /><path d="M 111.60114157652 82.49532879139004 l 4.1028427526717115 -6.1906764030449875 a28.426829268292682,28.426829268292682 0 0,0 0.405549742937486,0.27382899676643435 l -4.208797190015739 6.119135493979884" fill="#ff1a02" stroke="none" /><path d="M 111.90073688211348 82.69761687909136 l 10.074699425396984 -14.64752233521019 a38.777780487804876,38.777780487804876 0 0,0 0.5467092037380822,0.38300473510207805 l -10.325339768718719 14.471932757344177" fill="#ffb310" stroke="none" /><path d="M 112.19680574252982 82.90503203632743 l 6.172773637987653 -8.651721591370876 a31.628048780487806,31.628048780487806 0 0,0 0.4404652857354524,0.3200167621968373 l -6.320784240076894 8.544185594357364" fill="#ff4b07" stroke="none" /><path d="M 113.34407831869373 83.78471172551755 l 3.66148490451962 -4.449316904583599 a26.76219512195122,26.76219512195122 0 0,0 0.3531876510703931,0.2957845006383643 l -3.73753009254913 4.385631246551415" fill="#ff0000" stroke="none" /><line stroke="#e1ed5e" stroke-width="0.3" x1="172.23445277983987" x2="176.4835382374775" y1="55.19839476539836" y2="52.563006222186495" /><path d="M 173.08426987136738 54.67131705675599 a86.0,86.0 0 0,1 12.851231095245387,41.99856678651699" fill="none" id="id123" stroke="none" /><text fill="#e1ed5e" style="font-size:6.75px; font-family:Arial;" text-anchor="middle"><textPath startOffset="22.20632615414155" xlink:href="#id123">March</textPath></text><line stroke="#e1ed5e" stroke-width="0.3" x1="184.98032266829074" x2="189.97916517819016" y1="98.17113171792111" y2="98.06355123074" /><path d="M 185.9800911702706 98.14961562048488 a86.0,86.0 0 0,1 -9.607161424134198,41.387399972396054" fill="none" id="id124" stroke="none" /><text fill="#e1ed5e" style="font-size:6.75px; font-family:Arial;" text-anchor="middle"><textPath startOffset="21.466115282336823" xlink:href="#id124">April</textPath></text><line stroke="#e1ed5e" stroke-width="0.3" x1="174.80103733775053" x2="179.2010983576182" y1="140.37084112569926" y2="142.7455964860345" /><path d="M 175.68104954172406 140.8457921977663 a86.0,86.0 0 0,1 -30.038265399797805,32.042727171017184" fill="none" id="id125" stroke="none" /><text fill="#e1ed5e" style="font-size:6.75px; font-family:Arial;" text-anchor="middle"><textPath startOffset="22.206326154141568" xlink:href="#id125">May</textPath></text><line stroke="#e1ed5e" stroke-width="0.3" x1="143.8653032363475" x2="146.44561519142675" y1="172.8068346515853" y2="177.08958963109032" /><path d="M 144.38136562736335 173.6633856474863 a86.0,86.0 0 0,1 -40.68145358897372,12.25698825130547" fill="none" id="id126" stroke="none" /><text fill="#e1ed5e" style="font-size:6.75px; font-family:Arial;" text-anchor="middle"><textPath startOffset="21.466115282336833" xlink:href="#id126">June</textPath></text><line stroke="#e1ed5e" stroke-width="0.3" x1="102.19456741930631" x2="102.32365962044197" y1="184.97166512339345" y2="189.96999836594603" /><path d="M 102.22038585953345 185.97133177190398 a86.0,86.0 0 0,1 -42.740103519485714,-10.115201625700543" fill="none" id="id127" stroke="none" /><text fill="#e1ed5e" style="font-size:6.75px; font-family:Arial;" text-anchor="middle"><textPath startOffset="22.20632615414155" xlink:href="#id127">July</textPath></text><line stroke="#e1ed5e" stroke-width="0.3" x1="58.666819895761336" x2="56.23545636021788" y1="174.27360380694188" y2="178.64263932499728" /><path d="M 58.180547188652646 175.14741091055294 a86.0,86.0 0 0,1 -31.652253787137756,-30.449443065178592" fill="none" id="id128" stroke="none" /><text fill="#e1ed5e" style="font-size:6.75px; font-family:Arial;" text-anchor="middle"><textPath startOffset="22.20632615414155" xlink:href="#id128">August</textPath></text><line stroke="#e1ed5e" stroke-width="0.3" x1="26.63291911575756" x2="22.317208475507996" y1="142.92168965132927" y2="145.44649492493687" /><path d="M 25.769776987707644 143.4266507060508 a86.0,86.0 0 0,1 -11.730757126820373,-40.83630448921669" fill="none" id="id129" stroke="none" /><text fill="#e1ed5e" style="font-size:6.75px; font-family:Arial;" text-anchor="middle"><textPath startOffset="21.46611528233685" xlink:href="#id129">September</textPath></text><line stroke="#e1ed5e" stroke-width="0.3" x1="15.007084014347285" x2="10.007500721073583" y1="101.09737516637583" y2="101.16192664675087" /><path d="M 14.007167355692545 101.11028546245083 a86.0,86.0 0 0,1 10.666146001902534,-42.60595125391555" fill="none" id="id130" stroke="none" /><text fill="#e1ed5e" style="font-size:6.75px; font-family:Arial;" text-anchor="middle"><textPath startOffset="22.20632615414155" xlink:href="#id130">October</textPath></text><line stroke="#e1ed5e" stroke-width="0.3" x1="26.266209847984243" x2="21.928928074336255" y1="57.711370442889674" y2="55.22380399835377" /><path d="M 25.398753493254645 57.213857153982495 a86.0,86.0 0 0,1 29.58750427330803,-30.492523968695096" fill="none" id="id131" stroke="none" /><text fill="#e1ed5e" style="font-size:6.75px; font-family:Arial;" text-anchor="middle"><textPath startOffset="21.46611528233685" xlink:href="#id131">November</textPath></text><line stroke="#e1ed5e" stroke-width="0.3" x1="56.762969772571076" x2="54.21961505331055" y1="26.818313649435495" y2="22.513508569990535" /><path d="M 56.25429882871897 25.957352633546506 a86.0,86.0 0 0,1 42.265352541879196,-11.944610805530505" fill="none" id="id132" stroke="none" /><text fill="#e1ed5e" style="font-size:6.75px; font-family:Arial;" text-anchor="middle"><textPath startOffset="22.20632615414155" xlink:href="#id132">December</textPath></text></svg>